<svg xmlns="http://www.w3.org/2000/svg" xmlns:xlink="http://www.w3.org/1999/xlink" width="42" height="42" viewBox="0 0 42 42"><defs><style>.a,.b{fill:#fff;}.a{stroke:#707070;}.c{clip-path:url(#a);}.d{fill:#0c0c0c;stroke:#0c0c0c;stroke-linecap:round;stroke-linejoin:bevel;}.e,.h{fill:none;}.e{stroke:#fff;}.f{clip-path:url(#b);}.g{stroke:none;}</style><clipPath id="a"><rect class="a" width="42" height="42" transform="translate(306 304)"/></clipPath><clipPath id="b"><rect class="b" width="11.842" height="8.684" transform="translate(0 0)"/></clipPath></defs><g class="c" transform="translate(-306 -304)"><g transform="translate(98 -330.1)"><path class="d" d="M3.01,23.744A15.036,15.036,0,0,1,0,14.661C0,6.564,6.268,0,14,0S28,6.564,28,14.661a15.033,15.033,0,0,1-3.1,9.2L13.754,40Z" transform="translate(215 635.099)"/><g transform="matrix(0.777, 0.629, -0.629, 0.777, 229.367, 640.081)"><g class="e" transform="translate(1.579 0)"><rect class="g" width="7.895" height="14.211" rx="3.947"/><rect class="h" x="0.5" y="0.5" width="6.895" height="13.211" rx="3.447"/></g><g class="f" transform="translate(0 7.105)"><rect class="b" width="7.895" height="14.211" rx="3.947" transform="translate(1.579 -7.105)"/></g></g></g></g></svg>