<svg xmlns="http://www.w3.org/2000/svg" xmlns:xlink="http://www.w3.org/1999/xlink" width="30" height="30" viewBox="0 0 30 30"><defs><style>.a{fill:#fff;stroke:#707070;}.b{clip-path:url(#a);}</style><clipPath id="a"><rect class="a" width="30" height="30" transform="translate(1191 544)"/></clipPath></defs><g class="b" transform="translate(-1191 -544)"><g transform="translate(1187.538 540.538)"><path d="M27.389,18.671a1.154,1.154,0,1,0-1.623,1.641,10.313,10.313,0,0,1,3.08,7.381c0,1.411-4.045,3.462-10.385,3.462S8.077,29.1,8.077,27.69a10.314,10.314,0,0,1,3.04-7.342,1.154,1.154,0,1,0-1.632-1.632,12.608,12.608,0,0,0-3.716,8.976c0,3.747,6.539,5.769,12.692,5.769s12.692-2.022,12.692-5.769a12.6,12.6,0,0,0-3.765-9.022Z"/><path d="M18.462,19.615a8.077,8.077,0,1,0-8.077-8.077,8.077,8.077,0,0,0,8.077,8.077Zm0-13.846a5.769,5.769,0,1,1-5.769,5.769,5.769,5.769,0,0,1,5.769-5.769Z"/></g></g></svg>