<svg xmlns="http://www.w3.org/2000/svg" xmlns:xlink="http://www.w3.org/1999/xlink" width="30" height="30" viewBox="0 0 30 30"><defs><style>.a{fill:#fff;stroke:#707070;}.b{clip-path:url(#a);}</style><clipPath id="a"><rect class="a" width="30" height="30" transform="translate(1191.5 609)"/></clipPath></defs><g class="b" transform="translate(-1191.5 -609)"><g transform="translate(1191.502 609.005)"><path d="M22.993,30H7a3,3,0,0,1-3-3v-10a3,3,0,0,1,3-3H22.993a3,3,0,0,1,3,3V27A3,3,0,0,1,22.993,30ZM7,16a1,1,0,0,0-1,.994V27a1,1,0,0,0,1,1H22.993a1,1,0,0,0,1-1v-10a1,1,0,0,0-1-1Z"/><path d="M15,24.015a1,1,0,0,1-1-1V20.978a1,1,0,0,1,2,0v2.034a1,1,0,0,1-.994,1Z"/><path d="M21,12a1,1,0,0,1-1-1v-4a5,5,0,1,0-9.992,0v4a1,1,0,1,1-2,0v-4A7,7,0,1,1,22,6.993v4a1,1,0,0,1-1,1Z"/></g></g></svg>