<svg xmlns="http://www.w3.org/2000/svg" width="38.272" height="32.116" viewBox="0 0 38.272 32.116"><defs><style>.a{opacity:0.161;}</style></defs><g class="a" transform="translate(-2.05 -3.71)"><path d="M14.832,11.34a5.152,5.152,0,1,0,5.152,5.152,5.152,5.152,0,0,0-5.152-5.152Z" transform="translate(6.309 6.308)"/><path d="M35.28,9.72H29.8l-2.667-3.8a4.9,4.9,0,0,0-4.11-2.21H19.259a4.9,4.9,0,0,0-4.11,2.21l-2.576,3.8H7.092A4.951,4.951,0,0,0,2.05,14.726V30.874A4.969,4.969,0,0,0,7,35.825H35.28a4.969,4.969,0,0,0,5.042-4.951V14.726A4.951,4.951,0,0,0,35.28,9.72ZM21.14,29.815a6.978,6.978,0,1,1,6.978-6.96,6.978,6.978,0,0,1-6.978,6.96Z" transform="translate(0 0)"/></g></svg>