<svg xmlns="http://www.w3.org/2000/svg" xmlns:xlink="http://www.w3.org/1999/xlink" width="24" height="24" viewBox="0 0 24 24"><defs><style>.a{fill:#fff;stroke:#707070;}.b{clip-path:url(#a);}.c{fill:#363d46;}</style><clipPath id="a"><rect class="a" width="24" height="24" transform="translate(1824 141.516)"/></clipPath></defs><g class="b" transform="translate(-1824 -141.516)"><g transform="translate(1824 145.695)"><path class="c" d="M22.912,11.978H.739a.739.739,0,0,1,0-1.478H22.912a.739.739,0,0,1,0,1.478Z" transform="translate(0 -10.5)"/><path class="c" d="M22.912,29.478H.739A.739.739,0,1,1,.739,28H22.912a.739.739,0,0,1,0,1.478Z" transform="translate(0 -20.609)"/><path class="c" d="M22.912,46.978H.739a.739.739,0,1,1,0-1.478H22.912a.739.739,0,1,1,0,1.478Z" transform="translate(0 -30.718)"/></g></g></svg>