<svg xmlns="http://www.w3.org/2000/svg" width="86.904" height="20" viewBox="0 0 86.904 20"><defs><style>.a{fill:#161615;}.b{fill:#d90013;}</style></defs><g transform="translate(-1995 -1263.167)"><path class="a" d="M55.619,74.982h-4.46l2.273-5.74Zm7.481,8s-7.359-18.534-7.361-18.534l-.128-.319-.033-.086H51.547l-.035.085-.128.315L43.75,82.971l-.272.657-.072.176h4.258l.033-.086.128-.32,2.035-5.136h7.008l1.957,5.129.125.325.033.088h4.441l-.067-.175Z" transform="translate(1951.594 1199.315)"/><path class="a" d="M93.7,75.883a6.813,6.813,0,0,1-1.054,2.631,4.2,4.2,0,0,1-2.229,1.64,7.336,7.336,0,0,1-2.032.23H84.244V67.459h4.114c1.965,0,3.333.535,4.188,1.636a7.987,7.987,0,0,1,1.346,4.965,9.571,9.571,0,0,1-.191,1.824M88.925,64.038H80.162V83.8H88.9c3.7,0,6.34-1.538,7.858-4.573a12.328,12.328,0,0,0,1.257-5.594,10.126,10.126,0,0,0-2.162-6.644,8.58,8.58,0,0,0-6.928-2.954" transform="translate(1938.212 1199.315)"/><path class="a" d="M132.406,64.038H129V71.7h-9.149V64.038h-4.08V83.8h4.08V75.118H129V83.8h4.083V64.038h-.674Z" transform="translate(1925.286 1199.315)"/><path class="a" d="M163.659,78.4a4.809,4.809,0,0,1-4.37,2.008c-2.184,0-3.708-.585-4.655-1.79a7.324,7.324,0,0,1-1.468-4.639,7.186,7.186,0,0,1,1.691-5.2,5.741,5.741,0,0,1,4.33-1.709,5.466,5.466,0,0,1,4.294,1.711,6.689,6.689,0,0,1,1.593,4.67,8.782,8.782,0,0,1-1.415,4.945m3.27-11.355c-1.724-2.169-4.388-3.269-7.92-3.269a9.094,9.094,0,0,0-7.753,3.55,10.71,10.71,0,0,0-2.017,6.52,10.464,10.464,0,0,0,2.368,6.99,9.516,9.516,0,0,0,7.35,2.939,9.4,9.4,0,0,0,7.7-3.338,10.762,10.762,0,0,0,2.279-6.99,10.015,10.015,0,0,0-2-6.4" transform="translate(1912.862 1199.392)"/><path class="b" d="M166.581,84.371h-4.26l6.267,7.154h4.258Z" transform="translate(1909.057 1191.572)"/></g></svg>