<svg xmlns="http://www.w3.org/2000/svg" width="198.002" height="31.031" viewBox="0 0 198.002 31.031"><defs><style>.a{fill:#f8f8f8;}.b{fill:#de1526;}.c{isolation:isolate;}</style></defs><g transform="translate(-709.993 -480.769)"><g transform="translate(709.993 480.769)"><g transform="translate(0 0.262)"><path class="a" d="M727.158,498.057h-6.269l3.194-8.813Zm10.513,12.277s-10.342-28.458-10.346-28.458l-.179-.49-.047-.133h-5.665l-.05.131-.179.484-10.729,28.456-.382,1.009-.1.27h5.983l.047-.132.179-.491,2.86-7.886h9.849l2.751,7.875.176.5.047.135h6.242l-.094-.268Z" transform="translate(-709.993 -481.253)"/></g><g transform="translate(36.631 0.263)"><path class="a" d="M796.642,499.442a11.031,11.031,0,0,1-1.482,4.039A5.963,5.963,0,0,1,792.027,506a9.475,9.475,0,0,1-2.855.354h-5.821V486.506h5.782c2.762,0,4.684.821,5.886,2.512,1.256,1.769,1.891,4.333,1.891,7.623a16.015,16.015,0,0,1-.269,2.8m-6.713-18.188H777.613V511.6h12.281a11.285,11.285,0,0,0,11.043-7.021,20.394,20.394,0,0,0,1.767-8.59,16.508,16.508,0,0,0-3.039-10.2,11.617,11.617,0,0,0-9.737-4.536" transform="translate(-777.613 -481.254)"/></g><g transform="translate(72.117 0.263)"><path class="a" d="M866.5,481.254h-4.791v11.763H848.855V481.254H843.12V511.6h5.735V498.267h12.857V511.6h5.739V481.254H866.5Z" transform="translate(-843.12 -481.254)"/></g><g transform="translate(105.475)"><path class="a" d="M924.965,503.2c-1.257,2.073-3.266,3.08-6.141,3.08-3.07,0-5.212-.9-6.542-2.745a11.943,11.943,0,0,1-2.063-7.116c0-3.531.8-6.213,2.376-7.97a7.729,7.729,0,0,1,6.086-2.621,7.369,7.369,0,0,1,6.035,2.624,10.855,10.855,0,0,1,2.238,7.164,14.387,14.387,0,0,1-1.989,7.585m4.6-17.418c-2.423-3.328-6.167-5.015-11.13-5.015-4.767,0-8.435,1.832-10.9,5.446a17.484,17.484,0,0,0-2.835,10,17,17,0,0,0,3.328,10.722,12.828,12.828,0,0,0,10.33,4.509c4.646,0,8.286-1.722,10.817-5.119a17.518,17.518,0,0,0,3.2-10.722,16.328,16.328,0,0,0-2.816-9.823" transform="translate(-904.699 -480.769)"/></g><g transform="translate(118.512 20.527)"><path class="b" d="M934.753,518.661h-5.988l8.808,10.054h5.985Z" transform="translate(-928.766 -518.661)"/></g></g><g class="c" transform="translate(854.956 502.574)"><g transform="translate(0 0.011)"><path class="a" d="M981.545,525.021c0,2-.794,3.259-1.976,3.259s-1.976-1.263-1.976-3.259c0-2.037.795-3.269,1.976-3.269S981.545,522.984,981.545,525.021Zm-.968,0c0-1.476-.387-2.281-1.008-2.281s-1.008.8-1.008,2.281.387,2.271,1.008,2.271S980.578,526.5,980.578,525.021Zm4.776-3.981v9.185h-1v-4.746h-1.049V529.8h-.988v-8.585h.988v3.412h1.049V521.04Z" transform="translate(-977.594 -521.04)"/></g><g transform="translate(8.871 0.815)"><path class="a" d="M1002.31,528.869v.865h-8.341v-.865Zm-.948-1.965h-6.375v-4.379h6.3v.855h-5.254v2.678h5.326Z" transform="translate(-993.969 -522.524)"/></g><g transform="translate(17.924 0.011)"><path class="a" d="M1015.6,521.213h.978V529.8h-.978v-4.41h-.978c-.081,1.793-.865,2.892-1.965,2.892-1.181,0-1.976-1.263-1.976-3.269s.795-3.259,1.976-3.259c1.11,0,1.844,1.049,1.955,2.77h.988Zm-1.925,3.8c0-1.477-.367-2.271-1.018-2.271s-1.018.795-1.018,2.271.366,2.281,1.018,2.281S1013.676,526.487,1013.676,525.011Zm4.766-3.971v9.185h-1V521.04Z" transform="translate(-1010.682 -521.04)"/></g><g transform="translate(27.1)"><path class="a" d="M1032.356,524.941c0,2-1,3.248-2.373,3.248-1.354,0-2.362-1.252-2.362-3.248,0-1.976,1.008-3.238,2.362-3.238C1031.358,521.7,1032.356,522.965,1032.356,524.941Zm-3.727,0c0,1.477.54,2.312,1.354,2.312s1.365-.835,1.365-2.312c0-1.436-.55-2.291-1.365-2.291S1028.629,523.5,1028.629,524.941Zm6.252-3.921v9.226h-1.059V521.02Z" transform="translate(-1027.621 -521.02)"/></g><g transform="translate(35.859)"><path class="a" d="M1047.16,523.953a3.975,3.975,0,0,0,2.322,3.564l-.56.815a4.324,4.324,0,0,1-2.271-2.556,4.424,4.424,0,0,1-2.281,2.709l-.58-.8a4.131,4.131,0,0,0,2.322-3.727v-.529h-2.037v-.845h2.037v-1.365h1.049v1.365h2v.845h-2Zm4.1-2.933v9.2H1050.2v-9.2Z" transform="translate(-1043.789 -521.02)"/></g><g transform="translate(44.719 0.519)"><path class="a" d="M1068.465,527.193h-2.087v3.483h-1.049v-3.483h-2.108v3.483h-1.049v-3.483h-2.026v-.866h5.978c.122-.57.2-1.08.255-1.538l-5.367.265-.133-.886,5.55-.193c.03-.407.021-.774.021-1.141h-5.286v-.855h6.3v.846a14.82,14.82,0,0,1-.315,3.5h1.313Z" transform="translate(-1060.145 -521.979)"/></g></g></g></svg>