<svg xmlns="http://www.w3.org/2000/svg" xmlns:xlink="http://www.w3.org/1999/xlink" width="257.434" height="71.395" viewBox="0 0 257.434 71.395"><defs><style>.a{isolation:isolate;}.b{fill:url(#a);}</style><linearGradient id="a" x1="0.5" x2="0.5" y2="1" gradientUnits="objectBoundingBox"><stop offset="0" stop-color="#fefefe"/><stop offset="1" stop-color="#cbcbcb"/></linearGradient></defs><g transform="translate(-488.168 -656.681)"><g class="a" transform="translate(488.168 656.681)"><g transform="translate(0 10.812)"><path class="b" d="M562.258,691.564c-3.087,6.649-10.952,14.528-20.52,20.563a82.966,82.966,0,0,1-40.091,12.725h-.474c-2.137,0-6.16-.5-7.823-1.439l-.041-.014-.043-.014c-.041-.027-4.693-1.774-5.028-6.243-.029-.378-.056-.685-.07-.936h.014c.349.643.782,1.452,1.312,2.234l.154.224c1.314,2,3.129,4.736,10.393,4.736a59.1,59.1,0,0,0,12.208-1.62c13.4-2.948,45.287-17.95,47.689-31.6.712-4.093-1.271-7.669-5.908-10.617a56.855,56.855,0,0,0-18.481-7.487l-.419-.084-.2.378-21.359,41.836c-1.019,2.221-2.374,4.161-2.919,4.161-.014,0-.07-.056-.1-.1-.866-1.2.167-3.325.643-4.052l.013-.027.029-.029,12.391-25.507,8.409-16.484.349-.684-.768-.111a60.775,60.775,0,0,0-9.01-.657c-9.736,0-17.769,2.374-19.738,4.609a3.152,3.152,0,0,0-.908,3.828,1.644,1.644,0,0,1,.14,1.257c-.014.029-.056.084-.209.084s-.8-.084-1.886-1.174a2.721,2.721,0,0,1-.893-2.221c.152-1.355,1.425-2.877,3.492-4.176,2.78-1.761,10.868-4.553,20.715-4.553a52.071,52.071,0,0,1,10.547,1.074l.516.113.14-.517c.406-1.509,1.439-4.05,2.445-4.469a3.344,3.344,0,0,1,1.244-.308.653.653,0,0,1,.5.168c.056.07.181.349-.14,1.145a11.735,11.735,0,0,1-.811,1.55c-.573.95-1.047,1.76-.684,2.5a2.27,2.27,0,0,0,1.885.866c3.032.265,17.713,5.853,23.845,13.9C563.919,685.851,563.724,688.394,562.258,691.564Z" transform="translate(-488.168 -664.27)"/></g><g transform="translate(71.274 40.244)"><path class="b" d="M550.705,688.588c-1.02,1.774-6.678,9.751-6.719,9.806-.308.392-3,3.9-2.612,5.908a1.292,1.292,0,0,1-.308,1.006,1.152,1.152,0,0,1-.866.462c-.782,0-1.523-1.034-1.983-2.753a3.152,3.152,0,0,1,.852-2.458c.265-.336.727-.8,1.3-1.369a39.38,39.38,0,0,0,8.731-12.069l.013-.056.014-.043c.029-.084.546-2.026,2.166-2.1h.07c.363,0,.419.113.447.154C552.031,685.459,551.766,686.716,550.705,688.588Z" transform="translate(-538.196 -684.928)"/></g><g transform="translate(82.117 29.53)"><path class="b" d="M560.157,679.881s-.127.111-.615.111a7.517,7.517,0,0,1-1.676-.251,7.521,7.521,0,0,0-1.607-.154,37.771,37.771,0,0,0-7.193,1.076c-.433.1-.768.167-.95.209a8.443,8.443,0,0,1-1.314.14c-.628,0-.838-.154-.908-.238a.564.564,0,0,1-.07-.489,1.389,1.389,0,0,1,1.383-1.257c.657-.043,6.454-.447,8.074-1.174a4.749,4.749,0,0,1,1.9-.447,3,3,0,0,1,2.6,1.537C560.213,679.643,560.157,679.881,560.157,679.881Z" transform="translate(-545.806 -677.408)"/></g><g transform="translate(88.015 39.88)"><path class="b" d="M574.5,688.627a5.692,5.692,0,0,1-1.55.14h-.684c-8.646,0-16.26,8.451-17.909,11.371-1.02,1.8-2.053,2.753-2.989,2.753a1.477,1.477,0,0,1-.628-.14,1.517,1.517,0,0,1-.8-1.453,1.4,1.4,0,0,1,1.02-1.314c2.346-.823,4.315-6.8,3.379-10.336a10.376,10.376,0,0,0-1.3-2.933c-.573-.936-.643-1.034.027-1.663a1.176,1.176,0,0,1,.8-.378c.6,0,1.187.657,1.41.993a28.859,28.859,0,0,1,.685,3.771c.167,1.453.306,2.515,1.173,3.254a1.342,1.342,0,0,0,.922.308c1.439,0,3.87-1.774,6.44-3.66.769-.573,1.552-1.131,2.264-1.634a4.311,4.311,0,0,1,2.416-.573A10.205,10.205,0,0,1,574.5,688.627Z" transform="translate(-549.946 -684.673)"/></g><g transform="translate(100.806 43.697)"><path class="b" d="M580.832,697.995c-1.154.627-6.411,2.906-10.757,2.906-.285,0-.57-.014-.841-.028-2.892-.228-4.63-.983-4.645-2.037,0-.556.427-1.282,2.55-1.51.114,0,9.132-.527,11.412-7.679a2.22,2.22,0,0,0,.014-1.809,1.9,1.9,0,0,0-1.482-.484c-4.2,0-13.378,5.257-14.432,8.292l-.043.128-.086.086a2.272,2.272,0,0,1-1.553.513,4.364,4.364,0,0,1-1.738-.4.586.586,0,0,0-.271-.071.7.7,0,0,0-.014.456,5.363,5.363,0,0,0,2.322,3.149,12.391,12.391,0,0,1,1.225.954,8.725,8.725,0,0,0,6.311,2.564c3.049,0,6.967-1.168,12-3.562a5.909,5.909,0,0,0,1.809-1.14A5.413,5.413,0,0,0,580.832,697.995Zm-5.656-8.249h.014a1.746,1.746,0,0,1,1.2.755.25.25,0,0,1,.057.071,1.369,1.369,0,0,1,.157.613.7.7,0,0,1-.029.242c-.157.969-1.254,1.98-2.935,2.707-3.676,2.166-6.254,1.012-6.254,1.012C570.716,689.019,573.708,689.147,575.176,689.745Z" transform="translate(-558.924 -687.352)"/></g><g transform="translate(125.898 40.621)"><path class="b" d="M603.078,693.211a.9.9,0,0,1-.2.433c-1.02,1.564-9.806,4.931-15.143,6.69a26.718,26.718,0,0,1-4.525.406c-2.375,0-5.393-.392-6.259-2.291-1.62-3.535,1.956-5.9,2.11-5.992l6.8-4.387.041-.014.028-.029c1.285-1.088,3.757-2.835,4.888-2.835.2,0,.406,0,.419.587.1,2.765-3.156,3.1-3.3,3.115l-.127.014-.1.056-.378.209c-4.038,2.208-7.948,4.541-7.739,6.552.084.8.755,1.383,2,1.76a7.563,7.563,0,0,0,2.25.279c5.769,0,15.519-3.995,16.316-4.316a10.635,10.635,0,0,1,2.207-.322A2.192,2.192,0,0,1,603.078,693.211Z" transform="translate(-576.536 -685.193)"/></g><g transform="translate(131.306)"><path class="b" d="M659.241,685.121c0,.014-.084.322-1.076.825-3.032,1.509-5.378,2-38.33,3.171-2.193.07-4.247.14-6.187.2l-.294.014-.168.237a94.668,94.668,0,0,0-5.029,8.41c-3.687,7.612-4.749,12.488-3.254,14.877a3.693,3.693,0,0,0,3.394,1.605c2.264,0,5.421-1.076,9.681-3.311.712-.474,2.878-1.731,4.163-1.731a.977.977,0,0,1,.544.125c.014.014.028.029.043.029-.154.643-2.906,2.221-3.968,2.821q-.44.252-.8.462c-.2.111-.474.293-.823.516-2.207,1.412-7.39,4.694-11.007,4.694a3.188,3.188,0,0,1-3.4-2.57c-1.02-3.6-.53-10.91,7.544-25.241l.489-.852-.977.027c-4.82.112-9.094.182-12.7.182-12.99,0-15.142-.811-16.049-1.145a.98.98,0,0,1-.7-1.061c.07-.42.476-.657,1.09-.657a3.654,3.654,0,0,1,1.187.224c1.566.544,5.2.809,10.771.809,3.114,0,5.685-.084,5.7-.084,3.939-.1,8.186-.2,12.544-.292h.306l.154-.266a260.951,260.951,0,0,1,20.772-28.971l.027-.027.028-.043c.265-.46,1.047-1.41,1.69-1.41a.815.815,0,0,1,.49.2.449.449,0,0,1,.2.378c.041.755-1.049,2.053-1.732,2.683l-.041.041-.043.056c-.1.14-10.714,15.016-18.243,26.415l-.586.88,1.061-.014c23.468-.5,38.987-.909,40.774-1.886a3.788,3.788,0,0,1,1.816-.474A2.317,2.317,0,0,1,659.241,685.121Z" transform="translate(-580.331 -656.681)"/></g><g transform="translate(177.662 45.552)"><path class="b" d="M615.194,693.068c-.336,4.415.14,5.5.376,5.9a1.017,1.017,0,0,1-.251.028,1.735,1.735,0,0,1-1.271-.7c-.671-.8-1.691-2.905-.88-8.1.028-.168.433-1.537,2.459-1.537h.2c.53.029.7.14.727.182s.027.279-.266.725A7.9,7.9,0,0,0,615.194,693.068Z" transform="translate(-612.869 -688.654)"/></g><g transform="translate(176.293 39.88)"><path class="b" d="M622.488,685.931c-.349.558-1.955,1.314-5.126,1.314-.419,0-.852-.014-1.312-.029-2.572-.154-4.038-1.439-4.136-2.11-.014-.083-.027-.222.308-.349a1.144,1.144,0,0,1,.433-.084,1.438,1.438,0,0,1,.754.224,6.125,6.125,0,0,0,3.283.755c.378,0,.784-.014,1.2-.056a18.4,18.4,0,0,1,1.9-.1A5.275,5.275,0,0,1,622.488,685.931Z" transform="translate(-611.908 -684.673)"/></g><g transform="translate(189.558 41.375)"><path class="b" d="M687.9,689.07l-.043.028-.043.014c-.242.085-24.59,9.161-31.472,12.167a9.773,9.773,0,0,1-3.647,1,2.059,2.059,0,0,1-1.852-.84c-.755-1.14-.014-2.935.085-3.149,2.066-3.747,4.331-9.531,2.963-10.728a1.628,1.628,0,0,0-1.111-.356c-1.638,0-3.989,1.439-5.884,2.593a18.287,18.287,0,0,1-2.465,1.382,2.339,2.339,0,0,1-.912.2,2.645,2.645,0,0,1-2.251-1.51,4.143,4.143,0,0,1-.527-2.764c-.1-.256-1.638-1.382-5.2-1.382a18.618,18.618,0,0,0-3.006.256c-10.643,1.7-11.269,9.859-11.3,10.2a3.589,3.589,0,0,0,2.621,3.832,3.637,3.637,0,0,0,1.2.2,6.155,6.155,0,0,0,4.73-2.636,2.825,2.825,0,0,0,.413-2.65,5.073,5.073,0,0,1,.029-4.744c.513-.784,1.61-1.71,3.918-1.71a12.022,12.022,0,0,1,2.337.271c2.536.5,3.861,1.254,4.06,2.322.214,1.154-1.012,2.009-1.154,2.094-3.149,2.336-8.035,6.782-7.551,8.634.214.841.57.841.7.841a3.716,3.716,0,0,0,1.938-1.154c.3-.3,7.052-6.625,11.9-9.275a6.8,6.8,0,0,1,2.864-1.04,1.174,1.174,0,0,1,1.1.556c.47.784-.114,2.023-.242,2.265l-.029.029-.014.028a13.451,13.451,0,0,0-1.752,9.446,2.492,2.492,0,0,0,2.821,2.194c2.778,0,6.411-2.08,6.454-2.109L686.83,690.3a14.951,14.951,0,0,0,2.265-1.738A5.4,5.4,0,0,0,687.9,689.07ZM628.659,694.3c-.655,1.04-1.738,2.265-3.163,2.265a4.014,4.014,0,0,1-.413-.028,1.336,1.336,0,0,1-1.054-.769c-.328-.712-.043-1.767.855-3.248a3.8,3.8,0,0,1,1.824-1.567,2.23,2.23,0,0,1,.912-.214,1.51,1.51,0,0,1,1.5,1.41A2.924,2.924,0,0,1,628.659,694.3Z" transform="translate(-621.219 -685.722)"/></g></g></g></svg>