<svg xmlns="http://www.w3.org/2000/svg" width="330.863" height="114.465" viewBox="0 0 330.863 114.465"><defs><style>.a{fill:#007c84;}.b{fill:#b3a09a;}</style></defs><g transform="translate(-101.113 -122.543)"><g transform="translate(101.113 187.827)"><path class="a" d="M316.082,190.434v.951c.175-.126.361-.257.564-.4C316.443,190.8,316.253,190.609,316.082,190.434Z" transform="translate(14.218 -151.404)"/><path class="a" d="M292.86,167.793c.7-1.023.8-1.832-.378-2.761-.667.421-1.306.765-1.879,1.2-5.839,4.427-11.582,8.969-17.507,13.275-4.193,3.045-8.554,5.882-12.959,8.62-4.559,2.826-9.336,5.307-13.873,8.171a11.851,11.851,0,0,1-6.853,1.71,8.653,8.653,0,0,1,.432-2.458c1.53-3.012,3.065-6.035,4.831-8.91a45.127,45.127,0,0,1,3.7-4.465,20.013,20.013,0,0,0,1.186-1.847c-.787-.077-1.575-.2-2.355-.2-.23,0-.47.329-.678.536-4.689,4.683-7.265,10.619-9.789,16.56a2.352,2.352,0,0,0,2.4,3.247,19.727,19.727,0,0,0,6.018-1.285,51.747,51.747,0,0,0,7.434-4.208q6.329-4.1,12.5-8.445c4.1-2.886,8.107-5.891,12.14-8.866,3.488-2.574,6.953-5.175,10.659-7.93a3.891,3.891,0,0,1-.192.8c-1.4,2.362-2.858,4.7-4.23,7.073-1.421,2.466-.853,5.3,1.421,6.516a17.95,17.95,0,0,0,3.651,1.037,12.264,12.264,0,0,1-1.214,1.579c-4.219,3.963-8.526,7.838-12.675,11.866-2.186,2.12-3.9,4.749-7.477,4.8-.733.006-1.449,1.011-2.176,1.558.109.2.218.4.327.6.75.077,1.5.154,2.5.258-.6.9-1.131,1.678-1.656,2.465-1.59,2.388-.874,3.886,1.979,4.089a3.38,3.38,0,0,0,1.635-.143c2.7-1.317,5.455-2.58,8.024-4.125a2.22,2.22,0,0,0-.34-3.854c-1.028-.564-2.127-.99-3.443-1.59a30.058,30.058,0,0,1,2.127-2.477q3.745-3.549,7.592-7.006c2.667-2.415,5.416-4.745,8.039-7.2a1.9,1.9,0,0,0-.644-3.191c-.651-.295-1.421-.312-2.111-.547-1.218-.421-2.409-.913-3.754-1.426a30.876,30.876,0,0,1,1.721-4.033C288.864,173.733,290.843,170.749,292.86,167.793Zm-16.551,38.7c-2.8,1.169-4.651,3.6-7.9,3.213C270.04,205.248,272.522,204.128,276.309,206.49Z" transform="translate(-28.454 -165.032)"/><path class="a" d="M131.179,196.991c-.36.327-.667.825-1.088.962-3.29,1.049-6.585,2.06-9.9,3.012-3.787,1.088-7.52,2.454-11.559,2.285a1.666,1.666,0,0,1-.547-.006c-1.1-.5-2.191-1.028-3.285-1.547a10.273,10.273,0,0,1,1.727-2.77c2.838-2.334,5.865-4.437,8.735-6.734,1.781-1.42,3.4-3.033,5.1-4.557-.115-.224-.23-.449-.35-.667-1.59.3-3.191.584-4.777.917s-3.17.694-4.749,1.06c-1.689.389-4.056-.409-4.832-1.65-1.126-1.787-.973-3.394.515-5.373,2.2-2.929,4.153-6.072,7.592-7.864-.061-.143-.121-.28-.181-.416-1.951,0-3.9.049-5.848-.015a22.766,22.766,0,0,1-4.537-.427c-.77-.18-1.394-1.016-2.082-1.558a6.179,6.179,0,0,1,1.951-.639c5.771.192,11.533.47,17.3.694.4.017.82-.273,1.218-.241,1.066.077,2.127.252,3.193.389-.006.235-.006.47-.011.705a15.439,15.439,0,0,1-2.733.695,13.173,13.173,0,0,0-9.422,4.241,42.375,42.375,0,0,0-4.084,5.51c-.459.721-.781,2.311-.421,2.606a4.668,4.668,0,0,0,3.144,1c2.4-.272,4.732-1.1,7.132-1.371a9.77,9.77,0,0,1,3.995.644c1.312.432,1.449,1.547.466,2.422q-3.552,3.174-7.292,6.128c-2.541,2-5.186,3.869-7.782,5.8.137.284.273.575.41.859,7.789-.3,15.15-3.045,22.731-4.516C131,196.707,131.087,196.848,131.179,196.991Z" transform="translate(-101.113 -161.83)"/><path class="a" d="M315.549,197.534c-.808,1.154-1.607,1.126-2.815,1.066-3.732-.175-7.487.015-11.232.152-2.12.077-4.236.28-6.346.525-5.919.693-11.828,1.5-17.753,2.153-3.771.416-4.606-1.858-4.634-5.438a18.217,18.217,0,0,1,2.941-9.6c.584-.956,1.278-1.421,2.322-.628.831.628,1.5,1.733,2.789.688,1.344-1.1,2.071-2.886,1.328-4.307a31.36,31.36,0,0,0-2.678-3.715c.6-1.739,1.109-1.853,2.64-.7a9.276,9.276,0,0,1,3.116,4.984c.731,2.345-.765,3.958-2.257,5.345a3.586,3.586,0,0,1-5.057.344,10.176,10.176,0,0,0-2.17,7.194c.207,2.732.355,2.836,3.285,2.629,7.248-.5,14.478-1.154,21.726-1.684,4.258-.306,8.526-.573,12.794-.661C314.2,195.873,314.866,196.944,315.549,197.534Z" transform="translate(-9.019 -158.624)"/><path class="a" d="M148.062,174.771c-1.546,3.721-3.3,7.367-4.854,11.084-2.481,5.925-4.891,11.882-7.274,17.845-.575,1.443-.848,3.007-1.432,4.444a7.741,7.741,0,0,1-1.481,1.744c-.628-.639-1.257-1.278-1.782-1.815.754-2.263,1.351-4.159,2.017-6.029.705-1.988,1.387-3.989,2.251-5.914.93-2.071,2.137-4.023,3.088-6.088,2.465-5.356,4.832-10.762,7.318-16.113.2-.426,1.011-.562,1.541-.836C147.675,173.662,148.233,174.367,148.062,174.771Z" transform="translate(-84.95 -160.707)"/><path class="a" d="M233.793,191.788l-5.16,1.918c-3.1,1.148-6.181,2.389-9.34,3.383a3.548,3.548,0,0,1-2.531-.71c-.235-.158.049-1.383.344-2.007.93-1.956,2.039-3.826,2.935-5.793.3-.656.5-1.8.154-2.176a2.841,2.841,0,0,0-2.268-.579c-1.919.316-3.777,1.011-5.7,1.278-.684.1-1.477-.6-2.22-.94.055-.186.111-.366.164-.552,3.433-.857,6.859-1.967,10.484-1.312,2.12.389,2.815,2.652,1.706,5.166a33.713,33.713,0,0,0-1.973,5.067c1.693-.618,3.377-1.285,5.094-1.842,2.127-.694,4.268-1.355,6.433-1.9.535-.132,1.2.24,1.8.383C233.739,191.378,233.766,191.58,233.793,191.788Z" transform="translate(-42.692 -154.801)"/><path class="a" d="M140.983,188.62c-.421.333-.81.9-1.263.951-3.416.383-6.684.218-9.21-2.657a1.819,1.819,0,0,0-1.759-.06c-1.317,1.607-2.411,3.4-3.7,5.027a2.289,2.289,0,0,1-1.716.793c-.41-.038-1.143-.983-1.039-1.289a8.839,8.839,0,0,1,1.672-3.264c3.614-3.8,7.329-7.5,11.084-11.155.47-.453,1.417-.416,2.143-.6-.181.673-.158,1.515-.569,2-1.8,2.12-3.728,4.132-5.647,6.224.891.651,1.842,1.28,2.717,2.007,1.755,1.46,3.826,1.355,5.908,1.366C140.065,187.958,140.524,188.39,140.983,188.62Z" transform="translate(-89.753 -158.952)"/><path class="a" d="M167.817,189a14.418,14.418,0,0,1-2.552,1.9c-3.411,1.558-6.88,2.99-10.336,4.454-1.163.5-2.366.9-3.492,1.466a1.6,1.6,0,0,1-2.306-.739c-.207-.4.257-1.246.579-1.792.547-.919,1.225-1.761,1.941-2.766-2.3-1.5-4.5-.957-6.662-.416-.754.192-1.415.777-2.17.913-.47.083-1.034-.333-1.558-.524.186-.453.25-1.186.569-1.317,3.125-1.306,6.35-2.22,9.717-1.006,2.062.744,2.186,1.235,1.788,4.6,4.76-1.808,9.433-3.585,14.107-5.367Z" transform="translate(-79.574 -152.49)"/><path class="a" d="M195.677,186.521c-1.371,2.2-3.35,2.143-5.023,2.236a3.522,3.522,0,0,0-3.469,2.257c-1.171,2.438-2.635,4.728-4.039,7.192-.782-.486-1.28-.8-1.81-1.135,1.312-2.6,2.614-5.166,3.9-7.729,1.9-3.777,3.76-7.566,5.694-11.326a4.489,4.489,0,0,1,1.541-1.93c.515-.278,1.394.115,2.11.214-.261.487-.5,1-.8,1.454a19.993,19.993,0,0,0-1.618,2.345c-.957,2.007-1.788,4.073-2.8,6.423Z" transform="translate(-58.074 -159.154)"/><path class="a" d="M180.3,176.934c-1.858,2.929-3.8,5.668-5.395,8.592-1.567,2.879-2.815,5.94-4.164,8.941-.214.476-.154,1.071-.35,1.558a10.8,10.8,0,0,1-.913,1.5c-.464-.519-1.387-1.1-1.323-1.541a16.738,16.738,0,0,1,1.383-5.384c2.428-4.5,5.117-8.849,7.761-13.222C178.237,175.829,179.5,175.825,180.3,176.934Z" transform="translate(-65.148 -159.066)"/><path class="a" d="M255.176,177.126c-.427,2.967-2.657,5.765-5.455,7.58-.367.241-1.116-.109-1.541-.169,1.6-3.279,3.065-6.132,4.382-9.051.739-1.639-.492-4.377-2.377-5.389a37.714,37.714,0,0,0-3.843-1.586c.147-1.311.908-1.841,2.394-1.394C254.247,168.785,256,171.413,255.176,177.126Z" transform="translate(-23.197 -163.997)"/><path class="a" d="M187.141,178.944a17.377,17.377,0,0,1-.71,2.432c-2.329,5.072-5.215,9.751-10.27,12.576-.733.41-1.973-.081-2.979-.152.252-.793.263-1.876.8-2.312,1.853-1.5,4.033-2.6,5.8-4.17A19.2,19.2,0,0,0,183.016,183c.973-1.567,1.738-3.268,2.694-5.1C186.376,178.382,186.765,178.666,187.141,178.944Z" transform="translate(-62.448 -158.131)"/><path class="a" d="M209.205,179.818c-2.088,3.033-4.247,6.1-7.558,8.077-.673.4-1,1.361-1.641,1.847-.383.29-1.082.16-1.639.214.126-.486.109-1.088.4-1.432,2.116-2.531,4.388-4.941,6.427-7.532,1.547-1.962,3.2-3.963,3.181-6.957a1.676,1.676,0,0,1,.045-.464c.186-.765.387-1.526.585-2.285.622.552,1.541.99,1.819,1.682C211.868,175.548,210.556,177.856,209.205,179.818Z" transform="translate(-48.936 -161.677)"/><path class="a" d="M155.739,184.274c-.383.31-.733.83-1.154.9-2.623.442-5.252.857-7.9,1.114-.684.066-1.421-.481-2.137-.744a17.73,17.73,0,0,1,1.257-1.841c.94-1.077,2.073-2.007,2.913-3.148.744-1,.509-1.941-.857-2.351a5.072,5.072,0,0,1-1.847-.727,5.133,5.133,0,0,1-.876-1.667,7.263,7.263,0,0,1,1.81-.524,3.353,3.353,0,0,1,1.541.5c3.191,1.706,4.006,3.58,1.842,6.668-.235.333-.4.716-.688,1.218,1.742-.1,3.317-.246,4.886-.223C154.935,183.453,155.335,183.983,155.739,184.274Z" transform="translate(-77.809 -159.53)"/><path class="a" d="M222.841,182c-1.682.022-3.36.257-5.05.387A2.615,2.615,0,0,1,215,178.656a61.75,61.75,0,0,1,3.028-5.739c.207-.355,1.054-.327,1.607-.475a10.514,10.514,0,0,1,.081,1.847c-.038.312-.453.564-.6.88-1.947,4.219-1.749,4.514,3.033,4.668.722.021,1.443,0,2.306,0C224.656,181.312,224.279,181.979,222.841,182Z" transform="translate(-40.157 -161.057)"/><path class="a" d="M215.145,183.995c-.021.229-.038.459-.054.688-3.11.383-6.254.607-9.331,1.186-3.689.688-7.323,1.684-10.984,2.537a17.04,17.04,0,0,1-2.8.513c-.312.017-.968-.6-.925-.782.121-.436.509-1.049.88-1.125,7.106-1.421,14.08-3.706,21.463-3.356A12.136,12.136,0,0,1,215.145,183.995Z" transform="translate(-52.865 -155.059)"/><path class="a" d="M210.546,184.551a26.987,26.987,0,0,0-6.29,12.837c-.111.581-1.088,1-1.662,1.5-.284-.6-.9-1.263-.793-1.776a22.624,22.624,0,0,1,1.543-4.914,56.828,56.828,0,0,1,3.311-5.826C207.479,185.053,208.83,184.682,210.546,184.551Z" transform="translate(-47.101 -154.56)"/><path class="a" d="M157.968,185.242c-.885.247-1.755.558-2.65.722-1.547.284-3.127.421-4.674.71-2.372.449-4.717,1.083-7.1,1.4a2.433,2.433,0,0,1-2.007-1.165c-.366-1.006.613-1.154,1.481-1.246,3.569-.389,7.128-.836,10.691-1.263.547-.066,1.094-.12,1.639-.18.055-.088.1-.175.158-.263Q156.733,184.591,157.968,185.242Z" transform="translate(-79.47 -154.881)"/><path class="a" d="M198.437,183.415c-.645.744-1.28,1.5-2,2.345-2.208-1.994-.47-3.634.22-4.623,1.377-1.968.3-3.056-.618-4.45a9.655,9.655,0,0,1-.739-1.836c.733.043,1.624-.158,2.176.18C200.519,176.9,201.235,180.174,198.437,183.415Z" transform="translate(-50.58 -159.776)"/><path class="a" d="M306.039,192.775c-2.465.759-1.618-1.776-2.563-2.667,1.246-.8,2.514-1.793,3.432-.257A1.89,1.89,0,0,1,306.039,192.775Z" transform="translate(7.455 -152.149)"/><path class="a" d="M312.722,191.336c-1.049.913-1.629,1.831-2.355,1.962-1.466.263-1.624-1.235-1.541-2.065a2.491,2.491,0,0,1,1.612-1.782C310.961,189.369,311.662,190.412,312.722,191.336Z" transform="translate(10.315 -151.934)"/><path class="a" d="M317.85,191.513c-.2.148-.389.278-.564.4-.9.635-1.481,1.049-2.06,1.46-.5-.776-1.323-1.53-1.387-2.34-.038-.524,1.131-1.672,1.573-1.59.6.115,1.1.744,1.875,1.52C317.457,191.141,317.647,191.327,317.85,191.513Z" transform="translate(13.013 -151.936)"/></g><g transform="translate(176.515 122.543)"><path class="b" d="M168.733,122.887a2.687,2.687,0,0,1-.336.868,6.126,6.126,0,0,0-.369,1.807c-.293,1.294-.888,2.672-.736,3.938l-.112.4-.721-.091c-.037-.542.235-1.26-.034-1.9.054-.115.273-.1.344-.207.343-1.825.034-3.841,1.231-5.158Z" transform="translate(-141.475 -122.543)"/><path class="b" d="M174.482,125.425a1.592,1.592,0,0,1-.476.527,3.456,3.456,0,0,0-.682,1.206c-.516.854-1.332,1.672-1.424,2.65l-.178.257-.661-.3c.066-.409.455-.848.32-1.4.072-.068.278.011.363-.042.659-1.229.745-2.807,2.114-3.383Z" transform="translate(-138.989 -121.259)"/><path class="b" d="M179.444,129.721a1.575,1.575,0,0,1-.675.224,3.474,3.474,0,0,0-1.186.716c-.871.492-1.982.8-2.543,1.609l-.281.137-.427-.585c.258-.324.811-.516.966-1.066.1-.021.237.148.336.143,1.177-.747,2.028-2.08,3.5-1.91Z" transform="translate(-137.233 -119.093)"/><path class="b" d="M180.911,134.543a.962.962,0,0,1-.538-.108,1.972,1.972,0,0,0-1.036.094c-.75.038-1.623-.191-2.237.267l-.237-.008-.144-.71c.272-.171.716-.088.976-.5.074.025.128.237.2.278,1.039-.126,2-.916,3-.1Z" transform="translate(-135.953 -116.723)"/><path class="b" d="M160.924,124.487a2.687,2.687,0,0,1,.266.9,6.171,6.171,0,0,0,.819,1.662c.562,1.209.937,2.667,1.833,3.582l.157.386-.624.369c-.363-.409-.589-1.146-1.192-1.49-.028-.124.152-.25.144-.375-.853-1.659-2.332-3.076-2.193-4.854Z" transform="translate(-144.855 -121.5)"/><path class="b" d="M154.856,129.295c1.692.141,2.692,1.781,4.059,2.853.115.026.272-.126.384-.081.187.633.827.963,1.129,1.375l-.481.541-.326-.209c-.658-1-1.942-1.586-2.949-2.314a5.367,5.367,0,0,0-1.377-1.04,2.354,2.354,0,0,1-.779-.393Z" transform="translate(-147.863 -118.921)"/><path class="b" d="M151.632,136.334c1.5-.811,3.245.009,4.984.155.111-.04.158-.255.278-.278.507.427,1.228.35,1.709.529l-.1.716-.39,0c-1.1-.475-2.506-.258-3.754-.313a5.41,5.41,0,0,0-1.732-.114,2.35,2.35,0,0,1-.871.1Z" transform="translate(-149.412 -115.333)"/><path class="b" d="M151.977,143.627c.877-1.2,2.435-.914,3.784-1.271.069-.069.041-.287.123-.343.509.261,1.025-.017,1.44.015l.138.711-.292.115c-.971-.138-1.956.466-2.907.768a3.471,3.471,0,0,0-1.334.384,1.562,1.562,0,0,1-.622.341Z" transform="translate(-149.227 -112.097)"/><path class="b" d="M156.117,149.665c-.148-1.32,1.077-1.792,1.769-2.669,0-.085-.151-.241-.129-.321.506-.023.684-.469.983-.63l.533.492-.126.218c-.741.326-1.033,1.232-1.489,1.891,0,0-.612.525-.662.89a1.075,1.075,0,0,1-.209.542Z" transform="translate(-147.012 -109.934)"/><path class="b" d="M167.468,138.3q3.213-.272,6.416-.814c4.619-.784,9.205-2.03,13.821-2.884.3-.055.283-.816-.023-.768-4.453.685-8.881,1.724-13.343,2.242-2.1.244-4.184.177-6.286.243a27.307,27.307,0,0,1-3.071-.028,9.868,9.868,0,0,1-3.076-1.022c-1-.443-1.357,2.286-.333,2.543,1.839.942,3.995.648,5.9.489" transform="translate(-144.408 -116.488)"/><path class="b" d="M162.115,172.023a12.9,12.9,0,0,0,1.4-.124c.5-.143,1-.3,1.5-.444a24.332,24.332,0,0,1,3.357-.69c2.213-.323,4.414-.807,6.628-1.106a79,79,0,0,1,14.094-.389c.633.029.578-1.418-.046-1.452a80.482,80.482,0,0,0-14.1.24c-2.288.273-4.563.758-6.85,1.066-1.1.149-2.206.266-3.305.5a10.714,10.714,0,0,0-1.447.441,5.109,5.109,0,0,0-1.412,1.146c-.244.223-.121.86.175.81" transform="translate(-143.952 -98.357)"/><path class="b" d="M179.3,134.252a.006.006,0,0,0-.012,0,.006.006,0,1,0,.012,0" transform="translate(-134.576 -116.264)"/><path class="b" d="M181.461,188.8a3.788,3.788,0,0,0,.275-2.627c-.08-1.054-.18-2.108-.273-3.161-.175-1.99-.361-3.98-.392-5.972-.063-4.086.18-8.17.238-12.254a92.822,92.822,0,0,0-.708-12.346,91.473,91.473,0,0,1-1-12.35c.031-1.907.155-3.812.057-5.716.069.032.2,0,.2-.063-.034-.283-.224-.541-.258-.82-.018-.157-.369-.14-.383.011a71.135,71.135,0,0,0-.484,12.2c.32,4.164,1.034,8.309,1.281,12.478.484,8.131-.639,16.255,0,24.387.083,1.051.166,2.1.2,3.154.038,1-.22,2.1.407,3.033.138.206.676.292.842.041" transform="translate(-134.934 -116.73)"/><path class="b" d="M163.384,187.8a2.193,2.193,0,0,0,1.143-1.907c.04-.481.207-.963.261-1.446a13.03,13.03,0,0,0,.069-1.529c-.012-2-.086-4.007-.227-6-.287-4.092-.883-8.168-.7-12.274a189.332,189.332,0,0,0-.933-24.49q-.175-2.06-.344-4.122c-.065-.791-1.656-.733-1.589.058.711,8.154,1.587,16.31,1.5,24.489-.023,2.036-.184,4.069-.181,6.1s.181,4.089.352,6.129.349,4.087.41,6.135a28.854,28.854,0,0,1-.086,5.929,5.83,5.83,0,0,1-.538,1.762c-.235.439-.023.839.409,1.137a.46.46,0,0,0,.45.026" transform="translate(-144.351 -115.613)"/><path class="b" d="M162.548,170.023l-.015-1.429c0-.126-.191-.115-.192.009q-.007.714-.015,1.43c0,.143.224.132.223-.011" transform="translate(-143.675 -97.885)"/><path class="b" d="M177.625,134.847a8.122,8.122,0,0,0,1-.134,4.423,4.423,0,0,1,.524-.031l.042.006a.243.243,0,0,0,.166-.023,1.4,1.4,0,0,0,.154-.026.206.206,0,0,0,.144-.207.4.4,0,0,0,0-.061c.143,0,.284-.006.426,0a.337.337,0,0,0,.135-.635,2.9,2.9,0,0,0-2.743.321c-.187.037-.373.075-.559.115-.324.069-.214.567.1.556.1,0,.206-.011.307-.018a.4.4,0,0,0,.312.138" transform="translate(-135.957 -116.658)"/><path class="b" d="M177.636,139.858c-1.364-.014-2.721-.2-4.087-.212-.527,0-.486.811.038.814,1.366.008,2.721.187,4.086.2.519,0,.476-.793-.037-.8" transform="translate(-137.855 -113.367)"/><path class="b" d="M171.852,140.417c-.278-.856-1.626-.6-2.283-.495a21.239,21.239,0,0,0-3.041.833c-.55.174-.39,1.063.164.89.847-.266,1.689-.544,2.555-.739a6.382,6.382,0,0,1,1.437-.177,3.408,3.408,0,0,0,1.023-.029.2.2,0,0,0,.144-.283" transform="translate(-141.603 -113.282)"/><path class="b" d="M166.987,144.613c-.633.161-.321,1.112.3.962a15.661,15.661,0,0,1,2.624-.418c.43-.028.834.1,1.248.1.293,0,.6-.135.585-.476-.066-1.414-4.01-.352-4.762-.163" transform="translate(-141.36 -111.003)"/><path class="b" d="M179.28,144.88c-.1-.456-.676-.469-1.039-.472-.627-.008-1.257.032-1.884.068-.688.037-1.378.083-2.068.134a4.089,4.089,0,0,0-1.033.1.574.574,0,0,0,.2,1.115h.006a.651.651,0,0,0,.078,0c-.1.037-.037.015.045,0l.018,0a.5.5,0,0,1,.065-.009l.582-.043q.837-.058,1.67-.1c.582-.032,1.168-.06,1.752-.075.232-.006.464-.009.7-.006.078,0,.157.006.235.011s.1,0,.1,0a.59.59,0,0,0,.343-.066l0,0a.567.567,0,0,0,.227-.638" transform="translate(-138.018 -110.813)"/><path class="b" d="M172.481,149.694c-.235-.585-1.062-.627-1.593-.668a30.576,30.576,0,0,0-3.271.147.571.571,0,0,0,.054,1.14c.751-.012,1.5-.12,2.253-.137a6.7,6.7,0,0,1,1.348.072.966.966,0,0,1,.378.154c.174.088.072.069.124.071a.187.187,0,0,0,.171.083.627.627,0,0,0,.538-.862" transform="translate(-141.119 -108.347)"/><path class="b" d="M179.02,149.971c-.309-.91-1.779-.731-2.521-.668a24.079,24.079,0,0,0-2.763.472c-.808.166-.41,1.374.386,1.215.754-.149,1.506-.3,2.271-.38a6.532,6.532,0,0,1,1.261-.037c.344.032.694.191,1.031.04a.523.523,0,0,0,.335-.642" transform="translate(-137.791 -108.217)"/><path class="b" d="M177.544,153.511c-1.364-.014-2.721-.2-4.087-.212-.527,0-.486.811.038.814,1.366.008,2.721.187,4.086.2.519,0,.476-.793-.037-.8" transform="translate(-137.904 -106.042)"/><path class="b" d="M171.76,154.068c-.278-.854-1.626-.6-2.283-.493a21.041,21.041,0,0,0-3.041.833c-.55.174-.39,1.063.164.89.847-.266,1.689-.544,2.555-.739a6.382,6.382,0,0,1,1.437-.177,3.409,3.409,0,0,0,1.023-.029.205.205,0,0,0,.144-.284" transform="translate(-141.652 -105.958)"/><path class="b" d="M166.9,158.266c-.633.16-.321,1.112.3.962a15.509,15.509,0,0,1,2.624-.419c.43-.028.834.1,1.248.1.293,0,.6-.135.585-.476-.066-1.412-4.01-.35-4.762-.161" transform="translate(-141.409 -103.679)"/><path class="b" d="M179.188,158.533c-.1-.456-.676-.469-1.039-.472-.627-.008-1.257.032-1.884.068-.688.037-1.38.083-2.068.134a4.09,4.09,0,0,0-1.033.1.574.574,0,0,0,.2,1.115h.006a.647.647,0,0,0,.078,0c-.1.037-.037.015.045,0l.018,0a.5.5,0,0,1,.065-.009l.582-.043c.556-.038,1.114-.072,1.67-.1.582-.032,1.168-.06,1.752-.075.232-.006.464-.009.7-.006.078,0,.157.006.235.011s.1,0,.1,0a.59.59,0,0,0,.343-.066l0,0a.568.568,0,0,0,.227-.638" transform="translate(-138.067 -103.488)"/><path class="b" d="M172.387,163.347c-.234-.585-1.06-.627-1.592-.668a30.592,30.592,0,0,0-3.271.147.571.571,0,0,0,.054,1.14c.751-.012,1.5-.12,2.253-.137a6.588,6.588,0,0,1,1.348.074.944.944,0,0,1,.378.152c.174.088.072.069.124.071a.187.187,0,0,0,.171.083.626.626,0,0,0,.536-.862" transform="translate(-141.169 -101.022)"/><path class="b" d="M178.926,163.624c-.307-.91-1.778-.731-2.52-.668a24.076,24.076,0,0,0-2.763.472c-.808.166-.41,1.374.386,1.215.754-.149,1.506-.3,2.271-.38a6.533,6.533,0,0,1,1.261-.037c.344.032.694.191,1.031.04a.521.521,0,0,0,.333-.642" transform="translate(-137.84 -100.892)"/><path class="b" d="M185.446,145.108q2.385-.2,4.762-.595c3.428-.572,6.831-1.48,10.255-2.1.226-.04.212-.595-.015-.561-3.3.5-6.59,1.258-9.9,1.635-1.56.178-3.105.129-4.665.178a20.538,20.538,0,0,1-2.28-.022,7.417,7.417,0,0,1-2.283-.744c-.739-.323-1,1.667-.246,1.855a8.1,8.1,0,0,0,4.374.356" transform="translate(-133.861 -112.186)"/><path class="b" d="M181.473,170.234a9.445,9.445,0,0,0,1.042-.1c.372-.111.744-.229,1.115-.341a17.238,17.238,0,0,1,2.489-.532c1.644-.249,3.277-.622,4.92-.851a56.423,56.423,0,0,1,10.46-.3c.47.022.429-1.092-.034-1.119a57.652,57.652,0,0,0-10.464.184c-1.7.211-3.385.584-5.084.821-.819.115-1.636.206-2.451.387a7.894,7.894,0,0,0-1.074.338,3.824,3.824,0,0,0-1.051.882c-.18.172-.091.662.131.624" transform="translate(-133.524 -98.773)"/><path class="b" d="M194.226,142.162a0,0,0,1,0-.009,0,0,0,0,0,0,.009,0" transform="translate(-126.565 -112.02)"/><path class="b" d="M196.207,182.641c.562-.628.344-1.28.275-1.95-.08-.781-.18-1.564-.274-2.346-.175-1.477-.361-2.953-.392-4.433-.063-3.03.18-6.061.238-9.091a51.494,51.494,0,0,0-.707-9.162,50.838,50.838,0,0,1-1-9.168c.031-1.414.155-2.827.057-4.242.069.025.2,0,.2-.046-.034-.207-.224-.4-.258-.608-.018-.115-.369-.1-.384.009a39.39,39.39,0,0,0-.482,9.056c.32,3.09,1.034,6.168,1.281,9.262.484,6.034-.639,12.063,0,18.1.083.781.164,1.56.2,2.343.038.742-.22,1.556.407,2.249a.756.756,0,0,0,.84.031" transform="translate(-127.023 -112.366)"/><path class="b" d="M182.663,181.9a1.611,1.611,0,0,0,.971-1.415c.034-.356.175-.714.221-1.074a8.241,8.241,0,0,0,.058-1.134c-.009-1.483-.072-2.973-.192-4.456a68.823,68.823,0,0,1-.593-9.107,123.161,123.161,0,0,0-.791-18.177c-.1-1.019-.2-2.037-.292-3.058-.055-.59-1.407-.545-1.349.043a163.836,163.836,0,0,1,1.274,18.172c-.018,1.51-.157,3.021-.154,4.531s.154,3.035.3,4.548.3,3.033.349,4.554a18.654,18.654,0,0,1-.074,4.4,3.961,3.961,0,0,1-.455,1.308c-.2.326-.02.622.346.844a.439.439,0,0,0,.383.02" transform="translate(-133.82 -111.537)"/><path class="b" d="M192.985,142.6a6.274,6.274,0,0,0,.739-.1,3.133,3.133,0,0,1,.39-.023l.031,0a.18.18,0,0,0,.123-.015,1.04,1.04,0,0,0,.114-.02.154.154,0,0,0,.108-.154.438.438,0,0,0,0-.046c.1,0,.21,0,.318,0a.251.251,0,0,0,.1-.472,2.156,2.156,0,0,0-2.037.238l-.415.086c-.24.052-.158.421.074.413.077,0,.152-.008.227-.014a.3.3,0,0,0,.232.1" transform="translate(-127.59 -112.312)"/><path class="b" d="M192.994,146.322c-1.013-.011-2.021-.147-3.035-.157-.39,0-.36.6.029.6,1.013.006,2.021.138,3.033.146.384,0,.353-.588-.028-.593" transform="translate(-128.999 -109.87)"/><path class="b" d="M188.7,146.737c-.206-.636-1.206-.444-1.695-.367a15.56,15.56,0,0,0-2.256.619c-.409.128-.289.788.123.659.628-.2,1.251-.4,1.895-.549a4.711,4.711,0,0,1,1.066-.131,2.511,2.511,0,0,0,.759-.022.152.152,0,0,0,.108-.21" transform="translate(-131.78 -109.807)"/><path class="b" d="M185.09,149.85c-.47.118-.238.827.226.714a11.614,11.614,0,0,1,1.948-.31c.32-.02.618.075.927.071.217,0,.446-.1.433-.355-.049-1.048-2.978-.26-3.534-.12" transform="translate(-131.6 -108.116)"/><path class="b" d="M194.213,150.049c-.077-.338-.5-.347-.77-.35-.467,0-.934.025-1.4.051-.512.028-1.023.061-1.535.1a3.122,3.122,0,0,0-.767.074.425.425,0,0,0,.147.827h0a.376.376,0,0,0,.058,0c-.077.028-.028.012.032,0l.014,0,.049-.006c.143-.012.287-.022.432-.031.413-.029.827-.054,1.238-.077.433-.025.867-.045,1.3-.057q.258-.007.516,0c.058,0,.117,0,.174.009s.078,0,.077,0a.438.438,0,0,0,.254-.049l0,0a.42.42,0,0,0,.169-.472" transform="translate(-129.119 -107.974)"/><path class="b" d="M189.166,153.622c-.174-.436-.787-.467-1.182-.5a22.857,22.857,0,0,0-2.428.109.425.425,0,0,0,.04.848c.558-.009,1.114-.089,1.672-.1a4.944,4.944,0,0,1,1,.054.7.7,0,0,1,.28.114c.129.065.054.051.094.052a.135.135,0,0,0,.126.061.465.465,0,0,0,.4-.639" transform="translate(-131.421 -106.145)"/><path class="b" d="M194.019,153.827c-.227-.675-1.32-.542-1.87-.5a17.461,17.461,0,0,0-2.05.35c-.6.123-.306,1.019.286.9.559-.111,1.117-.221,1.686-.283a4.886,4.886,0,0,1,.936-.026c.255.023.515.141.765.029a.387.387,0,0,0,.247-.476" transform="translate(-128.951 -106.048)"/><path class="b" d="M192.924,156.454c-1.013-.011-2.019-.148-3.033-.157-.39,0-.36.6.029.6,1.013.006,2.019.138,3.031.146.386,0,.355-.588-.028-.593" transform="translate(-129.035 -104.434)"/><path class="b" d="M188.632,156.868c-.206-.635-1.206-.443-1.695-.366a15.769,15.769,0,0,0-2.257.616c-.409.129-.289.79.123.661.628-.2,1.252-.4,1.9-.549a4.712,4.712,0,0,1,1.066-.131,2.462,2.462,0,0,0,.759-.023.151.151,0,0,0,.108-.209" transform="translate(-131.817 -104.371)"/><path class="b" d="M185.022,159.983c-.47.118-.238.825.226.713a11.6,11.6,0,0,1,1.947-.31c.32-.02.619.075.928.071.217,0,.446-.1.433-.353-.048-1.048-2.978-.26-3.534-.12" transform="translate(-131.636 -102.679)"/><path class="b" d="M194.145,160.182c-.077-.338-.5-.347-.77-.35-.467,0-.934.025-1.4.051-.512.028-1.023.061-1.535.1a3.116,3.116,0,0,0-.765.074.425.425,0,0,0,.148.827h0a.371.371,0,0,0,.058,0c-.077.028-.028.012.032,0l.014,0,.049-.006c.143-.012.287-.022.432-.031.412-.029.825-.054,1.237-.077.433-.025.868-.045,1.3-.057q.258-.007.516,0c.058,0,.117,0,.174.009s.078,0,.077,0a.426.426,0,0,0,.254-.049l0,0a.42.42,0,0,0,.169-.472" transform="translate(-129.156 -102.538)"/><path class="b" d="M189.1,163.754c-.174-.435-.787-.466-1.182-.5a22.913,22.913,0,0,0-2.429.109.424.424,0,0,0,.04.847c.558-.009,1.115-.089,1.673-.1a4.95,4.95,0,0,1,1,.054.71.71,0,0,1,.28.114c.129.065.054.051.094.052a.135.135,0,0,0,.126.061.465.465,0,0,0,.4-.639" transform="translate(-131.458 -100.708)"/><path class="b" d="M193.951,163.96c-.227-.676-1.318-.544-1.87-.5a17.438,17.438,0,0,0-2.051.35c-.6.124-.3,1.02.286.9.559-.111,1.117-.221,1.687-.283a4.883,4.883,0,0,1,.936-.026c.255.023.515.141.765.029a.387.387,0,0,0,.247-.476" transform="translate(-128.988 -100.612)"/><path class="b" d="M153.954,157.414q1.86-.154,3.715-.464c2.673-.446,5.329-1.154,8-1.639.174-.032.163-.466-.014-.438-2.577.389-5.14.98-7.722,1.275-1.217.138-2.423.1-3.638.138a16.351,16.351,0,0,1-1.778-.017,5.793,5.793,0,0,1-1.782-.579c-.578-.252-.784,1.3-.192,1.446a6.343,6.343,0,0,0,3.413.278" transform="translate(-150.187 -105.199)"/><path class="b" d="M150.856,171.41a7.138,7.138,0,0,0,.811-.075c.29-.085.579-.177.87-.266a13.736,13.736,0,0,1,1.944-.415c1.281-.192,2.555-.486,3.837-.664a44.03,44.03,0,0,1,8.159-.234c.367.017.335-.851-.026-.873a45.13,45.13,0,0,0-8.162.144c-1.324.164-2.641.455-3.964.641-.639.089-1.278.16-1.914.3a6.133,6.133,0,0,0-.837.264,2.978,2.978,0,0,0-.817.69c-.141.134-.071.516.1.486" transform="translate(-149.923 -97.743)"/><path class="b" d="M160.8,155.041h0" transform="translate(-144.496 -105.108)"/><path class="b" d="M162.283,178.12c.439-.49.269-1,.215-1.52-.063-.61-.141-1.22-.214-1.83-.138-1.154-.281-2.3-.306-3.459-.049-2.365.14-3.03.186-5.393a12.958,12.958,0,0,0-.171-4.066c-.384-2.388-.96-1.119-.907-3.517.025-1.1-.135-2.123-.212-3.225.055.018.16,0,.154-.037-.026-.163-.174-.312-.2-.475-.015-.089-.287-.08-.3.008a10.411,10.411,0,0,0-.132,4.11c.249,2.411.562.968.756,3.38.376,4.706-.5,7.71,0,12.418.065.608.129,1.217.16,1.825.029.579-.172,1.215.316,1.755a.592.592,0,0,0,.656.025" transform="translate(-144.788 -105.379)"/><path class="b" d="M151.783,177.541a1.258,1.258,0,0,0,.759-1.1c.026-.277.137-.556.172-.837a6.556,6.556,0,0,0,.046-.885c-.008-1.155-.057-2.319-.151-3.474-.191-2.369-.585-3.03-.462-5.405.246-4.732-.161-2.658-.618-7.38-.077-.8-.155-1.59-.229-2.386-.043-.458-1.1-.424-1.051.034.47,4.72,1.049,2.644.993,7.378-.014,1.178-.121,2.357-.12,3.534a10.656,10.656,0,0,0,.234,1.848c.112,1.183.23,2.366.272,3.552a14.573,14.573,0,0,1-.058,3.433,3.074,3.074,0,0,1-.355,1.02c-.155.254-.015.486.27.658a.343.343,0,0,0,.3.015" transform="translate(-150.154 -104.732)"/><path class="b" d="M159.835,155.46a4.919,4.919,0,0,0,.578-.077,2.593,2.593,0,0,1,.3-.018l.025,0a.139.139,0,0,0,.1-.012c.029,0,.06-.009.089-.015a.121.121,0,0,0,.085-.12l0-.035c.081,0,.164,0,.246,0a.2.2,0,0,0,.078-.367,1.675,1.675,0,0,0-1.587.186l-.324.066c-.187.04-.123.329.058.323.06,0,.118-.006.177-.011a.233.233,0,0,0,.181.08" transform="translate(-145.295 -105.298)"/><path class="b" d="M156.37,158.431c-.135-.338-.613-.363-.922-.387a17.693,17.693,0,0,0-1.893.086.33.33,0,0,0,.031.659c.435-.006.868-.069,1.3-.078a3.906,3.906,0,0,1,.781.041.546.546,0,0,1,.218.089c.1.051.041.04.072.04a.108.108,0,0,0,.1.049.364.364,0,0,0,.31-.5" transform="translate(-148.543 -103.504)"/><path class="b" d="M160.187,158.373c-.178-.525-1.029-.423-1.458-.387a13.719,13.719,0,0,0-1.6.273c-.467.1-.237.794.223.7.436-.088.871-.172,1.315-.22a3.759,3.759,0,0,1,.731-.022c.2.018.4.109.6.023a.3.3,0,0,0,.192-.372" transform="translate(-146.601 -103.545)"/><path class="b" d="M159.788,160.661c-.79-.008-1.575-.115-2.366-.123-.306,0-.281.47.022.472.791,0,1.576.109,2.366.114.3,0,.275-.459-.021-.463" transform="translate(-146.422 -102.159)"/><path class="b" d="M156.439,160.984c-.161-.495-.942-.346-1.321-.286a12.208,12.208,0,0,0-1.759.482c-.32.1-.226.616.1.513.49-.154.976-.315,1.478-.427a3.7,3.7,0,0,1,.831-.1,1.92,1.92,0,0,0,.593-.017.118.118,0,0,0,.083-.163" transform="translate(-148.592 -102.11)"/><path class="b" d="M153.623,163.413c-.367.092-.186.644.177.556a8.944,8.944,0,0,1,1.52-.241c.249-.017.482.057.722.054.169,0,.347-.078.338-.275-.037-.817-2.323-.2-2.756-.094" transform="translate(-148.451 -100.79)"/><path class="b" d="M160.74,163.569c-.06-.264-.392-.27-.6-.273-.364,0-.728.02-1.092.04q-.6.032-1.2.077a2.427,2.427,0,0,0-.6.057.332.332,0,0,0,.115.645h0a.421.421,0,0,0,.045,0c-.058.02-.02.008.026,0l.011,0a.376.376,0,0,1,.038,0c.112-.009.224-.017.336-.025.321-.023.644-.041.965-.06.34-.018.678-.035,1.017-.045.134,0,.267,0,.4,0,.045,0,.091,0,.135.006s.06,0,.06,0a.351.351,0,0,0,.2-.038h0a.324.324,0,0,0,.132-.367" transform="translate(-146.517 -100.68)"/><path class="b" d="M156.8,166.355c-.135-.338-.613-.363-.922-.387a17.7,17.7,0,0,0-1.893.086.33.33,0,0,0,.031.659c.435-.006.868-.069,1.3-.078a3.909,3.909,0,0,1,.781.041.556.556,0,0,1,.218.089c.1.051.042.04.072.04a.109.109,0,0,0,.1.049.364.364,0,0,0,.31-.5" transform="translate(-148.311 -99.253)"/><path class="b" d="M160.589,166.516c-.178-.527-1.029-.423-1.46-.387a13.741,13.741,0,0,0-1.6.273c-.467.1-.237.794.223.7.436-.088.871-.172,1.315-.22a3.756,3.756,0,0,1,.731-.022c.2.018.4.109.6.023a.3.3,0,0,0,.192-.372" transform="translate(-146.385 -99.177)"/></g></g></svg>