<svg xmlns="http://www.w3.org/2000/svg" width="486.696" height="81.711" viewBox="0 0 486.696 81.711"><defs><style>.a{fill:#161616;}.b{fill:#63614f;}</style></defs><g transform="translate(-166.32 -736.224)"><path class="a" d="M644.336,758.737a5.412,5.412,0,0,0-.408-2.818c-.2-.344-.09-.9-.332-1.177-.459-.544-.661-1.006,0-1.667l-.866.06a3.3,3.3,0,0,0-.468-1.078c-1.142-1.138-2.31-2.252-3.536-3.3-.408-.346-1.147-.338-1.489-.715-.565-.625-1.214-.492-1.875-.528-.124-.01-.251-.019-.371-.039a30.528,30.528,0,0,0-3.693-.667,14.441,14.441,0,0,0-5.643.994c-1.5.531-3.008,1.056-4.5,1.63a6.52,6.52,0,0,0-1.869.948,11.857,11.857,0,0,0-1.951,2.125c-.292.4-1.072.634-.743,1.365a13.329,13.329,0,0,0,.976,1.9c.483.725,1.175.933,1.591.489a1.644,1.644,0,0,0,.429-1.184c-.157-1.02.474-1.491,1.177-2.014a.981.981,0,0,1,.118.709c-.586,1.266-1.205,2.512-1.821,3.763-.2.4-.456.779-.629,1.193-.187.453-.28.942-.455,1.4-.668,1.757-1.413,3.49-2.009,5.272-.35,1.045-.377,2.217-1.431,2.669a5.215,5.215,0,0,1-.021,1.407c-.3.948-.827,1.839-1.026,2.806a7.116,7.116,0,0,1-.994,2.968c.148.583.284,1.033.365,1.492.048.265-.085.6.034.815.268.483.634,1.278.972,1.284a1.624,1.624,0,0,0,1.57-1.093c.109-.311.42-.544.6-.834a2.809,2.809,0,0,0,.511-.99c.135-.963-.139-1.948.359-2.908.432-.839.64-1.787.994-2.672.081-.209.429-.32.492-.525a9.826,9.826,0,0,0,.682-2.778c-.012-1.588,1.22-2.678,1.4-4.182a9.249,9.249,0,0,1,.966-2.452c.185-.411.489-.764.655-1.178.38-.96.7-1.941,1.066-2.907.245-.634.55-1.247.8-1.881a9.488,9.488,0,0,1,1.159-2.884,3.487,3.487,0,0,1,2.43-1.628c.831-.078,1.634-.492,2.461-.531a11.278,11.278,0,0,1,4.116.356c1,.32,2.1.338,2.956,1.047a9.9,9.9,0,0,1,.8.834c-.012.09-.021.181-.03.272.06-.154.123-.311.2-.5.1.257.142.525.22.537a2.3,2.3,0,0,1,1.728,1.422c.486,1.057.712,2.229,1.118,3.325.519,1.422.142,2.853.093,4.273-.018.474-.465.918-.568,1.407a4.729,4.729,0,0,1-1.745,2.44,6.784,6.784,0,0,1-.695,1.45c-.142.214-.444.317-.64.5a16.1,16.1,0,0,0-2.4,2.454c-.61.93-1.649,1.16-2.346,1.9-.366.384-1.052.456-1.422.833a14.054,14.054,0,0,1-3.138,2.385c-.879.5-1.752,1.021-2.633,1.522a5.369,5.369,0,0,0-1.09.586,7.735,7.735,0,0,1-2.252,1.22c-.257.127-.477.344-.74.45-.84.332-1.688.633-2.534.939-.483.175-.975.326-1.458.508a4.836,4.836,0,0,0-1.443.616.664.664,0,0,1-.89.118c-.19.226-.321.529-.537.619-.843.345-1.712.628-2.573.931-.48.169-.966.323-1.444.492a4.153,4.153,0,0,1-.761.293c-.74.1-1.486.163-2.231.226-.347.031-.695.04-1.045.048-.773.021-1.289-.553-1.93-.809s-.389-.444-.3-.858c.151-.685.679-1.108.954-1.687a11.755,11.755,0,0,0,.507-1.45.485.485,0,0,0,0-.368c-.48-.583-.288-1.114.018-1.709a20.051,20.051,0,0,0,.809-2.006.931.931,0,0,0,.043-.32,22.472,22.472,0,0,0,.057-3.427c-.081-.668.534-1.28.039-1.954a.787.787,0,0,1,.16-.758c.6-.419.26-.923.263-1.458.77-.168,1.555-.289,2.3-.528a4.444,4.444,0,0,0,1.259-.716c.375-.277.154-.612-.163-.655a17.09,17.09,0,0,0-2.044-.06c-.522,0-1.31-.042-1.272-.519a4.432,4.432,0,0,0-.181-1.809,7.44,7.44,0,0,1-.211-1.661,5.841,5.841,0,0,1,.057-.852,12.679,12.679,0,0,1-.287-1.355c-.09-.831-.123-1.664-.184-2.583.48-.193.06-.6-.079-.957-.075-.2-.26-.38-.293-.586a2.827,2.827,0,0,0-.577-1.8.637.637,0,0,1-.042-.549,6.982,6.982,0,0,1,.679-1.474c.682-1.014,1.428-1.987,2.159-2.965a1.15,1.15,0,0,1,.392-.326A1.718,1.718,0,0,0,609.8,745c.2,0,.478.054.508-.009.233-.484.712-.957.344-1.531-.145-.226-.51-.311-.773-.465a2.091,2.091,0,0,1-.287-.188c-.332-.275-1.334-.172-1.425.226-.185.834-.93,1.084-1.416,1.6-.064.069-.039.218-.067.387-.616-.043-.854.4-1.093.966a3.559,3.559,0,0,1-.978,1.51,1.891,1.891,0,0,0-.927,1.462c-.351.244-.6.422-.867.6a.319.319,0,0,0-.057-.078,1.466,1.466,0,0,0-.218-.139c-.5,1.458-2.458,1.994-2.271,3.784-.193.012-.42-.036-.486.045a15.658,15.658,0,0,0-1.1,1.5c-.235.38-.323.861-.589,1.214a31.163,31.163,0,0,0-2.174,2.5c-.145.244-.2.766-.308.77-.773.021-.665.843-1.132,1.154-.541.356-1.259.84-1.359,1.367-.135.74-.791,1.012-.93,1.709-.193-.156-.314-.253-.483-.392-.066.366-.018.761-.193.966-.547.634-1.135,1.329-2.1.6-.064-.052-.2-.024-.3-.009-.685.094-1.367.193-2.047.289-.867,1.425-.109,2.334,1.172,3.077-.649.655-1.292,1.211-1.818,1.863-.408.5-.577,1.214-1.015,1.682a14.384,14.384,0,0,0-2.515,2.977,1.9,1.9,0,0,1-.537.522c-.568.456-.444,1.736.021,1.948.124.384.142.8.3.857a2.847,2.847,0,0,0,1.522.269c.329-.081.957-.23.945-.888,0-.154.2-.314.311-.468.163-.22.341-.429.495-.658a8.676,8.676,0,0,1,1.278-1.854,7.827,7.827,0,0,0,1.616-2.095,2.442,2.442,0,0,1,.38-.535c.7-.661,1.588-1.144,1.911-2.159a1.048,1.048,0,0,1,.6-.641c.453-.1.583-.289.616-.73.024-.311,1.28-.9,1.619-.894.516,0,1.035-.039,1.552-.09.664-.06,1.322-.176,1.99-.221.622-.045,1.255.031,1.872-.048,1.141-.147,2.274-.4,3.418-.534.251-.027.764.242.77.389a10.265,10.265,0,0,1-.185,1.733c-.365-.075-.664-.135-.963-.2-.015.045-.031.091-.048.133.3.145.612.29.957.45-.118.293-.218.541-.326.812.139.1.272.188.363.248-.157.555-.3,1.06-.442,1.564a2.136,2.136,0,0,0-.16.562,9.018,9.018,0,0,1,.09,1.5c-.187,1.262-.45,2.515-.721,3.762a17.47,17.47,0,0,1-.537,1.8,4.243,4.243,0,0,1-.459,1.033,2.13,2.13,0,0,1-.794.734,2.016,2.016,0,0,1-.842.024l-.719,1.16c1.151,1.639,2.147,1.914,3.976,1.089.309-.142.6-.323.9-.486.064.06.127.124.188.184-.055.326-.109.655-.151.909a9.264,9.264,0,0,0,.544.861,3.209,3.209,0,0,0,.619.595,2.626,2.626,0,0,0,.713.392,3.592,3.592,0,0,0,1.458.4,12.9,12.9,0,0,0,4.472-.981,24.261,24.261,0,0,1,3.261-1.184c1.054-.365,2.1-.731,3.161-1.087.592-.2,1.3-.151,1.591-.921.06-.157.4-.226.62-.305.861-.31,1.742-.564,2.584-.918.779-.329,1.516-.761,2.271-1.144.305-.145.553-.359.836-.5.7-.342,1.441-.62,2.138-.973.347-.178.624-.489.966-.688.873-.514,1.748-1.027,2.651-1.489.736-.377,1.147-1.268,2.1-1.308a.162.162,0,0,0,.118-.081c.755-1.413,2.4-1.757,3.442-2.872.679-.731,1.682-1.156,2.334-1.989a18.279,18.279,0,0,0,1.839-2.123c.541-.981,1.5-1.7,1.745-2.853.027-.118.214-.2.308-.308a1.5,1.5,0,0,0,.251-.4c.143-.387.266-.782.387-1.18a4.321,4.321,0,0,0,.305-1.109C644.424,760.561,644.354,759.65,644.336,758.737Zm-40.755,4.692a.7.7,0,0,1-.574.752,9.022,9.022,0,0,1-4.282.179c-.828-.139-1.679-.143-2.516-.226a1.376,1.376,0,0,1-.148-.027c-.147-.04-.292-.106-.441-.151a2.764,2.764,0,0,1,.33-.489,7.606,7.606,0,0,0,1.534-2.25c.247-.519.861-.854,1.247-1.326.073-.09.142-.181.209-.275s.118-.169.175-.253.112-.172.166-.26c.145-.22.284-.446.435-.661.242-.347.51-.677.761-1.018.453-.613.906-1.226,1.353-1.842.024-.036.048-.073.069-.109s.052-.091.076-.133.057-.109.09-.16a1.119,1.119,0,0,1,.106-.142c.021-.021.042-.039.063-.057a1.332,1.332,0,0,1,.121-.085.566.566,0,0,1,.112-.057.354.354,0,0,1,.1-.036.32.32,0,0,1,.091-.012.335.335,0,0,1,.075.009.141.141,0,0,1,.064.027.188.188,0,0,1,.057.042.32.32,0,0,1,.046.06.845.845,0,0,1,.1.411c.043,1.18.048,2.361.1,3.542a1.457,1.457,0,0,0,.272.595,2.268,2.268,0,0,1-.145,2.2c.154.256.347.441.375.646A5.707,5.707,0,0,1,603.581,763.429Z" transform="translate(-80.737 -1.248)"/><path class="a" d="M755.37,788.219a4.4,4.4,0,0,0-1.528.024c-.475.09-.915.353-1.386.477a6.091,6.091,0,0,0-1.159.172,8.349,8.349,0,0,1-3.108.588c-.326.031-.67-.081-.981-.018a3.352,3.352,0,0,1-2.276-.009.87.87,0,0,0-.347-.036,9.07,9.07,0,0,1-1.431-.057,11.628,11.628,0,0,1-2.246-.62c-.991-.417-1.924-.966-2.89-1.443a2.193,2.193,0,0,0-.553-.106,1.735,1.735,0,0,1-.576-.323,10.029,10.029,0,0,1-1.109-.7c-.362-.308-.586-.824-.981-1.032a22.224,22.224,0,0,0-2.1-.776,4.283,4.283,0,0,1-.791-.55,3.115,3.115,0,0,0-.788-.537,6.351,6.351,0,0,1-1.914-1.341,1.817,1.817,0,0,0-.413-.266,17.239,17.239,0,0,1-2.8-1.066,28.723,28.723,0,0,0-2.684-1.31l.353-.1c-.154-.163-.178-.218-.218-.226-1.093-.32-2.188-.634-3.282-.96-.088-.024-.157-.121-.226-.193-.3-.323-.58-.661-.9-.969a2.107,2.107,0,0,0-.758-.589,6.462,6.462,0,0,0-2.177-.411c-.969.079-1.289-.779-1.977-1.09-.411-.184-.411-.655.024-1.044a16.917,16.917,0,0,0,1.277-1.4c.235-.265.447-.552.7-.806.226-.23.5-.408.728-.641.187-.193.308-.446.486-.649a16.176,16.176,0,0,0,2.262-2.649c.432-.8,1.165-1.292,1.588-2.062.38-.695.885-1.326,1.346-2.006.091.019.227.043.359.067.2-1.172.5-2.246,1.779-2.682l-.52-.247a4.269,4.269,0,0,0,1.018-3.171,19.2,19.2,0,0,0-1.051-3.143c-.012-.033-.081-.043-.121-.069a7.645,7.645,0,0,1-1.567-1.13c-.973-1.163-2.255-.525-3.391-.7-.176-.027-.38.453-.628.541a12.4,12.4,0,0,1-1.576.339,1.534,1.534,0,0,0-2.367-1.2c-.127.06-.3.024-.435.073a6.264,6.264,0,0,0-1.69.67A31.753,31.753,0,0,0,710,755a10.709,10.709,0,0,0-.906.833c-.206.239-.275.6-.486.831-.475.519-1.172.906-1.468,1.5-.7,1.417-2.2,2.253-2.69,3.8a.772.772,0,0,1-.154.244c-.289.368-.586.731-.878,1.1-.081.157-.387.167-.459.3-.223.405-.287.9-.537,1.284a14.646,14.646,0,0,0-1.519,2.4c-.4.96-.936,1.864-1.419,2.787-.338.653-.689,1.3-1.039,1.945-.266.495-.544.984-.8,1.483-.218.417-.176,1-.788,1.162a.414.414,0,0,0-.188.359c.181.849-.35,1.456-.685,2.132a4.5,4.5,0,0,0-.7,1.657c-.036,1.6-.948,3.035-.743,4.653.079.62-.045,1.371.266,1.83.6.885,1.4,1.667,2.682,1.057a1.921,1.921,0,0,1,.966-.266c.824.106,1.268-.453,1.809-.876.284-.223.707-.61.921-.529.9.335.734-.32.791-.621a16.129,16.129,0,0,0,1.621-1.073c.8-.67,1.479-1.491,2.639-1.564a1.252,1.252,0,0,0,.526-.266c-.024-.256-.109-.456-.043-.543.368-.477.5-1.232,1.334-1.2.254-1,1.429-1.036,1.906-1.812a.552.552,0,0,1,.522-.121,3.119,3.119,0,0,0,2.163.864c.09,0,.18.139.287.223-.143.073-.257.133-.454.236.442.051.87-.024,1.106.154a3.748,3.748,0,0,0,2.011.757,1.877,1.877,0,0,1,1.114.5,3.226,3.226,0,0,0,2.385,1.126c.136,0,.356.064.4.157.281.688.936.362,1.4.537.1.039.254-.043.341.006,1.184.643,2.341,1.341,3.549,1.942,1.1.546,2.261.948,3.36,1.495a6.093,6.093,0,0,1,1.172.987c.2.176.362.5.567.52a2.993,2.993,0,0,1,1.619.613c.776.664,2.095.465,2.521,1.627,0,.006.045-.006.073,0a4.212,4.212,0,0,1,2.669,1.642,2.085,2.085,0,0,0,1.663.743,1.155,1.155,0,0,1,.354.1,6.43,6.43,0,0,0,1.79.661c.646.039,1.247.782,1.942.169.018-.015.111.06.175.091a5.827,5.827,0,0,0,2.748.458c2.159-.085,4.095-1.217,6.25-1.3.091-.006.169-.145.266-.2.323-.2.649-.392.976-.586.211-.021.259-.3.413-.377.486-.26,1.047-.39,1.516-.677a1.872,1.872,0,0,0,.737-.875C755.675,788.833,755.5,788.244,755.37,788.219ZM707.4,776.283l0,0c-.087.109-.172.211-.265.314s-.19.2-.29.3c-.078.076-.157.151-.242.221-.048.045-.1.087-.145.126-.157.136-.323.263-.495.387-.043.033-.088.066-.133.1-.218.156-.447.3-.679.446-.036.024-.072.048-.109.076s-.052.048-.079.076-.039.039-.06.06-.03.03-.045.048-.052.058-.076.085c-.036.046-.078.094-.121.143a2.89,2.89,0,0,1-.334.347,1.538,1.538,0,0,1-.245.163c-.323.169-.643.347-.96.529-.634.359-1.265.731-1.911,1.068-.133.073-.266.139-.4.205-.19.094-.384.187-.58.272-.537.238-1.044.293-1.126.985a.016.016,0,0,1-.009.015.1.1,0,0,1-.027.021.522.522,0,0,1-.078.031.2.2,0,0,1-.033.006h-.015l0,0c-.027-.03-.055-.061-.081-.087a2.809,2.809,0,0,1-.435-.5.851.851,0,0,1-.076-.478.241.241,0,0,1,.006-.051c.012-.088.027-.176.045-.263.054-.26.127-.52.187-.779.127-.541.212-1.1.39-1.622s.365-1.056.558-1.578.4-1.042.616-1.555c.051-.121.109-.239.166-.354s.123-.23.187-.344c.03-.057.064-.114.1-.172s.054-.093.081-.142c.16-.272.323-.546.458-.833.381-.794.731-1.607,1.093-2.412.121-.269.245-.537.368-.8.012-.024.024-.045.036-.069a1.467,1.467,0,0,1,.2-.242.443.443,0,0,1,.039-.04c.052-.057.1-.109.151-.166l.178.16a1.639,1.639,0,0,0-.308.453c-.022.078-.039.157-.055.235-.009.04-.015.078-.021.118-.009.055-.015.105-.019.157a1.369,1.369,0,0,0-.009.151.84.84,0,0,0,.006.127.306.306,0,0,0,.009.078.689.689,0,0,0,.018.105.942.942,0,0,0,.1.269c.018.036.039.073.06.109a1.57,1.57,0,0,0,.169.214.668.668,0,0,0,.09.088c.012.009.022.021.034.03a2.046,2.046,0,0,1,.16.151c.052.048.1.1.145.155.1.111.2.229.287.35s.169.218.251.33l.055.073c.078.106.157.208.241.308s.193.244.305.26a1.491,1.491,0,0,1,.206.045,1.07,1.07,0,0,1,.118.04.455.455,0,0,1,.069.031.742.742,0,0,1,.088.042c.057.031.112.064.166.1a1.8,1.8,0,0,1,.185.139l.081.073c.036.031.072.064.109.1s.094.09.142.142.094.1.142.145h0c.06.06.121.121.18.184.444.417.945.779,1.432,1.187h0C707.565,776.066,707.483,776.177,707.4,776.283Zm6.145-5.459c-.643.622-1.407,1.123-2.1,1.7a.14.14,0,0,0-.036.039l-.009.015c-.006.012-.012.024-.019.04a.17.17,0,0,0-.018.057.844.844,0,0,0-.022.1.5.5,0,0,0-.012.06.439.439,0,0,0-.012.054.244.244,0,0,1-.018.052.444.444,0,0,1-.024.06c-.015.024-.027.048-.043.069a.546.546,0,0,1-.09.109.469.469,0,0,1-.1.066.4.4,0,0,1-.078.027.321.321,0,0,1-.076.009.447.447,0,0,1-.066-.006.612.612,0,0,1-.351-.218,6.038,6.038,0,0,0-2.872-1.872c.081-.043.148-.079.214-.112.033-.015.067-.033.1-.052s.066-.033.1-.054c-.109-.076-.22-.142-.332-.212-.211-.126-.423-.251-.619-.392a2.873,2.873,0,0,1-.332-.275c-.592-.57-1.3-.456-2-.5-.111-.006-.22-.015-.332-.027-.211-.024-.429-.057-.676-.093-.148-.024-.305-.048-.475-.069h0l.19-.3c.432-.707.776-1.419,1.139-2.1q.1-.185.2-.362c.073-.13.148-.26.226-.387s.157-.254.238-.377c.06-.091.121-.181.187-.269s.109-.148.166-.221a5.65,5.65,0,0,1,.466-.531c.374-.583.74-1.172,1.126-1.745a.883.883,0,0,1,.164-.172l.075-.063c.036-.034.073-.064.106-.094a.264.264,0,0,1,.03-.03.3.3,0,0,0,.073-.121.142.142,0,0,0,.006-.036v0a1.148,1.148,0,0,1,.009-.178.9.9,0,0,1,.021-.139.723.723,0,0,1,.033-.124.437.437,0,0,1,.036-.09.46.46,0,0,1,.033-.067.954.954,0,0,1,.082-.135.521.521,0,0,1,.051-.067.645.645,0,0,1,.052-.06.748.748,0,0,1,.085-.085,1.156,1.156,0,0,1,.09-.081c.064-.054.127-.1.2-.151.085-.06.172-.118.259-.178s.176-.118.26-.181c.5-.378.975-.791,1.455-1.2q.239-.208.483-.408c.088-.069.172-.142.257-.211.114-.1.232-.193.351-.281a.869.869,0,0,1,.087-.066c.073-.054.148-.106.224-.154.048-.031.093-.057.142-.085.2-.112.408-.221.612-.326s.387-.206.583-.3q.638-.322,1.295-.612c.641-.285,1.329-.459,1.975-.728a1.073,1.073,0,0,0,.1-.048c.033-.019.067-.036.1-.055s.064-.042.093-.064c.091-.06.181-.13.272-.193a1.989,1.989,0,0,1,.248-.155.512.512,0,0,1,.063-.027.666.666,0,0,1,.131-.043c.61-.133,1.22-.271,1.836-.384.308-.057.616-.109.924-.147s.616-.069.924-.085a.914.914,0,0,1,.528.19.63.63,0,0,1,.085.06,3.872,3.872,0,0,1,.628.607c.024.024.045.052.066.076a1.275,1.275,0,0,1,.081.106,1.754,1.754,0,0,1,.145.211c.021.039.043.079.06.121s.036.081.052.124a.446.446,0,0,1,.024.081.994.994,0,0,1,.015.441,1.24,1.24,0,0,1-.055.193,1.823,1.823,0,0,1-.232.429,10.583,10.583,0,0,0-.719,2.283,9.34,9.34,0,0,1-.945,1.607c-.7,1.066-1.4,2.141-2.147,3.173a11.968,11.968,0,0,1-1.244,1.3.1.1,0,0,1-.03.021.089.089,0,0,1-.036.019c-.027.012-.055.021-.085.033l-.052.018a.118.118,0,0,0-.021.012.083.083,0,0,0-.018.012.043.043,0,0,0-.012.021,2.024,2.024,0,0,1-.115.309c-.027.057-.057.114-.088.172a2.072,2.072,0,0,1-.118.188c-.021.033-.045.066-.069.1a4.384,4.384,0,0,1-.474.532c-.039.04-.079.078-.121.118-.185.178-.375.353-.55.537s-.338.371-.5.562l-.489.574c-.006.006-.012.015-.021.024-.115.13-.226.266-.345.4s-.211.239-.32.353c-.054.058-.109.118-.166.172S713.6,770.769,713.54,770.824Z" transform="translate(-102.595 -3.041)"/><path class="b" d="M490.021,757c-.38-1.023-.6-1.175-1.694-1.078-.166.015-.414.164-.487.1-.721-.67-1.476-.254-2.216-.094-.758.163-1.5.413-2.262.525a13.213,13.213,0,0,1-1.869.018c-.024.036-.093.233-.172.236a3.364,3.364,0,0,0-1.495.41,9.961,9.961,0,0,1-2.467.846c-1.184.268-2.395.429-3.6.631-.366.06-.734.09-1.1.151-1.066.172-2.156.453-2.935-.655a5.244,5.244,0,0,0,.438-.57c.263-.459.5-.936.752-1.4.09-.166.154-.422.289-.471.755-.278,1.121-.991,1.691-1.468a21.285,21.285,0,0,0,2.072-1.962c.441-.483.791-1.03,1.5-1.166.076-.015.112-.206.179-.3a4.443,4.443,0,0,1,.588-.828c1.22-1.114,2.5-2.162,3.681-3.312a8.561,8.561,0,0,0,1.61-2.044c.45-.828,1.443-1.344,2.117-2.072.815-.888,1.474-1.927,2.34-2.754.342-.326.558-.963,1.3-.887.529.057,1.168-1.015.845-1.408a5.793,5.793,0,0,0-1.555-1.184c-.172-.1-.51.133-.764.112a2.076,2.076,0,0,0-1.736.881,12.635,12.635,0,0,1-1.036,1.275c-.157.132-.184.41-.332.579-.5.546-1.018,1.075-1.564,1.573-.309.278-.964.462-.981.722-.055.852-.867.945-1.214,1.47-.066.1-.16.187-.218.293a2.438,2.438,0,0,1-.3.595c-.366.353-.8.634-1.169.987-.788.758-1.518,1.579-2.331,2.31s-1.739,1.326-2.542,2.06c-1.661,1.519-3.031,3.318-4.868,4.7-1.1.83-1.657,2.346-2.624,3.4-.822.9-.238,1.553.109,2.265.147.3.513.5.773.749.637.613,1.147,1.4,2.156,1.486,1.044.085,2.083.2,3.128.293.178.018.425-.046.522.051.4.4.728.127.945-.135a1.285,1.285,0,0,1,1.465-.375,1.632,1.632,0,0,0,.845-.006c1.12-.389,2.219-.845,3.34-1.232.935-.326,1.881-.637,2.844-.873a12.453,12.453,0,0,1,1.839-.163c-.413,1.223-1.407,1.595-2.153,2.207-.682.568-1.392,1.1-2.089,1.652-.16.127-.317.26-.468.4a21.4,21.4,0,0,0-1.583,1.458,4.1,4.1,0,0,1-1.15,1.133,2.521,2.521,0,0,0-.6.507A11.085,11.085,0,0,1,474.6,767.8a6.882,6.882,0,0,0-1.9,1.742,3.166,3.166,0,0,1-.945.985c-1.386.809-2.283,2.222-3.726,2.948-.081.042-.124.154-.187.229a12.988,12.988,0,0,1-.945,1.126c-.574.568-1.2,1.087-1.794,1.631a17.794,17.794,0,0,1-1.9,1.7c-.3.2-1.172.163-1.232.012-.233-.58-.677-.45-1.06-.486a13.871,13.871,0,0,0-1.431-.012,2.386,2.386,0,0,0-1.733,1.2,16.869,16.869,0,0,1-.948,1.558l2.213.643.064-.2c.359.38.438.737-.009,1.141-.641.577-1.214,1.223-1.866,1.782-.74.634-1.57,1.159-2.292,1.812-.9.812-1.715,1.718-2.587,2.56a11.7,11.7,0,0,0-1.724,1.607c-.489.722-1.226,1.151-1.749,1.839-.728.964-.972,1.38-.562,2.379a1.692,1.692,0,0,0,.453.764c.45.3.695.825,1.441.822a17.049,17.049,0,0,0,4.42-.477c1.22-.333,2.4-.81,3.6-1.218.836-.287,1.5-1.029,2.491-.923a.62.62,0,0,0,.453-.332,2.846,2.846,0,0,1,1.966-1.317,13.875,13.875,0,0,0,2.835-1.7,7.166,7.166,0,0,0,1.2-.912c.308-.284.486-.8.83-.93a2.146,2.146,0,0,0,1.347-1.8,5.106,5.106,0,0,0-1.794-3.995c-.7-.713-1.453-1.377-2.144-2.027.263-.3.465-.74.7-.757.927-.079,1.145-.637,1.147-1.434a2.343,2.343,0,0,0,1.836-1.341,1.415,1.415,0,0,1,.646-.7,9.671,9.671,0,0,0,2.506-2.1c.631-.571,1.244-1.253,2.283-1.126-.036-.828.145-1.537,1.075-1.788.1-.027.185-.142.257-.232a17.729,17.729,0,0,1,2.053-2.063,28.468,28.468,0,0,1,3.243-2.234c.057-.039.172-.087.166-.111-.157-.774.628-.876.969-1.2,1.51-1.45,3.491-2.331,4.9-3.926a.525.525,0,0,1,.126-.081,6.985,6.985,0,0,0,1.51-.957,24.2,24.2,0,0,0,1.678-2.2A4.585,4.585,0,0,1,490.021,757ZM465.49,783.384q.145.154.28.326a3.753,3.753,0,0,1,.26.368c.039.066.075.13.108.193a3.123,3.123,0,0,1,.164.386,2.971,2.971,0,0,1,.106.384c.015.07.03.143.042.214s.022.115.031.172.024.13.033.2c.027.172-.2.456-.38.576-.67.447-1.365.852-2.06,1.263-.864.51-1.724,1.023-2.594,1.525-.29.166-.579.33-.873.492-.172.1-.344.19-.519.281-.523.268-1.06.516-1.6.757-.112.052-.223.106-.338.16s-.229.106-.344.154a2.354,2.354,0,0,1-.477.151c-.045.006-.09.015-.136.018h0c-.027,0-.055,0-.081,0a2.024,2.024,0,0,0-.5.073c-.045.012-.093.027-.142.042s-.085.027-.124.042c-.1.034-.2.076-.3.118-.06.024-.121.051-.181.078-.154.067-.308.136-.465.2-.063.024-.127.048-.19.07a2.208,2.208,0,0,1-.266.078,2.4,2.4,0,0,1-.323.052c-.066.006-.135.069-.193.069-.006,0-.01,0-.015,0a.166.166,0,0,0-.039-.006l-.036-.01a.138.138,0,0,1-.036-.006c-.052-.009-.1-.021-.154-.033l-.006,0c-.085-.019-.167-.036-.248-.057l-.377-.091a2.681,2.681,0,0,1,.365-.861c.181-.187.366-.374.553-.555.562-.55,1.139-1.078,1.718-1.607a8.18,8.18,0,0,1,.906-.622c.223-.22.45-.441.676-.661.2-.2.4-.4.61-.591.347-.33.71-.643,1.051-.975.115-.112.23-.224.338-.338.045-.048.09-.1.133-.145l.109-.121a.42.42,0,0,0,.048-.054c.03-.031.057-.064.085-.1h0a.491.491,0,0,0,.036-.043c.112-.126.221-.254.33-.383.244-.284.486-.574.733-.852.157-.175.384-.462.535-.438a1.013,1.013,0,0,0,.516-.036.634.634,0,0,0,.157-.073,1.011,1.011,0,0,0,.226-.187c.039-.043.079-.088.115-.133s.073-.094.109-.145c.081-.109.16-.226.247-.335a.211.211,0,0,1,.033-.042,1.506,1.506,0,0,1,.371-.342c.218.127.435.254.653.387.1.06.2.124.3.19.024.015.046.03.067.045.09.06.178.124.266.188a1.768,1.768,0,0,1,.142.108,1.561,1.561,0,0,1,.142.115c.042.033.085.069.123.106s.085.076.124.114S465.442,783.331,465.49,783.384Z" transform="translate(-54.729 0)"/><path class="b" d="M238.849,757.342a8.033,8.033,0,0,0-.67,2.464,23.962,23.962,0,0,0-.664,3.195c-.093,1.093-.834,1.856-1.139,2.82-.35,1.1-.562,2.246-.921,3.342a23.511,23.511,0,0,1-.978,2.2,3.261,3.261,0,0,0-.214.537c-.036.142.042.351-.036.444-.936,1.151-.915,2.7-1.715,3.943a18.7,18.7,0,0,0-1.519,3.593c-.266.707-.417,1.458-.655,2.177a5.009,5.009,0,0,1-.4.644,24.321,24.321,0,0,0-1.135,2.385c-.311.849-.483,1.745-.8,2.576-.235.537-.468,1.075-.709,1.609a4.842,4.842,0,0,0-.366.794,1.932,1.932,0,0,0,.126.685,1.5,1.5,0,0,0-.842,1.5c.024.178-.181.384-.275.579-.112.236-.214.477-.317.719-.018.043.012.106-.006.148-.326.664-.655,1.331-.99,1.993-.043.079-.212.139-.2.185.2.933-.435,1.64-.667,2.449a29.694,29.694,0,0,0-.943,2.829c-.178,1.006-1.189,1.724-.9,2.854.012.045.015.121-.012.145-.972.878-.749,2.225-1.283,3.287-.357.707-.26,1.664-.674,2.317-.761,1.2-.807,2.6-1.374,3.853a10.139,10.139,0,0,0-.354,3.01c-.313.157-.745.368-1.21.6.123.254.32.471.272.583-.226.52-.52,1.011-.788,1.516-.055.1-.157.214-.151.314a1.6,1.6,0,0,1-2.271,1.609c-.595-.259-1.331-.338-1.464-1.186-.012-.064-.266-.076-.39-.145a1.1,1.1,0,0,1-.51-.52c.3.024.758.178.869.045a5.934,5.934,0,0,0,.707-1.313c.142-.3.224-.631.387-.918a3.917,3.917,0,0,0,.857-2.25,1.092,1.092,0,0,1,.073-.513,9.489,9.489,0,0,0,1.009-2.138c.124-.667.712-1.317.278-2.068-.015-.024.045-.106.081-.148a7.7,7.7,0,0,0,1.1-2.717c.212-.577-.12-1.607.94-1.854.181-.043.323-.553.363-.864a24.953,24.953,0,0,1,1.706-5.291,5.788,5.788,0,0,1,.2-.767c.1-.335.2-.67.3-1a3.2,3.2,0,0,1,.121-.426c.525-1.189,1.068-2.373,1.585-3.566a8.481,8.481,0,0,0,.64-1.7,11.4,11.4,0,0,1,.915-2.135c.453-1.093.755-2.25,1.132-3.373a9.178,9.178,0,0,1,.6-1.616,6.271,6.271,0,0,0,.882-2.6.7.7,0,0,1,.13-.257c.344-.607,1.033-1.044.918-1.875,1.09-.845.489-2.343,1.417-3.391.821-.924,1.066-2.365,1.558-3.578a1.982,1.982,0,0,0,.069-.287c.154-.58.311-1.163.5-1.863-.066-.027-.235-.093-.4-.164.685.055.848-.453,1.027-.914.453-1.18.915-2.359,1.331-3.554.447-1.286.882-2.578,1.263-3.889s.682-2.663,1.021-4c-.055-.033-.109-.064-.167-.1l-2.479,1.872c-.8.6-1.624,1.172-2.383,1.821-1.039.9-2,1.875-3.038,2.775-.583.5-1.241.924-1.863,1.383-.1.073-.263.151-.272.242-.13,1.051-1.123,1.2-1.764,1.718-.22.181-.5.35-.607.592-.275.658-.994.712-1.422,1.144-.649.655-1.18,1.558-1.963,1.909-.848.377-1.22,1.229-2.162,1.54-.855.284-1.483,1.265-2.2,1.951-.223.214-.353.57-.61.694-1.265.62-2.122,1.782-3.282,2.483-1.18.719-2.072,1.821-3.391,2.34a17.975,17.975,0,0,0-1.86,1.12,5.612,5.612,0,0,1-3.255.442c-.4-.034-1.156-1.876-.927-2.187.534-.721,1.153-1.386,1.642-2.134.5-.77.9-1.6,1.332-2.419.39-.733.57-1.73,1.168-2.167,1.063-.773,1.317-2.141,2.419-2.839.233-.145.3-.664.314-1.014.015-.384.226-.558.429-.833.882-1.181,1.948-2.265,2.283-3.784a1.708,1.708,0,0,1,.353-.731c.855-.978.4-2.134.393-3.2a1.108,1.108,0,0,0-1.19-.915c-.093,0-.226.067-.28.024a1.16,1.16,0,0,0-1.736.019.361.361,0,0,1-.342-.046,4.653,4.653,0,0,0-2.026-1.22.811.811,0,0,1-.293-.74c.118-.317.4-.74.686-.8,1.081-.232,2.168-.562,3.283.093.458.275,1.156.118,1.694.3a4.125,4.125,0,0,1,2.748,2.829c.006.024.009.048.015.073a4.463,4.463,0,0,1,.063,3.325,13.479,13.479,0,0,1-2.159,4.623c-.819,1.232-1.751,2.392-2.639,3.581-.822,1.1-1.688,2.168-2.455,3.3-.377.553-.537,1.25-.869,1.839-.272.484-.67.894-.985,1.356a1.761,1.761,0,0,0-.157.538c.181-.019.4.024.544-.064.591-.353,1.168-.734,1.733-1.129,1.044-.737,2.072-1.5,3.116-2.235.988-.7,2.026-1.329,2.968-2.083a15.156,15.156,0,0,0,1.525-1.67c.07-.075.212-.078.287-.147.363-.33.713-.67,1.069-1.009a1.063,1.063,0,0,1,.2-.193,8.76,8.76,0,0,0,2.736-2.18,12.9,12.9,0,0,1,1.775-1.423c.453-.383.834-.854,1.3-1.226.643-.516,1.355-.948,2-1.465.774-.619,1.507-1.283,2.253-1.935,1.09-.954,2.156-1.932,3.264-2.869.836-.707,1.718-1.365,2.585-2.038.266-.205.55-.39.894-.631-.006-.046-.03-.2-.054-.357.045.055.093.112.139.169.531-.4,1.035-.842,1.6-1.189.459-.281.6-.74.879-1.135.486-.7,1.908-.4,2.228.42.124.313.293.61.429.921A1.422,1.422,0,0,1,238.849,757.342Z" transform="translate(-6.855 -3.455)"/><path class="b" d="M533.72,783.025c-.178.2-.359.389-.588.637a1.989,1.989,0,0,0,2.038-.139,9.258,9.258,0,0,1,3.715-1.132c1.808-.058,3.614-.166,5.423-.181a3.87,3.87,0,0,1,1.377.42c.537.218,1.066.471,1.583.736A3.6,3.6,0,0,1,549.3,786.6c0,.072-.024.181.012.214.973.815.377,1.911.256,2.753a3.3,3.3,0,0,1-.637,1.963,6.262,6.262,0,0,0-.822,1.776c-.093.218-.2.425-.371.764l.176.251c-.5.828-1.622,1.09-1.595,2.319.009.347-.522.716-.818,1.06a16.765,16.765,0,0,0-2,2.4c-.311.546-.8.778-1.138,1.21-.546.7-1.039,1.444-1.573,2.153a7.535,7.535,0,0,1-.725.8,10.064,10.064,0,0,0-2.126,2.971.641.641,0,0,1-.244.23,3.081,3.081,0,0,0-1.429,2.168c-.562.353-1.014.633-1.458.932a.45.45,0,0,0-.181.309,1.031,1.031,0,0,1-.529,1.087,2.459,2.459,0,0,1-2.041.242,2.707,2.707,0,0,1,.5-2.31c.309-.5.777-.9,1.114-1.377a4.761,4.761,0,0,0,.378-1.03s.175-.054.35-.112l-.147-.139c.22-.275.446-.546.661-.828.263-.344.526-.691.777-1.047.184-.266.347-.549.525-.821.039-.06.156-.124.148-.155-.235-.7.293-.96.7-1.343a16.479,16.479,0,0,0,1.3-1.54c.483-.577,1-1.133,1.456-1.731.588-.767,1.141-1.564,1.69-2.361a2.864,2.864,0,0,0,.185-.556c.057-.147.13-.4.223-.413.752-.1,1.045-.7,1.4-1.232.534-.8,1.09-1.586,1.558-2.425.254-.456.613-.988.109-1.552-.036-.039.121-.335.247-.423a3.348,3.348,0,0,0,1.132-2.914c-.109-.492-.135-1-.223-1.495-.027-.157-.093-.375-.211-.435a12.167,12.167,0,0,0-1.562-.682c-.64-.221-1.3-.392-1.963-.556a.837.837,0,0,0-.55.058,7.4,7.4,0,0,1-2.521.54,23.686,23.686,0,0,0-3.983,1.06c-1.766.643-3.469,1.458-5.212,2.168a25.793,25.793,0,0,1-3.415,1.238,2.1,2.1,0,0,1-1.655-.392,1.669,1.669,0,0,1-.384-2.21,15.665,15.665,0,0,1,2.727-2.516c.764-.655,1.537-1.3,2.3-1.963a.7.7,0,0,0,.139-.3c.139-.443.145-.984.909-.773.181.052.508-.271.713-.477,1-1,1.968-2.017,2.965-3.013.329-.329.74-.577,1.051-.915.356-.39.637-.846.963-1.263.242-.311.513-.6.758-.909.945-1.193,1.89-2.388,2.823-3.59a5.908,5.908,0,0,0,.591-.921c.254-.483-.147-.676-.462-.643a4.347,4.347,0,0,0-2.093.487c-.166.111-.432.057-.646.1-.625.124-1.247.26-1.869.39-.144.033-.293.066-.441.093-1.374.251-2.751.483-4.121.757a5.851,5.851,0,0,0-1.32.438c-1.089.507-2,.018-2.9-.5a.361.361,0,0,1-.115-.32c.106-.413.281-.812.369-1.229.148-.716.806-.556,1.247-.758.38-.175.791-.28,1.2-.422.069.417.4.419.84.118,1.229-.846,2.461-1.682,3.69-2.528,1.093-.749,2.21-1.464,3.255-2.277.58-.45.942-1.243,1.564-1.561.9-.462.915-1.486,1.631-2.029.48-.366.169-.873-.166-1.3-.653-.836-1.83-.39-2.422-1.169-.214-.28-.529-.731-.434-.948a1.6,1.6,0,0,1,.942-.885,1.788,1.788,0,0,1,1.766.317.931.931,0,0,0,.758.233c.779-.212,1.072.507,1.524.806a3.318,3.318,0,0,1,1.422,2.663,1.888,1.888,0,0,1-.51,1.827,22.662,22.662,0,0,0-2.1,2.313,10.906,10.906,0,0,1-1.3,1.2c-.921.709-1.873,1.38-2.935,2.159.52.121.9.378,1.006-.048.378-.1.686-.2,1-.259a3.778,3.778,0,0,1,1.006-.16,10.492,10.492,0,0,0,3.889-.851c.133-.043.205-.284.309-.257a5.057,5.057,0,0,0,1.265-.2,8.063,8.063,0,0,0,2.122-1.193c.613-.553,1.241-.381,1.873-.366a1.247,1.247,0,0,1,1.177,1.178,1.387,1.387,0,0,1-.516,1.126c-.718.778-1.775.507-2.524,1.135-.849.709-1.987,1.044-2.676,2a18.338,18.338,0,0,0-1.322,1.752,25.649,25.649,0,0,1-3.213,4.061c-.321.371-.77.6-.728,1.178,0,.039-.111.1-.18.114-.749.206-.933,1-1.5,1.419a12.1,12.1,0,0,0-1.661,1.6C535.436,781.062,534.584,782.049,533.72,783.025Z" transform="translate(-69.556 -3.894)"/><path class="a" d="M688.826,757.092a28.817,28.817,0,0,0-1.661,2.706,24.751,24.751,0,0,0-.8,2.521c-.135.39-.443.716-.591,1.1-.384,1-.679,2.032-1.09,3.017-.368.887-.882,1.711-1.262,2.594-.214.5-.242,1.075-.438,1.585-.251.653-.588,1.271-.915,1.96l.387.314c-.019.078-.015.139-.043.169-.209.23-.522.42-.619.686a13.177,13.177,0,0,0-1.187,3.539,12.979,12.979,0,0,1-.425,2.234,1.33,1.33,0,0,1-.463.622,1.547,1.547,0,0,0-.492,1.948c.29.631.106,1.011-.419,1.446a4.779,4.779,0,0,0-.767,1.295c-.172.29-.335.753-.571.8-.531.106-1.2.211-1.561-.366-.3-.483-1.021-.8-.752-1.579a2.729,2.729,0,0,0-.483-.28c.4-.713,1.018-1.362.677-2.292.646-.446-.218-1.277.553-1.848.446-.33.3-1.374.685-1.9a4.563,4.563,0,0,0,.447-1.181c.531-1.28.93-2.624,1.552-3.856a28.672,28.672,0,0,1,1.32-2.984,7.183,7.183,0,0,0,.576-2.252c-.073-.031-.142-.064-.214-.094.169-.052.342-.1.363-.105.266-.677.5-1.268.8-2.047-.857.313-1.612.619-2.386.866-.353.115-.752.076-1.111.169-.728.193-1.44.432-2.162.649a1.861,1.861,0,0,1-.3.042c-1.815.209-3.627.414-5.438.632-.193.024-.371.151-.562.184-.822.151-1.664.23-2.464.453-.366.1-.948.523-.918.725.151,1.06-.722,1.654-.976,2.506-.223.743-.356,1.516-.562,2.419a3.453,3.453,0,0,0-1.06,2.4c.063.71.271,1.456-.368,2.056-.106.1-.1.305-.148.462-.157.522-.314,1.044-.516,1.721a3.116,3.116,0,0,1-.589,2.412,1.7,1.7,0,0,1-1.857.64,1.416,1.416,0,0,1-.737-.721,12.927,12.927,0,0,1-.574-1.586c.069.015.142.033.214.048.2-.667.646-1.383.535-2-.145-.8.347-1.259.5-1.881.106-.426.188-.861.311-1.278.2-.649.417-1.292.632-1.932.045-.136.157-.259.169-.392a7.12,7.12,0,0,1,1.162-2.872,22.816,22.816,0,0,0,1.32-3.672,14.591,14.591,0,0,1,.67-1.437c.184-.377.38-.752.567-1.126a2.109,2.109,0,0,1,.345-.649,1.721,1.721,0,0,0,.655-1.465,5.741,5.741,0,0,1,1.063-2.322c.458-.818,1-1.594,1.467-2.409.106-.184.027-.474.133-.661.51-.93,1.047-1.844,1.588-2.756a12.1,12.1,0,0,0,.71-1.108,1.906,1.906,0,0,1,1.322-.931c.61-.208,1.513.939,1.268,1.558a4.933,4.933,0,0,1-.392.628c-.468.77-.966,1.525-1.386,2.319-.45.858-.815,1.76-1.229,2.636-.6,1.274-1.232,2.536-1.812,3.82a6.951,6.951,0,0,0-.187,1,7.357,7.357,0,0,1-.408.888c.664-.145,1.332-.287,1.96-.426.16.078.354.256.516.232.655-.088,1.3-.28,1.951-.359.882-.106,1.778-.111,2.66-.226.529-.069,1.039-.281,1.564-.4,1.507-.347,3.041-.6,4.518-1.039a3.574,3.574,0,0,0,2.841-3.283c.042-.465.57-.866.785-1.341.181-.4.172-.882.354-1.28a3.086,3.086,0,0,1,.709-.975c1.254-1.151,1.876-1.012,2.648.546C688.576,756.594,688.709,756.86,688.826,757.092Z" transform="translate(-95.642 -3.066)"/><path class="b" d="M376.569,759.8a2.572,2.572,0,0,0-.193.55c-.45,1.039-.933,2.063-1.35,3.11-.525,1.325-.981,2.675-1.5,4-.347.888-.758,1.754-1.13,2.633-.544,1.292-1.09,2.578-1.6,3.88-.4,1.03-.779,2.075-1.126,3.125-.054.169.1.411.166.662-.658.123-.622.634-.749,1.172a12.189,12.189,0,0,1-.942,2.155,4.211,4.211,0,0,0-.2.544c-.075.254-.051.61-.217.752-.477.4-.245.682.018.954a17.609,17.609,0,0,0-.924,1.676c-.051.118.269.4.345.5-.61.836-1.247,1.7-1.866,2.575a1.345,1.345,0,0,0-.176.549,2.684,2.684,0,0,1-1.41,2.051c-.4.217-.6.09-.733-.281-.2-.57-.782-1.047-.463-1.751a11.794,11.794,0,0,0,.61-1.284c.226-.7.378-1.434.562-2.153.027-.118.024-.3.1-.341.686-.366.595-1.118.652-1.658a5.884,5.884,0,0,1,.776-1.884c.16-.344.076-.794.205-1.157.287-.8.674-1.57.952-2.376a9.751,9.751,0,0,0,.38-1.715c.027-.188-.109-.4-.163-.586a3.662,3.662,0,0,0,1.416-2.229,12.979,12.979,0,0,0,.529-1.429c.181-.978.987-1.618,1.274-2.512.338-1.048.5-2.159.891-3.183.371-.964.963-1.842,1.425-2.772a5.25,5.25,0,0,0,.263-.96l-.214-.223a5.226,5.226,0,0,0-.867.386c-.595.4-1.163.846-1.73,1.287-1.066.828-2.114,1.676-3.186,2.494-.861.655-1.751,1.268-2.615,1.918-.695.519-1.374,1.063-2.056,1.6-.909.716-1.812,1.438-2.723,2.147a8.393,8.393,0,0,1-2.168,1.576,27.255,27.255,0,0,0-2.986,1.718c-1.28.6-2.443,1.465-3.744,2a6.071,6.071,0,0,1-4.121.5c-.326-.1-.6-.516-.8-.845a2.776,2.776,0,0,1-.641-1.694c.039-.761.691-.993,1.012-1.5.087-.136.344-.223.347-.338.021-1.165,1.1-1.467,1.721-2.129s1.286-1.267,1.9-1.929a23.723,23.723,0,0,0,1.63-1.923,5.208,5.208,0,0,0,.441-1.214c-.736.139-1.241.233-1.745.33-1.084.206-2.162.474-3.258.6-.879.1-2.364-.422-2.53-1.213-.048-.233-.079-.471-.112-.661a10.516,10.516,0,0,1,1.395-.821,3.14,3.14,0,0,1,1.075-.057c.091,0,.188.094.278.087.988-.073,1.972-.156,2.956-.241,1.431-.118,2.86-.278,4.291-.338.556-.024,1.142,1,1.156,1.576.033,1.238-.818,1.968-1.483,2.815-.761.963-1.5,1.948-2.319,2.856-.48.529-1.156.882-1.649,1.4a6.825,6.825,0,0,0-.712,1.265c-.154.263-.356.495-.665.912a3.281,3.281,0,0,0,.707.018,3.462,3.462,0,0,0,.779-.259c.3-.133.583-.309.885-.444.266-.118.558-.181.815-.314q.946-.493,1.869-1.032a4.966,4.966,0,0,0,.821-.634c3.871-1.845,7.105-4.693,10.729-7-.015-.031-.079-.152-.091-.172.366-.338.658-.815,1.054-.93,1.009-.293,1.519-1.156,2.283-1.718a9.253,9.253,0,0,1,.99-.644c.746-.41.836-.649.4-1.479.323.2.537.33.731.447.607-.326,1.193-.632,1.766-.957.62-.354,1.244-.7,1.83-1.109.35-.241.608-.619.952-.873a1.169,1.169,0,0,1,1.856.272C377.158,758.6,377.131,759.055,376.569,759.8Z" transform="translate(-34.501 -4.099)"/><path class="b" d="M195.8,752.825l-.326-.027a11.988,11.988,0,0,0-.519,1.431,8.5,8.5,0,0,0-.124,1.341c-.009.118.048.268,0,.35-.41.641-.887,1.244-1.253,1.906a18.969,18.969,0,0,0-.912,2.035c-.142.35-.22.728-.347,1.156-.612.033-.645.667-.89,1.12-.09.169-.114.426-.251.513-.821.514-.873,1.432-1.235,2.189A16.436,16.436,0,0,1,189,766.4c-.157.256-.359.486-.5.749-.438.836-.809,1.706-1.289,2.512-.353.591-.882,1.078-1.25,1.664a3.174,3.174,0,0,0-.48,1.3c-.1.9-.848,1.25-1.359,1.806-.042.048-.2.045-.2.063.012.722-.52,1.184-.777,1.764a1.447,1.447,0,0,1-.441.688c-.22.176-.292.535-.446.8a1.937,1.937,0,0,1-.23.287c1.054.864,2.044-.181,3.137-.081.487,1.045.468,1.12-.724,1.728a7.841,7.841,0,0,1-1.075.3c-.3.1-.58.256-.879.347-.45.139-.906.247-1.362.356-.133.031-.292-.021-.4.036-.616.317-1.211.667-1.827.981a1.4,1.4,0,0,1-1.643-.13.917.917,0,0,0-.776-.152c-1.135.556-2.364.39-3.551.541-.384.048-.752.19-1.129.269-.58.121-1.226-.233-1.67-.124a4.561,4.561,0,0,1-2.512-.3,6.169,6.169,0,0,1-1.284-.745c0-.311.027-.661,0-1.009a1.015,1.015,0,0,1,.674-1.12,1.219,1.219,0,0,1,1.379.078,2.085,2.085,0,0,0,1.815.58c.211-.057.474.118.716.121.341,0,.682-.052,1.051-.052.251-.027.5-.048.752-.085a12.1,12.1,0,0,1,1.353-.2c.812-.024,1.624.014,2.437.021.275,0,.553-.045.824-.033.716.036,1.284-.046,1.386-.964.033-.292.441-.529.634-.821.508-.767,1.021-1.537,1.467-2.34a2.532,2.532,0,0,0,.218-1.187c.368-.592.725-1.193,1.1-1.778.674-1.036,1.386-2.044,2.023-3.1.326-.541.489-1.175.782-1.736.354-.685.746-1.35,1.151-2,.57-.93,1.2-1.827,1.74-2.775.308-.544.465-1.168.724-1.742.185-.408.438-.788.649-1.187a34.449,34.449,0,0,0,2.086-4.028,7.807,7.807,0,0,0,.945-3.093c0-.073-.021-.147-.066-.413a15.626,15.626,0,0,0-2.153.021,6.665,6.665,0,0,1-2.524-.335,22.22,22.22,0,0,0-2.512-.242c-.757-.087-1.507-.3-2.264-.313a7.255,7.255,0,0,0-2.047.28,3.323,3.323,0,0,1-2.96-.93c-.541-.4-.4-1.235-.036-1.794a1.853,1.853,0,0,1,1.075-.7,2.267,2.267,0,0,1,2.087.326c.139.115.435.055.658.06a36.06,36.06,0,0,1,4.116.118c1.552.215,3.071.686,4.607,1.036a2.727,2.727,0,0,0,.662.076c1.1-.039,2.207-.167,3.3-.112a1.536,1.536,0,0,1,1.371.933C195.907,751.349,195.675,752.07,195.8,752.825Z" transform="translate(0 -2.302)"/><path class="b" d="M454.754,759.155c-.112.2-.453.269-.758.272-.432.553-.863,1.109-1.383,1.776a1.573,1.573,0,0,0-1.4.885,7.685,7.685,0,0,1-2.134,1.8c-.667.516-1.374.985-2.032,1.513-1.208.972-2.422,1.938-3.575,2.971a15.394,15.394,0,0,0-1.3,1.607,1.439,1.439,0,0,1-.661.519c-.985.209-1.147,1.024-1.543,1.748a6.31,6.31,0,0,1-1.458,1.425c-.955.845-1.74,1.721-1.432,3.18.07.332-.422.782-.646,1.184a7.764,7.764,0,0,0-.528,1.009c-.157.42-.912.875-1.332.683a12.454,12.454,0,0,1-1.389-.8c-.3-.19-.589-.41-.888-.621v-2.595c.592-.431,1.323-.86,1.462-1.794.019-.114.166-.214.263-.311.537-.528,1.081-1.053,1.622-1.582.072-.069.211-.151.2-.209-.091-.553.311-.791.682-.957a2.507,2.507,0,0,0,1.035-1.1,9.149,9.149,0,0,1,1.356-1.389q1.571-1.531,3.152-3.055a27.476,27.476,0,0,1,2.041-1.9c.568-.437,1.289-.673,1.873-1.1a16.188,16.188,0,0,1,2.4-1.89c.948-.435,1.175-1.365,1.854-1.944.438-.375.254-.661-.247-.758a24.7,24.7,0,0,0-5.9-.631c-1.06.052-2.129-.045-3.188.024-.94.064-1.866.3-2.806.389-1.455.136-2.922.151-4.369.332-.444.055-.881.076-1.31.124-1.205.133-1.794-.682-2.431-1.386a1.115,1.115,0,0,1,.069-1.075,2.817,2.817,0,0,1,2.28-.921c1.28.024,2.57.118,3.844.03.864-.057,1.7-.443,2.57-.543a26.1,26.1,0,0,1,2.844-.069c1.106,0,2.21-.006,3.316.026.721.019,1.443.109,2.167.143a4.5,4.5,0,0,1,1-.031c.887.266,1.748.625,2.627.921a11.8,11.8,0,0,1,1.437.408,4.6,4.6,0,0,1,2.367,2.615c.039.106.175.185.2.29C454.751,758.638,454.863,758.965,454.754,759.155Z" transform="translate(-51.192 -3.453)"/><path class="b" d="M277.233,765.7c-.187-.223-.03-.74-.03-1.175-.181-.154-.471-.374-.728-.628a9.123,9.123,0,0,0-1.392-1.386,5.943,5.943,0,0,0-1.927-.667c-.691-.145-1.412-.136-2.117-.23a5.762,5.762,0,0,1-.845-.221c-.752.085-1.41.166-2.068.226-.5.045-1.147-.126-1.458.127a2.534,2.534,0,0,1-1.649.519,9.872,9.872,0,0,0-1.123.287,5.055,5.055,0,0,1-2.165.247,3.214,3.214,0,0,0-2.673.58,17.456,17.456,0,0,0-4.158,3.333c-.371.375-.818.737-.685,1.431.054.284-.224.632-.354.952-.042.1-.151.23-.124.3.432,1.081.7,2.276,1.951,2.8a2.316,2.316,0,0,0,1.848.106,5,5,0,0,0,2.537-1.377c.232-.308.724-.413,1-.707a6.266,6.266,0,0,0,1.172-1.564,11.914,11.914,0,0,0,.483-1.965.615.615,0,0,1,.292-.317c.786-.432,1.57-.864,2.371-1.265a2.889,2.889,0,0,1,.776-.2c.532-.1,1.066-.184,1.6-.269a4.292,4.292,0,0,1,.869-.118,22.149,22.149,0,0,0,2.561.157,2.91,2.91,0,0,1,2.685,1.241.784.784,0,0,1-.254,1.266,2.146,2.146,0,0,0-.544.709c-.2.332-.329.71-.552,1.021-.656.921-1.359,1.806-2.006,2.732a4.378,4.378,0,0,0-.612,1.259c-.287,1.006.087,1.624,1.008,2.431a1.863,1.863,0,0,0,2.2.19,3,3,0,0,0,1.413-1.341l.489-.8c-.06-.036-.118-.073-.175-.109l.716-.221-.266-.169c.33-.984.643-1.893.921-2.814.024-.085-.184-.238-.205-.266.435-.988.864-1.927,1.254-2.881C277.427,766.542,277.632,766.164,277.233,765.7Zm-19.25,2.965a2.622,2.622,0,0,1-.292.069,1.966,1.966,0,0,1-.314.033c-.268-1.4,1.22-1.8,1.558-2.877A1.777,1.777,0,0,1,257.984,768.664Z" transform="translate(-16.979 -4.889)"/><path class="b" d="M517.68,768.772c-.067.525-.589.432-.882.2a17.342,17.342,0,0,1-2.032-1.806c-.543-.595-.9-1.359-1.434-1.969a14.928,14.928,0,0,0-1.383-1.117,3.623,3.623,0,0,1-.6-.779c-.181-.29-.3-.625-.5-.9a.474.474,0,0,0-.458-.01c-.6.559-1.453,1.054-1.694,1.752-.375,1.093-1.507,1.189-2.044,2.026-.725,1.123-1.812,2.039-2.413,3.213-.338.661-.492,1.343-1.165,1.79-.13.085-.019.537-.019.873-.788.193-1.044.6-.878,1.344a.463.463,0,0,1,0,.142c-.052.51-1.567,2.047-2.072,2a1.465,1.465,0,0,1-.824-.465,3.465,3.465,0,0,1-.622-.985c-.081-.181-.085-.577.006-.628,1.054-.553.281-1.09.009-1.655.3-.368.275-1.026,1.048-1.026.142,0,.42-.731.392-1.106a1.156,1.156,0,0,1,.734-1.267,1.347,1.347,0,0,0,.522-.423c.4-.471.788-.96,1.177-1.446a.631.631,0,0,0,.157-.233c.311-1.353,1.588-2,2.271-3.092a8.172,8.172,0,0,1,1.5-1.353c.392-.359.743-.761,1.132-1.123.7-.649,1.45-1.253,2.126-1.93s1.268-1.473,1.963-2.147a5.17,5.17,0,0,1,2.521-1.546c.293-.057.677.314,1,.511.069.039.075.175.12.265.67,1.332.62,1.244-.691,1.984a5.784,5.784,0,0,0-1.624,1.764c-.1.139.233.634.426.927.4.608.773,1.266,1.639,1.308a.333.333,0,0,1,.224.178c.275.722.537,1.45.8,2.174l.178-.118a7.985,7.985,0,0,1,.77,1.033c.212.4.238.906.477,1.283A3.258,3.258,0,0,1,517.68,768.772Z" transform="translate(-64.543 -3.667)"/><path class="b" d="M317.547,762.453a6.716,6.716,0,0,0-4.267-1.6c.006.066.012.133.015.2-.19.242-.335.583-.586.7-1.163.549-2.364,1.014-3.53,1.554a4.2,4.2,0,0,0-1.585.969,14.305,14.305,0,0,0-1.619,2.8,5.173,5.173,0,0,0-.38,2.706,2.225,2.225,0,0,0,.686,1.277,2.365,2.365,0,0,0,1.111.9,7.936,7.936,0,0,0,5.661-1.455c.837-.513,1.682-1.021,2.479-1.591A7.134,7.134,0,0,0,317.8,767c.35-.649.8-.477,1.144-.686A4.382,4.382,0,0,0,317.547,762.453Zm-2.044,2.669a.381.381,0,0,1-.079.221,20.888,20.888,0,0,1-1.749,1.561.353.353,0,0,1-.22.055,3.33,3.33,0,0,0-.39-.009,1.39,1.39,0,0,0-.172.03,2.391,2.391,0,0,0-.786.335c-.035.027-.072.052-.108.076a1.61,1.61,0,0,0-.133.1c-.064.045-.124.094-.185.145-.28.226-.546.474-.836.682a4.644,4.644,0,0,1-.915.411c-.936-.166-1.29-.622-.8-1.3.078-.109.16-.218.244-.323s.169-.209.257-.311c.441-.513.93-.993,1.4-1.483.1-.1.19-.2.284-.293a.146.146,0,0,1,.069-.042.1.1,0,0,1,.033-.012.635.635,0,0,1,.2-.012.3.3,0,0,1,.057.009c.172.039.342.088.511.136.111.033.223.063.338.093.085.021.169.042.254.06s.172.033.257.045a.3.3,0,0,0,.054,0,1.5,1.5,0,0,0,.568-.093c.054-.019.109-.039.16-.06.076-.031.148-.064.221-.1s.145-.069.218-.109c.1-.048.193-.1.289-.148.048-.024.1-.048.145-.069.1-.048.193-.09.293-.13.13-.048.441.039.471.127a.95.95,0,0,1,.036.156A.875.875,0,0,1,315.5,765.122Z" transform="translate(-27.046 -4.783)"/><path class="b" d="M402.142,767.641c0,.006.006,0,.009-.012Zm3.306-9.9a1.688,1.688,0,0,0-.4-1.7,1.133,1.133,0,0,0-1.667.5c-.622.985-1.177,2.006-1.754,3.017-.121.214-.314.462-.287.67.112.807-.477,1.18-.9,1.688a1.133,1.133,0,0,1-.964,1.621,5.442,5.442,0,0,0-1.5.456c-.408.166-.764.544-1.175.607a3.462,3.462,0,0,0-2.53,1.133c-.275.359-.94.446-.758,1.153a.884.884,0,0,1-.28.767c-.577.387-.1.96-.32,1.356-.323.586.175.836.359,1.229.172.362.148.927.414,1.117a3.645,3.645,0,0,0,2.784.936,7.015,7.015,0,0,0,2.95-1.232,6.622,6.622,0,0,0,1.709-2.02c.284-.459.634-.881,1.024-1.407a.281.281,0,0,1,.03-.2c.463-.719.954-1.419,1.41-2.141a1.02,1.02,0,0,0,.212-.688,3.273,3.273,0,0,1,.235-2.041c.278-.782.628-1.541.981-2.392-.027-.079-.193-.3-.151-.471A16.55,16.55,0,0,1,405.448,757.746Zm-6.963,9.113c-.094.172-.181.342-.272.5a3.763,3.763,0,0,1-1.422,1.54c-.151.1-.3.2-.456.3s-.3.2-.446.3c-.06-.06-.118-.123-.178-.187.009-.109.024-.211.042-.314a1.959,1.959,0,0,1,.048-.235v0a.955.955,0,0,1,.033-.118.028.028,0,0,1,0-.015c.019-.063.036-.127.06-.187a.04.04,0,0,1,.006-.018,1.9,1.9,0,0,1,.084-.2,2.492,2.492,0,0,1,.164-.309,1.02,1.02,0,0,1,.078-.111.016.016,0,0,1,.009-.012c.024-.036.052-.073.076-.106.043-.054.088-.108.136-.16a2.127,2.127,0,0,1,.187-.185,1.891,1.891,0,0,1,.205-.169c.073-.054.148-.109.226-.156a2.338,2.338,0,0,1,.214-.127c.079-.045.16-.085.247-.124s.164-.075.251-.108a.024.024,0,0,1,.015-.006c.088-.036.181-.073.275-.1a7.217,7.217,0,0,1,.713-.209C398.678,766.512,398.579,766.687,398.485,766.859Z" transform="translate(-43.99 -3.814)"/><path class="b" d="M516.442,783.087c-.628.377-1.234.788-1.863,1.163a3.185,3.185,0,0,1-.861.4,1.317,1.317,0,0,0-.963.665c-.121.218-.5.289-.77.42-.462.223-.93.434-1.386.664-.3.148-.531.389-.921.109a.756.756,0,0,0-.719.163c-.384.822-1.135.849-1.815.8a10.533,10.533,0,0,1-2.189-.5,1.392,1.392,0,0,1-1.03-1.392,6.428,6.428,0,0,1,.646-3.234c.326-.707.788-1.353,1.175-2.035a15.969,15.969,0,0,1,1.247-2.21,11.721,11.721,0,0,1,3.373-3.192,3.722,3.722,0,0,1,3.985.408,1.411,1.411,0,0,1-1.491,1.153c-1.193.04-1.643.815-2.065,1.719a3.062,3.062,0,0,1-.511.579c-.335.4-.691.776-.993,1.2a7.8,7.8,0,0,0-.939,1.519c-.3.74-.468,1.531-.77,2.564a8.712,8.712,0,0,0,2-.6,10.273,10.273,0,0,1,2.277-.822c1.018-.332,2.02-.715,3.055-.981a18.433,18.433,0,0,1,2.247-.3C517.435,782.486,517.457,782.477,516.442,783.087Z" transform="translate(-65.573 -7.438)"/><path class="b" d="M331.223,761.2a21.165,21.165,0,0,0-.257,2.365c-.045.38-.13.761-.211,1.138-.126.565-.247,1.133-.408,1.688-.081.275-.278.516-.374.788-.233.674-.456,1.35-.646,2.035-.145.522-.214,1.066-.35,1.591-.181.71-.181,1.757-.641,2.041-.869.532-1.4,1.695-2.669,1.583-.791-.069-1.024-.342-.846-1.1.375-1.567.713-3.143,1.09-4.714a8.373,8.373,0,0,1,.371-.873c.29-.8.577-1.595.828-2.4.027-.088-.2-.254-.347-.432.628-.323,1.108-3.566.652-4.173.393-.139.774-.151.532-.836-.233-.664.785-1.839,1.6-2.1.226-.073.447-.169.682-.259A3.127,3.127,0,0,1,331.223,761.2Z" transform="translate(-30.776 -4.141)"/><path class="b" d="M296.418,763.219c-.024.064-.145.145-.13.169.4.74-.38,1.118-.517,1.688a6.367,6.367,0,0,1-1.1,2.817.792.792,0,0,0-.055.716c.39.753-.078,1.052-.616,1.356a.485.485,0,0,0-.224.29,8.278,8.278,0,0,0-.477,2.59c.031.181-.121.556-.223.568-1.2.159-1.066,1.114-1.151,1.9a1.679,1.679,0,0,1-1.673,1.54c-.522.06-.873-.135-.806-.791.006-.047.018-.118-.006-.147-1.268-1.368-.076-2.6.254-3.85.341-1.3.948-2.528,1.2-3.835.1-.5.459-.774.559-1.244a16.509,16.509,0,0,1,.885-2.431c.06-.154.2-.278.28-.432.387-.773.8-1.54,1.132-2.338a1.739,1.739,0,0,1,2.114-1.22,2.107,2.107,0,0,1,.933,1.356C296.9,762.3,296.568,762.782,296.418,763.219Z" transform="translate(-23.805 -4.71)"/><path class="b" d="M395.926,758.674c-.157.236-.537.309-.761.516a8.188,8.188,0,0,0-1.981,3.271,10.564,10.564,0,0,1-.96,1.428c-.423.719-.794,1.468-1.187,2.2a1.95,1.95,0,0,1-.2.384,8.086,8.086,0,0,0-1.911,3.312.675.675,0,0,1-.205.389c-.317.205-.71.338-.447.84-.483.036-.486.377-.567.752-.1.486-1.365.773-1.766.456a1.848,1.848,0,0,1-.442-2.364c.366-.658.77-1.3,1.105-1.966.1-.19-.039-.48.015-.7.1-.387.2-1.042.4-1.081.906-.18.773-.776.731-1.379a2.7,2.7,0,0,1,.039-.39,1.452,1.452,0,0,0,1.582-1.039,11.16,11.16,0,0,0,.9-1.769,10.42,10.42,0,0,1,1.389-2.15c.223-.384.782-.842.377-1.12.371-.489.767-1.042,1.2-1.558a2.2,2.2,0,0,1,1.811-.341C395.633,756.739,396.233,758.209,395.926,758.674Z" transform="translate(-42.525 -3.896)"/><path class="b" d="M404.225,783.731a3.676,3.676,0,0,0-.123.6c-.012.486-.266.667-.725.637a3.558,3.558,0,0,0-1.754.444,8.778,8.778,0,0,1-2.346.359c-.474.067-.942.19-1.416.239-.812.081-1.631.115-2.443.188a9.326,9.326,0,0,0-2.053.263,12.1,12.1,0,0,1-3.941.458c-.027,0-.063-.006-.075.006-.7.84-1.712.45-2.564.589a3.132,3.132,0,0,1-2.516-.468,1.251,1.251,0,0,1-.434-1.649,2.062,2.062,0,0,1,1.564-.583,11.285,11.285,0,0,0,3.889-.2,23.169,23.169,0,0,1,2.98-.284c1.311-.236,2.673.063,3.959-.535a5.4,5.4,0,0,1,1.845-.168c.677-.039,1.353-.046,2.029-.1.931-.081,1.857-.263,2.787-.268A4.227,4.227,0,0,1,404.225,783.731Z" transform="translate(-42.219 -9.136)"/><path class="b" d="M359.718,760.8c-.019.444-.5.6-.966.4-.067-.03-.148-.1-.193-.085-1.4.532-2.781-.2-4.188-.054-1.745.178-3.512.157-5.269.242a7.952,7.952,0,0,0-1.38.214,1.371,1.371,0,0,0-.646.329,1.117,1.117,0,0,1-1.818.07,1.583,1.583,0,0,0-.525-.23c-.525-.2-.966-.459-.769-1.133-.193-.721.35-1.051.818-1.172.93-.244,1.906-.308,2.86-.465a9.225,9.225,0,0,1,1.419-.272,19.183,19.183,0,0,0,2.718.151c1.74-.244,3.352.523,5.052.456a.377.377,0,0,1,.268.1c.5.661,1.251.39,1.887.547A1.212,1.212,0,0,1,359.718,760.8Z" transform="translate(-34.496 -4.355)"/><path class="b" d="M181.616,771.025c-.919-.169-1.782-.344-2.654-.48-.444-.069-.9-.066-1.356-.1-.662-.042-1.322-.121-1.981-.109a2.372,2.372,0,0,0-1.178.269,1.261,1.261,0,0,1-1.763-.072,3.26,3.26,0,0,0-1.06-.432,3.294,3.294,0,0,0,.251-.758c.073-.966.749-1.552,1.655-1.265a5.167,5.167,0,0,0,2.445.223,14.983,14.983,0,0,1,3.267.164c.126.012.239.157.366.22a2.359,2.359,0,0,0,.788.363C181.483,769.143,181.966,769.808,181.616,771.025Z" transform="translate(-1.03 -6.174)"/><path class="a" d="M705.363,773.625c.169.021.326.045.475.069-.148-.021-.305-.045-.477-.066v0Z" transform="translate(-104.703 -7.265)"/><path class="a" d="M709.121,774.352a2.873,2.873,0,0,0,.332.275,2.587,2.587,0,0,1-.335-.272c-.589-.57-1.3-.459-1.993-.5-.111-.006-.22-.018-.332-.031.112.012.221.021.332.027C707.822,773.9,708.528,773.782,709.121,774.352Z" transform="translate(-104.981 -7.304)"/><path class="a" d="M699.27,788.181c.012-.088.031-.176.048-.263-.018.087-.033.175-.045.263a.246.246,0,0,0-.006.051A.256.256,0,0,1,699.27,788.181Z" transform="translate(-103.519 -10.041)"/><path class="a" d="M699.979,789.612h.015c-.019,0-.027,0-.015,0l-.078-.087c.027.027.054.057.081.087Z" transform="translate(-103.642 -10.352)"/><path class="a" d="M700.058,789.62a.519.519,0,0,0,.078-.031A.251.251,0,0,1,700.058,789.62Z" transform="translate(-103.673 -10.366)"/><path class="a" d="M701.353,780.964c.052-.121.106-.236.169-.354-.057.115-.115.233-.166.354q-.326.77-.616,1.555C700.933,782,701.136,781.477,701.353,780.964Z" transform="translate(-103.805 -8.621)"/><path class="a" d="M704.459,774.751a.482.482,0,0,1,.039-.069c-.012.024-.024.045-.036.069-.123.266-.247.534-.368.8C704.215,775.286,704.336,775.017,704.459,774.751Z" transform="translate(-104.457 -7.47)"/><path class="a" d="M706.148,785.709a1.542,1.542,0,0,0,.245-.163,1.325,1.325,0,0,1-.245.166q-.485.253-.96.525C705.505,786.056,705.825,785.878,706.148,785.709Z" transform="translate(-104.669 -9.58)"/><path class="b" d="M455.927,805.223c.006,0,.009,0,.015,0h-.015a.658.658,0,0,1-.076-.019C455.875,805.214,455.9,805.218,455.927,805.223Z" transform="translate(-56.238 -13.399)"/><path class="b" d="M459.168,804.211c.027,0,.054,0,.081,0a.744.744,0,0,1-.085.006,2.228,2.228,0,0,0-.5.07A2.024,2.024,0,0,1,459.168,804.211Z" transform="translate(-56.786 -13.205)"/><path class="b" d="M463.209,796.218c-.242.287-.487.571-.743.843-.109.114-.223.226-.338.338.115-.112.226-.224.335-.338C462.723,796.789,462.964,796.5,463.209,796.218Z" transform="translate(-57.457 -11.653)"/><path class="b" d="M464.2,795.161c-.247.278-.489.568-.733.852C463.712,795.729,463.953,795.439,464.2,795.161Z" transform="translate(-57.718 -11.448)"/><path class="b" d="M463.5,802.2c.293-.163.583-.326.873-.492-.29.166-.579.333-.873.5-.172.094-.344.187-.519.278C463.158,802.391,463.329,802.3,463.5,802.2Z" transform="translate(-57.623 -12.72)"/><path class="b" d="M258.862,770.417a2.4,2.4,0,0,1-.607.106v0A2.4,2.4,0,0,0,258.862,770.417Z" transform="translate(-17.857 -6.642)"/><path class="b" d="M312.634,766.021h0c-.094.1-.188.2-.284.293C312.447,766.218,312.541,766.121,312.634,766.021Z" transform="translate(-28.365 -5.788)"/><path class="b" d="M315.224,768.428a3.538,3.538,0,0,0-.39-.007c-.06.007-.118.019-.172.027a1.38,1.38,0,0,1,.172-.03A3.318,3.318,0,0,1,315.224,768.428Z" transform="translate(-28.814 -6.252)"/></g></svg>