<svg xmlns="http://www.w3.org/2000/svg" width="411.64" height="128.136" viewBox="0 0 411.64 128.136"><defs><style>.a{fill:#b3a09a;}.b{fill:#500003;}</style></defs><g transform="translate(-395.517 -114.096)"><g transform="translate(461.417 114.096)"><path class="a" d="M473.461,125.988c1.614-.819,4.792-2.625,6.177-.558.319.474,1.489.353,1.054-.3-1.94-2.893-5.747-1.133-8.113.067-.624.316.389,1.038.882.788" transform="translate(-423.818 -109.466)"/><path class="a" d="M464.746,123.346c3.562-1.829,10.473-.289,12.9,2.724.194.24,1.2.8.693.17-2.931-3.632-10.312-5.891-14.563-3.71-.115.06.645.983.968.816" transform="translate(-428.032 -110.389)"/><path class="a" d="M489.313,152.038c-2.465,1.422-6.521,2.5-7.864,5.29-1.9,3.942-2.77,9.286-6.616,11.614a70.863,70.863,0,0,1-19.486,7.858c-4.348,1.071-14.756,3-13.717-4.244.332-2.311,3.357-4.935,4.841-6.615a277.651,277.651,0,0,0,18.54-23.009,50.572,50.572,0,0,0,3.6-6.341c.718-1.41,4.271-2.551,3.042-.182-.666,1.281-1.409,2.527-2.124,3.779-2,3.505-3.161,7.4-5.224,10.707-.249.4.944.776,1.142.457,2.786-4.473,4.815-9.861,7.431-14.625,1.76-3.206-.786-3.37-3.413-3.065-1.479.171-2.28,3-2.764,3.948-2.281,4.482-5.377,7.922-8.466,11.79-4.319,5.409-8.315,10.893-12.9,16.084-1.647,1.861-8.231,8.467-4.356,11.076,4.627,3.117,11.936,1.65,16.905.427,6.817-1.678,14.647-4.685,20.25-9.027,1.506-1.166,2.11-5.051,2.8-6.75,1.958-4.832,5.013-6.1,9.371-8.615.475-.274-.663-.745-.984-.558" transform="translate(-439.77 -104.577)"/><path class="a" d="M440.294,165.316c-1.69,5.4,11.977,3.6,13.382,3.413,4.576-.615,26.434-6.18,25.012-12.643-.086-.395-1.168-1-1.047-.454.977,4.439-11.493,8.11-14.563,9.221-2.572.931-23.192,5.762-21.74,1.12.128-.408-.893-1.133-1.044-.657" transform="translate(-439.585 -93.885)"/><path class="a" d="M467.718,150.9c.852.214,1.69.48,2.52.77a11.455,11.455,0,0,1,1.867.847c.363.206.57.55,1.019.509A10.29,10.29,0,0,0,478.166,151c.59-.52-.508-.959-.95-.567-1.1.974-2.94,1.333-4.339,1.71l.731.147a13.364,13.364,0,0,0-5.324-2.237c-.608-.153-1.37.646-.566.847" transform="translate(-426.269 -96.515)"/><path class="a" d="M468.831,150.753c2.478-.622,5.595-1.162,7.7-2.67.435-.31.083-1.52-.4-1.173-2.052,1.467-5.077,1.984-7.494,2.591-.554.14-.342,1.386.191,1.252" transform="translate(-425.808 -98.075)"/><path class="a" d="M471.468,148.846c.025-.015-1.3-.728-.989-.356a1.557,1.557,0,0,1,.232.608,18.629,18.629,0,0,1,.354,4.068c.007.249,1.178.4,1.178.465a30.072,30.072,0,0,0-.228-3.4,3.307,3.307,0,0,0-.341-1.263c-.173-.274-1.1-.757-1.385-.59.147-.086.893.627,1.178.463" transform="translate(-424.841 -97.341)"/><path class="a" d="M462.65,135.37c1.363-.764,4.085.646,5.26,1.36a9.1,9.1,0,0,0,3.786,1.6.54.54,0,1,0,.156-1.062c-3.108-.362-6.646-4.649-9.977-2.782-.7.395.174,1.22.776.883" transform="translate(-429.085 -104.351)"/><path class="a" d="M463.549,135.319c2.073-.572,4.835.295,5.765,2.366.337.751,1.293.127.977-.578-1.135-2.532-4.456-3.733-7.033-3.02-.709.2-.417,1.428.292,1.232" transform="translate(-428.481 -104.416)"/><path class="a" d="M459.643,136.043l.061-.121s.305-1.008.916-1.223a5.25,5.25,0,0,1,4.28,1.223,6.2,6.2,0,0,1,1.284,1.465s.06.366-1.284-.243a3.527,3.527,0,0,0-2.934-1.744l-.826-.152-.52.152-.152.337s-.122.305-.825.305" transform="translate(-430.049 -104.059)"/><path class="a" d="M459.787,136.2c.27-.533.427-1.184,1.087-1.361a4.909,4.909,0,0,1,2.672.346c.182.064,2.917,1.742,2.542,2.2-.255.31-1.062-.211-1.241-.46a4.222,4.222,0,0,0-2.926-1.6,2.464,2.464,0,0,0-1.264-.024c-.118.034-.094.015-.146.13-.191.42-.438.493-.913.536-.079.007.074.267.164.259.812-.073.654-.546,1.237-.718a4.527,4.527,0,0,1,2.977.733c.393.24.633.917,1.023,1.083.027.012,1.336.639,1.328.219-.018-1-2.153-2.283-2.9-2.6a5.212,5.212,0,0,0-2.713-.354c-.682.107-.876.883-1.138,1.4-.037.074.174.3.214.22" transform="translate(-430.086 -104.103)"/><path class="a" d="M459.006,138.055s-.121-1.925,2.14-1.866,3.453,1.224,3.575,2.049-.092.886-.092.886-.794-.092-.764-.337a1.5,1.5,0,0,0-.3-1.13,3.924,3.924,0,0,0-3.087-.764s-.612.305-.7.49a1.856,1.856,0,0,1-.765.672" transform="translate(-430.361 -103.289)"/><path class="a" d="M459.208,138.126c-.058-1.369,1.226-1.785,2.384-1.72a3.788,3.788,0,0,1,2.788,1.322c.115.152.415,1.327.235,1.3-.436-.06-.486-.252-.56-.633-.2-1.016-1.178-1.361-2.1-1.58a2.7,2.7,0,0,0-1.574.033c-.564.29-.855.838-1.4,1.129-.171.091.01.34.159.259a1.872,1.872,0,0,0,.7-.548,2.072,2.072,0,0,1,2.362-.538,2.1,2.1,0,0,1,1.518,1.026c.086.222-.054.66.144.859.977.986,1.229-.346.971-1.069-.774-2.171-6.053-2.91-5.924.125.007.168.311.223.3.031" transform="translate(-430.411 -103.345)"/><path class="a" d="M457.837,140.123l.183-.949a4.654,4.654,0,0,1,2.658-1.251,3.994,3.994,0,0,1,3.086,1.13l.061.917a4.34,4.34,0,0,1-.549-.337,6.792,6.792,0,0,0-2.749-1.039,5.021,5.021,0,0,0-1.681.642.932.932,0,0,1-.305.4c-.153.091-.7.488-.7.488" transform="translate(-430.933 -102.455)"/><path class="a" d="M458,140.24c.048-.249.042-.782.217-.956a4.6,4.6,0,0,1,1.823-1.008,3.639,3.639,0,0,1,3.266.57c.125.085.389.386.383.29.009.13.018.259.025.39.006.073.01.147.015.22-.027.191,0,.22.082.089a8.81,8.81,0,0,0-3.12-1.357c-1.2-.127-2.057.956-2.9,1.564-.118.085.043.353.179.255.9-.646,1.6-1.437,2.788-1.513,1.074-.07,2.18.892,3.081,1.367a.1.1,0,0,0,.155-.1c-.024-.354.077-.874-.2-1.139a4,4,0,0,0-2.38-1.108,4.85,4.85,0,0,0-3.176,1.056c-.41.317-.377.746-.472,1.24-.028.146.2.332.24.14" transform="translate(-430.976 -102.501)"/><path class="a" d="M456.884,141.588a1.476,1.476,0,0,1,1.038-1.772c1.376-.459,4.217-.368,5.166.213a1.071,1.071,0,0,1,.488,1.437,1.394,1.394,0,0,1-.581-.244c-.122-.153-.092-.673-1.528-.888a6.063,6.063,0,0,0-3.666.183s-.4.341-.354.478.137.1.137.1a.477.477,0,0,1-.073.249,2.61,2.61,0,0,1-.594.289Z" transform="translate(-431.417 -101.658)"/><path class="a" d="M457.079,141.637c-.418-1.906,2.268-1.931,3.489-1.923a6.54,6.54,0,0,1,2.339.384c.77.3.952,1.972.119.852-.611-.819-2-.792-2.907-.873-.852-.077-2.387-.091-2.761.891a.15.15,0,0,0,.03.14c.372.445-.475.264-.342.459-.1-.153-.337-.037-.22.134l.033.049a.172.172,0,0,0,.174.07c.356-.135.7-.216.749-.636a.183.183,0,0,0-.176-.179,1.716,1.716,0,0,1,1-.563,4.752,4.752,0,0,1,1.142-.1,6.884,6.884,0,0,1,2.73.454c.566.25.444.689,1.139.855a.121.121,0,0,0,.147-.064c.865-1.839-2.21-2.11-3.255-2.15-1.389-.052-4.174.125-3.718,2.2.034.159.329.2.286.006" transform="translate(-431.468 -101.706)"/><path class="a" d="M455.346,143.168a2.521,2.521,0,0,1,.546-1.212c.411-.377,3.108-.867,5.011-.514s2.362.77,2.515.955a1.09,1.09,0,0,1,.183.57c0,.064-.071.49-.071.49s-.08.1-.15.073-.477-.208-.484-.267a.766.766,0,0,0-.086-.3c-.058-.064-.643-.835-3.014-.932s-3.415.241-3.444.369.071.243-.162.411-.554.466-.843.353" transform="translate(-432.151 -100.779)"/><path class="a" d="M455.515,143.284c.451-2.316,4.348-1.861,6.037-1.514a6.32,6.32,0,0,1,1.413.468c.765.353.307,1.531.063.923a.934.934,0,0,0-.295-.41c-1.008-.9-2.888-.861-4.112-.813a6.626,6.626,0,0,0-2.052.255c-.509.191-.555.782-1.234.891-.161.025-.037.316.107.293.853-.137.963-.853,1.7-1.008a9.051,9.051,0,0,1,5.056.344c.569.241,1.374,1.848,1.57.371.2-1.535-2.969-1.766-3.769-1.833-1.763-.147-4.332-.168-4.74,1.925-.027.143.216.3.253.109" transform="translate(-432.194 -100.842)"/><path class="a" d="M455.068,144.5a.342.342,0,0,1-.11-.587c.335-.393.377-.53.737-.337s-.064.159.812.265a41.1,41.1,0,0,1,5.51.77c.788.347.682.579.618.98a1.374,1.374,0,0,1-.722-.048,7.09,7.09,0,0,0-2.987-.81c-1.494-.042-2.6-.049-2.74-.066s-1.117-.168-1.117-.168" transform="translate(-432.403 -99.718)"/><path class="a" d="M455.1,144.423c-1.069-.664.594-.658.828-.524a.556.556,0,0,0,.262.082c.424.083.873.1,1.3.146a35.385,35.385,0,0,1,4.25.566c.536.122,1.345,1.373.061.7-.174-.091-.369-.168-.548-.246a7.3,7.3,0,0,0-2.353-.508c-1.293-.1-2.547-.031-3.832-.231-.152-.022-.037.264.066.28a21.072,21.072,0,0,0,2.844.211,9.911,9.911,0,0,1,3.339.526,2.529,2.529,0,0,0,1.41.357.052.052,0,0,0,.048-.046c.3-1.881-3.672-1.719-4.764-1.833-.359-.037-1.841.01-2.094-.265-.092-.1-.42-.31-.545-.237-.509.3-.87.9-.265,1.273.153.1.079-.2-.01-.253" transform="translate(-432.444 -99.768)"/><path class="a" d="M458.987,134.559c2.947,8.041,12.64,9.59,17,16.548,3.022,4.817,3.019,10.6,5.547,15.475,2.34,4.509,6.316,7.255,10.315,10.211,6.138,4.539,19.3,15.052,27.2,8.659,4.4-3.561-.006-12.207-1.592-15.7a87.145,87.145,0,0,0-10.037-16.281c-3.43-4.512-7.838-7.863-11.106-12.582a75.489,75.489,0,0,1-6.625-11.48c-1.1-2.395-4.252-2.28-6.263-3.973-2.721-2.29-13.325-13.757-17.991-10.88-2.752,1.7-2.977,4.852-4.129,7.727-1.5,3.744-3.275,8.2-2.323,12.275.183.783,1.194.432,1.016-.338-1.263-5.407,3.942-22.844,12.549-16.2,3.161,2.439,6.229,5.013,9.3,7.563,1.054.874,2.877,3.051,4.384,3.278,4.171.625,8.1,11.075,10.293,14.241,2.159,3.118,4.873,5.565,7.547,8.214,3.5,3.471,6.031,7.852,8.579,12.031,3.176,5.208,13.681,21.848.7,22.789-9.154.666-21.188-10.021-27.655-15.608-6.347-5.483-5.087-16.1-10.524-22.534-4.472-5.3-12.613-6.759-15.181-13.772a.539.539,0,1,0-1.016.338" transform="translate(-430.501 -114.096)"/><path class="a" d="M459,127.708c.027,2.893-.812,7.431,1.721,9.581.579.491.663-.692.28-1.017-1.3-1.1-1.118-2.57-1.133-4.067l-.036-4.077c0-.544-.84-1.249-.832-.42" transform="translate(-430.42 -107.624)"/><path class="a" d="M458.894,128.258c1.407,4.336,6.039,6.192,9.23,8.962a26.34,26.34,0,0,0,6.67,4.521c.563.223-.277-.688-.515-.783a26.876,26.876,0,0,1-5.578-3.738c-2.89-2.621-7.592-4.561-8.841-8.412-.089-.275-1.08-.9-.965-.55" transform="translate(-430.42 -107.22)"/><path class="a" d="M478.611,123.753l-1.19.231a.654.654,0,0,0-.27,1.118c2.046,2.223,2.689,5.769,3.712,8.569.971,2.655,4.722,7.849,3.611,10.668-.273.692.727,1.293,1.027.526,1.258-3.19-1.358-7.234-2.8-10.028-1.78-3.441-2.183-7.8-4.867-10.713q-.136.561-.27,1.118.594-.116,1.19-.231c.715-.14.57-1.4-.143-1.258" transform="translate(-421.585 -109.377)"/><path class="a" d="M484.026,128.3c-4.992-4.074-11.575-12.265-18.133-13.386-8.336-1.424-.874,13.595,2.13,15.682,2.019,1.4,5.47.664,7.595.146,1.51-.369,5.857-2.062,6.646-.655q1.874,3.333,3.756,6.664c1.415,2.5,5.1,14.828,7.848,14.43.064-.009.319-.03.32-.141a17.16,17.16,0,0,0-1.875-8.442c-.491-1.133-6.424-13.3-5.385-14.022a.064.064,0,0,0,0-.1l-.174-.375c-.125-.268-1.331-.188-1.224.04l-.183.53c-.009.016-.018.031-.025.048,2.4,5.881,7.967,14.37,7.635,20.717-.1,1.972-.484-1.826-1.138-3.138-.944-1.9-1.364-4.067-2.466-5.89-2.189-3.619-4.183-7.367-6.254-11.054-.1-.186-.606-.162-.773-.161a33.291,33.291,0,0,0-6.688.99c-9.283,1.988-11.812-5.228-12.336-12.111-.532-6.969,9.532,2.03,11.541,3.715,2.631,2.208,5.3,4.378,7.957,6.549a1.643,1.643,0,0,0,1.224-.04" transform="translate(-428.861 -113.743)"/><path class="a" d="M474.008,128.644a2.545,2.545,0,0,1,1.19-2.147c1.19-.594,5.714-2.08,5.714-2.08a2.737,2.737,0,0,1,1.124.265,1.33,1.33,0,0,1,.231,1.85s-.608-.608-.572-.736.141-.472.07-.5-.247-.377-1.592.083-4.426,1.617-4.579,1.757-.648.627-.624.861c0,0-.012.52-.284.675s-.342.14-.342.14Z" transform="translate(-423.023 -109.048)"/><path class="a" d="M474.169,128.727c.072-2.374,3.285-2.905,5.093-3.528a5.085,5.085,0,0,1,2.119-.533q1.369.179.91,1.7a.98.98,0,0,1-.369-.737.538.538,0,0,0-.016-.368c-.481-.88-3.33.591-3.885.8a14.385,14.385,0,0,0-2.429.98c-.448.271-.983,1.774-1.491,1.514-.167-.085-.241.211-.1.281.478.243.669.189,1.019-.25.292-.365.234-.986.733-1.287a9.933,9.933,0,0,1,1.585-.646c1.154-.445,2.971-1.455,4.22-1.27.36.052.009.308.069.515a2.138,2.138,0,0,0,.609.8.11.11,0,0,0,.189-.046c.366-.88.371-1.757-.593-2.2-.791-.366-1.595.089-2.335.34-2.015.684-5.482,1.181-5.563,3.869-.006.179.235.274.241.067" transform="translate(-423.063 -109.097)"/><path class="a" d="M477.766,128.037a22.18,22.18,0,0,0,1.97-1.214c.483-.365-.45-1.2-.855-.9a22.18,22.18,0,0,1-1.97,1.214c-.508.305.414,1.163.855.9" transform="translate(-421.675 -108.342)"/><path class="a" d="M475.248,130.546a2.623,2.623,0,0,1,1.287-1.5c.92-.365,3.328-1.863,5.64-1.9,0,0,1.016-.025,1.2.731s-.048.956-.048.956a1.625,1.625,0,0,0-.566-.508c-.273-.1-.685-.614-2.868.046a7.022,7.022,0,0,0-3.092,1.546c-.188.189-.73.849-.8.9s-.152.235-.293.21-.494-.411-.462-.482" transform="translate(-422.417 -107.711)"/><path class="a" d="M475.454,130.573c.672-1.867,4.076-2.852,5.8-3.208.831-.171,2.211-.31,2.073,1.309q.31.112-.092-.194a.955.955,0,0,0-.287-.192,1.869,1.869,0,0,0-.673-.264,7.972,7.972,0,0,0-4.26,1.026,4.928,4.928,0,0,0-1.209.792c-.328.295-.944,1.538-1.355.682-.051-.1-.354-.027-.292.1.527,1.1,1.181.1,1.651-.441,1.22-1.406,5.035-3.066,6.432-1.27.064.083.231.045.287-.028a1.2,1.2,0,0,0-.392-1.586,3.65,3.65,0,0,0-2.447,0c-1.792.478-4.835,1.324-5.541,3.281-.045.124.27.107.31-.006" transform="translate(-422.469 -107.742)"/><path class="a" d="M477.284,132a10.8,10.8,0,0,0,1.428-.365c.436-.177,4.506-1.912,4.791-1.949a.464.464,0,0,1,.542.366c.106.284.1.52-.188.555a12.415,12.415,0,0,0-2.527.755c-.661.343-2.217.9-2.56,1.087a5.865,5.865,0,0,1-1.452.6c-.188-.022-.672-.508-.576-.649s.319-.4.319-.4Z" transform="translate(-421.691 -106.473)"/><path class="a" d="M477.431,132.093c2.128-.415,4.052-1.541,6.082-2.272.405-.146.725.658.113.762-.28.048-.557.127-.831.2a13.592,13.592,0,0,0-2.125.791c-.664.293-1.357.517-2.009.834-.356.173-.7.347-1.068.5-.736.3-.733-.809-.162-.809.076,0-.167-.143-.238-.143-1.062,0-.287,1.413.441,1.164,1.013-.344,1.987-.868,2.981-1.272.594-.241,1.157-.527,1.768-.731a14.114,14.114,0,0,0,1.64-.414c.474-.234.2-.806-.2-1-.362-.176-.746.043-1.08.174a33.565,33.565,0,0,1-5.555,2.077c-.086.018.168.156.238.143" transform="translate(-421.719 -106.496)"/><path class="a" d="M477.635,135.26s.141-1,.743-1.3a15.282,15.282,0,0,1,5.217-2.125s1.272-.259,1.451.5-.024.685-.024.685l-.366-.283a1.144,1.144,0,0,0-.661-.118,12.1,12.1,0,0,0-4.849,1.875,2.055,2.055,0,0,0-.225.378.983.983,0,0,1-.919.624c-.555-.058-.366-.234-.366-.234" transform="translate(-421.263 -105.439)"/><path class="a" d="M477.837,135.319c.223-1.282,1.581-1.829,2.648-2.337a15.812,15.812,0,0,1,3.285-1.069c.677-.156,1.6,1.258,1.166.925a.906.906,0,0,0-.262-.153,3.31,3.31,0,0,0-2,.158,12.389,12.389,0,0,0-2.688,1.069,2.683,2.683,0,0,0-1.044.71c-.064.113-.125.231-.18.35a.674.674,0,0,1-.922.347c.022-.039-.262-.15-.308-.074-.149.25.532.34.621.331a.941.941,0,0,0,.794-.359,4.455,4.455,0,0,1,1.777-1.439c.587-.3,3.147-1.57,3.939-.956.036.027.457.415.584.265.411-.485-.2-1.114-.636-1.255a3.856,3.856,0,0,0-2.1.219c-1.578.41-4.648,1.3-4.978,3.194-.012.074.3.138.308.074" transform="translate(-421.311 -105.462)"/><path class="a" d="M478.915,136.7a.9.9,0,0,0,.012.392c.06.118.354.529.5.541a12.125,12.125,0,0,0,1.31-.7,36.811,36.811,0,0,1,4.423-2.147,1.723,1.723,0,0,1,.946.235c.07.083.07-.341.046-.508s-.354-.588-.566-.588a4.035,4.035,0,0,0-2.3.66,22.026,22.026,0,0,1-2.855,1.558,7.813,7.813,0,0,1-.91.341c-.141.012-.615.118-.6.213" transform="translate(-420.631 -104.399)"/><path class="a" d="M478.855,136.681a1.134,1.134,0,0,0,.575,1.141c.235.158,1.179-.6,1.416-.712,1.31-.645,3.788-2.734,5.264-1.9a.053.053,0,0,0,.08-.015c.213-.256.052-.692-.075-.953-.265-.545-.859-.45-1.343-.357a11.475,11.475,0,0,0-3.435,1.736c-.7.412-1.839.491-2.448.975-.085.068,0,.368.1.293a7.125,7.125,0,0,1,1.491-.545,15.219,15.219,0,0,0,2.057-1.111,6.836,6.836,0,0,1,2.736-1.106c.517-.058.326.591.682.692a2.236,2.236,0,0,0-.883-.133A10.86,10.86,0,0,0,481.9,136.2c-.383.2-.764.413-1.148.614s-1.854,1.191-1.727,0c.013-.118-.144-.338-.167-.133" transform="translate(-420.656 -104.449)"/><path class="a" d="M479.778,139.291a.618.618,0,0,1,.52-.508c.459-.071.542.012.9-.034s4.7-1.05,5.476-1.629c0,0,.2-.436.5-.259s.152.494.094.649-.094.482-1.239.755-4.141,1.144-4.249,1.19a4.1,4.1,0,0,1-1.284.368c-.262-.06-.826-.414-.709-.532" transform="translate(-420.208 -102.981)"/><path class="a" d="M479.907,139.444c.116-.484,2.34-.706,2.893-.843a17.612,17.612,0,0,0,3.855-1.214c.743-.386.387.4-.2.654a18.3,18.3,0,0,1-2.3.624c-.362.1-4.107,1.447-4.249.716-.021-.107-.228-.277-.189-.074.262,1.351,2.235.313,2.969.1,1.144-.335,2.3-.619,3.447-.95.654-.188,1.415-.427,1.333-1.257-.015-.156-.378-.651-.609-.43a5.353,5.353,0,0,1-2.333,1.062c-1.047.31-2.112.573-3.179.8-.582.122-1.448-.165-1.634.617-.021.091.17.332.2.2" transform="translate(-420.236 -103.034)"/><path class="a" d="M473.542,148.493c.3,11.721,39.822,32.374,39.963,17.468,0-.4-1.261-.445-1.266-.067-.118,12.54-22.488-1.614-26.287-4.347-4.037-2.905-11.008-7.593-11.145-12.986-.012-.4-1.275-.438-1.266-.069" transform="translate(-423.25 -97.396)"/><path class="a" d="M471.7,125.689a28.133,28.133,0,0,1,3.647-.95c1.1-.122-2.027,2.548-2.027,2.548Z" transform="translate(-424.153 -108.892)"/></g><g transform="translate(395.517 182.218)"><path class="b" d="M529.684,201.381c-.146.313-.209.762-.453.911-.646.393-1.382.64-2.067.977-1.12.551-2.246,1.1-3.342,1.7a19.718,19.718,0,0,1-3.27,1.742,41.136,41.136,0,0,0-3.7,1.814,32.252,32.252,0,0,1-3.711,1.436,27.855,27.855,0,0,1-3.118.608.4.4,0,0,1-.283-.027,25.135,25.135,0,0,1-2-1.891,1.443,1.443,0,0,1,.068-1.85,14.678,14.678,0,0,1,2.892-3.029c1.8-1.573,3.577-3.16,5.37-4.733.313-.271.682-.48.98-.765,1.034-.995,2.088-1.972,3.05-3.029.673-.736,1.176-1.62,1.811-2.4a19.4,19.4,0,0,0,2.814-4.739,9.308,9.308,0,0,0,.756-3.321,4.392,4.392,0,0,0-1.555-3.267c-.628-.652-1.861-.771-2.853-1.016-1.439-.357-2.779.283-4.149.56-1.06.214-2.109.485-3.154.759a4.194,4.194,0,0,0-.867.393c-1.471.777-2.9,1.653-4.417,2.317a29.93,29.93,0,0,0-4.021,2.7,8.8,8.8,0,0,0-1.841,1.343c-1.072,1.188-2.508,1.957-3.464,3.3a25,25,0,0,1-2.764,2.8c-.238.241-.381.581-.628.807a15.075,15.075,0,0,1-1.516,1.236,4.932,4.932,0,0,0-1.552,2.252c-.328.745-.718,1.459-1.051,2.2-.259.575-.423,1.194-.718,1.751a1.032,1.032,0,0,1-1.4.587c-.891-.465-1.31-1.26-1.033-1.924.363-.879.652-1.79,1.078-2.633A13.434,13.434,0,0,0,490.7,193.8a6.09,6.09,0,0,0-.488-3.869.825.825,0,0,0-.8-.11c-.771.518-1.486,1.12-2.222,1.692-.712.554-1.448,1.084-2.124,1.68a6.034,6.034,0,0,0-.962,1.162,1.282,1.282,0,0,1-1.516.471,2.181,2.181,0,0,1-1.1-1.069,1.207,1.207,0,0,1,.375-1.072c.751-.611,1.26-1.5,2.237-1.858.343-.125.569-.533.876-.777,1.2-.944,2.424-1.861,3.613-2.817,1.513-1.221,3.005-2.466,4.491-3.717a1.771,1.771,0,0,0,.295-.563l.083.119a8.135,8.135,0,0,0,.908-.742,17.784,17.784,0,0,0,1.373-1.62,5.877,5.877,0,0,0,.563-1.1,18.2,18.2,0,0,0,1.34-3.094c.14-.566-.277-1.3-.518-1.921a2.359,2.359,0,0,0-.652-.855,5.143,5.143,0,0,0-1.087-.7c-.8-.39-1.611-.748-2.427-1.1a3.7,3.7,0,0,0-.834-.256c-.816-.14-1.638-.289-2.46-.36a6.808,6.808,0,0,0-1.266.128c-.256.027-.569.137-.753.033a8.606,8.606,0,0,1-1.555-1.117,1.163,1.163,0,0,1-.366-.926c.11-.363.471-.882.774-.914a12.192,12.192,0,0,1,2.91.006,26.2,26.2,0,0,1,3.7.745c2.511.694,4.884,1.6,6.606,3.777a7.835,7.835,0,0,1,1.278,3.175,2.414,2.414,0,0,1-.435,1.421c-.6,1.17-1.3,2.3-1.894,3.473a5.88,5.88,0,0,1-1.337,1.719c-.67.617-1.224,1.355-1.87,2a11.841,11.841,0,0,1-1.15.867,9.136,9.136,0,0,0-1.126.956,7.172,7.172,0,0,1-.709.9c1.182,2.034.7,4.5.968,7.014.265-.2.542-.313.673-.521A11.628,11.628,0,0,1,497.372,191c.307-.22.474-.625.76-.882.575-.515,1.188-.992,1.79-1.474.134-.107.372-.14.435-.265.53-1.084,1.662-1.492,2.508-2.21a23.266,23.266,0,0,1,3.467-2.341c2.106-1.206,4.253-2.338,6.4-3.464a11.936,11.936,0,0,1,1.486-.45,18.391,18.391,0,0,1,7.312-1.179c3.16.179,6.251,2.558,5.888,6.314a17.492,17.492,0,0,1-.846,4.065,16.574,16.574,0,0,1-1.626,2.844c-.346.572-.682,1.153-1.069,1.7-.444.628-.953,1.209-1.412,1.826a29.637,29.637,0,0,1-4.819,4.861c-1.489,1.266-2.919,2.6-4.339,3.946-.3.283-1.045.408-.587,1.117a2.21,2.21,0,0,0-2,1.775c1.045.962,2.18.369,3.276.238a5.655,5.655,0,0,0,1.266-.539c1.248-.5,2.529-.929,3.75-1.492,1.358-.625,2.624-1.45,4-2.034,1.885-.8,3.827-1.462,5.76-2.138C529.029,201.127,529.377,201.318,529.684,201.381Z" transform="translate(-353.481 -155.635)"/><path class="b" d="M636.4,177.025c-.5,1.644-1.01,3.282-1.5,4.926-.5,1.668-.941,3.354-1.477,5.01-.363,1.12-.87,2.2-1.272,3.306-.515,1.427-.992,2.871-1.48,4.307-.417,1.221-.864,2.43-1.224,3.669a15.639,15.639,0,0,0-.331,2.016c-.012.072,0,.161-.042.206-1.254,1.322-1,2.984-1.036,4.581a1.333,1.333,0,0,1-.027.363,19.1,19.1,0,0,0-.6,1.85c-.244,1.159-.888,1.474-1.918.9-.515-.286-1.135-.438-1.013-1.245.018-.107-.2-.25-.265-.325.11-.274.226-.509.307-.759a11.56,11.56,0,0,0,.405-1.4c.077-.411,0-.855.1-1.26.116-.48.384-.923.515-1.4a12.62,12.62,0,0,0,.253-1.462c.018-.119-.027-.256.015-.36.459-1.227.941-2.442,1.391-3.672.718-1.966,1.409-3.943,2.121-5.912.372-1.033.792-2.052,1.141-3.094.524-1.573,1-3.163,1.507-4.744.313-.98.661-1.954.953-2.94a13.792,13.792,0,0,0,.271-1.5c-1.126,1.233-2.123,2.305-3.1,3.4-.45.509-.81,1.1-1.272,1.6-1.293,1.415-2.642,2.779-3.919,4.2-.843.938-1.6,1.948-2.4,2.925a.778.778,0,0,1-.155.158c-1.278.876-1.981,2.272-3.047,3.336-1.328,1.325-2.678,2.627-4,3.961-.664.67-1.263,1.406-1.927,2.076-.244.25-.622.363-.891.593a18.976,18.976,0,0,1-3.446,2.612,1.62,1.62,0,0,1-2.484-1.108,7.828,7.828,0,0,1,.11-3.675,7.736,7.736,0,0,0,.125-1.319q.112-1.854.208-3.711a1.049,1.049,0,0,0-.086-.307,23.608,23.608,0,0,0-2.356.733,1.928,1.928,0,0,1-1.9-.066c-.387-.25-.938-.751-.888-1.048a3.714,3.714,0,0,1,.923-1.406,9.776,9.776,0,0,1,.751-.739c1.808-1.835,3.583-3.7,5.432-5.5a18.65,18.65,0,0,0,2.579-3.625,1.879,1.879,0,0,0-.724-1.787c-.715-.25-1.457-.414-2.18-.637a15.425,15.425,0,0,0-5.343-.5,11.374,11.374,0,0,0-2.421.6c-.083.021-.158.182-.185.289-.244,1-.843,1.307-1.754.852a15.36,15.36,0,0,1-1.534-.882c-.542-.351-.337-1.352.384-1.695a11.82,11.82,0,0,1,1.748-.587c1.465-.42,2.889-1.063,4.473-.879q1.756.206,3.509.426c.753.092,1.507.206,2.261.292a5.432,5.432,0,0,1,4.06,2.284c.056.08.17.149.179.232.128,1.153.578,2.266-.152,3.446a10.563,10.563,0,0,1-1.915,2.66,7.522,7.522,0,0,0-1.057,1.555c.435.045.81.066,1.177.122a1.944,1.944,0,0,1,1.656,1.954,1.91,1.91,0,0,1-.813,1.129c-.685.465-1.477.768-2.2,1.179-.8.45-.831,1.307-.923,2.064-.217,1.769-.363,3.547-.5,5.325a3.569,3.569,0,0,0,.188.962,3.866,3.866,0,0,0,.983-.363c.715-.506,1.4-1.06,2.067-1.629.846-.721,1.668-1.474,2.5-2.207.691-.608,1.415-1.179,2.076-1.814.634-.608,1.2-1.284,1.808-1.921.572-.611,1.161-1.206,1.727-1.823.226-.247.384-.56.614-.8.977-1.033,1.978-2.043,2.946-3.086.414-.447.748-.968,1.159-1.418.649-.706,1.367-1.349,1.992-2.073.557-.637,1.013-1.361,1.54-2.022,1.287-1.617,2.606-3.211,3.884-4.837a7.934,7.934,0,0,0,.9-1.5,1.6,1.6,0,0,1,1.5-.9c.67-.06.923.435,1.138.891a4.614,4.614,0,0,1,.512,1.587A4.051,4.051,0,0,1,636.4,177.025Z" transform="translate(-296.957 -153.319)"/><path class="b" d="M536.962,183.8a15.3,15.3,0,0,1-2.21.584,3.559,3.559,0,0,0-2.127,1.1c-.822.819-1.614,1.668-2.463,2.46-.62.584-1.346,1.057-1.957,1.647-1.218,1.176-2.4,2.395-3.577,3.613a.827.827,0,0,0-.143.488c.28.134.649.378.87.289a4.419,4.419,0,0,1,3.24.265c.483.167.983.271,1.474.414,1.412.414,2.01,1.692,2.841,2.713a1.721,1.721,0,0,1,.182.768,8.693,8.693,0,0,1,.024,3.717,26.993,26.993,0,0,1-1.361,4.241,14.64,14.64,0,0,1-2.737,4.083c-.944.965-1.772,2.043-2.663,3.059a.8.8,0,0,1-.479.3c-1.132.027-2.264.015-3.4.015-.027-.074-.057-.149-.083-.223.42-.375.858-.733,1.257-1.129a46.723,46.723,0,0,0,3.988-4.11,22.044,22.044,0,0,0,2.469-4.372,8.049,8.049,0,0,0,.679-5.167,2.554,2.554,0,0,0-1.957-1.817,9.031,9.031,0,0,0-4.06-.5,16.886,16.886,0,0,0-2.639.673c-1.173.384-2.684-.319-2.7-1.394a2.342,2.342,0,0,1,.548-1.376,17.255,17.255,0,0,1,1.474-1.3c.527-.5.995-1.072,1.513-1.587.646-.643,1.328-1.248,1.975-1.894a6.411,6.411,0,0,0,.608-.813c.071-.1.134-.295.191-.295.587.051.822-.447,1.17-.742q1.2-1.019,2.341-2.1c.161-.152.2-.429.348-.768a5.237,5.237,0,0,0-1-.08q-2.354.3-4.7.658c-1.266.194-2.517.524-3.788.611a20.929,20.929,0,0,1-3.958-.128,2.858,2.858,0,0,1-1.456-.929.934.934,0,0,1,.232-1.382,2.024,2.024,0,0,1,1.471-.471,7.3,7.3,0,0,0,4.414-.345,27.791,27.791,0,0,0,6.231-3.193,13.827,13.827,0,0,0,2.392-2.278.685.685,0,0,0-.253-1.159,18.245,18.245,0,0,0-2.091-.685,2.706,2.706,0,0,1-1.882-1.263c-.352-.64-.116-1.287.6-1.281a20.132,20.132,0,0,1,2.853.334c.364.054.7.247,1.066.292a1.637,1.637,0,0,1,1.313.837.808.808,0,0,0,.381.322,2.391,2.391,0,0,1,.572,4.048c-1,.816-1.891,1.76-2.856,2.618a5.957,5.957,0,0,1-1.033.578,10.425,10.425,0,0,0,4.053.092,28.67,28.67,0,0,1,4.354-.325,1.065,1.065,0,0,1,1.1.926C537.725,183.027,537.689,183.59,536.962,183.8Z" transform="translate(-337.325 -153.546)"/><path class="b" d="M592.535,181.661a14.2,14.2,0,0,0-2.427-.459c-.229-.039-.462-.042-.617-.057a6.879,6.879,0,0,1,.03-1.948c.494-1.513,1.1-2.99,1.721-4.456a1.5,1.5,0,0,0-.39-1.736,1,1,0,0,0-1.418.027,5.417,5.417,0,0,0-.646.706,6.057,6.057,0,0,1-.882.98c-1.343.974-2.719,1.909-4.092,2.844-.667.459-1.358.876-2.025,1.334-.861.6-1.7,1.224-2.561,1.823-.825.572-1.668,1.117-2.5,1.686-1.462,1-2.91,2.013-4.378,3-1.09.73-2.207,1.415-3.3,2.132-.569.372-1.1.819-1.683,1.156-.974.557-1.984,1.048-2.975,1.573-1.474.78-2.945,1.573-4.426,2.338a.713.713,0,0,1-.608.039c-.122-.092-.137-.4-.1-.6.313-1.733.6-3.476.995-5.191a18.986,18.986,0,0,1,1.078-3.258c.328-.751.334-1.373-.268-1.751a1.264,1.264,0,0,0-1.882.524,13.278,13.278,0,0,0-.736,1.769c-.217.7-.331,1.424-.512,2.132-.218.855-.477,1.7-.685,2.558-.2.81-.36,1.629-.521,2.448a13.22,13.22,0,0,0-.39,2.287c-.021,1.322.509,2.436,2.418,2.085a9.968,9.968,0,0,0,1.945-.563,11.127,11.127,0,0,0,1.212-.792c.831-.479,1.7-.9,2.517-1.4,1.156-.709,2.275-1.48,3.422-2.21.414-.265.888-.444,1.284-.733,1.543-1.135,3.044-2.329,4.6-3.44,1.683-1.2,3.425-2.32,5.129-3.494a34.475,34.475,0,0,0,3.827-2.764c.87-.8,1.924-1.239,2.832-1.93.369-.277.783-.491,1.23-.765a8.527,8.527,0,0,0-.351,1.757c.009.661-.512,1.188-.167,1.978a3.394,3.394,0,0,0,3.226,2.424c.268.018.53.1.992.182a6.073,6.073,0,0,1-.563,1.126c-.891,1.084-1.811,2.147-2.737,3.2-.908,1.031-1.841,2.037-2.761,3.059-.375.414-.676,1.051-1.138,1.2-.813.268-1.022.911-1.391,1.5-.584.932-1.233,1.823-1.793,2.767a2.024,2.024,0,0,0,.125,2.037,4.357,4.357,0,0,0,5.051.39c.768-.575,1.489-1.212,2.21-1.844a3.511,3.511,0,0,0,.533-3.9,3.125,3.125,0,0,1,.536-3.282,11.944,11.944,0,0,0,3.071-3.106c.533-.867,1.221-1.638,1.736-2.511A2.074,2.074,0,0,0,592.535,181.661Zm-6.794,13.694a3.889,3.889,0,0,1-2.761,1.57c.408-.587.7-1.045,1.031-1.468a2.756,2.756,0,0,1,.753-.688,1.033,1.033,0,0,1,.792-.11C585.7,194.718,585.792,195.135,585.741,195.356Z" transform="translate(-316.852 -153.539)"/><path class="b" d="M689.552,188.175c.271.325.292.6-.1.768a7.57,7.57,0,0,1-1.382.474c-.986.223-1.99.375-2.969.617-.256.063-.462.345-.792.611a8.224,8.224,0,0,0-.84.223A4.759,4.759,0,0,1,680.65,190a.631.631,0,0,1,.268-.947c.661-.429,1.331-.84,2-1.266.259-.167.509-.351.765-.527-.009-.086-.015-.176-.024-.262-1.328-.194-2.66-.369-3.985-.587-1.227-.2-2.445-.459-3.672-.67a10.187,10.187,0,0,0-2.26-.307,28.982,28.982,0,0,1-4.8-.485c-2.225-.241-4.476-.232-6.716-.334-.471-.021-.938-.057-1.406-.092-.119-.009-.253-.1-.357-.071-2,.56-4.051-.164-6.076.277-1.337.292-2.746.223-4.107.414-1.135.161-2.255.447-3.374.709-1.5.348-2.99.736-4.491,1.081a2.352,2.352,0,0,1-.774-.036c-.2-.03-.39-.122-.593-.143-.036-.006-.1.194-.143.3l.655.259c-.354.42-.7.849-1.069,1.26-.777.888-.7,2.037-.968,3.08a8.119,8.119,0,0,0-.229,1.087c-.033.286-.1.688.048.858.575.64.119,1.072-.194,1.57a7.42,7.42,0,0,0-1,1.763,2.858,2.858,0,0,1-1.748,1.811,1.225,1.225,0,0,1-1.433-.712,1.174,1.174,0,0,1,.566-1.534c.634-.241.908-1.054.709-2a1.5,1.5,0,0,1,.074-.619c.039-.164.161-.31.191-.471.188-1.013.343-2.031.542-3.041.369-1.876.739-3.756,1.162-5.62a22.492,22.492,0,0,1,.876-2.99,26.519,26.519,0,0,1,3.118-6.469,1.256,1.256,0,0,1,1.1-.268,1.226,1.226,0,0,1,.667.828,1.913,1.913,0,0,1-.232,1.141c-.337.664-.78,1.278-1.144,1.933a4.937,4.937,0,0,0-.31.923c-.4,1.3-.807,2.6-1.168,3.917a1.735,1.735,0,0,0,.107.721c1.153-.232,2.144-.477,3.151-.628,2.1-.316,4.2-.643,6.314-.846,1.781-.173,3.577-.173,5.367-.259.664-.033,1.331-.143,1.992-.122s1.3.226,1.957.25c1.18.042,2.365-.036,3.544.018,1.966.1,3.925.256,5.888.381,1.331.086,2.669.143,4,.253.971.077,1.942.194,2.9.337,1.194.176,2.38.42,3.574.593a22.988,22.988,0,0,1,2.779.325,14.822,14.822,0,0,0,4.438.754c.206-.006.417.188.619.295.277.149.551.31.828.462.444.241.893.477,1.5.8C689.04,187.519,689.025,187.54,689.552,188.175Z" transform="translate(-278.433 -152.434)"/><path class="b" d="M560.066,184.953a1.439,1.439,0,0,1-.614.8,6.4,6.4,0,0,1-1.668.334c-.486.051-.983.009-1.474.015a.817.817,0,0,0-.435.06c-.753.572-1.653.354-2.49.477-1.388.2-2.782.366-4.039.53-.477,1.647-.968,3.163-1.346,4.706a24.5,24.5,0,0,1-1.668,4.322,13.71,13.71,0,0,0-.84,2.341,7.493,7.493,0,0,0-.024,1.674,7.329,7.329,0,0,0-.709.652c-.289.328-.6.578-.387,1.194.119.36-.393.938-.64,1.409-.179.342-.4.661-.587,1-.295.548-.539,1.132-.876,1.653a1.33,1.33,0,0,1-1.73.119c-.608-.569-.715-1.349-.167-1.8.691-.572.387-1.424.709-2.1.342-.718.584-1.48.873-2.222.036-.092.1-.173.131-.265.646-1.695,1.3-3.386,1.927-5.087.652-1.76,1.281-3.529,1.909-5.3a5.081,5.081,0,0,0,.191-.789c.116-.628-.232-.914-.789-.861a24.912,24.912,0,0,0-6.868,1.522,8.6,8.6,0,0,1-5.715.819,3.626,3.626,0,0,1-2.43-1.4c-.36-.6-.212-1.093.479-1.236,1.516-.313,3.044-.572,4.572-.825,1.284-.214,2.573-.39,3.86-.6a.885.885,0,0,0,.459-.229c1.415-1.456,2.829-2.925,3.008-5.1a3.2,3.2,0,0,0-1.263-2.567c-.366-.354-.873-.628-1.1-1.051a1.4,1.4,0,0,1,.015-1.257,1.36,1.36,0,0,1,1.629-.53,6.589,6.589,0,0,1,2.189,1.486,10.107,10.107,0,0,1,1.174,2.737,3.344,3.344,0,0,1,.22,1.3,6.011,6.011,0,0,1-.336,1.686c-.161.444-.56.8-.721,1.242a7.353,7.353,0,0,0-.191,1.516c1.242,0,2.374.054,3.5-.012,2.013-.113,4.024-.286,6.034-.459,1.358-.116,2.71-.292,4.068-.414a10.1,10.1,0,0,1,1.775-.018C559.836,184.438,560.113,184.837,560.066,184.953Z" transform="translate(-329.675 -152.307)"/><path class="b" d="M433.694,194.792c-.149.337-.206.849-.459.98-1.212.637-2.478,1.179-3.729,1.742-.715.322-1.424.67-2.165.926-1.513.524-3.077.923-4.566,1.513-.992.393-1.71-.128-2.511-.432A1.563,1.563,0,0,1,419.27,198a1.647,1.647,0,0,1,.837-1.373,10.792,10.792,0,0,0,1.537-1.587c.688-.739,1.373-1.474,2.049-2.225a2.854,2.854,0,0,0,.354-.563c.331-.614.646-1.239.983-1.85a1.4,1.4,0,0,0-.777-2.091,3.231,3.231,0,0,0-2.639-.1,2.292,2.292,0,0,1-2.359-1.111c-.182-.459.155-.893.783-1.123,1.2-.441,2.395-.882,3.559-1.4a6.491,6.491,0,0,0,1.171-.9c.876-.664,1.781-1.29,2.63-1.987a2.3,2.3,0,0,0,.908-2.4,1.285,1.285,0,0,0-.456-.637,6.078,6.078,0,0,0-4.006-1.263,5.937,5.937,0,0,1-1.439-.328c-.563-.143-1.022-.5-.885-1.084a1.123,1.123,0,0,1,1.209-.992,16.539,16.539,0,0,1,2.856.447,28.134,28.134,0,0,1,3.916,1.5c.879.417,1.108,1.394,1.442,2.252.53,1.373-.381,2.255-1.063,3.2-.283.39-.876.521-.771,1.227.03.188-.476.5-.78.682-.837.5-1.707.953-2.535,1.468a.61.61,0,0,0-.089.584,1.724,1.724,0,0,0,.581.563,3.1,3.1,0,0,1,1.358,3.735,11.8,11.8,0,0,1-2.406,3.934c-.587.777-1.129,1.584-1.835,2.582a7.114,7.114,0,0,0,1.436-.152c1.275-.444,2.529-.953,3.794-1.424a11.18,11.18,0,0,1,1.129-.337c1.016-.271,2.025-.566,3.053-.768C433.077,194.428,433.4,194.678,433.694,194.792Z" transform="translate(-383.93 -152.433)"/><path class="b" d="M600.867,192.174c-.712.381-1.447.718-2.174,1.075a12.27,12.27,0,0,1-1.578.771c-1.257.408-2.538.733-3.806,1.1a12.065,12.065,0,0,1-2.109.625c-1.784.164-3.535.477-5.364-.167a5.777,5.777,0,0,1-2.511-1.605,1.927,1.927,0,0,1-.1-1.528,17.758,17.758,0,0,1,1.319-3.517,31.1,31.1,0,0,1,2.478-3.562.853.853,0,0,1,.753-.185,1.1,1.1,0,0,0,1.272-.393,5.545,5.545,0,0,0,1.483-3.723c-.018-1.754-.712-2.823-1.942-3.276a1.877,1.877,0,0,0-.87.021,1.43,1.43,0,0,1-1.7-.754,1.043,1.043,0,0,1,.622-1.447,2.881,2.881,0,0,1,2.35.149,12.342,12.342,0,0,1,2.865,1.483,4.127,4.127,0,0,1,1.039,1.546,5.854,5.854,0,0,1,.229,4.816,7.877,7.877,0,0,1-4.229,4.81,2.847,2.847,0,0,0-2.1,2.141,6.837,6.837,0,0,1-.563,1.424c-.2.417,0,.673.354.706a24.567,24.567,0,0,0,4.393.277,44.686,44.686,0,0,0,5.495-1.025c1.126-.244,2.225-.614,3.348-.885a1.626,1.626,0,0,1,.932.042.971.971,0,0,1,.462.6C601.246,191.819,601.031,192.087,600.867,192.174Z" transform="translate(-303.75 -152.225)"/><path class="b" d="M641.989,189.119c-1.022.727-1.978,1.534-3.505.846a9.231,9.231,0,0,1-3.4-2.115,20.035,20.035,0,0,1-1.906-3.011c-.164-.271-.164-.661-.36-.888a.764.764,0,0,0-.727-.137,11.94,11.94,0,0,0-1.468,1.111c-.6.5-1.185,1.028-1.778,1.543a2.883,2.883,0,0,0-1.263,2.144.319.319,0,0,1-.086.2c-1.045,1.135-1.882,2.487-3.345,3.181a1.533,1.533,0,0,1-1.856-.521,1.853,1.853,0,0,1-.092-1.573,30.589,30.589,0,0,1,2.713-3.059,17.185,17.185,0,0,1,1.7-1.519c1.85-1.477,3.717-2.931,5.578-4.393a42.141,42.141,0,0,1,3.788-2.916c1.215-.748,2.451-1.71,4.1-1.185a2.13,2.13,0,0,1,1.316,1.4c.217.53-.411,1.2-.914.959-1.561-.736-2.621.241-3.765.983a12.194,12.194,0,0,1-1.048.667,1.284,1.284,0,0,0-.61,1.948c.164.3.238.652.414.947.64,1.069,1.254,2.162,1.978,3.175.563.783,1.525.7,2.38.8a4.419,4.419,0,0,0,.444,0c.006.03.012.057.015.083a3.23,3.23,0,0,1,.846-.179c.355.018.959.092,1,.256C642.239,188.258,642.233,188.946,641.989,189.119Z" transform="translate(-284.7 -151.606)"/><path class="b" d="M483.922,186.986a4.183,4.183,0,0,1-.774.736c-1.34.751-2.707,1.459-4.065,2.18-.238.125-.477.256-.724.366-1.156.518-2.332,1-3.47,1.552-1.817.885-3.643,1.757-5.4,2.743a9.065,9.065,0,0,1-4.056.923.156.156,0,0,0-.074.009c-1.182.679-1.817-.137-2.409-.929a1.606,1.606,0,0,1-.271-.959,5.446,5.446,0,0,1,1.546-3.24,18.73,18.73,0,0,0,1.081-1.623c-.158-.089-.3-.17-.447-.253.054-.054.081-.1.116-.113.36-.182.825-.271,1.063-.554a10.981,10.981,0,0,0,1.412-2.073,1.464,1.464,0,0,0-1.528-1.981c-1.486.235-2.963.512-4.444.783a1.539,1.539,0,0,0-.533.217c-.283.176-.593.587-.81.536a3.768,3.768,0,0,1-1.489-.721c-.158-.128-.1-.676.027-.956a1.112,1.112,0,0,1,.7-.545c.852-.176,1.724-.25,2.585-.387a13.442,13.442,0,0,1,2.981-.462c1.218.092,2.535-.229,3.648.477a2.768,2.768,0,0,1,.885,1.132,3.051,3.051,0,0,1-.28,2.96c-.825,1.415-1.8,2.737-2.68,4.125a8.511,8.511,0,0,0-.73,1.576c-.03.074.286.4.426.393a13.837,13.837,0,0,0,2.535-.337,15.923,15.923,0,0,0,2.6-1.031c1.534-.733,3.032-1.537,4.557-2.284,1.43-.7,2.856-1.412,4.325-2.019a13.2,13.2,0,0,1,2.761-.751C483.258,186.429,483.607,186.8,483.922,186.986Z" transform="translate(-364.685 -148.892)"/><path class="b" d="M465.656,173.953a18.775,18.775,0,0,0-1.412,2.823c-.789,1.742-1.546,3.5-2.311,5.248s-1.552,3.476-2.284,5.233q-1.372,3.3-2.669,6.636c-.575,1.471-1.114,2.957-1.638,4.447a4.448,4.448,0,0,0-.152,1.078,4.071,4.071,0,0,1-.554,2.138c-.372.548-.634,1.06-1.3,1.293a1.17,1.17,0,0,1-1.608-.977,7.541,7.541,0,0,1,.754-3.9,9.586,9.586,0,0,0,.792-1.981,19.1,19.1,0,0,1,1.876-4.4,17.989,17.989,0,0,0,1.614-3.991,8.551,8.551,0,0,1,.739-1.5c.628-1.242,1.153-2.535,1.724-3.8a5.36,5.36,0,0,0,.369-.709,6.189,6.189,0,0,0,.086-1.025,12.566,12.566,0,0,0,2-3.824c.188-.42.441-.813.634-1.233a13.762,13.762,0,0,0,.739-1.826c.042-.14-.331-.4-.512-.6.587.125.944-.167,1.072-.867a.984.984,0,0,1,.932-.894,1.111,1.111,0,0,1,1.1.551C466.445,172.935,466.389,172.869,465.656,173.953Z" transform="translate(-368.024 -154.233)"/><path class="b" d="M460.507,185.743c-.042.11-.435.161-.652.128-.7-.107-1.391-.3-2.094-.381-.182-.021-.4.232-.6.36-.176.116-.34.313-.53.343a2.072,2.072,0,0,0-1.4,1.1c-.441.679-.962,1.3-1.436,1.966s-.917,1.316-1.319,1.894c.438.28.986.482.974.655a2.22,2.22,0,0,1-.488,1.313c-.747.8-1.6,1.5-2.415,2.225a2.223,2.223,0,0,1-2.433.22,1.263,1.263,0,0,1-.429-1.048,9.188,9.188,0,0,1,1.069-2.252c.578-.882,1.293-1.674,1.948-2.5.2-.25.414-.488.6-.742q.952-1.264,1.888-2.54c.125-.17.235-.351.354-.527-.027-.074-.051-.146-.074-.217a14.386,14.386,0,0,0-1.835.143c-1.156.232-2.29.587-3.446.813a17.034,17.034,0,0,0-3.6.617c-1.853.828-3.777.432-5.65.7a6.319,6.319,0,0,1-3.75-.384c-.521-.256-.92-.551-.8-1.06a1.635,1.635,0,0,1,.876-.852,1.838,1.838,0,0,1,1.093-.033,12.759,12.759,0,0,0,4.4.024c1.316-.167,2.657-.143,3.973-.31,1.686-.217,3.354-.56,5.033-.813,1.287-.191,2.579-.334,3.872-.482.876-.1,1.751-.223,2.627-.253a8.046,8.046,0,0,1,2.338.131,5.806,5.806,0,0,1,1.784,1.051A.777.777,0,0,1,460.507,185.743Z" transform="translate(-376.509 -148.108)"/><path class="b" d="M414.031,176.067a15.97,15.97,0,0,1-1.3,3.392,12.243,12.243,0,0,1-1.8,2.153c-.4.45-.876.84-1.263,1.3a15.149,15.149,0,0,1-4.062,3.032,5.157,5.157,0,0,1-3.449.7,2.073,2.073,0,0,1-1.486-3.014,9.329,9.329,0,0,1,3.041-3.142,34.388,34.388,0,0,1,3.092-1.912,3.383,3.383,0,0,1,1.367-.241c.074-.006.3.435.241.5a11.939,11.939,0,0,1-1.4,1.552c-1.275,1.12-2.6,2.183-3.887,3.291-.137.119-.149.384-.22.581a1.993,1.993,0,0,0,.6.068,6.8,6.8,0,0,0,3.639-2.377c.2-.217.474-.363.664-.584.444-.515.864-1.054,1.284-1.593.182-.229.328-.485.515-.709a11.8,11.8,0,0,0,2.46-7,7.272,7.272,0,0,0-.366-1.4l-.17-.018a2.217,2.217,0,0,0,.185-.751c-.062-.53.036-1.048.566-1.126.423-.063,1.144.077,1.3.363a14.706,14.706,0,0,1,1.06,2.8,10.69,10.69,0,0,1,.074,1.251C414.892,174.247,414.284,175.12,414.031,176.067Z" transform="translate(-393.115 -155.477)"/><path class="b" d="M417.247,195.054c-1.1.587-1.966,1.528-3.211,1.906a13.53,13.53,0,0,0-1.936,1.117,11.465,11.465,0,0,1-1.578.575,2.433,2.433,0,0,1-2.1-.688,1.429,1.429,0,0,1,.152-1.778,45.01,45.01,0,0,1,2.895-4.482c.873-1.051,1.15-2.344,1.9-3.413.408-.578-.232-1.82-.989-2.022a6.41,6.41,0,0,0-4.682.229,3.39,3.39,0,0,0-1.161.685,1.1,1.1,0,0,1-1.561.256c-.87-.42-1.287-1.215-.867-1.82a1.867,1.867,0,0,1,.986-.721c1.456-.337,2.931-.625,4.411-.846a10.123,10.123,0,0,1,3.776.348,3.666,3.666,0,0,1,2.445,4.146,11.313,11.313,0,0,1-2,4.158,27.721,27.721,0,0,0-1.349,2.478c.211.071.271.113.3.1,1.269-.6,2.523-1.221,3.8-1.784a10.7,10.7,0,0,1,1.6-.432A1.705,1.705,0,0,1,417.247,195.054Z" transform="translate(-391.393 -148.031)"/><path class="b" d="M437.976,181.483c-.217,1.239-.676,2.484-.31,3.771.322,1.138,1.114,1.489,2.35,1.653a11.676,11.676,0,0,0,3.845-.471c.593-.11,1.147-.417,1.739-.545a.868.868,0,0,1,.75.259.822.822,0,0,1-.164.765,5.629,5.629,0,0,1-1.647,1.322,10.219,10.219,0,0,1-5.462,1.007,7.185,7.185,0,0,1-2.421-1.135,3.558,3.558,0,0,1-1.066-1.176c-.831-1.361-.53-2.853-.384-4.316.048-.488.161-.971.241-1.459.018-.1-.009-.211.036-.286.438-.73.917-1.433,1.322-2.177a9.608,9.608,0,0,1,2.517-2.761c.042-.036.033-.131.036-.143-.673-.2-1.29-.334-1.873-.557a1.184,1.184,0,0,1-.914-1.346c.074-.423,1.087-.923,1.689-.864.908.086,1.811.244,2.719.292a7.635,7.635,0,0,0,2.779-.131,10.329,10.329,0,0,1,2.949-.241c.247,0,.491.39.721.587-.891,1.468-2.338,1.519-3.669,1.778-.468.089-.893.092-1.206.566a1.527,1.527,0,0,1-.873.53c-1.659.408-2.3,1.73-2.895,3.106A9.38,9.38,0,0,0,437.976,181.483Z" transform="translate(-376.188 -153.432)"/><path class="b" d="M422.269,182.3a.88.88,0,0,1-1.218-.366c-.086-.119-.143-.262-.217-.39-.864-1.483-2.4-1.57-3.845-1.8-.161-.024-.459.265-.554.474-.512,1.1-.926,2.255-1.483,3.333a15.623,15.623,0,0,1-1.34,1.829c-.676.932-1.316,1.888-2.013,2.809-.351.462-.834.768-1.4.34a.972.972,0,0,1-.331-1.456c1.06-1.79,2.115-3.592,3.029-5.456a18.681,18.681,0,0,0,1.662-3.922,13.955,13.955,0,0,1,1.59-3.866c.905-1.507,1.206-3.294,2.347-4.685a2.75,2.75,0,0,1,2.186-1.185c.152.1.587.235.73.518.182.354,0,.739-.429.974-.209.116-.316.42-.459.643a21.289,21.289,0,0,0-2.073,4.736c-.155.459-.363.9-.563,1.346-.322.715-.211.992.518,1.194a4.393,4.393,0,0,0,1.084.235,2.679,2.679,0,0,1,2,1.233,6.158,6.158,0,0,1,1.4,2.225C423.1,181.762,422.707,182.044,422.269,182.3Z" transform="translate(-388.597 -155.873)"/><path class="b" d="M456.649,182.334a7.6,7.6,0,0,1-4.039,1.659c-2.076.307-4.179,1.01-6.338.378a4.529,4.529,0,0,1-2.776-2.946.536.536,0,0,1,.083-.343q.844-1.2,1.713-2.38c.063-.086.211-.1.313-.167.438-.277.873-.56,1.307-.84-.039-.1-.081-.191-.119-.286-.655-.068-1.31-.116-1.96-.211a2.6,2.6,0,0,1-.891-.286c-.42-.238-.917-.474-.649-1.135a1.306,1.306,0,0,1,1.468-.819c.977.226,1.942.512,2.922.718a3.808,3.808,0,0,0,1.287.036c.774-.1,1.537-.283,2.308-.414a.961.961,0,0,1,1.191.512c.185.468.262.977-.3,1.3a26.486,26.486,0,0,1-3.264,1.823,5.63,5.63,0,0,0-1.921,1.617c-.521.539.137,1.4,1.132,1.328a8.5,8.5,0,0,1,1.856.155,8.565,8.565,0,0,0,3.994-.762,17.117,17.117,0,0,1,2.174-.593.89.89,0,0,1,1.045.745C457.316,181.885,456.958,182.06,456.649,182.334Z" transform="translate(-372.184 -152.461)"/><path class="b" d="M619.166,162.511a13.933,13.933,0,0,0-1.069,2.323c-.331.837-.518,1.736-.9,2.546-.727,1.534-.926,3.279-1.939,4.706a8.9,8.9,0,0,0-.6,1.474c-.515,1.117-1.036,2.231-1.6,3.324-.247.477-.631.879-.9,1.346a5.346,5.346,0,0,1-2.3,2.2,3.248,3.248,0,0,1-.477.119,3.212,3.212,0,0,1-.932-.622c-.1-.122.17-.587.345-.846a13.6,13.6,0,0,1,.959-1.2,9.9,9.9,0,0,0,1.519-3.392,16.139,16.139,0,0,0,1.048-2.767c.238-1.507,1.483-2.594,1.51-4.2.012-.676.637-1.337.956-2.016.488-1.042.959-2.091,1.424-3.145a2.961,2.961,0,0,0,.22-.765,1.993,1.993,0,0,1,1.31-1.656c.45-.173.873-.158,1.084.42.116.322.342.6.482.917A1.2,1.2,0,0,1,619.166,162.511Z" transform="translate(-291.371 -159.841)"/><path class="b" d="M408.344,170.021a.588.588,0,0,1-.328.426,3.232,3.232,0,0,0-1.841,1.656c-1.412,2.24-2.934,4.408-4.378,6.63-.414.637-.688,1.364-1.057,2.034-.259.471-.575.911-.858,1.367a9.229,9.229,0,0,0-.736,1.239c-.506,1.227-.935,2.484-1.453,3.708a1.513,1.513,0,0,1-.757.858c-.265.074-.724-.223-.968-.48a1.451,1.451,0,0,1-.363-1.561,23.386,23.386,0,0,0,.524-2.3c.375-.48.691-.822.941-1.206.59-.894,1.153-1.8,1.715-2.716.378-.617.727-1.251,1.114-1.864.849-1.346,1.712-2.68,2.567-4.021.185-.289.348-.593.533-.882a20.359,20.359,0,0,1,3.16-4.062.863.863,0,0,1,1.141-.113C407.826,169.023,408.389,169.294,408.344,170.021Z" transform="translate(-395.517 -155.572)"/><path class="b" d="M567.8,178.723a27.134,27.134,0,0,1-1.364,2.454.608.608,0,0,1-.256.256,3.3,3.3,0,0,0-1.716,2.064,2.7,2.7,0,0,1-3.023,1.215c-.608-.22-.616-.6-.363-1.039a4.938,4.938,0,0,0,1.007-2.058c.051-.465.879-.846,1.355-1.266.131-.11.4-.241.381-.322-.2-1.019.721-1.552,1.045-2.335a3.369,3.369,0,0,0,.113-2.478c-.214-.634-.685-1.179-.965-1.8a1.457,1.457,0,0,1-.146-1.072c.205-.363.676-.581.926-.774a3.01,3.01,0,0,1,2.5,1.793,11.864,11.864,0,0,1,1.045,3.258A4.243,4.243,0,0,1,567.8,178.723Z" transform="translate(-314.607 -154.103)"/><path class="b" d="M469.889,179.849c-.715.161-1.412.405-2.118.6-.685.194-1.376.378-2.061.566-.012-.039-.021-.074-.03-.11-.622.1-1.254.182-1.87.322a1.712,1.712,0,0,1-2.025-2.4c.715-1.549,1.45-3.094,2.073-4.685a3.712,3.712,0,0,1,.959-1.665,1.443,1.443,0,0,1,1.939.033,1.078,1.078,0,0,1,.069,1.647c-.914.953-1.09,2.258-1.707,3.354-.417.736-.051,1.17.825,1.111,1.2-.086,2.4-.244,3.6-.351.459-.042.852.063.905.631C470.49,179.357,470.455,179.721,469.889,179.849Z" transform="translate(-363.191 -153.835)"/></g></g></svg>