<svg xmlns="http://www.w3.org/2000/svg" width="466.752" height="114.465" viewBox="0 0 466.752 114.465"><defs><style>.a{fill:#72685d;}.b{fill:#b3a09a;}</style></defs><g transform="translate(-747.502 -116.9)"><g transform="translate(747.502 168.171)"><path class="a" d="M1003.816,182.618c-.266.244-.5.653-.8.707q-3.789.68-7.6,1.233a2.747,2.747,0,0,0-2.561,2.377c-.352,1.556-.9,3.068-1.261,4.621-.365,1.569-.6,3.166-.9,4.751-.133.694-.292,1.382-.441,2.073-.174.8-.377,1.585-.517,2.384-.076.431-.276.59-.691.558-.235-.019-.475,0-.713,0-1.119,0-1.192-.193-.926-1.325.279-1.179.4-2.4.586-3.6.016-.1.038-.2.063-.3.159-.675.3-1.357.475-2.029a18.9,18.9,0,0,0,.586-2.1,21.957,21.957,0,0,1,1.547-5.826,1.841,1.841,0,0,0,.1-.856c-.124-1.591.815-2.859,1.271-4.276.32-.989.52-2.022.751-3.04.108-.479.165-.967.279-1.677a4.79,4.79,0,0,0-.878.59,36.228,36.228,0,0,1-6.745,6.168c-1.645,1.16-3.325,2.276-4.957,3.449-.976.7-1.861,1.531-2.849,2.206-.83.567-1.759.986-2.631,1.49a10.863,10.863,0,0,1-1,.691c-1.442.621-2.894,1.23-4.365,1.778-.891.333-1.55-.491-2.361-.624-.07-.01-.165-.165-.165-.254,0-1.1-.39-2.231.307-3.281a7.506,7.506,0,0,0,.691-1.417.8.8,0,0,0-.019-.656c-.073-.1-.409-.051-.625-.022a24.246,24.246,0,0,1-2.466.339,2.432,2.432,0,0,1-2.111-2.894,24.344,24.344,0,0,1,2.514-6.155c.618-1.151,1.093-2.374,1.613-3.575.206-.469.044-.84-.5-.767a8.9,8.9,0,0,0-3.854.919,1.49,1.49,0,0,1-1.179.165,13.623,13.623,0,0,1-1.88-1.094,1.512,1.512,0,0,1,1.724-1.306,15.1,15.1,0,0,0,2.361-.542c1.008-.19,2.022-.342,3.043-.463,1.322-.155,2.653-.279,3.981-.384,1.274-.1,2.548-.19,3.823-.216a9.85,9.85,0,0,1,1.613.25,16.269,16.269,0,0,1,2.168.345c.32.1.542.526.805.805-.317.177-.7.574-.941.5-2.038-.618-3.991.168-5.978.292a14.3,14.3,0,0,0-1.521.25,2.913,2.913,0,0,0,.19.485c.421.628-.063,1.056-.482,1.008-.948-.1-1.2.618-1.452,1.128-.938,1.949-1.775,3.946-2.605,5.943a10.063,10.063,0,0,0-.628,2.155c-.12.71.345,1,1.04.761,1.338-.463,2.719-.83,4.006-1.4a4.088,4.088,0,0,0,2.162-2.3,7.368,7.368,0,0,1,.881-1.531c.732-1.017,1.49-2.022,2.276-3a1.3,1.3,0,0,1,.821-.539,2.707,2.707,0,0,1,1.334.46c.089.06-.143.713-.32,1.043-.482.894-1.014,1.759-1.525,2.64a3.225,3.225,0,0,1-.2.422c-.6.773-.6.77-.26,1.534-.681.875-1.344,1.737-2.022,2.586a.811.811,0,0,1-.437.314c-1.347.171-1.971,1.176-2.583,2.2a9.841,9.841,0,0,0-1.014,1.835,1.5,1.5,0,0,0,.311,1.192,1.09,1.09,0,0,0,.992.1,19.573,19.573,0,0,0,3.962-1.87c2.022-1.468,4.247-2.586,6.3-3.991a2.455,2.455,0,0,0,.605-.5c.843-1.113,2.228-1.433,3.262-2.263.288-.228.583-.447.865-.681,1.284-1.075,2.571-2.143,3.835-3.239a8.093,8.093,0,0,0,.872-1.011c.349-.418.694-.837,1.03-1.268.748-.964,1.566-1.892,2.216-2.919.672-1.068,1.147-2.257,1.778-3.35a1.3,1.3,0,0,1,1.75-.377c.5.3.51.872.25,1.588-.5,1.372-.926,2.777-1.353,4.178-.219.72-.358,1.461-.561,2.187-.482,1.74-1,3.474-1.461,5.22-.212.808,0,.986.83.884,1.227-.155,2.453-.269,3.677-.431a12.357,12.357,0,0,1,1.217-.269,18.574,18.574,0,0,1,2.786.1C1003.325,181.918,1003.556,182.361,1003.816,182.618Z" transform="translate(-623.455 -138.147)"/><path class="a" d="M1073.944,175.328a5.23,5.23,0,0,1-.96,2.032c-1,1.655-2.054,3.281-3.081,4.926a1.715,1.715,0,0,0-.225.5,6.449,6.449,0,0,1-.751,1.848,13.075,13.075,0,0,0-.811,2.444c-.368,1.049-.824,2.07-1.157,3.128-.38,1.214-1.477,1.914-2.028,2.992a4,4,0,0,0-.285.631,1.631,1.631,0,0,1-2.247,1.049c-.339-.146-.659-.33-.989-.494a.829.829,0,0,1-.336-1.331,15.9,15.9,0,0,0,1.791-2.13c.973-1.715,2.343-3.23,2.751-5.243a6,6,0,0,1,.4-1.113c.45-1.055.881-2.124,1.385-3.154.342-.694.805-1.331,1.2-2,.387-.65.761-1.3,1.135-1.959.409-.723.8-1.455,1.22-2.168.285-.485.143-.72-.349-.973-2.517-1.3-5.271-1.509-8.007-1.832-.888-.1-1.759-.327-2.65-.406-1.281-.114-2.568-.168-3.854-.212-2.206-.073-4.415-.2-6.622-.149-2.466.057-4.932.25-7.395.447-2.032.162-4.067.323-6.073.647a43.3,43.3,0,0,0-4.422,1.138c-1.011.276-2.026.552-3.014.9a16.3,16.3,0,0,0-4.862,2.228,7.992,7.992,0,0,1-1.151.491c-1.417.761-2.849,1.5-4.222,2.336-1.23.745-2.393,1.6-3.585,2.409a14.275,14.275,0,0,0-1.22.859c-1.683,1.414-3.306,2.9-5.04,4.257a38.266,38.266,0,0,0-4.342,4.377c-.945,1.014-1.924,2-2.834,3.049-.662.761-1.258,1.585-1.845,2.406a1.564,1.564,0,0,1-2.377.247.619.619,0,0,1-.1-.558,15.139,15.139,0,0,1,.929-1.537,22.654,22.654,0,0,0,1.331-1.908,20.082,20.082,0,0,0,.78-2.092c.064-.155.27-.25.365-.4a15.231,15.231,0,0,0,2.7-6.14,3.064,3.064,0,0,0-2.3-3.569,18.038,18.038,0,0,0-5.135-.577,39.838,39.838,0,0,0-4.682.428,8.073,8.073,0,0,1-2.428-.067,1.765,1.765,0,0,1-1.125-1.049c-.171-.628.453-1.008,1-1.227.8-.32,1.62-.564,2.422-.865.735-.279,1.148-.022,1.354.748a.912.912,0,0,0,.647.564c1.651-.032,3.309-.254,4.954-.184a11.658,11.658,0,0,1,5.506,1.493,4.271,4.271,0,0,1,1.914,3.689c.073,1.084.016,2.181.016,3.363.926-.1,1.4-.951,2.063-1.506.853-.713,1.607-1.547,2.46-2.257,1.312-1.087,2.653-2.149,4.026-3.157.751-.548,1.6-.954,2.4-1.442,1.071-.65,2.121-1.334,3.2-1.972.948-.558,1.9-1.122,2.881-1.6.964-.466,1.984-.811,2.97-1.227a35.872,35.872,0,0,1,3.81-1.61c2.035-.6,4.114-1.052,6.2-1.455a50.335,50.335,0,0,1,8.311-.754c1.883-.051,3.756-.447,5.639-.545,2.073-.108,4.152-.06,6.225-.057.631,0,1.261.079,1.892.114a56.67,56.67,0,0,1,5.835.38,39.621,39.621,0,0,1,8.729,1.981A2.845,2.845,0,0,1,1073.944,175.328Z" transform="translate(-607.201 -137.1)"/><path class="a" d="M770.224,155.519c-.057-1.674-.127-3.347-.269-5.014a1.418,1.418,0,0,0-.593-1.059,2.77,2.77,0,0,0-1.693-.108c-.59.174-.4.758-.317,1.281a17.082,17.082,0,0,1,.317,3.2c-.029,1.353-.32,2.7-.374,4.054a17.367,17.367,0,0,1-1.512,5.531c-.827,2.165-1.7,4.314-2.59,6.453-.571,1.369-1.208,2.713-1.807,4.07a15.731,15.731,0,0,1-.805,1.845c-.637,1.049-1.366,2.038-2.044,3.062a2.73,2.73,0,0,1-2.644,1.233,2.442,2.442,0,0,0-1.011.067,5.934,5.934,0,0,1-3.483.057,4.851,4.851,0,0,0-3.236.171c-.811.409-.916,1.42-.089,1.778a10.823,10.823,0,0,0,3.141.865c1.483.143,3-.035,4.485.054a12.36,12.36,0,0,1,2.783.545c1.949.58,3.838,1.3,4.685,3.4a1.627,1.627,0,0,1,.1,1,23.214,23.214,0,0,1-1.189,3.214,21.983,21.983,0,0,1-2.9,4.564c-1.211,1.426-2.3,2.957-3.436,4.447-.19.247-.342.529-.548.761a13.359,13.359,0,0,0-2.659,3.861,3.028,3.028,0,0,0-.314,2.006c.786,1.7,2.38,2.84,4.58,1.525.894-.536,1.807-1.04,2.678-1.613a11.512,11.512,0,0,0,2.675-1.965c1.3-1.588,3.056-2.888,3.442-5.141a4.706,4.706,0,0,0,.127-2.529.968.968,0,0,1,.022-.688c.358-.688-.013-1.227-.336-1.75-.263-.418-.662-.751-.932-1.17a1.206,1.206,0,0,1-.225-.853,8.82,8.82,0,0,1,.808-1.861,5.032,5.032,0,0,0,.45-4.3,7.682,7.682,0,0,0-1-2.048,5.83,5.83,0,0,0-1.61-1.544c-1.043-.634-2.184-1.113-3.281-1.655-.067-.108-.13-.212-.2-.317,1.065.311,1.363-.412,1.74-.96a13.566,13.566,0,0,0,.545-1.277c.545-1.017,1.182-1.987,1.677-3.024.574-1.2,1.008-2.466,1.55-3.683.526-1.182,1.192-2.311,1.658-3.515,1.122-2.9,2.168-5.826,3.224-8.748a6.306,6.306,0,0,0,.361-1.6A23.48,23.48,0,0,0,770.224,155.519ZM763.5,195.165a13.624,13.624,0,0,1,.571,1.746c-.3.761-.615,1.544-.926,2.327-.019.048-.079.082-.085.13-.51,2.992-3.252,3.873-5.227,5.461a7.257,7.257,0,0,1-1.876.913.7.7,0,0,1-.643-.1c-.1-.108-.041-.463.07-.628.751-1.119,1.54-2.219,2.317-3.325.06-.086.155-.152.193-.247a10.852,10.852,0,0,1,3.075-4.019,13.668,13.668,0,0,0,1.715-2.209C762.971,194.8,763.266,194.693,763.5,195.165Z" transform="translate(-747.502 -149.251)"/><path class="a" d="M939.648,192.136a2.7,2.7,0,0,0-.339.751,17.173,17.173,0,0,0,2.013-.206,11.491,11.491,0,0,0,2.3-.7c1.43-.656,2.8-1.426,4.219-2.111a3.973,3.973,0,0,1,1.09-.171c-.136,1.445-1.242,1.864-2.14,2.463-.881.59-1.778,1.151-2.65,1.75a10.4,10.4,0,0,1-4.51,1.686,3.219,3.219,0,0,1-2.222-.238,1.933,1.933,0,0,1-.881-2.1,9.444,9.444,0,0,1,2.688-4.086c.894-.846,1.746-1.731,2.6-2.612,1.569-1.613,3.23-3.154,4.653-4.891a20.018,20.018,0,0,0,2.444-4.1,19.069,19.069,0,0,0,1.056-3.433.822.822,0,0,0-1.132-1c-1.011.58-1.914,1.341-2.891,1.978-1.132.739-1.8,2.032-3.128,2.539-.212.082-.361.349-.533.536a8.406,8.406,0,0,1-1.185,1.293c-1.55,1.106-3.141,2.159-4.745,3.186a1.118,1.118,0,0,1-.979.086,2.653,2.653,0,0,1-1.024-1.173c-.108-.32.247-.8.39-1.2.589-1.674,1.442-3.277,1.49-5.1-.07-.044-.139-.092-.209-.139-.38.447-.78.878-1.141,1.341a33.232,33.232,0,0,0-2.967,3.943,13.117,13.117,0,0,1-2.263,2.39c-.371.406-.764.8-1.125,1.211a1.852,1.852,0,0,1-1.712.688,11.175,11.175,0,0,0-2.349.431,4.975,4.975,0,0,1-5.163-2.618,1.562,1.562,0,0,1,.1-1.182,22.33,22.33,0,0,1,1.334-2.041,31.626,31.626,0,0,0,3.528-6.282c.162-.428.092-1.347-.12-1.436a3.212,3.212,0,0,0-2.006-.19c-.618.193-.948.212-1.157-.387s-.1-1.16.64-1.246a11.409,11.409,0,0,1,3.135-.171c1.794.3,2.475,2.685,1.968,3.9a29.132,29.132,0,0,1-1.88,3.594c-.773,1.306-1.636,2.555-2.46,3.829-.463.713-.279,1.55.529,1.689.941.162,1.854.688,2.878.326a7.845,7.845,0,0,0,3.994-2.865,1.138,1.138,0,0,1,.295-.358,9.153,9.153,0,0,0,2.967-3.385,14.632,14.632,0,0,1,1.924-2.1,1.908,1.908,0,0,0,.25-.3c.944-1.42,1.908-2.824,2.808-4.27.365-.586.865-1.021,1.458-.789a1.268,1.268,0,0,1,.726,1.512c-.219.887-.441,1.772-.694,2.65-.425,1.48-.888,2.951-1.3,4.438a.943.943,0,0,0,.117.8.85.85,0,0,0,.783-.032,7.925,7.925,0,0,0,1.88-1.36,14.239,14.239,0,0,1,2.472-2.25c1.151-.834,2.19-1.823,3.318-2.691a4.221,4.221,0,0,1,3.617-1.151,3.14,3.14,0,0,1,2.013,2.656,6.688,6.688,0,0,1-.913,3.927,42.946,42.946,0,0,1-3.376,5.664,51.06,51.06,0,0,1-3.775,3.975C942.8,188.706,941.207,190.405,939.648,192.136Z" transform="translate(-647.071 -137.829)"/><path class="a" d="M875.208,181.8c-.422,1.591-.808,3.192-1.29,4.764-.127.422-.59.729-.808,1.138-.412.77-.726,1.591-1.141,2.361-.368.675-.815,1.306-1.233,1.953a4.7,4.7,0,0,0-.713,1.128,4.762,4.762,0,0,1-1.867,2.472c-.355.279-1.011.174-1.531.244a3.078,3.078,0,0,1-.013-1.128c.333-.868.792-1.689,1.166-2.545a12.924,12.924,0,0,1,1.024-2.444,20.125,20.125,0,0,0,3.1-6.1,12.3,12.3,0,0,0,.894-3.395,3.165,3.165,0,0,0-2.59-3.217,18.146,18.146,0,0,0-4.685.086c-1.208.184-2.463.326-3.693.5-1.531.219-3.059.45-4.583.719-1.154.2-2.295.488-3.449.713a12.769,12.769,0,0,0-6.672,2.916,1.9,1.9,0,0,0-.526.681c-.254.713-.428,1.455-.662,2.178a1.534,1.534,0,0,1-.326.5c-.437.5-.888,1-1.335,1.493-.117.13-.266.238-.377.374-.257.311-.485.643-.748.945a6.635,6.635,0,0,1-.83.83c-.434.339-.957.58-1.354.954a1.582,1.582,0,0,1-2.035.13,1.2,1.2,0,0,1-.482-.935c.006-.257.339-.583.609-.748a5.367,5.367,0,0,0,2.469-2.8,1.965,1.965,0,0,1,.307-.475c.365-.494.735-.979,1.1-1.471-.054-.089-.1-.181-.158-.269a1.924,1.924,0,0,0-.574.006c-1.027.361-2.048.742-3.065,1.122-.586.216-1.173.431-1.746.678-1.655.713-3.284,1.493-4.964,2.13a2.087,2.087,0,0,1-1.591-.133,1.771,1.771,0,0,1-.7-1.281c-.035-.707.738-.834,1.214-.891,2.371-.285,4.428-1.42,6.593-2.26,1.639-.634,3.306-1.195,4.938-1.838a1.311,1.311,0,0,0,.431-2.314,13.858,13.858,0,0,0-1.528-1.464c-.865-.662-1.781-1.262-2.7-1.854a3.373,3.373,0,0,0-.888-.3c-.2-.057-.415-.073-.618-.136-.669-.212-1.258-.881-1.151-1.338.19-.789.827-.843,1.486-.859a6.841,6.841,0,0,1,3.753,1.281,18.747,18.747,0,0,1,2.767,2.038,13.11,13.11,0,0,1,1.7,2.051c.71.97,1.128,1.138,2.206.688a38.3,38.3,0,0,1,7.17-1.984c1.312-.266,2.624-.526,3.943-.745.976-.162,1.959-.266,2.942-.368a60.069,60.069,0,0,1,6.327-.58c1.911.006,3.924.076,5.325,1.832A5.356,5.356,0,0,1,875.208,181.8Z" transform="translate(-699.17 -135.587)"/><path class="a" d="M791.01,174.239a4.716,4.716,0,0,1-.837.6c-2.625,1.414-4.8,3.461-7.208,5.176a34.691,34.691,0,0,0-3.718,3.61c-.333.323-.8.517-1.109.853-1.607,1.721-3.151,3.5-4.777,5.2-2.2,2.292-3.759,5.04-5.563,7.614-1.157,1.651-2.308,3.309-3.36,5.027-.634,1.033-1.056,2.193-1.61,3.277a.849.849,0,0,1-.574.393c-.6.051-1.2.016-1.807.016-.079-.076-.162-.152-.241-.231.476-.884.941-1.772,1.426-2.65.317-.571.675-1.122.989-1.693a33.8,33.8,0,0,1,1.762-3.214c1.315-1.87,2.767-3.648,4.143-5.477.8-1.065,1.521-2.2,2.365-3.227,1.211-1.483,2.457-2.945,3.769-4.336,1.236-1.312,2.564-2.545,3.886-3.778,1.512-1.41,3.071-2.77,4.593-4.171a16.519,16.519,0,0,0,1.154-1.334,8.732,8.732,0,0,0-1.192-.165,4.774,4.774,0,0,1-4.659-4.666,13.227,13.227,0,0,1,1.6-5.842c.44-1.008.983-1.975,1.48-2.957a3.8,3.8,0,0,1,.333-.628c1-1.252,1.6-1.708,2.973-1.185a6.115,6.115,0,0,1,2.577,1.705,1.373,1.373,0,0,1,.139.941,2.774,2.774,0,0,1-1.385.225c-.434-.089-.786-.536-1.224-.691-.244-.086-.77,0-.856.168-.976,1.933-1.943,3.876-2.805,5.864a3.728,3.728,0,0,0,.555,3.873,1.92,1.92,0,0,0,1.087.58c2.152.463,4.2-.219,6.276-.621a3.507,3.507,0,0,1,1.474.06A.969.969,0,0,1,791.01,174.239Z" transform="translate(-740.072 -142.83)"/><path class="a" d="M832.671,189.171c-.418.678-.735,1.41-1.607,1.74a8.741,8.741,0,0,0-1.686,1.135c-2.076,1.414-4.139,2.85-6.244,4.228a12.158,12.158,0,0,1-2.247,1.113,5.7,5.7,0,0,1-1.68.339c-.922.054-1.848.013-2.77.013-1.03,0-2.06-.025-3.087.01-.64.025-.827-.26-.834-.846a3.265,3.265,0,0,1,.7-2.545,20.8,20.8,0,0,0,1.582-2.694c.653-1,1.442-1.9,2.1-2.891,1.131-1.7,2.209-3.43,3.306-5.148.057-.086.085-.19.143-.276a19.869,19.869,0,0,0,1.265-1.937,34.075,34.075,0,0,0,1.48-3.43c.2-.539.469-1.344-.206-1.639a4.419,4.419,0,0,0-1.883.041c-.143.013-.279.143-.418.212-1.265.605-2.58,1.125-3.781,1.838s-2.295,1.639-3.449,2.45c-.58.406-1.2.748-1.788,1.154a42.034,42.034,0,0,1-4.3,2.97,4.948,4.948,0,0,0-1.8,2.155c-.171.263-.333.532-.5.8-.25-.159-.6-.263-.726-.491a1.561,1.561,0,0,1-.155-.986c.048-.247.358-.434.523-.669a14.014,14.014,0,0,1,3.981-3.3c2.168-1.42,4.368-2.767,6.415-4.384a29.027,29.027,0,0,1,4.869-2.723,12.9,12.9,0,0,1,2.463-.954,2.337,2.337,0,0,1,2.951,2.108,5.966,5.966,0,0,1-.821,3.737c-.96,1.9-2.241,3.648-3.388,5.461-.7,1.1-1.395,2.206-2.1,3.3-1.024,1.585-2.092,3.138-3.065,4.751a7.347,7.347,0,0,0-.716,1.962c-.139.542.174.773.726.694a13.508,13.508,0,0,0,5.217-1.823c.846-.517,1.829-.805,2.691-1.3,1.312-.754,2.555-1.636,3.864-2.4,1.452-.837,2.941-1.607,4.428-2.384a.62.62,0,0,1,.561.079C832.77,188.724,832.754,189.035,832.671,189.171Z" transform="translate(-714.422 -134.566)"/><path class="a" d="M882.584,173.953a19.449,19.449,0,0,0-.888,2.577c-.491,1.848-.919,3.712-1.382,5.566-.441,1.75-.865,3.5-1.347,5.239-.276,1-.666,1.968-.97,2.961-.108.345-.063.735-.168,1.078a6.816,6.816,0,0,1-.631,1.518c-.079.13-.605.152-.78.022-.349-.257-.84-.656-.834-.989a14.017,14.017,0,0,1,.428-2.789c.235-1.036.58-2.044.818-3.081a.938.938,0,0,0-.19-.808.961.961,0,0,0-.894-.086,3.08,3.08,0,0,1-2.907.523c-.39-.1-.881.228-1.3.168a23.02,23.02,0,0,1-3.5-.713,2.168,2.168,0,0,0-2.878,1.087,19.839,19.839,0,0,1-1.715,2.193c-.292.358-.609.7-.932,1.033a1.168,1.168,0,0,1-1.661.139c-.453-.437-.295-1.16.013-1.766.688-1.366,2.152-2.266,2.342-3.924.01-.1.064-.254.127-.269,1.182-.295,1.173-1.49,1.686-2.266a3.865,3.865,0,0,0,.51-1.715c.073-.748-.526-1.094-1.208-1.322a10.792,10.792,0,0,1-2.431-1.353c-.282-.19.463-1.287.951-1.261,1.822.092,3.664.228,4.853,1.9a3.433,3.433,0,0,1,.482,1.369,14.875,14.875,0,0,1,.124,1.81.889.889,0,0,1-.057.365c-.5,1.233-.526,1.3.7,1.785,1.3.513,2.653.884,3.709,1.23a17.323,17.323,0,0,1,3.423-.6c1.949.073,1.864-1.461,2.25-2.583.539-1.55.951-3.144,1.4-4.723.222-.777.4-1.563.615-2.342a1.329,1.329,0,0,1,1.677-1.128C882.683,172.913,882.838,173.357,882.584,173.953Z" transform="translate(-681.376 -135.5)"/><path class="a" d="M807.839,178.832c-.162-3.417-1.426-4.568-4.076-5.186a2.179,2.179,0,0,1-1.29-.758c-.285-.333-.789-.8-1.078-.726a1.706,1.706,0,0,0-1.056,1c-.368,1.182-1,2.32-.821,3.639a2.871,2.871,0,0,1-.165.764c-.076.463-.114.929-.2,1.388-.12.609-.273,1.214-.422,1.816-.029.111-.143.206-.149.314a20.56,20.56,0,0,1-.1,2.168,7.7,7.7,0,0,1-.624,2.4,2.143,2.143,0,0,0,.285,2.675,1.7,1.7,0,0,0,2.637-.346c.437-.513.979-.938,1.395-1.468.456-.577,1.176-.773,1.613-1.468.742-1.185,1.861-2.127,2.71-3.255C807.183,180.889,808.023,180,807.839,178.832Zm-2.6.155c-.77,1.791-2.2,3.056-3.338,4.545a5.659,5.659,0,0,1-1.119.834,3.785,3.785,0,0,1-.038-.8c.257-1.223.58-2.434.792-3.661.168-.979.216-1.981.314-2.97a6.458,6.458,0,0,1,.073-.7c.2-.922.2-.913,1.056-.469a2.243,2.243,0,0,0,.681.171A2.086,2.086,0,0,1,805.24,178.987Z" transform="translate(-718.241 -135.856)"/><path class="a" d="M921.076,167.817a1.614,1.614,0,0,0-1.09,1.483c-.295,1.458-.574,2.916-.884,4.368a17.379,17.379,0,0,1-.485,1.731,1.227,1.227,0,0,1-1.42.951,4.343,4.343,0,0,0-1.721.1c-1.876.64-3.832,1.239-5.258,2.682a19.444,19.444,0,0,0-2.146,3.059.875.875,0,0,0,0,.542,2.551,2.551,0,0,0,3.3,2.127c.605-.235,1.319-.209,1.9-.479,1.274-.6,2.846-.748,3.579-2.228a.586.586,0,0,1,.288-.257c1.135-.453,1.582-1.594,2.362-2.39a9.227,9.227,0,0,0,2-4.39,50.976,50.976,0,0,0,.833-5.661C922.424,168.79,921.58,167.744,921.076,167.817Zm-5.049,11.341c-.26.19-.672.355-.729.6a2.569,2.569,0,0,1-1.353,1.658c-.767.45-1.547.881-2.346,1.268-.45.219-.805-.1-.656-.571a2.433,2.433,0,0,1,1.147-1.658c1.081-.567,2.079-1.29,3.135-1.911a3.173,3.173,0,0,1,1.04-.333c.133-.025.3.149.647.339C916.5,178.832,916.255,178.99,916.027,179.158Z" transform="translate(-653.622 -138.395)"/><path class="a" d="M796.428,187.515a4.479,4.479,0,0,1-1.62.558c-1.357.139-2.723.174-4.384.266a3.774,3.774,0,0,1-2.5-.605,1.3,1.3,0,0,0-1.819.694A7.976,7.976,0,0,1,783.7,191.2a8.515,8.515,0,0,0-.983,1.214,1.441,1.441,0,0,1-2.39-.108,1.293,1.293,0,0,1,.352-1.506,1.076,1.076,0,0,0,.317-.231q1.759-2.377,3.506-4.77c.444-.605.9-1.2,1.3-1.842a11.406,11.406,0,0,0,.891-1.727.836.836,0,0,0-.13-.739,17.728,17.728,0,0,0-2.507-2.33,6.3,6.3,0,0,0-2.032-.475c-.406-.1-.922-.133-1.166-.4a1.765,1.765,0,0,1-.444-1.271.849.849,0,0,1,1.208-.748c1.715.564,3.487.989,5.129,1.708a4.525,4.525,0,0,1,2.393,3.594,3.544,3.544,0,0,1-.225,2.631c-.4.694-.032,1.132.888,1.48a15.909,15.909,0,0,0,5.541.618,2.668,2.668,0,0,1,.71-.006c.244.076.6.241.64.422A.908.908,0,0,1,796.428,187.515Z" transform="translate(-728.374 -133.49)"/><path class="a" d="M893.051,188.453c-.643,1.395-2.026,1.987-3.173,2.8-1.284.9-2.7,1.617-4.051,2.425a4.743,4.743,0,0,1-2.853.39c-.571-.032-1.141-1.208-.929-1.956.4-1.411.919-2.789,1.284-4.206a18.889,18.889,0,0,0,.365-2.682c.035-.311-.038-.634,0-.941.174-1.315-.545-2.282-2.38-1.927-1.7.333-3.363.811-5.062,1.116a4.045,4.045,0,0,1-1.69-.276c-.13-.035-.282-.412-.231-.567a.967.967,0,0,1,.51-.6c1.242-.314,2.5-.558,3.756-.83a19.728,19.728,0,0,1,2.678-.561,4.48,4.48,0,0,1,3.566.9,3.124,3.124,0,0,1,1.059,2.691c-.044,2.165.035,4.01-.783,5.737a3.607,3.607,0,0,0-.295,1.214c-.057.618.425.618.805.5a7.494,7.494,0,0,0,1.892-.764c1.214-.783,2.333-1.712,3.544-2.495a6.147,6.147,0,0,1,1.689-.6c.12-.032.336.114.434.235C893.235,188.121,893.112,188.323,893.051,188.453Z" transform="translate(-673.332 -130.913)"/><path class="a" d="M913.186,167.5a11.6,11.6,0,0,0-2.805,4.317c-.279.643-.691,1.23-.992,1.864q-1.217,2.577-2.38,5.179c-.64,1.436-1.274,2.878-1.842,4.346-.406,1.04-.688,2.13-1.052,3.189-.114.339-.327.65-.466.983-.178.428-.339.862-.488,1.3a.872.872,0,0,1-1.372.494c-.792-.412-1.252-.97-.938-1.886.352-1.03.751-2.044,1.138-3.065.063-.168.219-.311.257-.482.536-2.4,2-4.4,2.919-6.634a53.965,53.965,0,0,1,2.38-4.938,33.972,33.972,0,0,1,1.88-2.881c.336-.5.713-.976,1.059-1.471C911.249,166.712,912.108,166.611,913.186,167.5Z" transform="translate(-657.878 -138.929)"/><path class="a" d="M954.454,177.578a20.042,20.042,0,0,1-5.956,1.762,11.293,11.293,0,0,1-3.334-.336,2,2,0,0,1-1.157-1.144c-.3-.818-.884-1.629-.412-2.624a7.588,7.588,0,0,0,.539-1.918.789.789,0,0,0-.33-.659c-.567-.3-1.1-.634-.989-1.341.083-.517,1.087-.735,1.889-.6a18.357,18.357,0,0,0,3.331.425c1.727-.019,3.452-.25,5.182-.349a1.912,1.912,0,0,1,1.1.257c.19.127.333.726.234.808a4.005,4.005,0,0,1-1.078.5c-.029-.111-.06-.222-.089-.33-1.578.317-3.157.637-4.735.948-.282.057-.58.051-.856.13a3.027,3.027,0,0,0-1.937,2.536,1.33,1.33,0,0,0,.548.78,3.364,3.364,0,0,0,2.726.314,10.543,10.543,0,0,0,3.9-.818c.425-.238,1.23.06,1.8.276C955.224,176.348,954.954,177.381,954.454,177.578Z" transform="translate(-633.286 -136.72)"/><path class="a" d="M798.015,175c-.345,1.559-.745,3.1-1.122,4.656a41.175,41.175,0,0,0-1.3,5.68,25.473,25.473,0,0,0-.488,3.87,29.963,29.963,0,0,1-.171,3.363,1.556,1.556,0,0,0,.067.539c.222.656-.13,1.021-.675,1.2a.827.827,0,0,1-1.173-.609c-.289-1.138-.533-2.285-.827-3.566.292-1.617.548-3.312.913-4.983.456-2.092,1.017-4.159,1.5-6.244.336-1.449.593-2.919.941-4.365a3.749,3.749,0,0,1,.637-1.338.892.892,0,0,1,.811-.254,1.725,1.725,0,0,1,.853.8A2.2,2.2,0,0,1,798.015,175Z" transform="translate(-721.286 -135.406)"/><path class="a" d="M886.775,179.531a12.942,12.942,0,0,1-4.84,1.766,2.054,2.054,0,0,0-.764.19c-1.509.821-2.491-.124-3.417-1.059-.627-.634-.431-1.449-.222-2.238.273-1.027.485-2.07.735-3.106a8.047,8.047,0,0,1,.276-.894,4.926,4.926,0,0,0,.39-2.434,1.269,1.269,0,0,1,.447-1.03,2.278,2.278,0,0,1,1.357-.374c.431.029.916,1.23.792,1.842-.282,1.382-.618,2.751-.913,4.13a14.086,14.086,0,0,0-.285,1.778c-.038.488.634.9,1.407.808.938-.108,1.867-.3,2.8-.466.13-.022.254-.079.38-.1C886.223,178.063,886.394,178.164,886.775,179.531Z" transform="translate(-671.575 -136.913)"/><path class="a" d="M777.023,183.788a17.686,17.686,0,0,1-.228,2.777,5.264,5.264,0,0,1-4.314,3.715,6.9,6.9,0,0,1-2.821-.542c-.83-.311-.713-1.975.07-2.514.6-.409,1.132-.916,1.731-1.325a28.642,28.642,0,0,1,2.548-1.6c.536-.288.929-.491.758-1.23a13.857,13.857,0,0,1-.14-1.965c-.035-.463-.07-1.049.52-1.021a1.6,1.6,0,0,1,1.233.71A22.814,22.814,0,0,1,777.023,183.788Z" transform="translate(-734.878 -131.221)"/><path class="a" d="M960.176,180.283c-.146.228-.314.533-.542.609-1.981.659-3.965,1.315-5.969,1.9a25.8,25.8,0,0,1-2.913.558c-1.312.222-2.628.415-4.013.631-1.385,0-2.843.06-4.3-.025a8.358,8.358,0,0,1-2.206-.545.784.784,0,0,1-.117-1.391,1.663,1.663,0,0,1,.719-.311c.986-.076,1.975-.13,2.964-.133.83,0,1.664.139,2.491.1a50.338,50.338,0,0,0,5.5-.4c2.346-.374,4.647-.992,6.976-1.461a3.249,3.249,0,0,1,1.211.124C960.068,179.954,960.211,180.226,960.176,180.283Z" transform="translate(-635.069 -131.393)"/><path class="a" d="M789.828,178.139a5.447,5.447,0,0,1-1.382,3.2.792.792,0,0,1-1.192.155.963.963,0,0,1-.548-1.046,13.4,13.4,0,0,0-.123-3.49,35.2,35.2,0,0,0-1.151-4.178,9.955,9.955,0,0,0-.815-1.775c-.428-.77.01-1.271.52-1.7s1-.117,1.395.247a5.729,5.729,0,0,1,1.886,3.252c.054.3.25.577.333.878.263.945.513,1.9.748,2.846C789.628,177.061,789.72,177.6,789.828,178.139Z" transform="translate(-725.897 -137.642)"/><path class="a" d="M923.269,182.08a6.451,6.451,0,0,1-.735.276,45.464,45.464,0,0,0-5.588,1.309c-2.577.951-5.284,1.255-7.889,1.991a5.514,5.514,0,0,1-2.8.257c-.681-.152-1.268-.475-1.046-1.17a1.86,1.86,0,0,1,1.255-.922c.818-.177,1.7-.044,2.536-.165s1.62-.434,2.441-.6c1.823-.377,3.658-.694,5.48-1.078a24.149,24.149,0,0,0,2.574-.71,4.4,4.4,0,0,1,3.728.555C923.238,181.906,923.253,181.995,923.269,182.08Z" transform="translate(-655.298 -130.648)"/><path class="a" d="M818.666,174.933a.726.726,0,0,1-.691.038c-1.426-.922-2.954-.517-4.441-.336a21.741,21.741,0,0,0-5.839,2.006,10.37,10.37,0,0,0-1.474,1.132,1.547,1.547,0,0,1-.992.368c-.257-.054-.472-.479-.625-.78a3.764,3.764,0,0,1-.165-.97c.114-.108.282-.387.529-.491a42.955,42.955,0,0,1,4.444-1.753c1.981-.583,4.016-.992,6.038-1.42,1.246-.263,3.049.548,3.36,1.468A.868.868,0,0,1,818.666,174.933Z" transform="translate(-714.202 -135.552)"/><path class="a" d="M1000.708,172.639a11.522,11.522,0,0,1-1.67.859c-.944.412-1.908.783-2.986,1.217a7.588,7.588,0,0,1-1.778-.894,1.274,1.274,0,0,1-.111-1.246,12.565,12.565,0,0,1,2.054-2.13,1.134,1.134,0,0,1,1.642.12,1.373,1.373,0,0,0,.9.193c.39,0,.786-.165,1.17-.13s.935.136,1.055.384A1.175,1.175,0,0,1,1000.708,172.639Z" transform="translate(-603.314 -137.029)"/></g><g transform="translate(815.497 116.9)"><path class="b" d="M853.318,168.377c-3.911,2.854-7.411,5.7-12.564,5.355-1.862-.124-1.6-.655-1.645-2.333-.043-1.83.794-1.453,2.319-1.962a12.249,12.249,0,0,0,5.864-3.8c5.9-7.241,9.377-19.625,2.2-27.286-3.628-3.875-8.854-5.674-13.985-6.392a19.98,19.98,0,0,0-6.883-.185c-.719.158-3.628,1.94-2.812,2.2-1.526-.487-5.586,4.06-6.426,5.805a36.544,36.544,0,0,0-3.642,11.233c-.567,4.247.111,6.6,2.4,10.183a16.759,16.759,0,0,0,9.276,7.507c.531.152,6.683.487,3.664,2.727-.669.5-2.441.044-3.2.124a18.874,18.874,0,0,1-3.566.038,17.39,17.39,0,0,1-6.262-1.75,16.678,16.678,0,0,1-7.956-8.458,27.915,27.915,0,0,1,4.192-28.365c12.577-15.734,39.928-8.778,44.445,10.357,1.78,7.537,1.545,19.921-5.415,25m-14.438-3.336a7.218,7.218,0,0,0,3.843-2.647c3.609-4.667,5.694-17.083-1.65-19.795-6.637-2.449-13.858-1.146-16.588,6.037a15.947,15.947,0,0,0-.331,9.929,16.922,16.922,0,0,0,2.043,4.525,8.61,8.61,0,0,0,1.456.851c.092.661.3.376,1.49,1.2.629.437,1.6.564,1.93,1.361-2.071,1.838-7.346-2.8-8.648-4.33-2.178-2.555-4.268-5.4-4.522-8.843-.531-7.136,3.586-16.019,10.5-18.8,6.244-2.51,15.1-.689,19.362,4.663,4.607,5.789,4.6,13.534,1.363,19.991-1.569,3.128-3.369,6.45-6.8,7.827a10.728,10.728,0,0,1-3.2.712c-.556-.647-.178-1.935-.242-2.685m1.745-10.824c-1.159-3.263-7.125-6.362-9.365-2.667A8.575,8.575,0,0,0,830,157.729c.406,1.488,1.678,3.086,1.375,4.74-3.206-1.235-5.147-3.258-5.631-8.964-.295-3.468,1.849-8.06,4.9-9.636,8.511-1.786,13.766.315,12.924,9.037l-.1.842c-.216,2.591-1.277,8.395-4.829,8.854-1.377-2.875,3.274-4.764,1.989-8.385m-5.2,4.718c-3.043.292-3.829-2.246-3.935-3.612-.385-4.989,7.116-5.346,7.637-.77a4.232,4.232,0,0,1-3.7,4.382m19.791-26c-3.423-4.059-7.5-7.208-12.7-8.5a49.908,49.908,0,0,0-7.824-1.5c-2.127-.178-4.869,1.225-6.539-.084a29.786,29.786,0,0,0-17.98,13.371c-4.6,7.691-6.674,19.188-2.219,27.334,2.477,4.533,6.178,7.052,10.927,8.813a27.837,27.837,0,0,0,7.011,1.475c1.263.124,2.529.219,3.792.336,2.1.2,1.615,1.2,1.764,3.092.46,5.769-.195,11.56.157,17.329.138,2.268,1.94,2.3,1.7-.209a70.808,70.808,0,0,1-.2-7.935c.049-2.967.073-5.937-.086-8.9-.1-1.957.525-4.027.054-5.629-.295-1-.805-1.057-.437-2.006a8,8,0,0,0,.254-3.4c.166-1.922.391-3.747.387-5.62.729,1.23,2.582-.165,3.659.732-.146,1.547.122,6.148.23,4.6,0-.059.139,2.328.217,3.856.019-1.059.1-.891.041-.41.141,1.991.22,3.984.273,5.98.06,2.208-.529,19.086,1.922,18.9.379-6.33-.507-12.707,0-19.026,3.357,2.88,11.281-2.753,13.9-4.878a18.731,18.731,0,0,0,6.327-10.089c2.493-9.211,1.686-20.146-4.629-27.632m-17.837,37.155c0,.138,0,.29,0,.472.092,1.376.065.707,0-.472" transform="translate(-781.591 -113.425)"/><path class="b" d="M800.043,147.813a17.2,17.2,0,0,1-.431-3.339,20,20,0,0,1,.588-3.908c1.273-5.176,5.027-9.43,8.423-13.357.482-.556-.41-1.244-.894-.7-3.466,3.908-6.889,7.946-8.621,12.954-.74,2.141-1.49,5.033-.916,7.265a15.378,15.378,0,0,1,.371,3.231c.016.439.008.859.054,1.295.022.223.209.364.208.574,0,.353.466.387.653.181.992-1.086.778-2.728.566-4.2" transform="translate(-785.971 -111.396)"/><path class="b" d="M793.52,162.035a61.961,61.961,0,0,1-1.575-12.712,27.986,27.986,0,0,1,2.418-10.775c3.3-7.479,9.685-13.317,15.777-18.535.531-.455-.12-1.323-.661-.868-6.371,5.357-12.712,11.243-16.333,18.878a31.2,31.2,0,0,0-.564,24.257.491.491,0,0,0,.938-.246" transform="translate(-790.406 -115.662)"/><path class="b" d="M841.965,125.771a17.359,17.359,0,0,1,2.593,2.147,19.988,19.988,0,0,1,2.235,3.26c2.6,4.653,2.754,10.324,2.949,15.514.029.735,1.149.629,1.13-.1-.13-5.224-.38-10.511-2.529-15.355-.917-2.07-2.342-4.7-4.284-5.937a15.418,15.418,0,0,1-2.476-2.111c-.311-.309-.591-.623-.922-.911-.17-.147-.4-.124-.544-.277-.239-.26-.6.035-.6.314.016,1.471,1.292,2.525,2.448,3.455" transform="translate(-761.684 -113.975)"/><path class="b" d="M856.6,136.563c-2.171-7.273-6.625-13.647-11.557-19.314-.823-.948-2.353.231-1.542,1.2,4.724,5.671,8.8,11.891,10.878,19.034a37,37,0,0,1,1.374,10.85c-.032,2.025-.059,3.984-.284,6.007-.208,1.87-.7,4.143.409,5.812l.022-.017a.787.787,0,0,0,1.349-.179c.788-1.661.583-3.932.781-5.739a59.711,59.711,0,0,0,.233-6.39,38.662,38.662,0,0,0-1.664-11.267" transform="translate(-759.487 -116.9)"/></g></g></svg>