<svg xmlns="http://www.w3.org/2000/svg" width="163.633" height="173.303" viewBox="0 0 163.633 173.303"><defs><style>.a{fill:#b3a09a;}</style></defs><g transform="translate(-150.187 -122.543)"><path class="a" d="M171.854,123.353a6.323,6.323,0,0,1-.792,2.042c-.654,1.113-.867,4.251-.867,4.251-.69,3.043-2.089,6.286-1.731,9.264l-.264.936-1.7-.213c-.087-1.276.553-2.964-.079-4.468.126-.271.643-.246.81-.488.806-4.294.079-9.036,2.9-12.134Z" transform="translate(42.455 0)"/><path class="a" d="M179.11,126.085a3.744,3.744,0,0,1-1.12,1.24,8.129,8.129,0,0,0-1.6,2.837c-1.215,2.01-3.134,3.933-3.351,6.235l-.419.6-1.554-.7c.155-.961,1.07-2,.752-3.3.17-.159.654.025.853-.1,1.551-2.892,1.753-6.6,4.974-7.959Z" transform="translate(54.573 6.257)"/><path class="a" d="M186.358,130.733a3.7,3.7,0,0,1-1.587.528,8.173,8.173,0,0,0-2.79,1.684c-2.049,1.157-4.663,1.89-5.982,3.784l-.661.322-1-1.377c.607-.763,1.908-1.214,2.274-2.508.228-.051.557.347.792.336,2.769-1.757,4.771-4.894,8.245-4.493Z" transform="translate(63.128 16.812)"/><path class="a" d="M186.579,136.1a2.262,2.262,0,0,1-1.265-.253,4.638,4.638,0,0,0-2.436.221c-1.764.09-3.817-.448-5.263.629l-.557-.018-.34-1.67c.64-.4,1.684-.206,2.3-1.182.173.058.3.557.466.654,2.443-.3,4.713-2.154,7.063-.228Z" transform="translate(69.369 28.363)"/><path class="a" d="M162,124.487a6.322,6.322,0,0,1,.625,2.107c.166,1.287,1.927,3.911,1.927,3.911,1.323,2.845,2.2,6.275,4.312,8.425l.369.907-1.467.868c-.853-.962-1.384-2.7-2.8-3.506-.065-.293.358-.589.34-.882-2.006-3.9-5.487-7.236-5.158-11.418Z" transform="translate(25.983 5.083)"/><path class="a" d="M155.313,129.295c3.98.333,6.333,4.189,9.55,6.712.271.061.64-.3.9-.192.441,1.489,1.945,2.266,2.657,3.235l-1.131,1.272-.766-.492c-1.547-2.357-4.569-3.73-6.936-5.444,0,0-2.071-2.089-3.239-2.447a5.536,5.536,0,0,1-1.833-.925Z" transform="translate(11.323 17.653)"/><path class="a" d="M151.632,136.812c3.524-1.908,7.634.022,11.726.365.26-.094.372-.6.654-.654,1.193,1,2.888.824,4.019,1.243l-.246,1.684-.918.007c-2.6-1.117-5.9-.607-8.83-.737,0,0-2.9-.611-4.074-.267a5.529,5.529,0,0,1-2.049.231Z" transform="translate(3.778 35.135)"/><path class="a" d="M151.977,145.809c2.064-2.816,5.729-2.151,8.9-2.989.163-.163.1-.676.289-.806,1.2.615,2.411-.04,3.387.036l.325,1.674-.687.271c-2.284-.325-4.6,1.1-6.839,1.807a8.167,8.167,0,0,0-3.137.9,3.674,3.674,0,0,1-1.464.8Z" transform="translate(4.68 50.908)"/><path class="a" d="M156.134,154.561c-.347-3.1,2.534-4.215,4.16-6.278.007-.2-.354-.567-.3-.755,1.189-.054,1.609-1.1,2.313-1.482l1.254,1.157-.3.513c-1.742.766-2.429,2.9-3.5,4.449,0,0-1.439,1.236-1.558,2.093a2.529,2.529,0,0,1-.492,1.276Z" transform="translate(15.473 61.447)"/><path class="a" d="M176.271,144.342q7.558-.64,15.094-1.916c10.865-1.843,21.655-4.775,32.513-6.784.708-.13.665-1.919-.054-1.807-10.475,1.612-20.892,4.056-31.389,5.274-4.941.575-9.842.416-14.787.571a64.262,64.262,0,0,1-7.226-.065c-2.465-.2-4.869-1.352-7.236-2.4-2.349-1.041-3.192,5.378-.784,5.982,4.327,2.216,9.4,1.525,13.869,1.149" transform="translate(28.163 29.509)"/><path class="a" d="M162.528,177.972a30.351,30.351,0,0,0,3.3-.293c1.178-.336,2.357-.7,3.535-1.045a57.25,57.25,0,0,1,7.9-1.623c5.2-.759,10.385-1.9,15.593-2.6,11.024-1.478,22.1-1.413,33.156-.914,1.489.069,1.359-3.336-.108-3.416a189.329,189.329,0,0,0-33.167.564c-5.382.643-10.735,1.782-16.114,2.508-2.6.351-5.19.625-7.775,1.182a25.2,25.2,0,0,0-3.4,1.037c-1.229.455-2.263,1.721-3.322,2.7-.575.524-.286,2.024.412,1.9" transform="translate(30.387 117.866)"/><path class="a" d="M179.314,134.26a.014.014,0,0,0-.029,0,.014.014,0,1,0,.029,0" transform="translate(76.078 30.599)"/><path class="a" d="M185.308,263.749c1.323-1.992.81-4.055.647-6.181-.188-2.48-.423-4.959-.643-7.435-.412-4.681-.849-9.362-.922-14.05-.148-9.611.423-19.218.56-28.826a218.366,218.366,0,0,0-1.666-29.043c-1.157-9.709-2.519-19.312-2.357-29.054.072-4.486.365-8.968.134-13.446.163.076.481,0,.463-.148-.08-.665-.528-1.272-.607-1.93-.043-.369-.868-.329-.9.025-.914,9.528-1.872,19.168-1.139,28.71.752,9.8,2.433,19.547,3.015,29.354,1.139,19.128-1.5,38.238,0,57.37.2,2.472.39,4.945.481,7.421.09,2.357-.517,4.937.958,7.135.325.484,1.59.687,1.981.1" transform="translate(74.331 28.327)"/><path class="a" d="M166.52,258.577a5.16,5.16,0,0,0,2.689-4.486c.094-1.131.488-2.266.614-3.4a30.636,30.636,0,0,0,.163-3.6c-.029-4.7-.2-9.427-.535-14.122-.676-9.625-2.078-19.215-1.641-28.873.871-19.233-.575-38.423-2.194-57.612q-.412-4.847-.81-9.7c-.152-1.861-3.9-1.724-3.737.137,1.674,19.182,3.734,38.368,3.531,57.608-.054,4.789-.434,9.571-.426,14.361.011,4.815.426,9.618.828,14.418s.82,9.615.965,14.433c.141,4.587.614,9.394-.2,13.949a13.715,13.715,0,0,1-1.265,4.146c-.553,1.034-.054,1.973.961,2.675a1.083,1.083,0,0,0,1.059.061" transform="translate(28.44 33.77)"/><path class="a" d="M162.849,172.077l-.036-3.362c0-.3-.448-.271-.452.022q-.016,1.681-.036,3.365c0,.336.528.311.524-.025" transform="translate(31.735 120.169)"/><path class="a" d="M178.86,136.651a19.1,19.1,0,0,0,2.349-.314,10.411,10.411,0,0,1,1.233-.072l.1.014a.572.572,0,0,0,.39-.054,3.284,3.284,0,0,0,.361-.061.484.484,0,0,0,.34-.488.936.936,0,0,0-.011-.145c.336-.011.669-.014,1,0a.793.793,0,0,0,.318-1.493c-2.176-1.03-4.464-.4-6.452.755-.441.087-.878.177-1.316.271-.763.163-.5,1.334.231,1.308.242-.011.484-.025.723-.043a.929.929,0,0,0,.734.325" transform="translate(69.349 28.681)"/><path class="a" d="M183.672,140.145c-3.21-.033-6.4-.466-9.615-.5-1.24-.011-1.142,1.908.09,1.916,3.213.018,6.4.441,9.611.463,1.222.011,1.12-1.865-.087-1.88" transform="translate(60.099 44.716)"/><path class="a" d="M179.513,141.246c-.654-2.013-3.824-1.406-5.371-1.164a49.966,49.966,0,0,0-7.153,1.959c-1.294.408-.918,2.5.387,2.093,1.992-.625,3.972-1.28,6.011-1.739a15.015,15.015,0,0,1,3.38-.416,8.017,8.017,0,0,0,2.407-.069.48.48,0,0,0,.34-.665" transform="translate(41.833 45.13)"/><path class="a" d="M167.456,145.37c-1.489.38-.755,2.617.716,2.263a36.849,36.849,0,0,1,6.174-.983c1.012-.065,1.963.235,2.935.224.69-.011,1.413-.318,1.377-1.121-.155-3.325-9.434-.828-11.2-.383" transform="translate(43.017 56.237)"/><path class="a" d="M187.949,145.519c-.246-1.073-1.59-1.1-2.443-1.11-1.475-.018-2.957.076-4.431.159-1.619.087-3.242.2-4.865.315a9.62,9.62,0,0,0-2.429.231,1.351,1.351,0,0,0,.47,2.624h.014a1.529,1.529,0,0,0,.184-.007c-.242.087-.087.036.1-.007l.043-.007a1.178,1.178,0,0,1,.152-.022c.459-.036.915-.069,1.37-.1q1.968-.136,3.929-.242c1.37-.076,2.747-.141,4.121-.177.546-.014,1.092-.022,1.637-.014.184,0,.369.014.553.025s.242.011.239-.007a1.389,1.389,0,0,0,.806-.155l.011,0a1.334,1.334,0,0,0,.535-1.5" transform="translate(59.306 57.165)"/><path class="a" d="M179.773,150.627c-.553-1.377-2.5-1.475-3.748-1.572-2.584-.206-5.125.278-7.7.347a1.343,1.343,0,0,0,.126,2.682c1.768-.029,3.531-.282,5.3-.322a15.753,15.753,0,0,1,3.17.17,2.274,2.274,0,0,1,.889.361c.408.206.17.163.293.166a.441.441,0,0,0,.4.2,1.476,1.476,0,0,0,1.265-2.028" transform="translate(44.191 69.183)"/><path class="a" d="M186.766,150.952c-.727-2.14-4.186-1.721-5.932-1.572a56.633,56.633,0,0,0-6.5,1.11c-1.9.39-.965,3.231.907,2.859,1.775-.351,3.542-.7,5.342-.893a15.372,15.372,0,0,1,2.968-.087c.81.076,1.634.448,2.425.094a1.231,1.231,0,0,0,.788-1.511" transform="translate(60.41 69.816)"/><path class="a" d="M183.58,153.8c-3.21-.033-6.4-.466-9.615-.5-1.24-.011-1.142,1.908.09,1.916,3.213.018,6.4.441,9.611.463,1.222.011,1.121-1.865-.087-1.88" transform="translate(59.859 80.412)"/><path class="a" d="M179.421,154.9c-.654-2.01-3.824-1.4-5.371-1.16a49.507,49.507,0,0,0-7.153,1.959c-1.294.408-.918,2.5.387,2.093,1.992-.625,3.972-1.28,6.011-1.739a15.013,15.013,0,0,1,3.38-.416,8.016,8.016,0,0,0,2.407-.069.483.483,0,0,0,.34-.669" transform="translate(41.592 80.826)"/><path class="a" d="M167.364,159.024c-1.489.376-.755,2.617.716,2.263a36.486,36.486,0,0,1,6.174-.987c1.012-.065,1.963.235,2.935.224.69-.011,1.413-.318,1.377-1.121-.155-3.322-9.434-.824-11.2-.38" transform="translate(42.777 91.933)"/><path class="a" d="M187.857,159.172c-.246-1.074-1.59-1.1-2.443-1.11-1.475-.018-2.957.076-4.431.159-1.619.087-3.246.2-4.865.314a9.621,9.621,0,0,0-2.429.231,1.351,1.351,0,0,0,.47,2.624h.014a1.528,1.528,0,0,0,.184-.007c-.242.087-.087.036.1-.007l.043-.007a1.189,1.189,0,0,1,.152-.022c.459-.036.914-.069,1.37-.1,1.308-.09,2.62-.17,3.929-.242,1.37-.076,2.747-.141,4.121-.177.546-.014,1.092-.022,1.637-.014.184,0,.369.014.553.025s.242.011.239-.007a1.389,1.389,0,0,0,.806-.155l.011,0a1.336,1.336,0,0,0,.535-1.5" transform="translate(59.065 92.861)"/><path class="a" d="M179.677,164.28c-.549-1.377-2.494-1.475-3.745-1.572-2.584-.206-5.125.278-7.7.347a1.343,1.343,0,0,0,.127,2.682c1.767-.029,3.531-.282,5.3-.322a15.5,15.5,0,0,1,3.17.173,2.22,2.22,0,0,1,.889.358c.408.206.17.163.293.166a.441.441,0,0,0,.4.2,1.473,1.473,0,0,0,1.261-2.028" transform="translate(43.95 104.879)"/><path class="a" d="M186.67,164.605c-.723-2.14-4.182-1.72-5.928-1.572a56.628,56.628,0,0,0-6.5,1.11c-1.9.39-.965,3.231.907,2.859,1.775-.351,3.542-.7,5.342-.893a15.367,15.367,0,0,1,2.968-.087c.81.076,1.634.448,2.425.094a1.226,1.226,0,0,0,.784-1.511" transform="translate(60.17 105.512)"/><path class="a" d="M191.978,149.518q5.612-.466,11.2-1.4c8.064-1.345,16.07-3.481,24.123-4.948.531-.094.5-1.4-.036-1.319-7.771,1.175-15.5,2.96-23.292,3.846-3.669.419-7.3.3-10.974.419a48.3,48.3,0,0,1-5.364-.051,17.446,17.446,0,0,1-5.371-1.749c-1.739-.759-2.364,3.922-.578,4.363,3.21,1.623,6.972,1.113,10.291.839" transform="translate(79.56 50.474)"/><path class="a" d="M181.78,174.811a22.212,22.212,0,0,0,2.451-.224c.875-.26,1.749-.539,2.624-.8a40.554,40.554,0,0,1,5.856-1.251c3.868-.586,7.71-1.464,11.574-2a132.735,132.735,0,0,1,24.608-.7c1.106.051,1.009-2.57-.079-2.631a135.619,135.619,0,0,0-24.615.434c-3.994.5-7.963,1.374-11.96,1.93-1.927.271-3.85.484-5.765.911a18.566,18.566,0,0,0-2.527.8,8.994,8.994,0,0,0-2.472,2.075c-.423.4-.213,1.558.307,1.467" transform="translate(81.206 115.84)"/><path class="a" d="M194.239,142.168a.011.011,0,1,0-.022,0,.011.011,0,0,0,.022,0" transform="translate(115.118 51.282)"/><path class="a" d="M200.051,238.265c1.323-1.478.81-3.011.647-4.587-.188-1.836-.423-3.68-.643-5.519-.412-3.474-.849-6.947-.922-10.428-.148-7.128.423-14.259.56-21.387a121.139,121.139,0,0,0-1.663-21.554c-1.157-7.207-2.519-14.332-2.357-21.568.072-3.325.365-6.651.134-9.98.163.058.481.007.463-.108-.08-.488-.528-.94-.607-1.431-.043-.271-.868-.242-.9.022-.911,7.07-1.869,14.223-1.135,21.3.752,7.269,2.433,14.509,3.015,21.788,1.139,14.194-1.5,28.378,0,42.572.2,1.836.387,3.669.481,5.512.09,1.746-.517,3.661.958,5.292a1.779,1.779,0,0,0,1.977.072" transform="translate(112.888 49.596)"/><path class="a" d="M185.326,234.429a3.79,3.79,0,0,0,2.284-3.329c.08-.839.412-1.681.521-2.527a19.4,19.4,0,0,0,.137-2.668c-.022-3.488-.17-6.994-.452-10.482-.578-7.142-1.768-14.259-1.4-21.423.737-14.277-.488-28.519-1.861-42.76-.231-2.4-.466-4.793-.687-7.193-.13-1.388-3.311-1.283-3.174.1,1.417,14.234,3.17,28.472,3,42.749-.043,3.553-.369,7.106-.361,10.659.007,3.571.361,7.139.7,10.7s.7,7.135.82,10.713c.119,3.4.524,6.972-.173,10.352a9.318,9.318,0,0,1-1.07,3.076c-.473.766-.047,1.464.813,1.984a1.032,1.032,0,0,0,.9.047" transform="translate(79.764 53.634)"/><path class="a" d="M193.9,143.943a14.756,14.756,0,0,0,1.739-.231,7.353,7.353,0,0,1,.918-.054l.072.007a.424.424,0,0,0,.289-.036,2.448,2.448,0,0,0,.267-.047.362.362,0,0,0,.253-.361,1.038,1.038,0,0,0-.007-.109c.246-.007.5-.011.748,0a.59.59,0,0,0,.235-1.11,5.071,5.071,0,0,0-4.793.56c-.325.069-.651.134-.976.2-.564.123-.372.99.174.972.181-.007.358-.018.535-.033a.693.693,0,0,0,.546.242" transform="translate(110.124 49.857)"/><path class="a" d="M197.474,146.534c-2.382-.025-4.753-.347-7.139-.369-.918-.011-.846,1.417.069,1.42,2.382.014,4.753.325,7.135.343.9.007.831-1.384-.065-1.4" transform="translate(103.259 61.76)"/><path class="a" d="M194.384,147.353c-.484-1.5-2.837-1.045-3.987-.864a36.6,36.6,0,0,0-5.306,1.457c-.961.3-.68,1.854.289,1.551,1.478-.466,2.942-.951,4.457-1.29a11.08,11.08,0,0,1,2.508-.307,5.908,5.908,0,0,0,1.786-.051.359.359,0,0,0,.253-.5" transform="translate(89.703 62.066)"/><path class="a" d="M185.438,150.412c-1.106.278-.56,1.945.531,1.681a27.328,27.328,0,0,1,4.583-.73c.752-.047,1.453.177,2.18.166.51-.007,1.048-.235,1.019-.835-.116-2.465-7-.611-8.313-.282" transform="translate(90.581 70.309)"/><path class="a" d="M200.646,150.524c-.181-.8-1.182-.817-1.811-.824-1.1-.011-2.2.058-3.289.119-1.2.065-2.407.145-3.611.231a7.344,7.344,0,0,0-1.8.173,1,1,0,0,0,.347,1.945h.011a.881.881,0,0,0,.137-.007c-.181.065-.065.029.076,0l.033-.007c.04-.007.079-.011.116-.014.336-.029.676-.051,1.016-.072.972-.069,1.945-.127,2.913-.181,1.019-.058,2.039-.1,3.062-.134q.607-.016,1.214-.011c.137,0,.275.011.408.022s.184.007.181-.007a1.031,1.031,0,0,0,.6-.116l.007,0a.988.988,0,0,0,.4-1.11" transform="translate(102.67 70.999)"/><path class="a" d="M194.577,154.317c-.408-1.026-1.851-1.1-2.78-1.171a53.767,53.767,0,0,0-5.711.257,1,1,0,0,0,.094,2c1.312-.022,2.621-.21,3.933-.239a11.632,11.632,0,0,1,2.353.127,1.647,1.647,0,0,1,.658.267c.3.152.126.119.22.123a.318.318,0,0,0,.3.145,1.1,1.1,0,0,0,.936-1.5" transform="translate(91.452 79.915)"/><path class="a" d="M199.766,154.555c-.535-1.587-3.1-1.276-4.4-1.168a41.085,41.085,0,0,0-4.822.824c-1.413.289-.719,2.4.672,2.122,1.316-.26,2.628-.52,3.965-.665a11.483,11.483,0,0,1,2.2-.061c.6.054,1.211.333,1.8.069a.91.91,0,0,0,.582-1.121" transform="translate(103.489 80.386)"/><path class="a" d="M197.4,156.666c-2.382-.025-4.75-.347-7.135-.369-.918-.011-.846,1.413.069,1.421,2.382.014,4.75.325,7.131.343.907.007.835-1.384-.065-1.4" transform="translate(103.081 88.251)"/><path class="a" d="M194.319,157.482c-.484-1.493-2.837-1.041-3.987-.86a37.1,37.1,0,0,0-5.31,1.449c-.961.3-.68,1.858.289,1.554,1.478-.466,2.946-.951,4.46-1.29a11.08,11.08,0,0,1,2.508-.307,5.793,5.793,0,0,0,1.786-.054.354.354,0,0,0,.253-.492" transform="translate(89.523 88.558)"/><path class="a" d="M185.37,160.545c-1.106.278-.56,1.941.531,1.677a27.276,27.276,0,0,1,4.58-.73c.752-.047,1.457.177,2.183.166.51-.007,1.048-.235,1.019-.831-.112-2.465-7-.611-8.313-.282" transform="translate(90.403 96.802)"/><path class="a" d="M200.578,160.656c-.181-.8-1.182-.817-1.811-.824-1.1-.011-2.2.058-3.293.119-1.2.065-2.407.145-3.611.231a7.334,7.334,0,0,0-1.8.174,1,1,0,0,0,.347,1.945h.011a.875.875,0,0,0,.137-.007c-.181.065-.065.029.076,0l.033-.007c.04-.007.08-.011.116-.014.336-.029.676-.051,1.016-.072.969-.069,1.941-.126,2.91-.181,1.019-.058,2.042-.1,3.065-.134q.607-.016,1.215-.011c.137,0,.275.011.408.022s.184.007.181-.007a1,1,0,0,0,.6-.116l.007,0a.988.988,0,0,0,.4-1.11" transform="translate(102.492 97.49)"/><path class="a" d="M194.509,164.446c-.408-1.023-1.851-1.1-2.78-1.167a53.91,53.91,0,0,0-5.715.257,1,1,0,0,0,.094,1.992c1.312-.022,2.624-.21,3.936-.239a11.641,11.641,0,0,1,2.353.127,1.67,1.67,0,0,1,.658.267c.3.152.127.119.221.123a.318.318,0,0,0,.3.145,1.1,1.1,0,0,0,.936-1.5" transform="translate(91.273 106.408)"/><path class="a" d="M199.7,164.69c-.535-1.59-3.1-1.28-4.4-1.171a41.033,41.033,0,0,0-4.825.824c-1.41.293-.716,2.4.672,2.125,1.316-.26,2.628-.521,3.969-.665a11.484,11.484,0,0,1,2.2-.061c.6.054,1.211.332,1.8.069a.91.91,0,0,0,.582-1.121" transform="translate(103.311 106.877)"/><path class="a" d="M159.05,160.853q4.375-.363,8.74-1.092c6.289-1.048,12.535-2.714,18.817-3.857.408-.076.383-1.1-.033-1.03-6.062.914-12.091,2.306-18.167,3-2.863.325-5.7.235-8.559.325a38.45,38.45,0,0,1-4.182-.04,13.628,13.628,0,0,1-4.193-1.363c-1.359-.593-1.843,3.058-.452,3.4,2.5,1.261,5.44.868,8.028.654" transform="translate(0 84.523)"/><path class="a" d="M151.095,174.982A16.784,16.784,0,0,0,153,174.8c.683-.2,1.363-.416,2.046-.625a32.321,32.321,0,0,1,4.572-.976c3.015-.452,6.011-1.142,9.025-1.561a103.576,103.576,0,0,1,19.193-.549c.864.04.788-2-.061-2.053a106.159,106.159,0,0,0-19.2.34c-3.116.387-6.213,1.07-9.326,1.507-1.5.21-3.007.376-4.5.708a14.419,14.419,0,0,0-1.97.622,7,7,0,0,0-1.923,1.623c-.333.314-.166,1.214.239,1.142" transform="translate(1.286 120.86)"/><path class="a" d="M160.813,155.041h0" transform="translate(27.735 84.967)"/><path class="a" d="M165.033,210.015c1.034-1.153.633-2.349.506-3.575-.148-1.435-.333-2.87-.5-4.3-.325-2.715-.661-5.422-.719-8.136-.116-5.563.329-7.128.437-12.687.108-5.617.5-3.961-.4-9.564s-2.259-2.631-2.133-8.274c.058-2.6-.318-5-.5-7.587.13.043.376,0,.362-.087-.061-.383-.409-.734-.474-1.117-.036-.21-.676-.188-.7.018-.712,5.512-.886,4.149-.311,9.669.586,5.671,1.323,2.277,1.778,7.952.886,11.071-1.175,18.138,0,29.213.152,1.431.3,2.863.376,4.294.069,1.363-.4,2.859.745,4.128a1.393,1.393,0,0,0,1.543.058" transform="translate(26.309 83.647)"/><path class="a" d="M153.859,207.024a2.959,2.959,0,0,0,1.786-2.6c.061-.651.322-1.308.4-1.97a15.424,15.424,0,0,0,.108-2.082c-.018-2.718-.134-5.454-.354-8.172-.448-5.574-1.377-7.128-1.088-12.716.578-11.133-.38-6.253-1.453-17.361-.181-1.872-.365-3.741-.539-5.613-.1-1.077-2.577-1-2.472.08,1.106,11.1,2.469,6.221,2.335,17.357-.033,2.772-.286,5.545-.282,8.313.007,2.787.285,1.572.549,4.348s.542,5.566.64,8.357c.09,2.653.408,5.436-.137,8.075a7.231,7.231,0,0,1-.835,2.4c-.365.6-.036,1.142.636,1.547a.807.807,0,0,0,.7.036" transform="translate(0.16 86.798)"/><path class="a" d="M160.551,156.5a11.562,11.562,0,0,0,1.359-.181,6.1,6.1,0,0,1,.712-.043l.058.007a.328.328,0,0,0,.224-.029c.069-.011.141-.022.21-.036a.284.284,0,0,0,.2-.282l-.007-.083c.191-.007.387-.007.578,0a.459.459,0,0,0,.184-.864,3.94,3.94,0,0,0-3.734.437c-.253.051-.506.1-.763.155-.441.094-.289.774.137.759.141-.007.278-.014.416-.025a.549.549,0,0,0,.426.188" transform="translate(23.841 84.043)"/><path class="a" d="M160.589,158.971c-.318-.8-1.442-.853-2.169-.911a41.612,41.612,0,0,0-4.453.2.777.777,0,0,0,.072,1.551c1.023-.014,2.042-.163,3.069-.184a9.188,9.188,0,0,1,1.836.1,1.286,1.286,0,0,1,.513.21c.235.119.1.094.17.094a.255.255,0,0,0,.231.116.855.855,0,0,0,.73-1.175" transform="translate(8.011 92.784)"/><path class="a" d="M164.67,158.941c-.419-1.236-2.422-.994-3.43-.911a32.28,32.28,0,0,0-3.766.643c-1.1.228-.557,1.869.524,1.655,1.026-.206,2.049-.4,3.094-.517a8.844,8.844,0,0,1,1.721-.051c.47.043.943.257,1.406.054a.712.712,0,0,0,.452-.875" transform="translate(17.476 92.583)"/><path class="a" d="M163.283,160.827c-1.858-.018-3.7-.271-5.566-.289-.719-.007-.661,1.106.051,1.11,1.861.011,3.709.257,5.566.268.7.007.647-1.081-.051-1.088" transform="translate(18.347 99.339)"/><path class="a" d="M160.873,161.463c-.38-1.164-2.216-.813-3.109-.672a28.717,28.717,0,0,0-4.139,1.135c-.752.235-.531,1.449.224,1.207,1.153-.362,2.3-.741,3.477-1a8.7,8.7,0,0,1,1.955-.242,4.514,4.514,0,0,0,1.4-.04.277.277,0,0,0,.2-.383" transform="translate(7.774 99.578)"/><path class="a" d="M153.9,163.852c-.864.217-.437,1.514.416,1.308a21.025,21.025,0,0,1,3.575-.567c.586-.04,1.135.134,1.7.126.4-.007.817-.184.8-.647-.087-1.923-5.465-.477-6.485-.22" transform="translate(8.458 106.009)"/><path class="a" d="M165.759,163.939c-.141-.622-.922-.636-1.413-.643-.857-.011-1.713.047-2.57.094q-1.41.076-2.812.181a5.713,5.713,0,0,0-1.406.134.781.781,0,0,0,.271,1.518h.007a.985.985,0,0,0,.1,0c-.137.047-.047.018.061,0l.025-.007a.862.862,0,0,1,.09-.011c.264-.022.528-.04.792-.058.755-.054,1.514-.1,2.27-.141.8-.043,1.594-.083,2.393-.1.314-.007.629-.011.947-.007.1,0,.213.007.318.014s.141.007.141,0a.826.826,0,0,0,.466-.09l0,0a.763.763,0,0,0,.311-.864" transform="translate(17.888 106.546)"/><path class="a" d="M161.021,166.895c-.318-.8-1.442-.853-2.169-.911a41.632,41.632,0,0,0-4.453.2.777.777,0,0,0,.072,1.551c1.023-.014,2.042-.163,3.069-.184a9.191,9.191,0,0,1,1.836.1,1.307,1.307,0,0,1,.513.21c.235.119.1.094.17.094a.255.255,0,0,0,.231.116.855.855,0,0,0,.73-1.175" transform="translate(9.14 113.502)"/><path class="a" d="M165.072,167.083c-.419-1.24-2.422-.994-3.434-.911a32.33,32.33,0,0,0-3.763.643c-1.1.228-.557,1.869.524,1.655,1.027-.206,2.049-.4,3.094-.517a8.828,8.828,0,0,1,1.721-.051c.47.043.943.257,1.406.054a.712.712,0,0,0,.452-.875" transform="translate(18.527 113.87)"/></g></svg>