<svg xmlns="http://www.w3.org/2000/svg" width="400.046" height="74.5" viewBox="0 0 400.046 74.5"><defs><style>.a{fill:#baa4a6;}</style></defs><g transform="translate(-115.339 -531.382)"><path class="a" d="M216.4,533.375c-.1.338-.544.632-.9.827a7.08,7.08,0,0,0-2.8,2.549,18.02,18.02,0,0,1-2.2,2.362,27.662,27.662,0,0,0-3.06,3.523,8.221,8.221,0,0,1-2.208,2.16,11.922,11.922,0,0,0-1.23,1.51c-1.595,1.686-3.193,3.372-4.835,5.011-.892.889-1.877,1.686-2.814,2.531a1.617,1.617,0,0,0,.617,2.806c-1.179.668-.6,1.789-.907,2.645a6.434,6.434,0,0,1-1.028,2.351,9.773,9.773,0,0,0-1.109,2.226c-.11.231-.213.6-.379.639-.717.158-.727.8-.988,1.271-.3.536-.562,1.1-.859,1.675.2.056.544.151.886.243-.033.1-.052.155-.07.21-2.065-.717-2.146,1.429-3.149,2.222-.746.592-.988,1.7-2.005,2.112-.272.11-.382.588-.588.878a5.432,5.432,0,0,1-1.833,1.987c-.113.056-.168.231-.246.349.694.952,1.679.632,2.586.68a3.056,3.056,0,0,1,1.344.261c.922.548,1.764,1.231,2.66,1.83a3.665,3.665,0,0,1,1.9,4.041,9.838,9.838,0,0,1-1.818,3.857,31.8,31.8,0,0,0-1.565,3.1c-.051.107-.041.265-.113.334a7.258,7.258,0,0,0-1.466,2.693c-.213.488-.738.83-1.021,1.3-.264.445-.364.985-.591,1.459-.455.955-.952,1.892-1.506,2.983.268-.11.415-.231.488-.195,1.338.635,2.311-.085,3.347-.79a23.067,23.067,0,0,1,2.145-1.025c.566-.3,1.076-.713,1.624-1.051.4-.246.816-.459,1.227-.683,1-.544,1.987-1.117,3-1.624,1.466-.731,2.972-1.384,4.431-2.134.665-.338,1.429-.466,1.921-1.216.246-.375,1.01-.445,1.558-.581,1.153-.286,2.325-.5,3.475-.789.856-.213,1.694-.489,2.531-.765a2.76,2.76,0,0,1,1.87.7.489.489,0,0,1,.011.271,3.251,3.251,0,0,1-3.189,2,3.264,3.264,0,0,0-1.664.25c-1,.455-1.925,1.087-2.917,1.576-.841.415-1.76.68-2.6,1.1a28.487,28.487,0,0,0-2.85,1.628c-1.253.819-2.446,1.73-3.689,2.564a3.3,3.3,0,0,1-.98.3,2.537,2.537,0,0,0-.691.155c-.849.521-1.69,1.069-2.5,1.649-.121.084-.088.385-.1.433-.647.276-1.245.521-1.836.786-1.242.559-2.473,1.139-3.722,1.686a15.22,15.22,0,0,1-2.844,1.106,2.777,2.777,0,0,1-1.774-.485,3.484,3.484,0,0,1-.874-3.468c.687-1.44,1.561-2.8,2.109-4.287.4-1.08,1.4-1.936,1.5-2.953.121-1.212,1.039-1.672,1.484-2.52.94-1.8,2.358-3.366,2.774-5.441.047-.231.309-.426.488-.624.786-.886.474-1.907.357-2.9a.5.5,0,0,0-.279-.341,30.1,30.1,0,0,0-3.016-.878,2.625,2.625,0,0,0-1.679.121c-1.256.717-2.773.154-4.033,1.065a20.136,20.136,0,0,1-3.813,1.848c-.852.374-1.4-.225-1.98-.724-.536-.463-.291-.9-.206-1.455.114-.786.61-1.021,1.139-1.37s.94-.8,1.437-1.168c.44-.328.966-.54,1.384-.889a27.883,27.883,0,0,1,2.189-1.936,12.244,12.244,0,0,0,2.241-2.322,5.919,5.919,0,0,1,1.969-1.627c.113-.052.146-.25.242-.364,1.142-1.362,2.311-2.707,3.424-4.1a18.329,18.329,0,0,0,1-1.634c.312-.489.687-.941.992-1.433.58-.929,1.135-1.873,1.686-2.821.76-1.311.753-1.315.566-2.461-.973.723-2.083,1.139-2.715,2.211a.721.721,0,0,1-.613.18c-.691-.114-1.029.315-1.4.764-.474.573-.966,1.121-1.855.959-.209-.037-.488.165-.694.312-1.708,1.227-3.013.739-3.487-1.293-.033-.125-.257-.206-.294-.235.327-.808.668-1.51.9-2.245.334-1.054,1.278-1.572,1.936-2.336a3.85,3.85,0,0,1,.724-.705c.628-.427,1.285-.808,1.936-1.2.1-.062.291-.07.309-.139.338-1.231,1.477-.9,2.285-1.11.831-.216,1.73-.139,2.583-.279a2.466,2.466,0,0,0,1.19-.532,10.664,10.664,0,0,0,2.774-2.793c.356-.657,1.224-1.032,1.8-1.59.287-.279.4-.735.683-1.021.371-.382.86-.643,1.242-1.014.812-.783,1.576-1.613,2.377-2.406.466-.459.977-.87,1.444-1.333a31.714,31.714,0,0,0,2.733-2.792,52.859,52.859,0,0,1,4.856-4.926A32.29,32.29,0,0,1,215,531.84c.445-.32,1.029-.768,1.393-.147A2.426,2.426,0,0,1,216.4,533.375Z" transform="translate(-14.623)"/><path class="a" d="M595.28,570.221a5.965,5.965,0,0,0-.426-3.351c-.147-.312.077-.793.14-1.289a3.564,3.564,0,0,1-1.451-2.847c-.2.029-.5.154-.588.066a12,12,0,0,0-3.405-2.061c-1.766-.87-3.662-.845-5.481-1.256a19.494,19.494,0,0,0-4.375-.052,8.7,8.7,0,0,0-1.194.07c-1.539.217-3.064.548-4.606.661a20.665,20.665,0,0,0-5.775,1.146,18.678,18.678,0,0,1-2.431.522c1.465-2.259,2.74-4.235,4.033-6.2.43-.651.944-1.249,1.374-1.9a13.682,13.682,0,0,1,.724-1.337c.745-.893,1.858-1.48,2.292-2.626.106-.283-.074-.672-.125-1.014a4.382,4.382,0,0,0-.756.36c-.441.316-.837.687-1.272,1.01a6.028,6.028,0,0,1-.76.441c-1.436.757-2.211,2.16-3.277,3.281-.338.356-.852.577-1.109.977-1,1.543-1.892,3.155-2.891,4.7-.793,1.216-1.664,2.385-2.545,3.538-.643.849-1.172,1.8-2.333,2.153a19.677,19.677,0,0,0-3.369,1.344c-1.352.7-2.616,1.572-3.927,2.358-1.543.922-3.107,1.807-4.636,2.751-1.976,1.22-3.957,2.439-5.881,3.736a24.864,24.864,0,0,0-2.756,2.248c-.768.691-1.477,1.451-2.174,2.212a7.059,7.059,0,0,0-1.356,1.756c-.154.349.239.925.367,1.407a4.948,4.948,0,0,1,.081.6,4.2,4.2,0,0,1,1.3.29c1.338.849,2.594.291,3.883-.1a5.224,5.224,0,0,1,1.723-.393,6.374,6.374,0,0,0,3.1-.93,27.757,27.757,0,0,0,2.829-1.664c1.15-.7,2.314-1.374,3.435-2.116a8.48,8.48,0,0,0,1.2-1.128q.81-.793,1.595-1.605a6.057,6.057,0,0,1,.437-.529,13.284,13.284,0,0,0,2.34-1.9c1.124-1.47,2.259-2.917,3.512-4.276a20.314,20.314,0,0,0,1.558-2.127,8.148,8.148,0,0,1,4-2.66,10.544,10.544,0,0,1,1.393-.54,28.62,28.62,0,0,0,3.758-.837,9.056,9.056,0,0,1,3.864-.713,5.134,5.134,0,0,0,1.047-.217,8.768,8.768,0,0,1,1.161-.158c.962-.037,1.933-.051,2.9-.066a20.075,20.075,0,0,1,6.487.47,6.932,6.932,0,0,1,2.039.661,5.319,5.319,0,0,1,2.182,2.48,16.79,16.79,0,0,1,.753,2.4c.136.826-.283,1.638-.217,2.52.118,1.649-1.08,2.92-1.595,4.4a25.25,25.25,0,0,1-1.7,2.987,6.6,6.6,0,0,1-1.807,2.421,3.1,3.1,0,0,0-.9.922c-.323.6-.349,1.5-.815,1.837a6.97,6.97,0,0,0-1.734,1.741c-.915,1.326-2.263,2.347-3.251,3.629a19.626,19.626,0,0,0-2.167,3.67c-.235.5-.709,1.209.018,1.855a1.33,1.33,0,0,0,2.186-.136,17.828,17.828,0,0,1,1.484-1.44c.085-.084.258-.117.291-.206.455-1.37,1.686-2.053,2.619-3.005.231-.235.382-.712.621-.749.705-.114.683-.753.991-1.139.783-.977,1.539-1.977,2.329-2.95.07-.081.309-.026.389-.029a2.743,2.743,0,0,1,.184-.955c.885-1.3,1.884-2.52,2.718-3.846,1-1.59,1.892-3.247,2.789-4.9a12.418,12.418,0,0,0,.415-1.367c.235-.609.526-1.2.8-1.8C594.872,571.312,595.232,570.651,595.28,570.221Zm-39.193.1c-.764,1.024-1.778,1.815-2.545,2.876a16.917,16.917,0,0,1-2.887,2.41,11.163,11.163,0,0,0-1.091,1.293c-.114.136-.239.312-.389.352a10,10,0,0,0-3.405,1.87,10.7,10.7,0,0,1-2.656,1.227,18.214,18.214,0,0,1-2.278.716,2.955,2.955,0,0,1-.907-.055l-.191-.312a13.955,13.955,0,0,1,2.343-2.4c1.532-.973,2.9-2.131,4.331-3.218,1.275-.97,2.674-1.77,4.026-2.633,1.29-.823,2.579-1.657,3.9-2.432a16.727,16.727,0,0,1,2.01-.831A3.179,3.179,0,0,1,556.087,570.324Z" transform="translate(-104.439 -4.324)"/><path class="a" d="M373.721,578.016c-1.051-.139-2.087,1.055-3.236.151-.07-.055-.276.088-.423.11-.892.136-1.785.276-2.685.378a12.56,12.56,0,0,1-1.37.011,7.7,7.7,0,0,1,.158-.925,9.192,9.192,0,0,1,.463-1.231c.481-1.047.544-2.252,1.26-3.211a4.785,4.785,0,0,0,.4-.9,16.693,16.693,0,0,1,.962-2.075c.849-1.352,1.782-2.649,2.719-4.026a2.3,2.3,0,0,0-.264-.463,10.166,10.166,0,0,0-1.282-1.286c-.9-.665-1.1.235-1.466.728-.029.037-.128.014-.169.051-1.032.919-2.035,1.866-3.093,2.751-.783.654-1.638,1.22-2.458,1.83a1.637,1.637,0,0,0-.191.2,15.048,15.048,0,0,1-3.825,3.318,37.053,37.053,0,0,0-4.258,3.277c-.657.492-1.411.859-2.12,1.289a19.088,19.088,0,0,1-1.877,1.124c-1.275.587-2.112,1.939-3.644,2.065a.371.371,0,0,0-.239.125,10.344,10.344,0,0,1-3.674,2.509c-.213.11-.665.192-.7.125a2.3,2.3,0,0,1-.272-.992c0-.213.239-.415.3-.643a3.02,3.02,0,0,0,.176-1.006,3.921,3.921,0,0,1,1.073-2.068c1.109-.636,2.189-1.33,3.3-1.966,1.484-.849,2.413-2.473,4.162-2.95.047-.014.044-.169.1-.213.577-.452.375-.977.246-1.565-.282-1.263-.889-2.23-2.237-2.4a6.773,6.773,0,0,0-2.8-.14c-1.444.379-2.862.441-3.9,1.8-1.2,1.561-2.744,2.844-3.714,4.6a2.247,2.247,0,0,0,.382,2.854.73.73,0,0,1,.121.521,6.454,6.454,0,0,1-.29,1.488c-.713,1.818-.514,3.732-.665,5.61a.642.642,0,0,0,.081.342c.731,1.223,1.609,2.207,3.108,1.917.433-.559.679-1.121,1.106-1.381,1.815-1.113,3.725-2.068,5.517-3.215,1.638-1.051,3.163-2.289,4.754-3.42,1.561-1.113,3.163-2.171,4.706-3.306,1.029-.761,1.987-1.616,2.972-2.432.261-.217.5-.466.771-.665.662-.485,1.341-.944,2.013-1.414.074.08.147.158.217.238-.316.963-.584,1.948-.959,2.888-.349.874-.848,1.686-1.215,2.553a10.827,10.827,0,0,1-.588,1.774c-.786,1.154-.786,2.729-2.013,3.633-.136.1-.132.386-.195.584a15.455,15.455,0,0,1-1.047,3.222,3.852,3.852,0,0,0-.79,2.439,2.34,2.34,0,0,0,1.73,1.62c.613.022,1.124-.628,1.352-1.37a13.762,13.762,0,0,1,.98-2.057c.066-.136.147-.264.206-.4.408-1,.158-2.355,1.532-2.726a3.122,3.122,0,0,1-.107-.831c.151-1.039.966-1.469,1.8-1.863a16.341,16.341,0,0,1,1.51-.646,9.9,9.9,0,0,1,1.84-.536c.6-.089,1.257.1,1.848-.033.934-.21,1.818-.606,2.741-.874.845-.243,1.7-.441,2.568-.617.709-.143.536-.8.783-1.216A7.789,7.789,0,0,0,373.721,578.016Zm-31.894-.437-.2-.2a8.452,8.452,0,0,1,2.234-3.567,6.622,6.622,0,0,1,2.373-1.047,12.281,12.281,0,0,1,2.2-.379,1.959,1.959,0,0,1,.676.173c-.088.231-.11.544-.276.683-1.407,1.154-2.78,2.362-4.29,3.369A11.346,11.346,0,0,1,341.827,577.579Z" transform="translate(-55.597 -8.196)"/><path class="a" d="M509.667,583.584a2.007,2.007,0,0,0-1.066-.786,41.437,41.437,0,0,0-4.772-.316c-1.906.008-3.813.173-5.716.283-.452.026-.9.121-1.348.165-1.855.18-3.714.327-5.562.54-1.389.158-2.77.389-4.147.61-.363.059-.816.412-1.047.286-1.161-.606-2.311-.014-3.534-.041,1.319-1.344,2.568-2.63,3.828-3.9.985-1,1.991-1.976,2.972-2.983a11.908,11.908,0,0,1,1.539-1.646,4.378,4.378,0,0,0,2.05-2.325,1.048,1.048,0,0,1,.21-.394c.709-.782,1.444-1.539,2.135-2.336.8-.922,1.121-2.3,2.535-2.642.117-.029.18-.243.29-.338.5-.426,1.014-.849,1.528-1.26q1.818-1.456,3.643-2.9a.156.156,0,0,0,.059-.07c.206-.643.62-.588,1.043-.33.379-.518.738-1.018.955-1.315-.169-.569-.261-.937-.382-1.293a6.587,6.587,0,0,0-.79-2.075,4.061,4.061,0,0,0-2.681-1.338,12.9,12.9,0,0,0-5.511.379c-.925.283-2.064-.011-2.432,1.29-.018.066-.154.092-.216.154-1.183,1.249-2.424,2.447-3.52,3.765-.863,1.036-1.517,2.241-2.314,3.336a2.539,2.539,0,0,0-.268,2.667,4.215,4.215,0,0,0,3.794,2.3c-1.8,1.958-3.471,3.791-5.161,5.606a54.658,54.658,0,0,1-4.882,5.073,64,64,0,0,1-6.036,4.008c.264.687.437,1.161.632,1.628.077.183.169.455.312.5a7.99,7.99,0,0,0,2.244.562,20.967,20.967,0,0,0,3.45-.334c1.032-.158,2.042-.43,3.064-.643.639-.136,1.282-.268,1.925-.389,1.065-.2,2.123-.441,3.2-.581,1.223-.154,2.461-.173,3.688-.323,1.411-.169,2.811-.437,4.221-.621.779-.1,1.568-.117,2.355-.169.628-.041,1.257-.088,1.888-.117.221-.007.452.066.668.036.841-.121,1.675-.294,2.516-.4,1.426-.187,2.862-.315,4.28-.543C509.472,584.326,509.747,583.687,509.667,583.584Zm-18.89-16.218a12.063,12.063,0,0,1,.7-1.583,18.136,18.136,0,0,1,1.943-2.862c.587-.635,1.1-1.451,2.24-1.488a17.169,17.169,0,0,0,2.627-.694,13.965,13.965,0,0,1,2.259-.206,2.213,2.213,0,0,1,.717.239,2.507,2.507,0,0,1-.371.793,25.635,25.635,0,0,1-2.038,1.752c-1.2.919-2.421,1.822-3.67,2.675a5.743,5.743,0,0,1-1.378.463C493.683,567.344,492.6,567.733,490.777,567.366Z" transform="translate(-89.493 -6.387)"/><path class="a" d="M426.72,578.643c-.044,1.235-.6,1.385-1.543,1.179a5.28,5.28,0,0,0-1.569.184c-.61.066-1.227.074-1.83.165-2.384.349-4.772.68-7.138,1.113a16.391,16.391,0,0,0-2.718.933,1.219,1.219,0,0,0-.643.466,1.165,1.165,0,0,1-1.528.676c-.448-.224-.661-.918-.977-1.407a.8.8,0,0,0-.44-.352c-.382,1.23-.812,2.45-1.128,3.7-.272,1.073-.382,2.189-.628,3.269-.077.338-.4.606-.551.933-.466,1.021-1.157,1.984-.874,3.215a.782.782,0,0,1-.1.525,13.473,13.473,0,0,1-1.613,2.333,3.158,3.158,0,0,1-1.9.9,1.164,1.164,0,0,1-1.073-1.348,4.266,4.266,0,0,1,.357-1.238c.139-.342.415-.632.543-.977.573-1.532,1.154-3.056,1.635-4.614a1.862,1.862,0,0,0-.188-1.363c-.569-.933.269-.672.559-.812.911-3.225,1.811-6.417,2.711-9.609-.062-.052-.128-.1-.191-.155-.4.83-1.392.841-1.859,1.859-.408.885-1.638,1.407-2.527,2.057-.672.484-1.583.764-1.462,1.568-.7.6-1.26,1.073-2.1,1.785-.691-.121-1.4.577-1.918,1.426-.445.727-1.907.783-1.5,1.91a3.318,3.318,0,0,0-1.043.019,4.279,4.279,0,0,0-2.722,1.733c-.074.132-.334.287-.452.25a6.288,6.288,0,0,1-2.567-.911,2.393,2.393,0,0,1-.327-2.986c.511-.878,1.165-1.682,1.635-2.583.437-.834.68-1.763,1.065-2.627.606-1.366,1.278-2.7,1.888-4.07a2.362,2.362,0,0,0-.834-2.4,3.814,3.814,0,0,1-1.815-1.863,1.41,1.41,0,0,1-.118-1.01c.074-.176.563-.2.87-.264,1.657-.323,2.811.919,4.214,1.389.158.055.192.463.291.705a7.6,7.6,0,0,1,.474,4.816c-.118.481-.695.893-.2,1.29-1.12,2.071-2.178,4.026-3.236,5.98l.22.177c1.7-1.245,3.446-2.432,5.088-3.754,1.465-1.187,2.788-2.55,4.232-3.773a7.265,7.265,0,0,0,1.859-1.686,7.04,7.04,0,0,1,.662-.823c.169-.21.33-.6.5-.606,1.021-.029,1.362-.874,1.9-1.477.291-.327.466-.75.753-1.08a1.921,1.921,0,0,1,2.572-.65,2.162,2.162,0,0,1,.7,2.564c-.235.944-.239,1.943-.441,2.895-.195.933-.533,1.837-.768,2.766a3.942,3.942,0,0,0-.011.933c.081.026.158.056.239.085-.25.18-.5.36-.746.54.037.037.074.074.114.11.672-.382,1.337-.775,2.02-1.136a3.149,3.149,0,0,1,.768-.228c1.128-.253,2.263-.5,3.394-.75.7-.154,1.393-.327,2.094-.445,1.121-.191,2.237-.389,3.365-.488.639-.055,1.348.272,1.925.1a3.36,3.36,0,0,1,2.16.062C425.1,578.056,425.933,578.365,426.72,578.643Z" transform="translate(-67.633 -9.664)"/><path class="a" d="M325.921,577.656a5.3,5.3,0,0,1-2.9,1c-1.609.15-3.3.062-4.823.867a4.454,4.454,0,0,1-1.377.21,1.549,1.549,0,0,0-1.378,1.186c-.216.665-.837,1.224-.962,1.892a8.749,8.749,0,0,1-.761,2.535c-.146.283-.319.713-.463,1.08-.3.779-.635,1.55-.915,2.337a1.651,1.651,0,0,1-2.186.87,2.622,2.622,0,0,1-.756-.456.871.871,0,0,1-.225-.709,1.923,1.923,0,0,0-.47-2.075c.489-.426.952-.775,1.344-1.19a1,1,0,0,0,.246-.731,3.276,3.276,0,0,1,.591-1.925,19.56,19.56,0,0,0,.849-2.512.559.559,0,0,0-.121-.386c-.812-1.257-.489-1.965,1.028-2.252a.789.789,0,0,0,.683-1.039.5.5,0,0,1-.022-.264c.286-.728.584-1.451.981-2.428a11.273,11.273,0,0,0-1.011.5c-.922.588-1.84,1.187-2.744,1.8a2.728,2.728,0,0,0-.415.507,3.534,3.534,0,0,1-1.675,1.272,10.4,10.4,0,0,0-2.652,1.836c-.2.143-.367.316-.563.463-.378.283-.925.474-1.109.845-.393.8-1.216.952-1.815,1.426-.922.738-1.918,1.385-2.883,2.072a11.011,11.011,0,0,1-2.484,1.7,15.4,15.4,0,0,1-3.8.562c-.276.019-.61-.451-.874-.731a3.518,3.518,0,0,1-1.15-3.4c.4-1.646.658-3.328,1.076-4.967a14.926,14.926,0,0,1,.977-2.244c.033-.081.125-.169.11-.239-.195-1.157.724-1.836,1.183-2.7.441-.822,1.043-1.554,1.525-2.358a6.284,6.284,0,0,0,.4-1.245,2.24,2.24,0,0,0,.5-.466c.911-1.359,2.02-2.362,3.8-1.972a1.437,1.437,0,0,1,.977.793c.1.448.107,1.216-.859.952-.147-.041-.46.195-.559.378a18.534,18.534,0,0,1-1.329,2.527c-.812,1.024-.834,2.413-1.785,3.379-.357.364-.316,1.113-.485,1.8l1.4.382c-.011.062-.026.128-.041.191-.43-.056-.864-.107-1.168-.143-.287.3-.514.544-.742.783-.081.084-.217.158-.235.253-.192,1.021-.371,2.05-.544,3.079-.019.114.055.243.033.356-.239,1.367-.239,1.367,1.153,1.62.7-.617,1.359-1.175,1.987-1.767a8.839,8.839,0,0,1,1.014-1.066c.294-.191.831-.022,1.121-.22,1.44-.962,2.784-2.083,4.265-2.976,1.054-.635,1.854-1.605,3.148-1.984a2.532,2.532,0,0,0,1.76-1.543c.113-.386.7-.672,1.124-.907.937-.522,1.91-.977,2.868-1.462a.31.31,0,0,0,.085-.033c1.039-.952,2.035-1.954,3.134-2.832a9.779,9.779,0,0,1,1.8-.977c.452.647.794,1.142,1.136,1.635.216-.132.433-.264.65-.4a11.713,11.713,0,0,1-1.347,2.8,1.915,1.915,0,0,0-.588,2.087c-1.088.385-.786,1.576-1.326,2.281-.037.051-.1.092-.11.143-.085.43-.155.859-.232,1.293a7.089,7.089,0,0,0,1.077.1c1.227-.07,2.454-.165,3.677-.272.97-.084,1.94-.279,2.91-.275a2.819,2.819,0,0,1,1.245.58C326.406,577.2,326.391,577.3,325.921,577.656Z" transform="translate(-43.728 -8.677)"/><path class="a" d="M257.1,591.26a.846.846,0,0,1-.695.21,20.84,20.84,0,0,0-6.3-.562c.507,1.073-.132,1.619-1.069,2.192.493.2.8.32,1.433.573-1.583-.121-1.441.959-1.672,1.7-.385,1.227-.617,2.5-1.032,3.718-.694,2.031-1.492,4.033-2.222,6.054a14.453,14.453,0,0,1-1.271,3.468c-.665.929-.753,2.017-1.338,2.95a14.7,14.7,0,0,0-1.23,3.391,13.388,13.388,0,0,0-.779,3.034c-.066,1.08-.731,1.51-1.455,2-.705.478-1.216.217-1.447-.426-.066-.808-.132-1.613-.191-2.325a6.206,6.206,0,0,1,.481-1.532c1.014-1.6.849-3.534,1.577-5.245.36-.845.441-1.943.87-2.862.448-.948,1.018-1.84,1.426-2.8.459-1.087.789-2.23,1.193-3.339.33-.9.72-1.77,1.021-2.674a11.47,11.47,0,0,0,.286-1.562c.231-.415.569-.944.834-1.513.407-.863.775-1.741,1.131-2.627.445-1.1.213-1.459-.9-1.216-1.278.279-2.531.7-3.8,1.058-.5.14-1.006.279-1.517.4-1.517.36-3.045.672-4.548,1.084-1.23.334-2.413.834-3.64,1.16-.782.21-1.619.194-2.417.353-.385.074-.727.4-1.109.455-1.55.235-3.141.279-4.651.654-1.055.264-1.869-.433-2.847-.33-.268.029-.683-.408-.841-.724-.081-.161.216-.558.4-.8a1.9,1.9,0,0,1,2.134-.676,9.915,9.915,0,0,0,3.094.011c1.667-.225,3.324-.559,4.962-.948,1.558-.367,3.082-.874,4.625-1.308,1.473-.415,2.943-.856,4.434-1.208,1.021-.243,2.083-.32,3.112-.533.724-.15,1.414-.448,2.135-.6.933-.2,1.881-.33,2.825-.478a20.9,20.9,0,0,1,2.755-.382,24.631,24.631,0,0,1,3.321.216,5.783,5.783,0,0,1,1.7.448,4.393,4.393,0,0,1,1.2.922A.631.631,0,0,1,257.1,591.26Z" transform="translate(-26.144 -14.353)"/><path class="a" d="M175.268,536.058c-1.719,1.183-2.164,3.108-2.888,4.86-.433,1.051-.7,2.171-1.109,3.236-.352.918-.808,1.8-1.2,2.7a1.013,1.013,0,0,0-.136.609,1.779,1.779,0,0,1-.5,1.628,2.725,2.725,0,0,0-.544,1.326c-.085,1.444-.985,2.545-1.459,3.824a.991.991,0,0,0-.051.514c.272,1.278-.548,2.292-.808,3.442a8.183,8.183,0,0,0-.268,1.127c-.184,2.113-.364,4.225-.481,6.337a4.5,4.5,0,0,0,.422,1.359s-.154.132-.364.316c.639.492.548,1.013-.092,1.58a13.777,13.777,0,0,1,1.793.878,1.908,1.908,0,0,1,.735,1.006c.044.183-.386.581-.68.731-1.836.944-3.178.052-4.1-1.5-.3-.511-.441-1.117-.742-1.631-.147-.25-.493-.386-.643-.5.041-.72.092-1.525.136-2.325.077-1.326.074-2.66.246-3.971a25.325,25.325,0,0,1,1.609-7.083,36.654,36.654,0,0,0,1.127-4.151c.246-.8.705-1.539.988-2.337.228-.632.309-1.311.5-1.958a2.875,2.875,0,0,1,.415-.789,5.582,5.582,0,0,0,1.168-2.961c.011-.3.408-.573.563-.886.3-.614.554-1.242.815-1.869.437-1.047.827-2.117,1.312-3.141a7.17,7.17,0,0,1,1.256-2.053c.794-.786,2.7-.228,3.159.789A.936.936,0,0,1,175.268,536.058Z" transform="translate(-11.652 -0.655)"/><path class="a" d="M251.545,564.628c-.576.283-1.113.65-1.664.988-.07-.125-.147-.261-.235-.412a6.513,6.513,0,0,1-.635.86c-.382.364-.852.635-1.212,1.013-.639.676-1.227,1.4-1.837,2.109-1.032,1.183-2.038,2.384-3.1,3.53-.43.459-1.006,1.128-1.495,1.113a4.748,4.748,0,0,0-1.874.628c-.415.143-.845.258-1.256.419-1.224.481-2.832.018-3.667,1.477-.047.085-.279.041-.389.11-.963.595-2.131.892-2.762,1.969a8.278,8.278,0,0,1-.757.955c0,.165,0,.408,0,.65a2.508,2.508,0,0,0-.018.716,3.516,3.516,0,0,0,3.423,2.579,5.51,5.51,0,0,0,1.389-.206c1.749-.379,2.733-1.918,4.147-2.817a22.414,22.414,0,0,0,3.365-3.193c1.006.1,1.888.2,2.774.283a1.977,1.977,0,0,0-.353-2.391c-.14-.14.1-.705.239-1.043.07-.165.357-.231.478-.393,1-1.319,2-2.634,2.953-3.978,1.047-1.474,2.047-2.98,3.09-4.5C251.906,564.9,251.638,564.583,251.545,564.628Zm-17.581,15.741c-.066-.088-.132-.177-.2-.264q1.378-1.1,2.755-2.2c.059.084.118.165.176.25C236.22,579.479,235.011,579.814,233.964,580.369Z" transform="translate(-28.694 -8.274)"/><path class="a" d="M545.226,554.911c-.379.11-.694.319-.867.235-.849-.415-1.154.261-1.525.723a13.564,13.564,0,0,0-2.274,3.674,22.967,22.967,0,0,1-1.23,1.969c-.731,1.465-1.546,2.865-2.377,4.272a30.037,30.037,0,0,0-2.656,6.458,15.419,15.419,0,0,0-.213,3.817c-.03.756-.092,1.51-.092,2.263a1.211,1.211,0,0,0,.264.713,12.684,12.684,0,0,0,1.036,1.01c-.239.088-.379.1-.441.169-.345.393-.489,1.186-1.242.83-.864-.412-2.1-.456-2.1-1.9,0-.319-.408-.617-.532-.958a6.654,6.654,0,0,1-.361-3.31c.1-.713,0-1.459-.576-1.727a4.943,4.943,0,0,0,1.017-1.135,27.815,27.815,0,0,0,1.4-3.842c.272-1.022,1.16-1.774,1.117-2.931-.011-.279.532-.544.709-.878.841-1.591,1.627-3.211,2.476-4.8a10.2,10.2,0,0,1,.878-1.1c.845-1.157,1.69-2.318,2.513-3.493.257-.364.426-.783.676-1.154.815-1.227,1.91-1.6,2.85-.834A12.147,12.147,0,0,1,545.226,554.911Z" transform="translate(-103.228 -5.277)"/><path class="a" d="M235.081,560.95a3.642,3.642,0,0,0-.647.187,2.787,2.787,0,0,0-1.073.668c-.665.992-1.22,2.061-1.83,3.094-.554.944-1.179,1.854-1.671,2.832-.463.926-.768,1.925-1.19,2.869-.169.382-.5.687-.694,1.062-.768,1.513-1.543,3.019-2.234,4.566a7.935,7.935,0,0,0-.445,1.9c-.154.937-.268,1.881-.378,2.663.889.294,1.487.492,2.126.7a8.013,8.013,0,0,1-.205,1.407c-.3.871-1.146.845-1.785.757a2.82,2.82,0,0,1-2.319-1.433,16.088,16.088,0,0,0-1.48-1.994c.107-.089.3-.166.327-.283.319-1.22.529-2.473.933-3.659.36-1.073.937-2.076,1.4-3.116.342-.768.647-1.55.992-2.314.154-.338.379-.639.562-.963.309-.544.621-1.087.915-1.642.128-.235.191-.507.327-.738.775-1.337,1.51-2.7,2.37-3.99.911-1.366,1.6-2.975,3.269-3.658a2.586,2.586,0,0,1,2.388.239C234.948,560.233,234.974,560.659,235.081,560.95Z" transform="translate(-26.365 -7.043)"/><path class="a" d="M120.1,561.111a28.613,28.613,0,0,0-.521,3.027,2.4,2.4,0,0,1-.228.6c-.052.107-.21.173-.232.276a16.665,16.665,0,0,0-.5,3.053c0,.991-.426,1.877-1.267,1.884a1.818,1.818,0,0,1-1.984-2.282c.1-.9-.019-1.829.1-2.729a16.452,16.452,0,0,1,.668-3.067,14.52,14.52,0,0,1,1.286-2.747c.235-.4,1.807-.29,2.271.128A1.63,1.63,0,0,1,120.1,561.111Z" transform="translate(0 -6.844)"/><path class="a" d="M646.1,562.919a14.047,14.047,0,0,1-1.653,4.4c-.283.4-.327.966-.592,1.388a8.321,8.321,0,0,1-1.278,1.631c-.371.353-1.311-.074-1.543-.6-.117-.268-.253-.526-.276-.573.279-1.393.529-2.612.772-3.828.026-.122,0-.279.069-.361a2.717,2.717,0,0,0,.342-3.06l.019-.041a10.141,10.141,0,0,1,1.7-.812,2.653,2.653,0,0,1,1.69-.055A1.576,1.576,0,0,1,646.1,562.919Z" transform="translate(-130.786 -7.345)"/><path class="a" d="M129.407,562.393a1.988,1.988,0,0,1-1.1,1.722c-.367.2-.514.816-.738,1.257a10.98,10.98,0,0,0-.848,1.818,5.709,5.709,0,0,1-2.762,3.354,1.564,1.564,0,0,1-.4-2.105,7.147,7.147,0,0,0,.162-2.568,2.06,2.06,0,0,1,.209-.933c.485-.75,1.07-1.436,1.558-2.182a2.32,2.32,0,0,1,3.152-.761C128.892,562.147,129.164,562.267,129.407,562.393Z" transform="translate(-1.986 -7.538)"/><path class="a" d="M640.617,561.238l-.019.041c-.113.136-.213.371-.348.4-1.22.239-1.132,1.315-1.414,2.149-.173.507-.357,1.014-.514,1.525a1.331,1.331,0,0,0,0,.419,8.705,8.705,0,0,1-2.267-.143c-.647-.213-.783-.926-.614-1.628a10.782,10.782,0,0,1,.551-2.424c.478-.933.161-2.263,1.3-2.829.515-.253,1.249-.551,1.679-.36.477.213.749.937,1.05,1.473A13.825,13.825,0,0,1,640.617,561.238Z" transform="translate(-129.447 -6.707)"/></g></svg>