<svg xmlns="http://www.w3.org/2000/svg" xmlns:xlink="http://www.w3.org/1999/xlink" width="216.693" height="79.668" viewBox="0 0 216.693 79.668"><defs><style>.a{isolation:isolate;}.b{fill:url(#a);}</style><linearGradient id="a" x1="0.5" x2="0.5" y2="1" gradientUnits="objectBoundingBox"><stop offset="0" stop-color="#fff"/><stop offset="1" stop-color="#cbcbcb"/></linearGradient></defs><g transform="translate(-477.801 -336.884)"><g class="a" transform="translate(477.801 336.884)"><g transform="translate(0 1.04)"><path class="b" d="M572.749,332.539c-12.767,18.986-20.65,33.64-20.65,33.64H536.112c7.327-27.31,5.108-37.414,5.108-37.414a2.976,2.976,0,0,0,2.886-1.776c.665-1.887-1.666-1.221-1.666-1.221s-24.536,26.09-29.865,32.417-6.328,5.774-6.328,5.774c-9.77-1.11-8.549-5.884-12.546-7.771s-3.553-.556-3.553-.556l11.1,14.876-14.989,19.319s-4.772,6.995-3.108,7.327,2.221-.556,2.221-.556l17.43-22.87s15.321,19.539,21.649,18.763,11.434-23.315,11.434-23.315h14.878L541.44,381.5c-.22,2.22,2.555,1.332,2.555,1.332l3.552-4.774c-.665,2.22,1.111,4.44,1.111,4.44,7.215,4.108,15.32-5.439,17.984-7.882s4.663-10.326.779-11.1-8.994,3.108-13.1,6.217-.777-2.11-.777-2.11S568.529,342.31,570.2,338.98a29.238,29.238,0,0,1,4.44-6.217C574.859,330.763,572.749,332.539,572.749,332.539Zm-70.167,36.195-3.884-4.886s4.107,2.443,5.662,2.443S502.582,368.734,502.582,368.734Zm22.65,19.762a5.384,5.384,0,0,1-3.331.887c-1.663-.246-4.244-1.157-7.438-4.884-3.977-4.64-7.832-9.343-9.53-11.429a2.5,2.5,0,0,1-.334-2.627,4.391,4.391,0,0,1,3.757-2.931c3.331-.333.111,1.443,24.647,1.555C533,369.067,531.7,384.088,525.232,388.5Zm9.224-23.859a1.969,1.969,0,0,1-1.69,1.64c-3.864.5-14.556,1.548-21.72-1.068a.727.727,0,0,1-.322-1.128l2.073-2.675,25.313-27.979s1-1.221.888,1.333C538.9,336.97,535.4,358.8,534.456,364.638Zm24.751,3.6q.408-.345.846-.649c1.332-.926,4.894-3.209,6.589-2.406,2.083.987,1.136,12.04-13.318,16.273a4.363,4.363,0,0,1-1.954.134c-1.157-.192-2.524-.926-1.937-3.427a6.675,6.675,0,0,1,2.223-3.572Z" transform="translate(-482.801 -325.654)"/></g><g transform="translate(92.369 37.497)"><path class="b" d="M566.419,352.878c-3.75-.987-5.575,1.184-5.575,1.184s-14.9,14.211-7.8,15.74,13.569-6.365,16.135-9.079S570.169,353.865,566.419,352.878Zm.741,7.353c-1.751,1.81-7.44,8.52-12.286,7.5s6.085-11.176,6.085-11.176A4.467,4.467,0,0,1,565.273,355C567.833,355.653,568.91,358.419,567.159,360.231Z" transform="translate(-551.127 -352.621)"/></g><g transform="translate(113.192 35.792)"><path class="b" d="M571.705,356.949s1.037-2.072,2.369-2.221.223,2.443-1.48,4.219-4.736,5.551-3.255,7.845,10.657-5.7,10.657-5.7,6.735-6.735,7.623-8.143,3.184-2.369,2.443-.74-7.031,9.251-6.069,12.8,7.4-1.776,7.4-1.776,2.071-1.332,1.479.149-6.29,4.737-8.584,4.884-3.182-3.849-1.851-6.81c0,0-6.514,6.662-11.768,8.956-2.738,1.2-3.727-.642-4.047-2.677a7.974,7.974,0,0,1,1.511-5.978Z" transform="translate(-566.529 -351.359)"/></g><g transform="translate(124.203)"><path class="b" d="M577.61,354.571s-2.665-1.221-2.886-.111.208,2.051,3.108,2.332c3.442.333,22.759.222,22.759.222s-6.439,11.658-6.883,22.87S612.249,376,612.249,376s.556-2-1.332-.443-13.99,8.77-14.322,4.884.777-12.546,6.773-23.648c0,0,32.417-1.221,40.19-4.552,0,0,2.554-1.555-1.887-.666s-38.636,4.108-36.526,2.221,17.43-27.534,17.43-27.534,1.11-2.775-1.776-.443c-2.617,2.113-15.64,24.034-18.047,28.1a1.365,1.365,0,0,1-1.138.671C597.6,354.7,578.9,355.165,577.61,354.571Z" transform="translate(-574.674 -324.884)"/></g><g transform="translate(183.539 36.744)"><path class="b" d="M623,354.665s.556-1.887,2.221-1.887-2.665,6.439-2.665,6.439-2.554,4.774-.888,5,4.218,1.11,10.658-6.439,7.66-5.44,7.66-5.44-6.107,5.994-6,14.432c0,0,.445,2.554,1.222,2.443s-3.109,1.555-3.109-2.331a15.6,15.6,0,0,1,1.666-6.884s.445-2.554-4,2.776-8.882,4.552-8.882,4.552-3.553-.443-1.887-4.884Z" transform="translate(-618.564 -352.063)"/></g><g transform="translate(177.811 36.663)"><path class="b" d="M650.365,353.687s1.666-1.887,2.442-1.666.556,1.444-1.776,3.442-7.549,7.327-7.549,7.327a2.46,2.46,0,0,0,1.444,3.664c2.886,1,8.215,1,7.771,4.663s-9.658,11.99-30.53,20.872,6.55-4.663,6.55-4.663a87.9,87.9,0,0,0,20.317-13.211s5.218-5.44-4-6.217S643.926,360.016,650.365,353.687Z" transform="translate(-614.328 -352.004)"/></g></g></g></svg>