<svg xmlns="http://www.w3.org/2000/svg" xmlns:xlink="http://www.w3.org/1999/xlink" width="228.655" height="70.542" viewBox="0 0 228.655 70.542"><defs><style>.a{fill:url(#a);}</style><linearGradient id="a" x1="0.5" x2="0.5" y2="1" gradientUnits="objectBoundingBox"><stop offset="0" stop-color="#fefefe"/><stop offset="1" stop-color="#cbcbcb"/></linearGradient></defs><g transform="translate(-1001.968 -310.518)"><g transform="translate(1001.968 310.518)"><path class="a" d="M1065.116,322.779c-1.083-1.236-4.041,3.887-4.041,3.887s-10.4,15.993-10.7,18.312a2.014,2.014,0,0,1-2.636,1.708c-13.48-2.124-26.419.43-31.835,1.777a18.449,18.449,0,0,0-4.109,1.555c-2.083,1.083-5.594,2.4-5.052-1.458.777-5.442,19.561-28.724,19.561-28.724s9.635-9.482,7.15-9.315-7.457,7.136-7.457,7.136-21.893,23.6-23.294,35.249-.612,14.285.776,14.438,2.4-4.97,2.1-9.468c-.221-3.262,2.429-4.4,3.915-4.79a15.868,15.868,0,0,0,2.291-.791c11.12-4.928,24.838-4.22,30.363-4.512,5.746-.319,4.816,2.943,4.816,2.943s-6.426,13.716-7.761,17.853c-2.291,7.108,2.013,19.575,2.166,7.3s6.374-22.671,6.374-22.671,2.317-6.053,6.206-4.97,6.053-5.428,8.231-11.023S1066.213,324.029,1065.116,322.779Zm-3.653,11.328c-.929,1.749-3.955,13.05-7.8,12.231-3.193-.68,2.457-8.732,4.456-11.453a19.649,19.649,0,0,0,1.18-1.819c.748-1.333,2.123-3.61,2.872-3.61C1063.212,329.457,1062.407,332.372,1061.463,334.108Z" transform="translate(-1001.968 -310.518)"/><g transform="translate(54.322 38.245)"><path class="a" d="M1051.6,347.525a14.991,14.991,0,0,1,3.512-.514,53.389,53.389,0,0,0,6.5-.9,6,6,0,0,0,3.25-1.4,3.906,3.906,0,0,0-.444-5.4,5.887,5.887,0,0,0-5.734-.875,12.5,12.5,0,0,0-4.9,3.471,23.438,23.438,0,0,1-3.734,3.6,5.233,5.233,0,0,1-4.927.736c-.64-.292-1.18-.75-1.833-1a1.715,1.715,0,0,0-1.931.278c-.666.819.07,2.027.876,2.707,1.678,1.43,3.914,2.513,4.581,4.623.264.805.25,1.694.54,2.5a4.529,4.529,0,0,0,2.8,2.471,13.39,13.39,0,0,0,3.79.541c2.693.125,5.666.167,7.72-1.569a.989.989,0,0,0,.361-.458.777.777,0,0,0-.557-.9,2.362,2.362,0,0,0-1.165-.014,21.887,21.887,0,0,1-9.01-.056,3.773,3.773,0,0,1-2.25-1.333,3.85,3.85,0,0,1,.14-4.748A4.285,4.285,0,0,1,1051.6,347.525Zm4.928-3.915a4.386,4.386,0,0,1,1.6-1.666,6.762,6.762,0,0,1,2.125-1,6.172,6.172,0,0,1,2.664-.139.887.887,0,0,1,.4.153.9.9,0,0,1,.264.583,2.624,2.624,0,0,1,.083,1.138,1.787,1.787,0,0,1-1.013,1.138,5.634,5.634,0,0,1-1.513.389,16.46,16.46,0,0,1-2.859.264C1057.751,344.457,1056.225,344.5,1056.531,343.61Z" transform="translate(-1041.096 -338.067)"/></g><g transform="translate(78.98 17.612)"><path class="a" d="M1121.464,329.612a9.5,9.5,0,0,0,.694-5.845.806.806,0,0,0-.223-.43c-.471-.444-1.109.319-1.3.944-2.041,6.275-6.024,11.7-9.925,17.007a8.54,8.54,0,0,1-3.124,2.971,10.6,10.6,0,0,1-2.721.6,22.255,22.255,0,0,0-12.69,6.483c-1.069,1.1-2.011,2.318-3.165,3.318-2.248,1.944-5.123,2.971-7.927,3.957a6.333,6.333,0,0,1-2.416.514,2.209,2.209,0,0,1-1.984-1.263c-.389-1.055.389-2.166,1.234-2.915.93-.833,2-1.513,2.875-2.416a4.409,4.409,0,0,0,1.43-3.346,4.1,4.1,0,0,0-3.194-3.221,8.816,8.816,0,0,0-2.957-.139c-.471.056-.944.153-1.416.167-.292,0-.569-.056-.847-.028a15.192,15.192,0,0,0-2.692.861c-.93.319-1.834.666-2.721,1.041a23.219,23.219,0,0,0-2.887,1.444,14,14,0,0,0-6.206,6.747c-.751,1.916-.653,4.581,1.206,5.47a4.113,4.113,0,0,0,2.278.236c3.705-.5,6.732-3.165,10.244-4.456.083,1.666.154,3.318.236,4.984a2.115,2.115,0,0,0,.626,1.694,1.93,1.93,0,0,0,1.347.194c5.83-.639,10.815-4.359,15.478-7.927a3.231,3.231,0,0,0,.959,3.485,6.5,6.5,0,0,0,3.5,1.444,13.317,13.317,0,0,0,8.37-1.61c1.5-.861,2.818-2,4.262-2.915a10.28,10.28,0,0,1,1.431-.361,15.219,15.219,0,0,0,2.359-.514,3.086,3.086,0,0,0,1.875-1.444.822.822,0,0,0,.082-.736.432.432,0,0,0-.068-.111,1.4,1.4,0,0,0,.249-.25,3.953,3.953,0,0,1-.375.139,1.317,1.317,0,0,0-.9-.125,27.064,27.064,0,0,0-4.138,1.18,1.951,1.951,0,0,1-.3.1c-.307.028-.612.042-.918.056-.056-.014-.111-.042-.167-.056a.719.719,0,0,1-.292-.236,3.742,3.742,0,0,1-.055-.764c.015-.055.028-.111.043-.167l-.043.042a10.179,10.179,0,0,1,2.291-5.3C1113.218,342.023,1118.756,336.6,1121.464,329.612ZM1063.571,357.2a1.484,1.484,0,0,1-.6-.167,1.32,1.32,0,0,1-.444-1.374,6.163,6.163,0,0,1,2.568-3.79,14.493,14.493,0,0,1,3.818-2.18,15.356,15.356,0,0,1,7.5-.9c.777.1,1.555.305,1.833,1.125.43,1.249-.347,2.263-1.234,3.068A17.339,17.339,0,0,1,1063.571,357.2Zm41.065-6.025a5.056,5.056,0,0,1-.221,1.374,4.288,4.288,0,0,1-.793,1.291,13.13,13.13,0,0,1-6.761,4.373,3.5,3.5,0,0,1-1.47.139,1.488,1.488,0,0,1-1.154-.833,2.031,2.031,0,0,1,.055-1.25,12.038,12.038,0,0,1,7.885-8.219,4,4,0,0,1,1.4-.208c.584.042,1.167.264,1.223.9A12.914,12.914,0,0,1,1104.637,351.172Z" transform="translate(-1058.858 -323.204)"/></g><path class="a" d="M1151.714,340.47l.124.125a.515.515,0,0,0,.154-.056C1151.81,340.5,1151.714,340.47,1151.714,340.47Z" transform="translate(-943.823 -298.889)"/><path class="a" d="M1183.55,344.5a3.241,3.241,0,0,0-.389.1,18.043,18.043,0,0,0-8.787,5.067c0,.014-.014.014-.014.028l-.042.042c-.014,0-.014,0-.028.014h-.014a12.325,12.325,0,0,1-1.431.278,5.165,5.165,0,0,0-1.984-.4,9.316,9.316,0,0,0-2.11.333.514.514,0,0,1-.154.056c-1.956.611-3.622,1.874-5.76,3.235a94.655,94.655,0,0,1-25.239,11.315,1.419,1.419,0,0,1-1.32-.083,1.208,1.208,0,0,1-.333-.75,9.086,9.086,0,0,1,.083-3.915,10.836,10.836,0,0,1,2.195-5.512c1.151-1.666,2.511-3.179,3.581-4.9.819-1.3,1.278-2.9,2.887-3.4a2.645,2.645,0,0,1,1.791.028q7.374-.562,14.785-.444c3.137.056,6.344.194,9.343-.75a16.949,16.949,0,0,0-6.428-.833q-9.434,0-18.853.014c.083-2.416,1.763-4.415,3.235-6.317a54.448,54.448,0,0,0,8.748-16.548,9.805,9.805,0,0,0,.624-4.942,5.288,5.288,0,0,0-2.72,3.554,134.666,134.666,0,0,1-9.26,16.868,2.349,2.349,0,0,1-.139.375,16.536,16.536,0,0,1-1.694,2.888c-.779,1.111-2.153,2.846-3.026,3.887a3.314,3.314,0,0,1-1.2,1.041,3.768,3.768,0,0,1-1.359.208c-.958.028-1.917.056-2.861.069a35.534,35.534,0,0,1-4.859.319q-10.056.167-20.116.347a3.162,3.162,0,0,0-1.609.319,1.048,1.048,0,0,0-.4,1.416q15.512-.271,31.042-.611c-.861,4.248-4.262,7.538-5.706,11.62a17.329,17.329,0,0,0-.862,5.886,2.212,2.212,0,0,0,2.554,2.4c6.332.722,12.481-2.249,17.827-5.72s10.426-7.552,16.478-9.551c0,0-.1.153-.248.4-.1.18-.238.389-.376.652-.07.125-.153.278-.221.416-1.791,3.332-4.928,10.856,5.859,6.65,13.646-5.317,14.131-12.842,14.131-12.842C1189.395,345.42,1189.395,343.268,1183.55,344.5Zm.265,4.567a62.068,62.068,0,0,1-5,4.762.2.2,0,0,0-.057.042c-.179.167-.29.25-.29.25s-4.236,3.957-6.818,2.707a1.648,1.648,0,0,1-1.014-1,1.614,1.614,0,0,1,.515-1.472.014.014,0,0,1,.014-.014,7.264,7.264,0,0,1,1.3-1.374,43.24,43.24,0,0,1,7.636-4.817.043.043,0,0,0,.028-.014,22.476,22.476,0,0,1,3.457-1.333C1185.924,346.141,1185.3,347.419,1183.815,349.071Z" transform="translate(-960.584 -308.308)"/></g></g></svg>