<svg xmlns="http://www.w3.org/2000/svg" width="87.347" height="20.102" viewBox="0 0 87.347 20.102"><defs><style>.a{fill:#1d1d1b;}.b{fill:#de1526;}</style></defs><g transform="translate(-109.018 -90.484)"><g transform="translate(109.018 90.656)"><path class="a" d="M120.265,101.979h-4.107L118.25,96.2Zm6.889,8.045s-6.776-18.647-6.779-18.647l-.117-.321-.031-.087h-3.712l-.033.086-.117.317-7.03,18.646-.25.661-.066.177h3.921l.031-.086.117-.322,1.874-5.167h6.454l1.8,5.16.115.327.031.088h4.09l-.061-.176Z" transform="translate(-109.018 -90.968)"/></g><g transform="translate(133.02 90.656)"><path class="a" d="M189.106,102.886a7.222,7.222,0,0,1-.971,2.647,3.907,3.907,0,0,1-2.052,1.649,6.219,6.219,0,0,1-1.871.232H180.4v-13h3.789a4.365,4.365,0,0,1,3.857,1.646,8.589,8.589,0,0,1,1.239,5,10.485,10.485,0,0,1-.176,1.835m-4.4-11.917h-8.069v19.886h8.047a7.394,7.394,0,0,0,7.236-4.6,13.364,13.364,0,0,0,1.158-5.628,10.82,10.82,0,0,0-1.991-6.685,7.613,7.613,0,0,0-6.38-2.972" transform="translate(-176.638 -90.969)"/></g><g transform="translate(156.272 90.656)"><path class="a" d="M257.466,90.969h-3.139v7.708H245.9V90.969h-3.758v19.886H245.9v-8.738h8.425v8.738h3.76V90.969h-.621Z" transform="translate(-242.145 -90.969)"/></g><g transform="translate(178.129 90.484)"><path class="a" d="M317,105.183a4.3,4.3,0,0,1-4.024,2.018c-2.012,0-3.415-.588-4.287-1.8a7.825,7.825,0,0,1-1.352-4.662,7.651,7.651,0,0,1,1.557-5.222,5.064,5.064,0,0,1,3.988-1.717,4.828,4.828,0,0,1,3.955,1.719,7.112,7.112,0,0,1,1.467,4.694,9.428,9.428,0,0,1-1.3,4.97m3.011-11.413c-1.587-2.18-4.041-3.286-7.293-3.286a8.121,8.121,0,0,0-7.14,3.568,11.454,11.454,0,0,0-1.858,6.553,11.14,11.14,0,0,0,2.181,7.026,9.2,9.2,0,0,0,13.856-.4,11.477,11.477,0,0,0,2.1-7.025,10.7,10.7,0,0,0-1.845-6.436" transform="translate(-303.724 -90.484)"/></g><g transform="translate(186.672 103.934)"><path class="b" d="M331.714,128.376h-3.923l5.771,6.588h3.921Z" transform="translate(-327.791 -128.376)"/></g></g></svg>