<svg xmlns="http://www.w3.org/2000/svg" width="314" height="130" viewBox="0 0 314 130"><defs><style>.a{fill:#fff;opacity:0.83;}.b{fill:#161615;}.c{fill:#d90013;}.d{fill:#515150;}</style></defs><g transform="translate(-323 -475)"><rect class="a" width="314" height="130" transform="translate(323 475)"/><g transform="translate(351.594 463.251)"><path class="b" d="M65.283,85.455h-7.99l4.071-11.232Zm13.4,15.648S65.5,64.832,65.5,64.832l-.229-.625-.06-.169h-7.22l-.064.166-.229.616L44.022,101.088l-.486,1.285-.13.344h7.626l.06-.168.229-.626,3.645-10.051H67.519l3.506,10.037.224.636.06.171h7.955l-.119-.342Z" transform="translate(0 5.212)"/><path class="b" d="M104.414,87.218a14.047,14.047,0,0,1-1.889,5.148,7.6,7.6,0,0,1-3.992,3.209,12.086,12.086,0,0,1-3.639.451H87.475V70.732h7.37c3.52,0,5.97,1.047,7.5,3.2,1.6,2.255,2.411,5.523,2.411,9.716a20.4,20.4,0,0,1-.343,3.569m-8.556-23.18h-15.7v38.68H95.813c6.623,0,11.356-3.01,14.075-8.949a25.992,25.992,0,0,0,2.252-10.948c0-5.232-1.3-9.607-3.873-13-2.943-3.835-7.116-5.781-12.41-5.781" transform="translate(9.931 5.212)"/><path class="b" d="M145.569,64.038h-6.106V79.03H123.077V64.038h-7.309v38.68h7.309v-17h16.387v17h7.314V64.038h-1.208Z" transform="translate(19.552 5.212)"/><path class="b" d="M175.069,92.366c-1.6,2.642-4.162,3.925-7.827,3.925-3.912,0-6.642-1.143-8.338-3.5a15.217,15.217,0,0,1-2.629-9.069c0-4.5,1.02-7.918,3.028-10.158a9.849,9.849,0,0,1,7.756-3.341,9.392,9.392,0,0,1,7.692,3.344c1.894,2.265,2.853,5.336,2.853,9.13a18.336,18.336,0,0,1-2.535,9.667m5.857-22.2c-3.088-4.241-7.86-6.392-14.186-6.392-6.075,0-10.75,2.335-13.887,6.94a22.283,22.283,0,0,0-3.614,12.748c0,5.456,1.428,10.052,4.241,13.666,3.207,3.816,7.631,5.746,13.166,5.746,5.922,0,10.56-2.195,13.787-6.525,2.709-3.634,4.082-8.233,4.082-13.665,0-5.038-1.208-9.25-3.59-12.519" transform="translate(28.596 5.141)"/><path class="c" d="M169.952,84.371h-7.631l11.226,12.814h7.628Z" transform="translate(32.131 10.706)"/><g transform="translate(51.714 44.749)"><path class="d" d="M55.309,52.918l-.532-1.635h-3.05l-.532,1.635H49.947l2.833-8.141h.944l2.834,8.141Zm-2.03-6.3-1.2,3.614h2.377Z" transform="translate(-49.947 -44.741)"/><path class="d" d="M60.034,52.918V52.3a1.654,1.654,0,0,1-1.453.687,1.854,1.854,0,0,1-1.348-.516,3.62,3.62,0,0,1-.617-2.458,3.59,3.59,0,0,1,.617-2.448,1.825,1.825,0,0,1,1.336-.514,1.664,1.664,0,0,1,1.443.652V44.777H61.12v8.141Zm-1.161-4.825c-1,0-1.151.892-1.151,1.922s.152,1.932,1.151,1.932,1.139-.9,1.139-1.932S59.872,48.092,58.873,48.092Z" transform="translate(-48.145 -44.741)"/><path class="d" d="M64.751,52.419h-.9l-2.017-5.8H63l1.3,4.082L65.6,46.622h1.172Z" transform="translate(-46.736 -44.243)"/><path class="d" d="M68.177,49.873c0,.995.5,1.623,1.4,1.623a1.6,1.6,0,0,0,1.335-.594l.706.7a2.525,2.525,0,0,1-2.063.9c-1.378,0-2.474-.767-2.474-2.974,0-1.876.922-2.962,2.333-2.962,1.477,0,2.333,1.143,2.333,2.791v.514Zm2.322-1.6a1.131,1.131,0,0,0-1.085-.733,1.148,1.148,0,0,0-1.1.733,1.913,1.913,0,0,0-.141.789h2.474A1.906,1.906,0,0,0,70.5,48.273Z" transform="translate(-45.317 -44.258)"/><path class="d" d="M75.846,48a1,1,0,0,0-.826-.389,1.171,1.171,0,0,0-1.1,1.3v3.522H72.818v-5.8H73.9v.629a1.791,1.791,0,0,1,1.466-.7,1.658,1.658,0,0,1,1.313.549Z" transform="translate(-43.767 -44.258)"/><path class="d" d="M79.222,52.772a1.475,1.475,0,0,1-1.508-1.612V47.969h-.631v-.892h.631v-1.76h1.106v1.76h1.064v.892H78.821V51.1c0,.423.2.674.607.674h.457v.995Z" transform="translate(-42.615 -44.596)"/><path class="d" d="M81.274,45.985V44.749h1.171v1.236Zm.032,6.94v-5.8h1.106v5.8Z" transform="translate(-41.482 -44.749)"/><path class="d" d="M86.356,52.5a2.935,2.935,0,0,1-2.313-.836l.728-.766a2.073,2.073,0,0,0,1.585.606c.672,0,1.2-.252,1.2-.8,0-.389-.206-.64-.738-.686l-.879-.08c-1.031-.091-1.628-.583-1.628-1.6a1.842,1.842,0,0,1,2.073-1.772,2.916,2.916,0,0,1,2.041.652l-.695.743a2.01,2.01,0,0,0-1.358-.423c-.66,0-1,.31-1,.743,0,.343.174.606.761.664l.868.08c1.031.091,1.639.606,1.639,1.635C88.645,51.874,87.668,52.5,86.356,52.5Z" transform="translate(-40.734 -44.258)"/><path class="d" d="M89.6,45.985V44.749h1.174v1.236Zm.033,6.94v-5.8h1.108v5.8Z" transform="translate(-39.233 -44.749)"/><path class="d" d="M96.143,52.434V48.9c0-.9-.488-1.293-1.106-1.293A1.129,1.129,0,0,0,93.9,48.9v3.532H92.79v-5.8h1.086v.583a1.921,1.921,0,0,1,1.465-.652,1.857,1.857,0,0,1,1.358.526,2.2,2.2,0,0,1,.553,1.635v3.705Z" transform="translate(-38.371 -44.258)"/><path class="d" d="M100.445,54.847a2.472,2.472,0,0,1-1.943-.766l.706-.743a1.508,1.508,0,0,0,1.193.514c.935,0,1.292-.7,1.292-1.476v-.743a1.659,1.659,0,0,1-1.421.663,1.766,1.766,0,0,1-1.312-.514,3.272,3.272,0,0,1-.62-2.355,3.273,3.273,0,0,1,.62-2.356,1.786,1.786,0,0,1,1.324-.5,1.65,1.65,0,0,1,1.443.686v-.617H102.8V52.4A2.267,2.267,0,0,1,100.445,54.847Zm.13-7.239c-1,0-1.129.9-1.129,1.819s.131,1.818,1.129,1.818,1.118-.9,1.118-1.818S101.573,47.608,100.575,47.608Z" transform="translate(-36.872 -44.258)"/><path class="d" d="M111.925,52.918V49.362h-3.136v3.555h-1.172V44.777h1.172v3.475h3.136V44.777H113.1v8.141Z" transform="translate(-34.365 -44.741)"/><path class="d" d="M115.192,49.873c0,.995.5,1.623,1.4,1.623a1.607,1.607,0,0,0,1.335-.594l.7.7a2.523,2.523,0,0,1-2.063.9c-1.378,0-2.474-.767-2.474-2.974,0-1.876.923-2.962,2.335-2.962,1.476,0,2.333,1.143,2.333,2.791v.514Zm2.323-1.6a1.133,1.133,0,0,0-1.085-.733,1.147,1.147,0,0,0-1.1.733,1.912,1.912,0,0,0-.142.789h2.476A1.906,1.906,0,0,0,117.515,48.273Z" transform="translate(-32.614 -44.258)"/><path class="d" d="M122.884,52.434v-.526a1.764,1.764,0,0,1-1.466.6,1.892,1.892,0,0,1-1.476-.526,1.841,1.841,0,0,1-.434-1.247c0-.972.64-1.669,1.9-1.669h1.454v-.413c0-.732-.348-1.086-1.2-1.086a1.265,1.265,0,0,0-1.205.56l-.728-.72a2.2,2.2,0,0,1,1.976-.835c1.508,0,2.267.674,2.267,1.99v3.875Zm-.022-2.561h-1.292c-.65,0-.988.309-.988.835s.315.823,1.01.823a1.271,1.271,0,0,0,1.031-.332,1.208,1.208,0,0,0,.239-.857Z" transform="translate(-31.152 -44.258)"/><path class="d" d="M128.484,52.918V52.3a1.656,1.656,0,0,1-1.454.687,1.845,1.845,0,0,1-1.345-.516,3.62,3.62,0,0,1-.619-2.458,3.59,3.59,0,0,1,.619-2.448,1.82,1.82,0,0,1,1.335-.514,1.667,1.667,0,0,1,1.444.652V44.777h1.106v8.141Zm-1.161-4.825c-1,0-1.151.892-1.151,1.922s.152,1.932,1.151,1.932,1.141-.9,1.141-1.932S128.322,48.092,127.323,48.092Z" transform="translate(-29.65 -44.741)"/><path class="d" d="M134.1,54.779V51.839a1.672,1.672,0,0,1-1.443.664,1.821,1.821,0,0,1-1.335-.516,3.613,3.613,0,0,1-.619-2.458,3.584,3.584,0,0,1,.619-2.448,1.845,1.845,0,0,1,1.345-.514,1.658,1.658,0,0,1,1.454.686v-.617h1.086v8.142Zm-1.139-7.17c-1,0-1.151.892-1.151,1.922s.152,1.932,1.151,1.932,1.139-.9,1.139-1.932S133.957,47.608,132.958,47.608Z" transform="translate(-28.127 -44.258)"/><path class="d" d="M139.872,52.419v-.583a1.923,1.923,0,0,1-1.466.653,1.861,1.861,0,0,1-1.357-.526,2.2,2.2,0,0,1-.553-1.636V46.622H137.6v3.534c0,.9.488,1.292,1.108,1.292a1.128,1.128,0,0,0,1.139-1.292V46.622h1.106v5.8Z" transform="translate(-26.561 -44.243)"/><path class="d" d="M145.345,52.434v-.526a1.764,1.764,0,0,1-1.466.6,1.892,1.892,0,0,1-1.476-.526,1.841,1.841,0,0,1-.434-1.247c0-.972.64-1.669,1.9-1.669h1.454v-.413c0-.732-.348-1.086-1.2-1.086a1.265,1.265,0,0,0-1.205.56l-.728-.72a2.2,2.2,0,0,1,1.976-.835c1.508,0,2.267.674,2.267,1.99v3.875Zm-.022-2.561h-1.292c-.65,0-.988.309-.988.835s.315.823,1.01.823a1.271,1.271,0,0,0,1.031-.332,1.208,1.208,0,0,0,.239-.857Z" transform="translate(-25.083 -44.258)"/><path class="d" d="M150.76,48a1,1,0,0,0-.826-.389,1.171,1.171,0,0,0-1.1,1.3v3.522h-1.106v-5.8h1.085v.629a1.791,1.791,0,0,1,1.466-.7,1.658,1.658,0,0,1,1.313.549Z" transform="translate(-23.526 -44.258)"/><path class="d" d="M154.128,52.772a1.475,1.475,0,0,1-1.508-1.612V47.969h-.63v-.892h.63v-1.76h1.106v1.76h1.064v.892h-1.064V51.1c0,.423.2.674.607.674h.457v.995Z" transform="translate(-22.375 -44.596)"/><path class="d" d="M157.062,49.873c0,.995.5,1.623,1.4,1.623A1.607,1.607,0,0,0,159.8,50.9l.706.7a2.527,2.527,0,0,1-2.063.9c-1.378,0-2.476-.767-2.476-2.974,0-1.876.923-2.962,2.335-2.962,1.476,0,2.333,1.143,2.333,2.791v.514Zm2.322-1.6a1.133,1.133,0,0,0-1.085-.733,1.148,1.148,0,0,0-1.1.733,1.893,1.893,0,0,0-.141.789h2.474A1.906,1.906,0,0,0,159.384,48.273Z" transform="translate(-21.301 -44.258)"/><path class="d" d="M164.73,48a1,1,0,0,0-.824-.389,1.171,1.171,0,0,0-1.1,1.3v3.522H161.7v-5.8h1.085v.629a1.79,1.79,0,0,1,1.465-.7,1.661,1.661,0,0,1,1.315.549Z" transform="translate(-19.751 -44.258)"/><path class="d" d="M168.17,52.5a2.932,2.932,0,0,1-2.312-.836l.727-.766a2.074,2.074,0,0,0,1.585.606c.672,0,1.2-.252,1.2-.8,0-.389-.206-.64-.738-.686l-.879-.08c-1.031-.091-1.627-.583-1.627-1.6a1.841,1.841,0,0,1,2.073-1.772,2.912,2.912,0,0,1,2.04.652l-.695.743a2,2,0,0,0-1.357-.423c-.662,0-1,.31-1,.743,0,.343.173.606.76.664l.869.08c1.03.091,1.639.606,1.639,1.635C170.46,51.874,169.482,52.5,168.17,52.5Z" transform="translate(-18.628 -44.258)"/></g></g></g></svg>