<svg xmlns="http://www.w3.org/2000/svg" width="171.878" height="59.2" viewBox="0 0 171.878 59.2"><defs><style>.a{isolation:isolate;}</style></defs><g class="a" transform="translate(-1072.126 -642.283)"><g transform="translate(1072.126 642.283)"><path d="M1114.954,643.809c-2.066-1.981-8.865-.861-10.93-.345s-2.669,1.378-3.27-.516a.773.773,0,0,0-1.123-.586,1.538,1.538,0,0,0-.826,2.063c.33.8-1.753,1.794-1.753,1.794a98.086,98.086,0,0,0-17.47,18.675s-10.414,12.566-6.627,18.159,9.381.861,11.963-.258,7.229-4.82,7.229-4.82,11.533,7.057,15.663,9.037,8.608,3.1,7.488,1.98-7.316-4.39-7.316-4.39-11.7-6.971-12.909-7.745-.087-.86-.087-.86,24.7-16.61,25.82-22.291S1117.019,645.788,1114.954,643.809Zm-2.066,17.47c-8.52,6.8-19.708,14.286-19.708,14.286l-7.4-4.045s-1.635-.775-1.721.344,6.885,4.82,6.885,4.82-9.036,7.661-13.253,7.316-4.132-3.873-3.185-7.573,8-15.664,22.806-28.143c0,0,5.767-4.647,12.394-4.39,4.416.173,7.418,3.058,8.93,4.964a4.943,4.943,0,0,1,.674,5.041C1118.518,655.709,1116.742,658.2,1112.888,661.279Z" transform="translate(-1072.126 -642.283)"/></g><g transform="translate(1114.517 668.739)"><path d="M1116.13,670.548s.947-1.205,1.98-1.205-2.238,3.185-2.238,3.185-2.667,3.184-.688,5.164,12.651-8,12.651-8,2.152-3.27,3.013-1.635-2.754,1.807-3.958,5.852-.516,5.25.43,4.905,1.636.345.172,1.549-3.1-1.98-1.807-6.713c0,0,.516-1.291-1.463.775s-8,7.057-10.758,4.992S1116.13,670.548,1116.13,670.548Z" transform="translate(-1112.682 -667.594)"/></g><g transform="translate(1132.409 643.075)"><path d="M1240.922,653.93c-2.582-.6-33.823,3.528-38.212,3.7s-2.5-1.462-2.5-1.462,6.628-9.3,6.2-10.5-2.152.776-2.152.776-6.2,9.38-7.142,11.016-3.959,1.377-7.23,1.807-5.422,3.959-.6,2.065,6.111-.689,6.111-.689c-4.131,8.693-12.134,15.233-14.114,17.127s-7.143,2.926-7.315-.689,3.184-6.713,3.355-8.347-1.635,0-1.635,0c-4.218,7.315-9.9,7.917-13.339,9.036s-12.221,2.753-12.479,1.2,1.033-4.734,10.328-12.909,11.79-16.266,10.585-20.913-4.131-.172-4.131-.172-6.025,7.229-12.824,17.471-5.852,16.179-10.241,17.815-3.7-2.41-3.7-2.41,2.927-5.077.946-6.971c-1.4-1.338-3.313-.614-4.317-.072a14.228,14.228,0,0,1-1.377.63c-3.086,1.258-5.322,6.327-5.322,6.327-.345,6.713,5.164,2.668,5.164,2.668s3.529-4.3,3.271-1.807a3.376,3.376,0,0,0,2.152,3.7,6.965,6.965,0,0,0,7.229-2.927,3.432,3.432,0,0,0,2.582,2.324c8.779.258,19.537-4.82,20.484-5.507s1.118.257,1.118.257c-.6,3.186,1.118,4.39,1.118,4.39a8.673,8.673,0,0,0,9.123-1.635l5.766-4.562c-.061.106-4.064,7.043,4.734,5.249,8.865-1.807,11.448-7.057,13.426-7.918s-.431.86,2.754,3.012,6.369-1.291,8.607-1.807-.345,4.218-.345,4.218c-15.232,24.183-31.758,23.926-35.286,22.29s-2.152-.172-2.152-.172c3.7,2.84,12.652,3.1,22.72-3.356s17.471-21.6,17.9-22.806,5.852-7.316,5.336-8.521-1.808.775-1.808.775a52.4,52.4,0,0,1-8.434,6.627c-4.733,2.927-5.938.689-6.111-.6s2.41-4.389,2.238-5.681-2.582,1.377-2.582,1.377c-5.422,6.714-15.061,10.586-17.815,10.328s-.86-4.3-.86-4.3l5.938-10.758a7.034,7.034,0,0,1,6.541-3.1l32.015-3.958S1243.505,654.532,1240.922,653.93Zm-90.711,18.589s6.2-13,14.114-22.2c0,0,3.615-4.389,4.3-3.959s1.807,4.389-2.238,10.415S1148.663,676.737,1150.212,672.519Zm-13.942,4.991c-1.98.861-5.165,2.669-3.959-.515,0,0,2.152-4.734,5.767-5.165S1138.249,676.65,1136.27,677.51Z" transform="translate(-1129.799 -643.04)"/></g><g transform="translate(1177.961 662.373)"><path d="M1173.543,662.3s3.528-1.377,4.475-.516-3.012,1.119-3.012,1.119S1172.767,663.25,1173.543,662.3Z" transform="translate(-1173.38 -661.503)"/></g></g></svg>