<?xml version="1.0" encoding="utf-8"?>
<!-- Generator: Adobe Illustrator 25.2.3, SVG Export Plug-In . SVG Version: 6.00 Build 0)  -->
<svg version="1.1" id="레이어_1" xmlns="http://www.w3.org/2000/svg" xmlns:xlink="http://www.w3.org/1999/xlink" x="0px"
	 y="0px" viewBox="0 0 500 250" style="enable-background:new 0 0 500 250;" xml:space="preserve">
<style type="text/css">
	.st0{fill:#1D1D1B;}
	.st1{fill:#DE1526;}
	.st2{fill:#222021;}
</style>
<g id="logo-adhqtx" transform="translate(-0.364)">
	<g id="그룹_189" transform="translate(0.364)">
		<g id="그룹_184" transform="translate(0 0.453)">
			<path id="패스_151" class="st0" d="M164.5,109.3h-10.8l5.5-15.2L164.5,109.3z M182.6,130.6c0,0-17.9-49.2-17.9-49.2l-0.3-0.8
				l-0.1-0.2h-9.8l-0.1,0.2l-0.3,0.8l-18.5,49.2l-0.7,1.7l-0.2,0.5h10.3l0.1-0.2l0.3-0.8l4.9-13.6h17l4.8,13.6l0.3,0.9l0.1,0.2h10.8
				l-0.2-0.5L182.6,130.6z"/>
		</g>
		<g id="그룹_185" transform="translate(63.307 0.454)">
			<path id="패스_152" class="st0" d="M167.7,111.7c-0.4,2.5-1.3,4.8-2.6,7c-1.2,2-3.2,3.6-5.4,4.4c-1.6,0.5-3.3,0.7-4.9,0.6
				h-10.1V89.4h10c4.8,0,8.1,1.4,10.2,4.3c2.2,3.1,3.3,7.5,3.3,13.2C168.1,108.5,168,110.1,167.7,111.7 M156.1,80.3h-21.3v52.4H156
				c9,0,15.4-4.1,19.1-12.1c2.1-4.7,3.1-9.7,3.1-14.8c0-7.1-1.8-13-5.3-17.6C168.9,82.9,163.3,80.3,156.1,80.3"/>
		</g>
		<g id="그룹_186" transform="translate(124.636 0.454)">
			<path id="패스_153" class="st0" d="M175.2,80.3h-8.3v20.3h-22.2V80.3h-9.9v52.4h9.9v-23h22.2v23h9.9V80.3H175.2L175.2,80.3z"/>
		</g>
		<g id="그룹_187" transform="translate(182.288)">
			<path id="패스_154" class="st0" d="M169.8,119.1c-2.2,3.6-5.6,5.3-10.6,5.3c-5.3,0-9-1.5-11.3-4.7c-2.5-3.6-3.7-7.9-3.6-12.3
				c0-6.1,1.4-10.7,4.1-13.8c2.6-3,6.5-4.7,10.5-4.5c4.5,0,7.9,1.5,10.4,4.5c2.6,3.1,3.9,7.2,3.9,12.4
				C173.4,110.6,172.2,115.1,169.8,119.1 M177.8,89c-4.2-5.8-10.7-8.7-19.2-8.7c-8.2,0-14.6,3.2-18.8,9.4
				c-3.3,5.1-5.1,11.2-4.9,17.3c0,7.4,1.9,13.6,5.8,18.5c4.3,5.2,10.3,7.8,17.9,7.8c8,0,14.3-3,18.7-8.8c3.7-4.9,5.5-11.2,5.5-18.5
				C182.6,99.1,181,93.4,177.8,89"/>
		</g>
		<g id="그룹_188" transform="translate(204.819 35.475)">
			<path id="패스_155" class="st1" d="M145.2,80.3h-10.3L150,97.7h10.3L145.2,80.3z"/>
		</g>
	</g>
	<g id="그룹_196" transform="translate(69.364 72.684)">
		<g id="그룹_190" transform="translate(0 0.019)">
			<path id="패스_156" class="st2" d="M141.6,87.2c0,3.5-1.4,5.6-3.4,5.6s-3.4-2.2-3.4-5.6c0-3.5,1.4-5.6,3.4-5.6
				S141.6,83.7,141.6,87.2z M140,87.2c0-2.6-0.7-3.9-1.7-3.9s-1.7,1.4-1.7,3.9s0.7,3.9,1.7,3.9S140,89.7,140,87.2z M148.2,80.3v15.9
				h-1.7V88h-1.8v7.5H143V80.6h1.7v5.9h1.8v-6.2L148.2,80.3z"/>
		</g>
		<g id="그룹_191" transform="translate(15.331 1.408)">
			<path id="패스_157" class="st2" d="M149.2,91.3v1.5h-14.4v-1.5H149.2z M147.6,87.9h-11v-7.6h10.9v1.5h-9.1v4.6h9.2L147.6,87.9z
				"/>
		</g>
		<g id="그룹_192" transform="translate(30.978 0.019)">
			<path id="패스_158" class="st2" d="M143.3,80.6h1.7v14.8h-1.7v-7.6h-1.7c-0.1,3.1-1.5,5-3.4,5c-2,0-3.4-2.2-3.4-5.6
				c0-3.5,1.4-5.6,3.4-5.6c1.9,0,3.2,1.8,3.4,4.8h1.7L143.3,80.6z M140,87.2c0-2.6-0.6-3.9-1.8-3.9s-1.8,1.4-1.8,3.9
				s0.6,3.9,1.8,3.9S140,89.7,140,87.2L140,87.2z M148.2,80.3v15.9h-1.7V80.3L148.2,80.3z"/>
		</g>
		<g id="그룹_193" transform="translate(46.836)">
			<path id="패스_159" class="st2" d="M143,87.1c0,3.4-1.7,5.6-4.1,5.6c-2.3,0-4.1-2.2-4.1-5.6c0-3.4,1.7-5.6,4.1-5.6
				C141.3,81.5,143,83.7,143,87.1z M136.5,87.1c0,2.6,0.9,4,2.3,4s2.4-1.4,2.4-4c0-2.5-0.9-4-2.4-4S136.5,84.6,136.5,87.1
				L136.5,87.1z M147.4,80.3v15.9h-1.8V80.3L147.4,80.3z"/>
		</g>
		<g id="그룹_194" transform="translate(61.973)">
			<path id="패스_160" class="st2" d="M140.6,85.4c0,2.7,1.6,5.1,4,6.2l-1,1.4c-1.9-0.9-3.3-2.5-3.9-4.4c-0.6,2-2,3.7-3.9,4.7
				l-1-1.4c2.5-1.2,4-3.7,4-6.4v-0.9h-3.5V83h3.5v-2.4h1.8V83h3.4v1.5h-3.4L140.6,85.4z M147.7,80.3v15.9h-1.8V80.3H147.7z"/>
		</g>
		<g id="그룹_195" transform="translate(77.286 0.898)">
			<path id="패스_161" class="st2" d="M149.2,89.3h-3.6v6h-1.8v-6h-3.6v6h-1.8v-6h-3.5v-1.5h10.3c0.2-1,0.4-1.9,0.4-2.7l-9.3,0.5
				l-0.2-1.5l9.6-0.3c0.1-0.7,0-1.3,0-2h-9.1v-1.5h10.9v1.5c0.1,2-0.1,4.1-0.5,6.1h2.3L149.2,89.3z"/>
		</g>
	</g>
</g>
</svg>
