<svg xmlns="http://www.w3.org/2000/svg" width="124.684" height="119.853" viewBox="0 0 124.684 119.853"><defs><style>.a{isolation:isolate;}.b{fill:#232324;}</style></defs><g class="a" transform="translate(-654.949 -560.361)"><path class="b" d="M664.434,672.18l-2.186-2.055q3.074-3.272,6.208-6.547l2.167,2.074Q667.5,668.916,664.434,672.18Zm10.346-10.849-2.155-2.086q3.135-3.238,6.3-6.464l2.141,2.1Q677.91,658.1,674.78,661.331Zm10.506-10.715-2.129-2.113q3.179-3.2,6.368-6.373l2.115,2.127Q688.46,647.418,685.286,650.616Zm10.6-10.567-2.105-2.137q3.228-3.181,6.44-6.31l2.094,2.148Q699.115,636.871,695.89,640.049Zm10.734-10.477-2.085-2.156q3.27-3.164,6.5-6.251l2.074,2.168Q709.892,626.412,706.624,629.572Zm10.831-10.379-2.067-2.175q3.315-3.148,6.552-6.2L724,613.009Q720.766,616.047,717.455,619.193ZM728.373,608.9l-2.049-2.191q3.362-3.144,6.6-6.143l2.039,2.2Q731.732,605.761,728.373,608.9Zm11-10.2-2.032-2.207q3.421-3.15,6.648-6.1l2.021,2.217Q742.793,595.549,739.372,598.7Zm11.078-10.125-2.016-2.22q3.505-3.185,6.692-6.047l2.006,2.23Q753.96,585.391,750.45,588.573ZM761.6,578.526l-2-2.236c2.46-2.2,4.717-4.207,6.739-6l1.989,2.246C766.312,574.327,764.059,576.329,761.6,578.526Zm11.231-9.96-1.98-2.253c4.353-3.827,6.822-5.952,6.822-5.952l1.957,2.273S777.169,564.755,772.834,568.566Z"/><path class="b" d="M657.155,670.9l-2.206,9.314,9.17-2.746Z"/></g></svg>