<svg xmlns="http://www.w3.org/2000/svg" width="208.889" height="77.398" viewBox="0 0 208.889 77.398"><defs><style>.a{isolation:isolate;}.b{fill:#232324;}</style></defs><g class="a" transform="translate(-953.85 -555.929)"><path class="b" d="M1153.328,627.665a73.033,73.033,0,0,0-7.733-4.224l1.287-2.711a76.076,76.076,0,0,1,8.051,4.4Zm-13.147-6.593c-2.6-1.051-5.411-2.073-8.361-3.039l.933-2.851c3.015.987,5.893,2.033,8.553,3.109Zm-14.046-4.786c-2.732-.787-5.638-1.554-8.638-2.278l.705-2.916c3.041.734,5.99,1.512,8.763,2.311Zm-14.453-3.606c-2.816-.608-5.77-1.2-8.781-1.748l.543-2.952c3.039.559,6.024,1.154,8.871,1.768Zm-14.665-2.773c-2.877-.475-5.859-.93-8.862-1.353l.418-2.971c3.027.427,6.032.886,8.932,1.363Zm-14.789-2.145c-2.9-.367-5.9-.718-8.912-1.043l.32-2.983c3.035.327,6.052.68,8.969,1.049Zm-14.865-1.65c-2.917-.28-5.927-.546-8.945-.789l.243-2.99c3.032.245,6.056.512,8.989.793Zm-14.912-1.242q-4.421-.312-8.964-.576l.174-2.994q4.562.264,9,.578Zm-14.941-.9-1.54-.075c-2.53-.121-5.059-.31-7.516-.562l.306-2.984c2.4.247,4.877.431,7.353.55l1.54.075Zm-15.072-1.4c-3.033-.458-6.043-1.031-8.946-1.7l.675-2.924c2.829.655,5.762,1.212,8.718,1.658Zm-14.828-3.231c-2.944-.854-5.852-1.836-8.643-2.92l1.086-2.8c2.71,1.053,5.533,2.007,8.393,2.836Zm-14.248-5.3c-2.777-1.281-5.5-2.706-8.1-4.233l1.52-2.586c2.514,1.476,5.152,2.855,7.839,4.1Zm-13.252-7.5a87.1,87.1,0,0,1-7.279-5.552l1.944-2.285a84.475,84.475,0,0,0,7.026,5.36Zm-11.785-9.675a80.979,80.979,0,0,1-6.169-6.787l2.332-1.887a78.281,78.281,0,0,0,5.94,6.535Zm-9.83-11.7a50.546,50.546,0,0,1-4.645-8.081l2.767-1.159a48.762,48.762,0,0,0,4.356,7.55Z"/><path class="b" d="M1153.321,631.621l9.418,1.706-3.231-9.01Z"/></g></svg>