<svg xmlns="http://www.w3.org/2000/svg" width="137.175" height="125.709" viewBox="0 0 137.175 125.709"><defs><style>.a{isolation:isolate;}.b{fill:#232324;}</style></defs><g class="a" transform="translate(-857.964 -337.107)"><path class="b" d="M860.96,462.816l-3-.166c.008-.141.2-3.519,1.075-9.158l2.964.459C861.155,459.429,860.962,462.783,860.96,462.816Zm2.074-14.74-2.946-.574c.576-2.946,1.244-5.936,1.99-8.885l2.908.735C864.254,442.249,863.6,445.184,863.034,448.076Zm3.517-14.476-2.881-.839c.851-2.92,1.788-5.835,2.787-8.664l2.829,1C868.306,427.873,867.386,430.734,866.551,433.6Zm4.821-14.079-2.79-1.105c1.125-2.839,2.338-5.651,3.605-8.357l2.717,1.271C873.664,413.982,872.475,416.738,871.372,419.521ZM877.535,406l-2.662-1.385c1.409-2.708,2.913-5.378,4.467-7.934l2.563,1.559C880.382,400.741,878.913,403.352,877.535,406Zm7.567-12.754-2.486-1.678c1.707-2.531,3.512-5.008,5.367-7.361l2.355,1.858C888.531,388.361,886.769,390.777,885.1,393.248Zm9.018-11.737-2.258-1.975c2.005-2.292,4.114-4.517,6.268-6.614l2.092,2.15C898.125,377.113,896.072,379.279,894.12,381.511Zm10.45-10.446L902.6,368.8c2.288-1.995,4.681-3.911,7.112-5.7l1.776,2.419C909.123,367.262,906.795,369.125,904.57,371.065Zm11.773-8.9-1.637-2.514c2.529-1.647,5.164-3.21,7.833-4.646l1.421,2.642C921.365,359.045,918.8,360.565,916.343,362.166Zm12.9-7.174-1.276-2.716c2.719-1.276,5.54-2.465,8.385-3.534l1.055,2.808C934.632,352.591,931.885,353.75,929.239,354.992Zm13.75-5.381-.912-2.859c2.842-.906,5.787-1.729,8.752-2.444l.7,2.916C948.637,347.922,945.763,348.726,942.989,349.611Zm14.332-3.642-.571-2.945c2.922-.565,5.938-1.047,8.964-1.435l.381,2.976C963.131,344.944,960.179,345.417,957.321,345.969Zm14.671-2.038-.262-2.989c2.955-.259,6-.44,9.058-.538l.095,3C977.883,343.5,974.892,343.676,971.992,343.931Zm16.243-.607q-.707-.008-1.4-.009l.005-3c.475,0,.953,0,1.431.009Z"/><path class="b" d="M986.777,346.679l8.362-4.658-8.215-4.914Z"/></g></svg>