<svg xmlns="http://www.w3.org/2000/svg" width="166.788" height="99.175" viewBox="0 0 166.788 99.175"><defs><style>.a{fill:#222021;}.b{isolation:isolate;}</style></defs><g transform="translate(-1072.126 -642.283)"><path class="a" d="M1090.385,699.762h-1.592v-1.621a2.086,2.086,0,0,1,.8-1.9,1.686,1.686,0,0,1,.782-.206v.708c-.707,0-.84.855-.84,1.4h.855Zm2.358,0h-1.592v-1.621a2.083,2.083,0,0,1,.8-1.9,1.676,1.676,0,0,1,.781-.206v.708c-.708,0-.841.855-.841,1.4h.855Z"/><path class="a" d="M1094.057,703.55c0-3.493,2.035-5.616,4.791-5.616a3.994,3.994,0,0,1,2.963,1.341l-.737.884a2.958,2.958,0,0,0-2.211-1.031c-2.049,0-3.406,1.665-3.406,4.378s1.3,4.436,3.362,4.436a3.242,3.242,0,0,0,2.506-1.209l.752.856a4.157,4.157,0,0,1-3.317,1.547C1096.092,709.136,1094.057,707.043,1094.057,703.55Z"/><path class="a" d="M1103.377,700.94h1.106l.118,1.46h.044a2.783,2.783,0,0,1,2.269-1.666,1.7,1.7,0,0,1,.856.177l-.25,1.18a1.885,1.885,0,0,0-.781-.133c-.649,0-1.5.472-2.02,1.843v5.143h-1.342Z"/><path class="a" d="M1107.905,704.95c0-2.6,1.754-4.216,3.611-4.216,2.034,0,3.184,1.474,3.184,3.759a3.711,3.711,0,0,1-.059.767h-5.394a2.644,2.644,0,0,0,2.652,2.8,3.463,3.463,0,0,0,2.006-.634l.486.884a4.689,4.689,0,0,1-2.654.825C1109.615,709.136,1107.905,707.6,1107.905,704.95Zm5.616-.648c0-1.666-.737-2.491-1.989-2.491a2.463,2.463,0,0,0-2.3,2.491Z"/><path class="a" d="M1115.588,706.793c0-2.064,1.754-2.875,4.923-2.919,0-1.032-.339-2.02-1.651-2.02a4.571,4.571,0,0,0-2.477.782l-.53-.958a6.29,6.29,0,0,1,3.228-.944c1.946,0,2.771,1.327,2.771,3.287v4.923h-1.105l-.118-.854h-.045a4.172,4.172,0,0,1-2.668,1.046A2.208,2.208,0,0,1,1115.588,706.793Zm4.923.339v-2.373c-2.845.191-3.611.707-3.611,1.945a1.247,1.247,0,0,0,1.4,1.357A3.106,3.106,0,0,0,1120.511,707.132Z"/><path class="a" d="M1124.052,706.468v-4.437h-1.194v-1.016l1.254-.075.162-2.24h1.119v2.24h2.168v1.091h-2.168V706.5c0,1,.3,1.548,1.238,1.548a2.913,2.913,0,0,0,.914-.207l.266,1a4.6,4.6,0,0,1-1.475.294C1124.627,709.136,1124.052,708.075,1124.052,706.468Z"/><path class="a" d="M1128.536,708.944v-8h1.341v8Zm1.355-9.654h-1.341V697.9h1.341Z"/><path class="a" d="M1130.586,700.94h1.4l1.5,4.555c.251.781.5,1.608.752,2.359h.059c.236-.751.5-1.578.737-2.359l1.517-4.555h1.327l-2.844,8h-1.563Z"/><path class="a" d="M1138.24,704.95c0-2.6,1.754-4.216,3.611-4.216,2.034,0,3.184,1.474,3.184,3.759a3.7,3.7,0,0,1-.06.767h-5.394a2.644,2.644,0,0,0,2.653,2.8,3.46,3.46,0,0,0,2.005-.634l.486.884a4.686,4.686,0,0,1-2.653.825C1139.95,709.136,1138.24,707.6,1138.24,704.95Zm5.616-.648c0-1.666-.737-2.491-1.99-2.491a2.463,2.463,0,0,0-2.3,2.491Z"/><path class="a" d="M1149.255,698.141h6.236v1.149h-4.866v3.39h4.1v1.165h-4.1v3.935h5.028v1.164h-6.4Z"/><path class="a" d="M1156.32,708.03l.663-.884a3.557,3.557,0,0,0,2.373.944c1.061,0,1.577-.561,1.577-1.253,0-.811-.943-1.165-1.827-1.519-1.121-.4-2.389-.972-2.389-2.314,0-1.253,1.018-2.27,2.757-2.27a4.107,4.107,0,0,1,2.491.9l-.648.869a3.052,3.052,0,0,0-1.843-.707c-1,0-1.46.516-1.46,1.149,0,.767.87,1.033,1.77,1.386,1.164.428,2.447.929,2.447,2.432,0,1.3-1.032,2.373-2.919,2.373A4.824,4.824,0,0,1,1156.32,708.03Z"/><path class="a" d="M1162.631,708.03l.663-.884a3.557,3.557,0,0,0,2.373.944c1.062,0,1.578-.561,1.578-1.253,0-.811-.944-1.165-1.829-1.519-1.119-.4-2.386-.972-2.386-2.314,0-1.253,1.016-2.27,2.756-2.27a4.11,4.11,0,0,1,2.491.9l-.65.869a3.044,3.044,0,0,0-1.841-.707c-1,0-1.459.516-1.459,1.149,0,.767.869,1.033,1.768,1.386,1.165.428,2.446.929,2.446,2.432,0,1.3-1.031,2.373-2.918,2.373A4.83,4.83,0,0,1,1162.631,708.03Z"/><path class="a" d="M1169.238,704.95c0-2.6,1.754-4.216,3.611-4.216,2.034,0,3.184,1.474,3.184,3.759a3.711,3.711,0,0,1-.06.767h-5.394a2.644,2.644,0,0,0,2.653,2.8,3.461,3.461,0,0,0,2.005-.634l.486.884a4.686,4.686,0,0,1-2.653.825C1170.948,709.136,1169.238,707.6,1169.238,704.95Zm5.616-.648c0-1.666-.737-2.491-1.99-2.491a2.463,2.463,0,0,0-2.3,2.491Z"/><path class="a" d="M1177.422,700.94h1.106l.117,1.151h.045a3.807,3.807,0,0,1,2.683-1.357c1.723,0,2.446,1.062,2.446,3.14v5.07h-1.341v-4.893c0-1.533-.457-2.137-1.519-2.137a3.045,3.045,0,0,0-2.2,1.223v5.807h-1.341Z"/><path class="a" d="M1185.239,704.95a3.9,3.9,0,0,1,3.861-4.216,3.33,3.33,0,0,1,2.344.944l-.694.9a2.318,2.318,0,0,0-1.606-.723c-1.444,0-2.506,1.253-2.506,3.1s1,3.066,2.477,3.066a2.821,2.821,0,0,0,1.886-.8l.576.9a3.815,3.815,0,0,1-2.58,1.017C1186.873,709.136,1185.239,707.6,1185.239,704.95Z"/><path class="a" d="M1192.155,704.95c0-2.6,1.754-4.216,3.611-4.216,2.033,0,3.184,1.474,3.184,3.759a3.78,3.78,0,0,1-.059.767H1193.5a2.643,2.643,0,0,0,2.652,2.8,3.46,3.46,0,0,0,2.005-.634l.486.884a4.686,4.686,0,0,1-2.653.825C1193.864,709.136,1192.155,707.6,1192.155,704.95Zm5.615-.648c0-1.666-.736-2.491-1.989-2.491a2.462,2.462,0,0,0-2.3,2.491Z"/><path class="a" d="M1200.014,696h1.592v1.621c-.015,1.032-.4,2.108-1.577,2.108v-.722a.526.526,0,0,0,.413-.133c.221-.162.428-.5.412-1.253h-.84Zm2.359,0h1.591v1.621c-.014,1.032-.4,2.108-1.577,2.108v-.722a.526.526,0,0,0,.413-.133c.221-.162.427-.5.413-1.253h-.84Z"/><path class="a" d="M1100.44,715.93c-.9,2.167-2.8,3.656-5.7,4.5l-.487-.958c3.185-.944,5.1-2.668,5.336-4.983h-4.657v-.972h5.97a6.543,6.543,0,0,1-.148,1.429h2.993v-2.417h1.223v7.9h-1.223v-1.739h-3.464V717.7h3.464V715.93Zm4.584,7.193c0,1.592-1.71,2.55-4.377,2.55s-4.379-.958-4.379-2.55,1.711-2.55,4.379-2.55S1105.024,721.531,1105.024,723.123Zm-1.193,0c0-1-1.224-1.592-3.184-1.592s-3.185.59-3.185,1.592,1.239,1.606,3.185,1.606S1103.831,724.125,1103.831,723.123Z"/><path class="a" d="M1114.73,714.869h-7.665V713.9h3.228v-1.518h1.209V713.9h3.228Zm-3.833,5.38c-1.8,0-3.066-.929-3.066-2.344s1.268-2.358,3.066-2.358c1.769,0,3.052.943,3.052,2.358S1112.666,720.249,1110.9,720.249Zm0-.9c1.121,0,1.916-.56,1.916-1.445s-.8-1.444-1.916-1.444-1.916.56-1.916,1.444S1109.778,719.35,1110.9,719.35Zm-1.547,1.872h8.593v4.334h-8.593Zm1.179,3.36h6.235v-2.4h-6.235Zm7.414-12.057v7.989h-1.224v-2.993h-2.195v-.987h2.195v-4.009Z"/><path class="a" d="M1123.889,721.767c1.475-.059,2.9-.132,4.26-.31l.074.885a55.644,55.644,0,0,1-8.2.5l-.133-1c.84,0,1.8,0,2.8-.044v-4.068h1.193Zm1.828-1.96a28.014,28.014,0,0,0,.4-4.865h-5.5v-.987h6.676v.722a33.125,33.125,0,0,1-.368,5.248Zm6.56-.752h-2.109v6.677h-1.208V712.511h1.208v5.527h2.109Z"/><path class="a" d="M1147.717,723.035v.987H1135.7v-.987h5.394V719.5h-3.92v-5.851h1.209v4.878h7.959v.973h-4.039v3.538Z"/><path class="a" d="M1153.163,714.633h3.257v.972h-7.8v-.972h3.331v-1.96h1.209Zm2.638,5.115a3.218,3.218,0,1,1-3.228-3.052A3.031,3.031,0,0,1,1155.8,719.748Zm-1.15,0a2.071,2.071,0,1,0-2.078,2.034A1.989,1.989,0,0,0,1154.651,719.748Zm6.4-.781h-2.167v6.765h-1.209V712.525h1.209v5.424h2.167Z"/><path class="a" d="M1173.643,721.089h-5.41v4.658h-1.209v-4.658h-5.35v-1h11.969Zm-10.628-5.159c0-1.754,1.858-2.889,4.614-2.889s4.628,1.135,4.628,2.889c0,1.769-1.872,2.9-4.628,2.9S1163.015,717.7,1163.015,715.93Zm1.238,0c0,1.179,1.37,1.931,3.376,1.931s3.39-.752,3.39-1.931-1.371-1.916-3.39-1.916S1164.253,714.751,1164.253,715.93Z"/><path class="a" d="M1186.65,723.108v.988h-12.013v-.988h5.379v-2.491h-3.876v-4.083h7.842v-2.063h-7.871v-.988h9.05v4.024h-7.827v2.138h8.137v.972h-4.23v2.491Z"/><path class="a" d="M1106.012,733.616v.974H1094.1v-.974h8.888c.133-.634.206-1.164.265-1.679l-7.827.353-.147-.958,8.033-.251c.015-.221.015-.427.015-.648V729.8H1095.6v-.958h8.918v1a17.833,17.833,0,0,1-.31,3.773Zm-9.3,6.693h8.359v.943h-9.553v-3.228h7.9v-1.238h-7.93v-.943h9.109v3.08h-7.886Z"/><path class="a" d="M1108.775,737.243a28.92,28.92,0,0,0,6.087-.472l.133,1a35.056,35.056,0,0,1-6.353.472H1107.6v-5.056h4.746v-2.771h-4.791v-.987h5.985v4.746h-4.761Zm10.628-2.771h-2.167v6.971h-1.209V728.192h1.209v5.262h2.167Z"/><path class="a" d="M1127.236,733.838c0,2.815-1.4,4.613-3.361,4.613s-3.361-1.8-3.361-4.613,1.4-4.613,3.361-4.613S1127.236,731.022,1127.236,733.838Zm-5.572,0c0,2.152.914,3.537,2.211,3.537,1.282,0,2.2-1.385,2.2-3.537s-.914-3.524-2.2-3.524C1122.578,730.314,1121.664,731.7,1121.664,733.838Zm9.183-5.631v13.251h-1.209V728.207Z"/><path class="a" d="M1139.977,732.865a3.274,3.274,0,1,1,.016-.988h2.681v-3.67h1.224v9.743h-1.224v-5.085Zm-3.36,1.68a2.144,2.144,0,0,0,2.255-2.2,2.255,2.255,0,0,0-4.51,0A2.144,2.144,0,0,0,1136.617,734.545Zm7.649,5.6v.988h-8.828v-4.156h1.223v3.168Z"/><path class="a" d="M1157.966,738.731v.988h-12v-.988Zm-1.37-2.417h-9.08v-6.958h8.947v.974h-7.724v1.96h7.429v.958h-7.429v2.093h7.857Z"/><path class="a" d="M1170.944,734.354v.914H1158.96v-.914Zm-9.33,6.029h8.254v.869h-9.449v-2.934h7.842v-1.1h-7.871v-.869h9.066v2.815h-7.842Zm6.6-10.938h-7.754v-.854h8.948v2.756h-7.723v1.134h7.959v.871h-9.154v-2.831h7.724Z"/><path class="a" d="M1181.815,735.474a5.081,5.081,0,0,1-3.242-2.654,5.327,5.327,0,0,1-3.332,2.919l-.59-.958a4.256,4.256,0,0,0,3.3-3.832v-.221h-2.934v-.973h2.934v-1.607h1.208v1.607h2.919v.973h-2.919v.221a4.037,4.037,0,0,0,3.227,3.6Zm-.383,2.093c.235,1.371,2.078,2.536,4.215,2.889l-.457.929a6.175,6.175,0,0,1-4.393-2.6,6.05,6.05,0,0,1-4.392,2.58l-.427-.929c2.138-.309,3.995-1.489,4.186-2.874h-3.685v-.958h8.652v.958Zm5.439-6.088v1h-1.96v3.406H1183.7v-7.665h1.209v3.257Z"/><path class="a" d="M1194.468,733.838c0,2.815-1.371,4.613-3.316,4.613s-3.331-1.8-3.331-4.613,1.371-4.613,3.331-4.613S1194.468,731.022,1194.468,733.838Zm-1.149,0c0-2.138-.914-3.524-2.167-3.524-1.282,0-2.182,1.386-2.182,3.524s.9,3.537,2.182,3.537C1192.405,737.375,1193.319,735.99,1193.319,733.838Zm6.662.663H1197.8v6.928h-1.209V728.222h1.209v5.262h2.182Z"/><path class="a" d="M1207.3,729c0,3.331-2.329,5.572-6.219,6.516l-.457-.989c3.316-.781,5.128-2.4,5.349-4.54h-4.746V729Zm2.359,6.957h1.209v5.292h-8.358V735.96h1.194v1.666h5.955Zm0,2.609H1203.7v1.71h5.955Zm3.169-6.235h-1.96v3.022h-1.209v-7.149h1.209v3.125h1.96Z"/><path class="a" d="M1215.618,736.978a29.99,29.99,0,0,0,6.235-.62l.133,1.032a31.461,31.461,0,0,1-6.486.619h-1.091v-8.52h1.209Zm8.8-8.771v13.207h-1.209V728.207Z"/><path class="a" d="M1228.331,737.125a30.791,30.791,0,0,0,5.955-.442l.132,1a30.279,30.279,0,0,1-6.25.471h-1.046v-8.681h6.146v1h-4.937Zm10.583-2.7h-2.181v7.03h-1.209V728.207h1.209v5.218h2.181Z"/><g class="b"><path d="M1113.1,643.743c-1.977-1.895-8.481-.824-10.457-.33s-2.553,1.318-3.129-.494a.74.74,0,0,0-1.074-.561,1.471,1.471,0,0,0-.79,1.974c.316.769-1.677,1.716-1.677,1.716a93.84,93.84,0,0,0-16.714,17.867s-9.963,12.022-6.34,17.373,8.975.824,11.445-.247,6.916-4.611,6.916-4.611,11.034,6.752,14.985,8.646,8.235,2.964,7.164,1.894-7-4.2-7-4.2-11.2-6.669-12.35-7.41-.083-.823-.083-.823,23.631-15.891,24.7-21.326S1115.076,645.636,1113.1,643.743Zm-1.977,16.714c-8.151,6.505-18.855,13.668-18.855,13.668l-7.081-3.87s-1.564-.741-1.647.329,6.587,4.611,6.587,4.611-8.645,7.329-12.679,7-3.953-3.7-3.047-7.245,7.657-14.986,21.819-26.925c0,0,5.517-4.446,11.857-4.2a11.74,11.74,0,0,1,8.543,4.749,4.729,4.729,0,0,1,.645,4.823C1116.51,655.128,1114.811,657.514,1111.123,660.457Z"/><path d="M1115.981,670.42s.906-1.153,1.894-1.153-2.141,3.047-2.141,3.047-2.552,3.046-.658,4.94,12.1-7.658,12.1-7.658,2.059-3.128,2.882-1.564-2.635,1.729-3.787,5.6-.494,5.023.411,4.693,1.565.33.165,1.482-2.964-1.894-1.729-6.422c0,0,.494-1.235-1.4.741s-7.657,6.752-10.292,4.776S1115.981,670.42,1115.981,670.42Z"/><path d="M1236.112,653.459c-2.47-.577-32.359,3.375-36.558,3.539s-2.388-1.4-2.388-1.4,6.341-8.893,5.929-10.046-2.059.742-2.059.742-5.928,8.974-6.833,10.539-3.788,1.317-6.917,1.729-5.187,3.788-.577,1.976,5.846-.659,5.846-.659c-3.952,8.317-11.609,14.574-13.5,16.386s-6.834,2.8-7-.659,3.046-6.422,3.21-7.986-1.564,0-1.564,0c-4.035,7-9.469,7.574-12.762,8.645s-11.692,2.634-11.939,1.152.988-4.529,9.881-12.35,11.28-15.562,10.127-20.008-3.952-.165-3.952-.165-5.764,6.916-12.269,16.715-5.6,15.479-9.8,17.044-3.54-2.306-3.54-2.306,2.8-4.857.905-6.669c-1.338-1.28-3.17-.587-4.13-.069a13.634,13.634,0,0,1-1.318.6c-2.952,1.2-5.091,6.053-5.091,6.053-.33,6.422,4.94,2.552,4.94,2.552s3.376-4.117,3.129-1.729a3.23,3.23,0,0,0,2.059,3.541,6.663,6.663,0,0,0,6.916-2.8,3.283,3.283,0,0,0,2.47,2.223c8.4.247,18.691-4.611,19.6-5.269s1.07.246,1.07.246c-.577,3.048,1.07,4.2,1.07,4.2a8.3,8.3,0,0,0,8.728-1.564l5.516-4.364c-.058.1-3.888,6.738,4.529,5.022,8.481-1.729,10.952-6.752,12.845-7.575s-.412.823,2.635,2.882,6.093-1.235,8.234-1.729-.33,4.035-.33,4.035c-14.573,23.136-30.383,22.89-33.758,21.325s-2.059-.165-2.059-.165c3.541,2.717,12.1,2.964,21.737-3.211s16.715-20.666,17.127-21.819,5.6-7,5.1-8.152-1.73.741-1.73.741a50.135,50.135,0,0,1-8.069,6.34c-4.528,2.8-5.681.659-5.846-.576s2.306-4.2,2.141-5.435-2.47,1.317-2.47,1.317c-5.187,6.423-14.409,10.128-17.044,9.881s-.823-4.116-.823-4.116l5.681-10.292a6.729,6.729,0,0,1,6.258-2.965l30.629-3.787S1238.583,654.035,1236.112,653.459Zm-86.784,17.784s5.929-12.433,13.5-21.243c0,0,3.459-4.2,4.117-3.788s1.729,4.2-2.141,9.964S1147.846,675.278,1149.328,671.243Zm-13.338,4.775c-1.894.824-4.941,2.553-3.788-.493,0,0,2.059-4.529,5.517-4.941S1137.883,675.2,1135.99,676.018Z"/><path d="M1173.536,662.268s3.375-1.317,4.281-.494-2.882,1.071-2.882,1.071S1172.794,663.174,1173.536,662.268Z"/></g></g></svg>