<svg xmlns="http://www.w3.org/2000/svg" width="180.693" height="82.72" viewBox="0 0 180.693 82.72"><defs><style>.a{fill:#222021;}.b{isolation:isolate;}</style></defs><g transform="translate(-488.168 -656.681)"><path class="a" d="M518.414,712.62h-1.591V711a2.081,2.081,0,0,1,.8-1.9,1.682,1.682,0,0,1,.781-.206v.708c-.708,0-.841.854-.841,1.4h.855Zm2.359,0h-1.592V711a2.083,2.083,0,0,1,.8-1.9,1.679,1.679,0,0,1,.781-.206v.708c-.707,0-.84.854-.84,1.4h.855Z"/><path class="a" d="M534,720.2v1H522.014v-1Zm-8.874-8.224h-2.048V711h9.8v.973h-2.048v4.6h2.019v.988H523.1v-.988h2.019Zm4.5,0h-3.288v4.6h3.288Z"/><path class="a" d="M546.99,720.27v.988H534.977v-.988h5.379v-2.491H536.48V713.7h7.842v-2.063H536.45v-.988h9.05v4.024h-7.826v2.137h8.137v.973h-4.23v2.491Z"/><path class="a" d="M553.85,717.131a4.6,4.6,0,0,1-2.535-2.639,4.941,4.941,0,0,1-2.653,2.947l-.634-.927a4.519,4.519,0,0,0,2.682-4.025v-.752h-2.432v-.987h5.867v.987h-2.27v.738a4.164,4.164,0,0,0,2.579,3.729Zm-3.611,1.223h8.888v4.554h-1.209v-3.582h-7.679Zm5.174-5.277v-3.11h1.149v7.694h-1.149v-3.6h-1.991v-.987Zm3.714-3.39v8.078h-1.165v-8.078Z"/><path class="a" d="M572.93,720.2v.988h-12V720.2Zm-1.371-2.417h-9.08v-6.958h8.947v.974H563.7v1.96h7.428v.958H563.7v2.093h7.856Z"/><path class="a" d="M583.743,716.88a5.334,5.334,0,0,1-3.141-2.963,5.547,5.547,0,0,1-3.346,3.36l-.633-.987a4.8,4.8,0,0,0,3.346-4.511v-1.355h1.209v1.311a4.53,4.53,0,0,0,3.213,4.2Zm3.817,3.508c0,1.577-1.681,2.491-4.393,2.491s-4.407-.914-4.407-2.491,1.7-2.492,4.407-2.492S587.56,718.8,587.56,720.388Zm-1.194,0c0-1-1.179-1.548-3.2-1.548s-3.2.546-3.2,1.548c0,.958,1.179,1.533,3.2,1.533S586.366,721.346,586.366,720.388Zm-.059-6.913h-2.875v-.988h2.875v-2.8h1.223V717.5h-1.223Z"/><path class="a" d="M601.539,715.833v.988H589.645v-.988h4.879V713.3h1.209v2.535Zm-1.384,4.629c0,1.488-1.8,2.417-4.615,2.417s-4.6-.929-4.6-2.417c0-1.533,1.783-2.433,4.6-2.433S600.155,718.929,600.155,720.462Zm-1.3-9.139h-7.813v-.973h9.006v1.121a12.249,12.249,0,0,1-.369,3.493l-1.179-.133a11.97,11.97,0,0,0,.355-3.36Zm.088,9.139c0-.943-1.326-1.5-3.406-1.5-2.063,0-3.389.561-3.389,1.5s1.326,1.474,3.389,1.474C597.62,721.936,598.946,721.405,598.946,720.462Z"/><path class="a" d="M602.681,719a61.761,61.761,0,0,0,8.608-.456l.1.9a48.561,48.561,0,0,1-8.564.576Zm7.739-5.247c0,1.843-1.474,3.11-3.539,3.11-2.049,0-3.537-1.267-3.537-3.11s1.488-3.11,3.537-3.11C608.946,710.645,610.42,711.912,610.42,713.755Zm-5.9,0a2.377,2.377,0,1,0,2.357-2.078A2.143,2.143,0,0,0,604.524,713.755Zm8.844-4.083v13.251h-1.209V709.672Z"/><path class="a" d="M625.182,710.32c0,3.346-2.344,5.5-6.235,6.368l-.443-.972c3.362-.723,5.174-2.271,5.366-4.408h-4.7v-.988Zm4.393,11.483v.958H620.6v-3.39h7.326v-1.356h-7.355v-.958h8.563v3.213h-7.325V721.8Zm-.443-5.38h-1.208v-6.751h1.208Z"/><path class="a" d="M631.512,708.861H633.1v1.621c-.016,1.033-.4,2.109-1.578,2.109v-.723a.522.522,0,0,0,.414-.133c.221-.162.427-.5.412-1.253h-.84Zm2.358,0h1.591v1.621c-.013,1.033-.4,2.109-1.576,2.109v-.723a.515.515,0,0,0,.412-.133c.221-.162.428-.5.413-1.253h-.84Z"/><path class="a" d="M527.748,734.2H523.8l-1.047,3.3h-1.384l3.67-10.8h1.517l3.67,10.8H528.78Zm-.339-1.091-.516-1.651c-.4-1.238-.738-2.4-1.092-3.655h-.058c-.339,1.3-.678,2.417-1.077,3.655l-.53,1.651Z"/><path class="a" d="M531.157,726.7h2.712c3.4,0,5.1,1.843,5.1,5.366,0,3.419-1.8,5.439-5.041,5.439h-2.771Zm2.593,9.685c2.551,0,3.8-1.593,3.8-4.319,0-2.787-1.193-4.26-3.8-4.26h-1.222v8.579Z"/><path class="a" d="M540.7,726.7h1.371v4.526h5.041V726.7h1.356v10.8H547.11v-5.1h-5.041v5.1H540.7Z"/><path class="a" d="M556.151,737.5a3.793,3.793,0,0,1-1.313.191c-2.712,0-4.613-2.152-4.613-5.63s1.9-5.572,4.613-5.572,4.614,2.108,4.614,5.572a5.777,5.777,0,0,1-2.108,4.878l2.123,2.462h-1.783Zm1.9-5.439c0-2.712-1.267-4.378-3.213-4.378s-3.213,1.666-3.213,4.378,1.268,4.436,3.213,4.436S558.051,734.758,558.051,732.061Z"/><path class="a" d="M567.254,726.784a9.926,9.926,0,0,1-6,9.3l-.664-.943c3.435-1.725,5.189-4.172,5.469-7.356h-4.85v-1Zm5.543,4.952h-2.123v6.855h-1.209V725.369h1.209v5.365H572.8Z"/><path class="a" d="M588.178,730.793v.987h-12v-.987Zm-9.271,6.678h8.2v.943h-9.4v-3.243h7.754V733.9h-7.784v-.928h8.993v3.1h-7.754Zm7.871-7.975H577.8v-3.935H579v2.962h7.782Z"/><path class="a" d="M599.727,727.742h-7.8v-.973h3.287v-1.518h1.209v1.518h3.3Zm-3.906,5.365c-1.887,0-3.155-.914-3.155-2.343,0-1.459,1.268-2.359,3.155-2.359s3.17.9,3.17,2.359C598.991,732.193,597.707,733.107,595.821,733.107Zm0-.9c1.238,0,2.019-.56,2.019-1.444s-.781-1.445-2.019-1.445-2,.56-2,1.445S594.582,732.208,595.821,732.208Zm-1.975,1.872h8.3v4.334h-8.3Zm1.18,3.36h5.925v-2.4h-5.925Zm9.079-7.546h-1.96v3.434h-1.209v-7.944h1.209v3.508h1.96Z"/><path class="a" d="M608.106,726.946c0,2.83-.369,5.94-2.27,8.505l-.943-.531a11.4,11.4,0,0,0,2.182-6.986h-1.9v-.988Zm4.437-1.238h1.135v12.2h-1.135v-6.367H610.7a11.587,11.587,0,0,1-1.93,4.761l-.943-.545c1.8-2.344,2.107-5.351,2.151-7.827h-1.43v-.988h2.476a28.453,28.453,0,0,1-.176,3.612h1.7Zm3.6-.339v13.207H614.99V725.369Z"/><path class="a" d="M625.683,727.7h-7.8v-.972h3.287v-1.489h1.209v1.489h3.3Zm-3.906,5.248c-1.887,0-3.154-.9-3.154-2.314s1.267-2.3,3.154-2.3,3.169.9,3.169,2.3S623.664,732.945,621.777,732.945Zm0-.914c1.238,0,2.019-.515,2.019-1.4s-.781-1.4-2.019-1.4-2.005.516-2.005,1.4S620.539,732.031,621.777,732.031Zm5.13,1.607H628.1v4.776h-8.312v-4.776h1.193v1.4h5.926Zm0,2.343h-5.926v1.459h5.926Zm3.154-6.235H628.1v3.3h-1.209v-7.679H628.1v3.36h1.961Z"/><path class="a" d="M632.853,734.139a30,30,0,0,0,6.235-.619l.133,1.032a31.457,31.457,0,0,1-6.486.619h-1.091v-8.52h1.209Zm8.8-8.77v13.207h-1.209V725.369Z"/><path class="a" d="M645.565,734.286a30.708,30.708,0,0,0,5.955-.442l.133,1a30.358,30.358,0,0,1-6.25.471h-1.047v-8.681H650.5v1h-4.937Zm10.584-2.7h-2.182v7.031h-1.209V725.369h1.209v5.218h2.182Z"/><g class="b"><path d="M540.172,683.428c-2.167,4.667-7.687,10.2-14.4,14.433a58.234,58.234,0,0,1-28.14,8.932H497.3a14.83,14.83,0,0,1-5.491-1.01l-.029-.01-.03-.01c-.029-.019-3.294-1.245-3.529-4.382-.02-.265-.039-.481-.049-.657h.01c.245.451.549,1.019.921,1.568l.108.157c.922,1.4,2.2,3.324,7.3,3.324a41.482,41.482,0,0,0,8.569-1.137c9.4-2.069,31.787-12.6,33.473-22.178.5-2.873-.892-5.383-4.147-7.452a39.906,39.906,0,0,0-12.972-5.255l-.294-.059-.137.265L506,699.322c-.715,1.559-1.666,2.921-2.049,2.921-.01,0-.049-.039-.068-.068-.608-.843.117-2.334.451-2.844l.009-.019.02-.02,8.7-17.9,5.9-11.57.245-.48-.539-.078a42.66,42.66,0,0,0-6.324-.461c-6.834,0-12.472,1.666-13.854,3.235a2.213,2.213,0,0,0-.637,2.687,1.154,1.154,0,0,1,.1.882c-.01.02-.039.059-.147.059s-.559-.059-1.324-.824a1.91,1.91,0,0,1-.627-1.559c.107-.951,1-2.019,2.451-2.931,1.951-1.236,7.628-3.2,14.54-3.2a36.548,36.548,0,0,1,7.4.754l.362.079.1-.363c.285-1.059,1.01-2.843,1.716-3.137a2.347,2.347,0,0,1,.873-.216.458.458,0,0,1,.353.118c.039.049.127.245-.1.8a8.236,8.236,0,0,1-.569,1.088c-.4.667-.735,1.235-.48,1.755a1.593,1.593,0,0,0,1.323.608c2.128.186,12.433,4.108,16.737,9.755C541.338,679.418,541.2,681.2,540.172,683.428Z"/><path d="M546.976,687.5c-.716,1.245-4.687,6.844-4.716,6.883-.216.275-2.108,2.736-1.833,4.147a.907.907,0,0,1-.216.706.808.808,0,0,1-.608.324c-.549,0-1.069-.726-1.392-1.932a2.212,2.212,0,0,1,.6-1.725c.186-.236.51-.559.912-.961a27.642,27.642,0,0,0,6.128-8.471l.009-.039.01-.03c.02-.059.383-1.422,1.52-1.471h.049c.255,0,.294.079.314.108C547.907,685.3,547.721,686.183,546.976,687.5Z"/><path d="M555.879,679.144s-.089.078-.432.078a5.275,5.275,0,0,1-1.176-.176,5.278,5.278,0,0,0-1.128-.108,26.512,26.512,0,0,0-5.049.755c-.3.068-.539.117-.667.147a5.928,5.928,0,0,1-.922.1c-.441,0-.588-.108-.637-.167a.4.4,0,0,1-.049-.343.975.975,0,0,1,.971-.882c.461-.03,4.53-.314,5.667-.824a3.334,3.334,0,0,1,1.333-.314,2.107,2.107,0,0,1,1.824,1.079C555.918,678.977,555.879,679.144,555.879,679.144Z"/><path d="M567.183,687.448a4,4,0,0,1-1.088.1h-.48c-6.069,0-11.413,5.932-12.57,7.981-.716,1.265-1.441,1.932-2.1,1.932a1.037,1.037,0,0,1-.441-.1,1.065,1.065,0,0,1-.559-1.02.979.979,0,0,1,.716-.922c1.647-.578,3.029-4.775,2.372-7.255a7.282,7.282,0,0,0-.911-2.059c-.4-.657-.451-.726.019-1.167a.826.826,0,0,1,.559-.265c.422,0,.833.461.99.7a20.252,20.252,0,0,1,.481,2.647A3.2,3.2,0,0,0,555,690.3a.942.942,0,0,0,.647.216c1.01,0,2.716-1.245,4.52-2.569.54-.4,1.089-.794,1.589-1.147a3.026,3.026,0,0,1,1.7-.4A7.163,7.163,0,0,1,567.183,687.448Z"/><path d="M574.3,694.822a19.63,19.63,0,0,1-7.55,2.04c-.2,0-.4-.01-.59-.02-2.03-.16-3.25-.69-3.26-1.43,0-.39.3-.9,1.79-1.06.08,0,6.41-.37,8.01-5.39a1.558,1.558,0,0,0,.01-1.27,1.333,1.333,0,0,0-1.04-.34c-2.95,0-9.39,3.69-10.13,5.82l-.03.09-.06.06a1.594,1.594,0,0,1-1.09.36,3.062,3.062,0,0,1-1.22-.28.412.412,0,0,0-.19-.05.493.493,0,0,0-.01.32,3.764,3.764,0,0,0,1.63,2.21,8.7,8.7,0,0,1,.86.67,6.124,6.124,0,0,0,4.43,1.8c2.14,0,4.89-.82,8.42-2.5a4.149,4.149,0,0,0,1.27-.8A3.8,3.8,0,0,0,574.3,694.822Zm-3.97-5.79h.01a1.226,1.226,0,0,1,.84.53.175.175,0,0,1,.04.05.961.961,0,0,1,.11.43.5.5,0,0,1-.02.17c-.11.68-.88,1.39-2.06,1.9-2.58,1.52-4.39.71-4.39.71C567.2,688.522,569.3,688.612,570.331,689.032Z"/><path d="M595.166,690.821a.629.629,0,0,1-.137.3c-.716,1.1-6.883,3.461-10.629,4.7a18.751,18.751,0,0,1-3.176.285c-1.667,0-3.785-.275-4.393-1.608-1.137-2.481,1.373-4.138,1.481-4.206l4.775-3.079.029-.01.02-.02c.9-.764,2.637-1.99,3.431-1.99.138,0,.285,0,.294.412.069,1.941-2.215,2.177-2.313,2.186l-.089.01-.068.039-.265.147c-2.834,1.55-5.579,3.187-5.432,4.6.059.559.53.971,1.4,1.235a5.308,5.308,0,0,0,1.579.2c4.049,0,10.893-2.8,11.452-3.029a7.467,7.467,0,0,1,1.549-.226A1.539,1.539,0,0,1,595.166,690.821Z"/><path d="M635.718,676.643c0,.01-.059.226-.755.579-2.128,1.059-3.775,1.4-26.9,2.226-1.539.049-2.981.1-4.343.137l-.206.01-.118.166a66.448,66.448,0,0,0-3.53,5.9c-2.588,5.343-3.333,8.765-2.284,10.442a2.592,2.592,0,0,0,2.382,1.127c1.589,0,3.8-.755,6.795-2.324a7.291,7.291,0,0,1,2.922-1.215.686.686,0,0,1,.382.088c.01.01.02.02.03.02-.108.451-2.04,1.559-2.785,1.98q-.309.177-.559.324c-.137.078-.333.206-.578.362-1.549.991-5.187,3.295-7.726,3.295a2.237,2.237,0,0,1-2.383-1.8c-.716-2.53-.372-7.658,5.3-17.717l.343-.6-.686.019c-3.383.079-6.383.128-8.913.128-9.118,0-10.628-.569-11.265-.8a.688.688,0,0,1-.491-.745c.049-.295.334-.461.765-.461a2.564,2.564,0,0,1,.833.157c1.1.382,3.648.568,7.56.568,2.186,0,3.99-.059,4-.059,2.765-.068,5.746-.137,8.8-.205h.215l.108-.187a183.164,183.164,0,0,1,14.58-20.335l.019-.019.02-.03c.186-.323.735-.99,1.186-.99a.572.572,0,0,1,.344.137.315.315,0,0,1,.137.265c.029.53-.736,1.441-1.216,1.883l-.029.029-.03.039c-.068.1-7.52,10.54-12.8,18.541l-.411.618.745-.01c16.472-.353,27.365-.638,28.619-1.324a2.659,2.659,0,0,1,1.275-.333A1.625,1.625,0,0,1,635.718,676.643Z"/><path d="M614.5,691.752c-.236,3.1.1,3.863.264,4.138a.714.714,0,0,1-.176.02,1.218,1.218,0,0,1-.892-.491c-.471-.559-1.187-2.039-.618-5.686.02-.118.3-1.079,1.726-1.079h.137c.372.02.49.1.51.128s.019.2-.187.509A5.54,5.54,0,0,0,614.5,691.752Z"/><path d="M619.334,685.556c-.245.392-1.372.922-3.6.922-.294,0-.6-.01-.921-.02-1.8-.108-2.834-1.01-2.9-1.481-.01-.058-.019-.156.216-.245a.8.8,0,0,1,.3-.059,1.009,1.009,0,0,1,.529.157,4.3,4.3,0,0,0,2.3.53c.265,0,.55-.01.844-.039a12.918,12.918,0,0,1,1.333-.069A3.7,3.7,0,0,1,619.334,685.556Z"/><path d="M668.021,688.072l-.03.02-.03.01c-.17.06-17.26,6.43-22.09,8.54a6.86,6.86,0,0,1-2.56.7,1.445,1.445,0,0,1-1.3-.59,2.644,2.644,0,0,1,.06-2.21c1.45-2.63,3.04-6.69,2.08-7.53a1.143,1.143,0,0,0-.78-.25c-1.15,0-2.8,1.01-4.13,1.82a12.831,12.831,0,0,1-1.73.97,1.642,1.642,0,0,1-.64.14,1.857,1.857,0,0,1-1.58-1.06,2.908,2.908,0,0,1-.37-1.94c-.07-.18-1.15-.97-3.65-.97a13.073,13.073,0,0,0-2.11.18c-7.47,1.19-7.91,6.92-7.93,7.16a2.519,2.519,0,0,0,1.84,2.69,2.553,2.553,0,0,0,.84.14,4.32,4.32,0,0,0,3.32-1.85,1.983,1.983,0,0,0,.29-1.86,3.561,3.561,0,0,1,.02-3.33,3.024,3.024,0,0,1,2.75-1.2,8.435,8.435,0,0,1,1.64.19c1.78.35,2.71.88,2.85,1.63.15.81-.71,1.41-.81,1.47-2.21,1.64-5.64,4.76-5.3,6.06.15.59.4.59.49.59a2.608,2.608,0,0,0,1.36-.81c.21-.21,4.95-4.65,8.35-6.51a4.771,4.771,0,0,1,2.01-.73.824.824,0,0,1,.77.39c.33.55-.08,1.42-.17,1.59l-.02.02-.01.02a9.441,9.441,0,0,0-1.23,6.63,1.749,1.749,0,0,0,1.98,1.54,11.433,11.433,0,0,0,4.53-1.48l20.54-9.32a10.488,10.488,0,0,0,1.59-1.22A3.8,3.8,0,0,0,668.021,688.072Zm-41.58,3.67a2.908,2.908,0,0,1-2.22,1.59,2.821,2.821,0,0,1-.29-.02.937.937,0,0,1-.74-.54c-.23-.5-.03-1.24.6-2.28a2.665,2.665,0,0,1,1.28-1.1,1.566,1.566,0,0,1,.64-.15,1.06,1.06,0,0,1,1.05.99A2.052,2.052,0,0,1,626.441,691.742Z"/></g></g></svg>