<svg xmlns="http://www.w3.org/2000/svg" width="220.628" height="82.259" viewBox="0 0 220.628 82.259"><defs><style>.a{fill:#222021;}</style></defs><g transform="translate(-1001.968 -310.518)"><path class="a" d="M1019.443,366.777h-1.592v-1.621a2.081,2.081,0,0,1,.8-1.9,1.679,1.679,0,0,1,.781-.206v.707c-.707,0-.84.855-.84,1.4h.855Zm2.358,0h-1.592v-1.621a2.086,2.086,0,0,1,.8-1.9,1.685,1.685,0,0,1,.782-.206v.707c-.708,0-.841.855-.841,1.4h.855Z"/><path class="a" d="M1035.01,374.221v.987h-11.953v-.987Zm-2.681-5.381c.013-.339.029-.692.029-1.031v-1.651h-7.887v-.988h9.066v1.622a26.872,26.872,0,0,1-.576,6.456l-1.178-.118a23.8,23.8,0,0,0,.5-3.376l-7.975.443-.176-1Z"/><path class="a" d="M1037.995,372.865a40.353,40.353,0,0,0,6.426-.472l.118.987a38.353,38.353,0,0,1-6.662.487h-1.091V368.8h4.865V366.04h-4.909v-.988h6.131v4.732h-4.878Zm8.873-9.051v13.251h-1.208V363.814Z"/><path class="a" d="M1056.456,364.124h1.149V376.4h-1.149v-6.441h-1.667c-.117,2.594-1.178,4.186-2.8,4.186-1.725,0-2.83-1.769-2.83-4.628,0-2.831,1.1-4.584,2.83-4.584,1.592,0,2.638,1.547,2.8,4.038h1.667Zm-2.756,5.4c0-2.123-.694-3.464-1.711-3.464-1.061,0-1.725,1.341-1.725,3.464,0,2.2.664,3.508,1.725,3.508S1053.7,371.715,1053.7,369.519Zm6.529-5.69v13.222h-1.15V363.829Z"/><path class="a" d="M1069.182,369.459c0,2.816-1.4,4.614-3.36,4.614s-3.361-1.8-3.361-4.614,1.4-4.613,3.361-4.613S1069.182,366.645,1069.182,369.459Zm-5.571,0c0,2.153.913,3.538,2.211,3.538,1.282,0,2.2-1.385,2.2-3.538,0-2.137-.914-3.522-2.2-3.522C1064.524,365.937,1063.611,367.322,1063.611,369.459Zm9.182-5.63V377.08h-1.209V363.829Z"/><path class="a" d="M1076.987,372.879a32.335,32.335,0,0,0,6.087-.442l.118.988a35.208,35.208,0,0,1-6.354.442h-1.046v-8.844h6.412v.987h-5.217v2.727h4.73v.973h-4.73Zm8.814-9.05v13.207h-1.209V363.829Z"/><path class="a" d="M1099.913,374.294v1H1087.93v-1Zm-9.374-9.507V367.2h6.75v-2.418h1.18v6.883h-9.125v-6.883Zm0,5.9h6.75v-2.506h-6.75Z"/><path class="a" d="M1110.313,364.816c0,3.361-2.344,5.823-6.176,6.958l-.486-.973c3.138-.944,5.114-2.712,5.349-5.011h-4.79v-.974Zm3.728,9.655c0,1.592-1.694,2.565-4.3,2.565s-4.305-.973-4.305-2.565,1.7-2.565,4.305-2.565S1114.041,372.879,1114.041,374.471Zm-1.193,0c0-1.017-1.209-1.621-3.109-1.621s-3.112.6-3.112,1.621,1.209,1.607,3.112,1.607S1112.848,375.474,1112.848,374.471Zm2.992-7.222v1h-1.961v3.478h-1.208v-7.9h1.208v3.42Z"/><path class="a" d="M1128.6,374.338v.988h-12v-.988h5.336v-3.213h1.209v3.213Zm-1.106-3.05a7.235,7.235,0,0,1-4.952-3.685,7.164,7.164,0,0,1-4.953,3.685l-.5-1c2.315-.4,4.821-2.358,4.821-4.555v-1.017h1.267v1.017c0,2.2,2.522,4.157,4.835,4.555Z"/><path class="a" d="M1136.164,370.167v2.417h3.936v4.452h-1.209v-3.479h-8.047v-.973h4.112v-2.417h-5.379v-.987h8.9a15.735,15.735,0,0,0,.353-3.744h-7.723v-.973h8.918v.958a16.391,16.391,0,0,1-.324,3.759h1.872v.987Z"/><path class="a" d="M1142.8,363.018h1.592v1.622c-.015,1.031-.4,2.108-1.577,2.108v-.723a.522.522,0,0,0,.413-.132c.221-.163.427-.5.413-1.253h-.841Zm2.359,0h1.591v1.622c-.014,1.031-.4,2.108-1.577,2.108v-.723a.521.521,0,0,0,.413-.132c.221-.163.428-.5.412-1.253h-.839Z"/><path class="a" d="M1030.1,384.184a3.274,3.274,0,1,1,.016-.988h2.681v-3.67h1.225v9.743H1032.8v-5.085Zm-3.36,1.68a2.145,2.145,0,0,0,2.255-2.2,2.255,2.255,0,0,0-4.51,0A2.144,2.144,0,0,0,1026.742,385.864Zm7.649,5.6v.988h-8.828V388.3h1.223v3.169Z"/><path class="a" d="M1039.985,383.255a6.408,6.408,0,0,0,2.815,5.631l-.737.884a6.143,6.143,0,0,1-2.652-3.862,6.762,6.762,0,0,1-2.728,4.186l-.737-.9c1.857-1.105,2.875-3.508,2.875-5.94v-1.194h-2.506v-.988h6.028v.988h-2.358Zm3.537-3.435h1.15v12.235h-1.15V385.26h-2.182v-.988h2.182Zm3.818-.309v13.222h-1.164V379.511Z"/><path class="a" d="M1050.811,388.384a30.174,30.174,0,0,0,6-.589l.148,1a30.87,30.87,0,0,1-6.294.6h-1.046v-8.593h1.194Zm10.568-2.579h-2.123v6.943h-1.209V379.526h1.209V384.8h2.123Z"/><path class="a" d="M1076.746,389.917v.988h-11.955v-.988Zm-2.683-5.38c.015-.339.029-.692.029-1.032v-1.651h-7.886v-.987h9.066v1.621a26.865,26.865,0,0,1-.575,6.456l-1.179-.117a23.632,23.632,0,0,0,.5-3.376l-7.974.443-.176-1Z"/><path class="a" d="M1079.729,388.562a40.494,40.494,0,0,0,6.428-.472l.117.987a38.352,38.352,0,0,1-6.662.486h-1.091v-5.07h4.864v-2.756h-4.908v-.988h6.131v4.731h-4.879Zm8.874-9.051v13.251H1087.4V379.511Z"/><path class="a" d="M1098.19,379.82h1.15V392.1h-1.15v-6.441h-1.665c-.118,2.594-1.179,4.186-2.8,4.186-1.725,0-2.83-1.769-2.83-4.629,0-2.83,1.1-4.584,2.83-4.584,1.592,0,2.639,1.548,2.8,4.039h1.665Zm-2.756,5.395c0-2.122-.693-3.464-1.71-3.464-1.061,0-1.725,1.342-1.725,3.464,0,2.2.664,3.509,1.725,3.509S1095.434,387.412,1095.434,385.215Zm6.529-5.689v13.222h-1.149V379.526Z"/><path class="a" d="M1110.917,385.156c0,2.816-1.4,4.614-3.36,4.614s-3.361-1.8-3.361-4.614,1.4-4.613,3.361-4.613S1110.917,382.341,1110.917,385.156Zm-5.571,0c0,2.153.913,3.538,2.211,3.538,1.281,0,2.195-1.385,2.195-3.538,0-2.137-.914-3.522-2.195-3.522C1106.259,381.634,1105.346,383.019,1105.346,385.156Zm9.183-5.63v13.251h-1.209V379.526Z"/><path class="a" d="M1118.721,388.576a32.343,32.343,0,0,0,6.088-.442l.117.988a35.194,35.194,0,0,1-6.352.441h-1.046V380.72h6.411v.987h-5.218v2.727h4.732v.973h-4.732Zm8.815-9.05v13.207h-1.209V379.526Z"/><path class="a" d="M1141.648,389.991v1h-11.984v-1Zm-9.374-9.507V382.9h6.75v-2.417h1.18v6.883h-9.124v-6.883Zm0,5.9h6.75v-2.506h-6.75Z"/><path class="a" d="M1154.641,390.124v.987h-12.014v-.987h5.38v-2.491h-3.876V383.55h7.842v-2.064H1144.1V380.5h9.05v4.023h-7.827v2.138h8.136v.973h-4.23v2.491Z"/><path class="a" d="M1170.288,385.834v.988h-11.955v-.988Zm-1.151-1.046a6.73,6.73,0,0,1-4.819-2.889,6.659,6.659,0,0,1-4.835,2.889l-.442-.943c2.358-.354,4.658-1.769,4.658-3.509v-.589h1.238v.589c0,1.681,2.313,3.155,4.657,3.509Zm-.308,5.6c0,1.518-1.7,2.359-4.511,2.359s-4.54-.841-4.54-2.359c0-1.489,1.71-2.344,4.54-2.344C1167.192,388.045,1168.829,388.856,1168.829,390.389Zm-1.224,0c0-.9-1.208-1.415-3.287-1.415-2.138,0-3.317.516-3.317,1.415,0,.944,1.179,1.415,3.317,1.415C1166.4,391.8,1167.6,391.333,1167.6,390.389Z"/><path class="a" d="M1183.294,388.34h-5.424v4.422h-1.208V388.34H1171.3v-.973h12Zm-1.518-2.565h-8.961v-5.719h1.193v1.813h6.56v-1.813h1.208Zm-1.208-2.933h-6.56v1.946h6.56Z"/><path class="a" d="M1192.13,381.854h-7.8v-.972h3.288v-1.489h1.209v1.489h3.3Zm-3.906,5.248c-1.887,0-3.154-.9-3.154-2.314,0-1.4,1.267-2.3,3.154-2.3s3.169.9,3.169,2.3C1191.393,386.2,1190.111,387.1,1188.224,387.1Zm0-.914c1.238,0,2.02-.516,2.02-1.4s-.782-1.4-2.02-1.4-2.005.515-2.005,1.4S1186.986,386.188,1188.224,386.188Zm5.13,1.607h1.193v4.776h-8.312V387.8h1.193v1.4h5.926Zm0,2.344h-5.926V391.6h5.926Zm3.154-6.236h-1.961v3.3h-1.209v-7.679h1.209v3.36h1.961Z"/><path class="a" d="M1199.3,388.3a30.01,30.01,0,0,0,6.236-.619l.132,1.032a31.388,31.388,0,0,1-6.486.619h-1.091v-8.52h1.209Zm8.8-8.77v13.207h-1.209V379.526Z"/><path class="a" d="M1212.012,388.443a30.7,30.7,0,0,0,5.955-.442l.133,1a30.28,30.28,0,0,1-6.25.472H1210.8v-8.682h6.147v1h-4.938Zm10.584-2.7h-2.182v7.031h-1.208V379.526h1.208v5.218h2.182Z"/><path d="M1047.454,319.35c-.78-.89-2.911,2.8-2.911,2.8s-7.49,11.52-7.71,13.19a1.451,1.451,0,0,1-1.9,1.23A60.787,60.787,0,0,0,1012,337.85a13.292,13.292,0,0,0-2.96,1.12c-1.5.78-4.029,1.73-3.639-1.05.56-3.92,14.09-20.69,14.09-20.69s6.94-6.83,5.15-6.71-5.371,5.14-5.371,5.14-15.77,17-16.779,25.39-.441,10.29.559,10.4,1.73-3.58,1.51-6.82a3.309,3.309,0,0,1,2.82-3.45,11.43,11.43,0,0,0,1.65-.57c8.01-3.55,17.891-3.04,21.871-3.25,4.139-.23,3.469,2.12,3.469,2.12s-4.629,9.88-5.59,12.86c-1.65,5.12,1.45,14.1,1.56,5.26a36.55,36.55,0,0,1,4.591-16.33s1.669-4.36,4.47-3.58,4.36-3.91,5.929-7.94S1048.244,320.25,1047.454,319.35Zm-2.631,8.16c-.669,1.26-2.849,9.4-5.619,8.81-2.3-.49,1.77-6.29,3.21-8.25a14.154,14.154,0,0,0,.85-1.31c.539-.96,1.529-2.6,2.069-2.6C1046.083,324.16,1045.5,326.26,1044.823,327.51Z"/><path d="M1048.664,344.88a10.8,10.8,0,0,1,2.53-.37,38.463,38.463,0,0,0,4.679-.65,4.325,4.325,0,0,0,2.341-1.01,2.814,2.814,0,0,0-.32-3.89,4.24,4.24,0,0,0-4.13-.63,9,9,0,0,0-3.531,2.5,16.882,16.882,0,0,1-2.69,2.59,3.769,3.769,0,0,1-3.549.53c-.461-.21-.85-.54-1.32-.72a1.236,1.236,0,0,0-1.391.2c-.48.59.05,1.46.631,1.95,1.209,1.03,2.819,1.81,3.3,3.33.19.58.18,1.22.389,1.8a3.263,3.263,0,0,0,2.02,1.78,9.644,9.644,0,0,0,2.73.39c1.94.09,4.081.12,5.561-1.13a.713.713,0,0,0,.26-.33.56.56,0,0,0-.4-.65,1.7,1.7,0,0,0-.839-.01,15.765,15.765,0,0,1-6.49-.04,2.717,2.717,0,0,1-1.621-.96,2.773,2.773,0,0,1,.1-3.42A3.087,3.087,0,0,1,1048.664,344.88Zm3.55-2.82a3.159,3.159,0,0,1,1.149-1.2,4.871,4.871,0,0,1,1.531-.72,4.445,4.445,0,0,1,1.919-.1.638.638,0,0,1,.29.11.649.649,0,0,1,.19.42,1.89,1.89,0,0,1,.06.82,1.287,1.287,0,0,1-.73.82,4.057,4.057,0,0,1-1.09.28,11.856,11.856,0,0,1-2.059.19C1053.093,342.67,1051.994,342.7,1052.214,342.06Z"/><path d="M1103.954,327.82a6.843,6.843,0,0,0,.5-4.21.58.58,0,0,0-.161-.31c-.339-.32-.8.23-.94.68-1.47,4.52-4.339,8.43-7.149,12.25a6.151,6.151,0,0,1-2.25,2.14,7.632,7.632,0,0,1-1.96.43,16.031,16.031,0,0,0-9.141,4.67c-.77.79-1.449,1.67-2.28,2.39a17.193,17.193,0,0,1-5.71,2.85,4.561,4.561,0,0,1-1.74.37,1.591,1.591,0,0,1-1.429-.91c-.28-.76.28-1.56.889-2.1.67-.6,1.44-1.09,2.071-1.74a3.175,3.175,0,0,0,1.03-2.41,2.952,2.952,0,0,0-2.3-2.32,6.352,6.352,0,0,0-2.13-.1c-.339.04-.68.11-1.02.12-.21,0-.41-.04-.61-.02a10.946,10.946,0,0,0-1.939.62c-.67.23-1.321.48-1.96.75a16.739,16.739,0,0,0-2.08,1.04,10.082,10.082,0,0,0-4.47,4.86c-.541,1.38-.47,3.3.869,3.94a2.961,2.961,0,0,0,1.641.17c2.669-.36,4.849-2.28,7.379-3.21.06,1.2.111,2.39.17,3.59a1.523,1.523,0,0,0,.451,1.22,1.39,1.39,0,0,0,.97.14c4.2-.46,7.79-3.14,11.149-5.71a2.327,2.327,0,0,0,.691,2.51,4.679,4.679,0,0,0,2.52,1.04,9.593,9.593,0,0,0,6.029-1.16c1.08-.62,2.03-1.44,3.07-2.1a7.406,7.406,0,0,1,1.031-.26,10.955,10.955,0,0,0,1.7-.37,2.223,2.223,0,0,0,1.351-1.04.593.593,0,0,0,.059-.53.315.315,0,0,0-.049-.08,1.016,1.016,0,0,0,.179-.18,2.856,2.856,0,0,1-.27.1.948.948,0,0,0-.649-.09,19.491,19.491,0,0,0-2.981.85,1.406,1.406,0,0,1-.219.07c-.221.02-.441.03-.661.04-.04-.01-.08-.03-.12-.04a.517.517,0,0,1-.21-.17,2.684,2.684,0,0,1-.04-.55c.011-.04.02-.08.031-.12l-.031.03a7.332,7.332,0,0,1,1.65-3.82C1098.014,336.76,1102,332.85,1103.954,327.82Zm-41.7,19.87a1.068,1.068,0,0,1-.43-.12.95.95,0,0,1-.32-.99,4.44,4.44,0,0,1,1.85-2.73,10.44,10.44,0,0,1,2.75-1.57,11.061,11.061,0,0,1,5.4-.65c.56.07,1.12.22,1.32.81a2.079,2.079,0,0,1-.889,2.21A12.489,12.489,0,0,1,1062.253,347.69Zm29.58-4.34a3.635,3.635,0,0,1-.159.99,3.089,3.089,0,0,1-.571.93,9.457,9.457,0,0,1-4.87,3.15,2.523,2.523,0,0,1-1.059.1,1.072,1.072,0,0,1-.831-.6,1.463,1.463,0,0,1,.04-.9,8.671,8.671,0,0,1,5.68-5.92,2.88,2.88,0,0,1,1.01-.15c.421.03.841.19.881.65A9.3,9.3,0,0,1,1091.833,343.35Z"/><path d="M1151.714,340.47l.089.09a.372.372,0,0,0,.111-.04C1151.783,340.49,1151.714,340.47,1151.714,340.47Z"/><path d="M1162.573,336.59a2.341,2.341,0,0,0-.28.07,13,13,0,0,0-6.329,3.65c0,.01-.01.01-.01.02l-.03.03c-.01,0-.01,0-.02.01h-.01a8.872,8.872,0,0,1-1.031.2,3.72,3.72,0,0,0-1.429-.29,6.711,6.711,0,0,0-1.52.24.372.372,0,0,1-.111.04,18.569,18.569,0,0,0-4.149,2.33,68.181,68.181,0,0,1-18.18,8.15,1.022,1.022,0,0,1-.951-.06.869.869,0,0,1-.24-.54,6.545,6.545,0,0,1,.06-2.82,7.806,7.806,0,0,1,1.581-3.97c.829-1.2,1.809-2.29,2.579-3.53.59-.94.921-2.09,2.08-2.45a1.9,1.9,0,0,1,1.29.02q5.311-.4,10.65-.32a21.074,21.074,0,0,0,6.73-.54,12.209,12.209,0,0,0-4.63-.6q-6.8,0-13.58.01c.06-1.74,1.27-3.18,2.33-4.55a39.222,39.222,0,0,0,6.3-11.92,7.061,7.061,0,0,0,.449-3.56,3.809,3.809,0,0,0-1.959,2.56,97.035,97.035,0,0,1-6.67,12.15,1.706,1.706,0,0,1-.1.27,11.912,11.912,0,0,1-1.22,2.08c-.561.8-1.551,2.05-2.18,2.8a2.387,2.387,0,0,1-.861.75,2.715,2.715,0,0,1-.979.15c-.69.02-1.381.04-2.061.05a25.6,25.6,0,0,1-3.5.23q-7.243.12-14.49.25a2.278,2.278,0,0,0-1.159.23.755.755,0,0,0-.29,1.02q11.173-.2,22.36-.44c-.62,3.06-3.07,5.43-4.11,8.37a12.484,12.484,0,0,0-.621,4.24,1.594,1.594,0,0,0,1.84,1.73c4.561.52,8.99-1.62,12.841-4.12s7.51-5.44,11.869-6.88c0,0-.069.11-.179.29-.071.13-.171.28-.271.47-.05.09-.11.2-.159.3-1.29,2.4-3.55,7.82,4.22,4.79,9.829-3.83,10.179-9.25,10.179-9.25C1166.783,337.25,1166.783,335.7,1162.573,336.59Zm.191,3.29a44.693,44.693,0,0,1-3.6,3.43.146.146,0,0,0-.041.03c-.129.12-.209.18-.209.18s-3.051,2.85-4.911,1.95a1.187,1.187,0,0,1-.73-.72,1.163,1.163,0,0,1,.371-1.06.01.01,0,0,1,.01-.01,5.229,5.229,0,0,1,.939-.99,31.148,31.148,0,0,1,5.5-3.47.031.031,0,0,0,.02-.01,16.192,16.192,0,0,1,2.49-.96C1164.283,337.77,1163.833,338.69,1162.764,339.88Z"/></g></svg>