<svg xmlns="http://www.w3.org/2000/svg" width="168.98" height="81.976" viewBox="0 0 168.98 81.976"><defs><style>.a{isolation:isolate;}.b{fill:#222021;}</style></defs><g transform="translate(-482.801 -324.884)"><g class="a"><path class="b" d="M503.783,380.079h-1.592v-1.621a2.081,2.081,0,0,1,.8-1.9,1.663,1.663,0,0,1,.781-.206v.707c-.707,0-.84.855-.84,1.4h.855Zm2.358,0h-1.592v-1.621a2.086,2.086,0,0,1,.8-1.9,1.673,1.673,0,0,1,.781-.206v.707c-.708,0-.84.855-.84,1.4h.855Z"/><path class="b" d="M519.336,384.354v.987H507.368v-.987h5.394v-1.416h-3.8v-5.277h1.194v1.666h6.427v-1.666h1.194v5.277h-3.8v1.416Zm-9.213,4.716h7.886v.988h-9.095V386.4h1.209Zm.03-7.105h6.427v-1.694h-6.427Z"/><path class="b" d="M532.342,385.945h-5.424v4.422h-1.209v-4.422h-5.365v-.973h12Zm-1.517-2.565h-8.962v-5.719h1.194v1.814h6.559v-1.814h1.209Zm-1.209-2.933h-6.559v1.946h6.559Z"/><path class="b" d="M535.061,385.989a30.185,30.185,0,0,0,6-.589l.146,1a30.846,30.846,0,0,1-6.293.6h-1.046v-8.593h1.193Zm10.568-2.579h-2.122v6.943H542.3V377.131h1.208v5.277h2.122Z"/><path class="b" d="M550.87,386.4c1.238-.059,2.431-.132,3.566-.3l.1.885a51.173,51.173,0,0,1-8.21.516l-.163-1.017c1.063,0,2.256,0,3.495-.045v-2.284a3.069,3.069,0,0,1-2.905-3.066c0-1.843,1.446-3.11,3.508-3.11a3.2,3.2,0,0,1,3.494,3.11,3.1,3.1,0,0,1-2.888,3.066Zm-.606-3.228a2.1,2.1,0,1,0,0-4.171,2.1,2.1,0,1,0,0,4.171Zm8.315.428h-2.094v6.751h-1.209V377.116h1.209v5.468h2.094Z"/><path class="b" d="M561.016,386.167a28.931,28.931,0,0,0,6.088-.472l.133,1a35.057,35.057,0,0,1-6.354.471h-1.046v-5.055h4.746v-2.771h-4.79v-.988h5.985V383.1h-4.762Zm10.628-2.772h-2.167v6.972h-1.209V377.116h1.209v5.262h2.167Z"/><path class="b" d="M586.982,387.655v1H574.969v-1h5.379V384.9c-2.461-.162-4.2-1.5-4.2-3.434,0-2.108,2.034-3.464,4.819-3.464s4.791,1.356,4.791,3.464c0,1.931-1.724,3.272-4.185,3.434v2.757Zm-6.015-3.685c2.109,0,3.641-.988,3.641-2.506s-1.532-2.506-3.641-2.506-3.654.988-3.654,2.506S578.845,383.97,580.967,383.97Z"/><path class="b" d="M598.854,377.131v13.251h-1.209v-7.37h-3.1v4.024h-6.057v-8.859h1.194v3.435h3.685v-3.435h1.178v3.862h3.1v-4.908Zm-5.483,5.439h-3.685v3.478h3.685Z"/><path class="b" d="M601.189,376.32h1.592v1.621c-.015,1.032-.4,2.108-1.577,2.108v-.722a.523.523,0,0,0,.413-.133c.22-.162.426-.5.413-1.253h-.841Zm2.358,0h1.592v1.621c-.015,1.032-.4,2.108-1.577,2.108v-.722a.522.522,0,0,0,.413-.133c.221-.162.428-.5.412-1.253h-.84Z"/><path class="b" d="M511.17,400.271a3.263,3.263,0,1,1,3.45-3.257A3.235,3.235,0,0,1,511.17,400.271Zm0-1.046a2.212,2.212,0,1,0-2.27-2.211A2.169,2.169,0,0,0,511.17,399.225Zm-.457,5.542h7.606v.987H509.5v-4.186h1.209Zm8.977-7.915v1h-1.961v4.7H516.52v-9.728h1.209v4.024Z"/><path class="b" d="M528.157,399.549a26.849,26.849,0,0,1-5.91.486h-1v-6.411h1.193v5.409a26.7,26.7,0,0,0,5.572-.471Zm3.228,4.009c0,1.577-1.7,2.491-4.407,2.491s-4.407-.914-4.407-2.491c0-1.592,1.7-2.491,4.407-2.491S531.385,401.966,531.385,403.558Zm-1.209,0c0-1-1.178-1.547-3.2-1.547s-3.2.545-3.2,1.547c0,.958,1.178,1.533,3.2,1.533S530.176,404.516,530.176,403.558Zm-.058-5.9H526.4v-.943h3.715v-1.386H526.4v-.943h3.715v-1.562h1.222v8.121h-1.222Z"/><path class="b" d="M537.892,394.95h3.257v.973h-7.8v-.973h3.331v-1.96h1.209Zm2.638,5.115a3.217,3.217,0,1,1-3.228-3.051A3.03,3.03,0,0,1,540.53,400.065Zm-1.149,0A2.071,2.071,0,1,0,537.3,402.1,1.99,1.99,0,0,0,539.381,400.065Zm6.4-.781h-2.166v6.765H542.4V392.842h1.209v5.425h2.166Z"/><path class="b" d="M550.325,396.557a6.466,6.466,0,0,0,2.726,5.424l-.693.943a6.47,6.47,0,0,1-2.61-3.773,6.718,6.718,0,0,1-2.74,4.068l-.752-.914a6.692,6.692,0,0,0,2.9-5.7v-2.52h1.165Zm3.478-3.435h1.135V405.4H553.8v-6.825h-2.181v-1H553.8Zm3.832-.294v13.221h-1.15V392.828Z"/><path class="b" d="M571.379,403.352v1H559.366v-1h2.948v-3.567a3,3,0,0,1-1.769-2.727c0-2.049,2-3.391,4.8-3.391,2.816,0,4.806,1.342,4.806,3.391a2.947,2.947,0,0,1-1.74,2.712v3.582Zm-9.67-6.294c0,1.474,1.519,2.447,3.641,2.447s3.656-.973,3.656-2.447-1.533-2.447-3.656-2.447S561.709,395.584,561.709,397.058Zm1.814,6.294h3.684v-3.11a9.027,9.027,0,0,1-1.857.206,8.051,8.051,0,0,1-1.827-.206Z"/><path class="b" d="M580.717,401.657h-3.951l-1.046,3.3h-1.386l3.67-10.8h1.52l3.67,10.8h-1.446Zm-.34-1.091-.515-1.651c-.4-1.238-.737-2.4-1.09-3.655h-.06c-.339,1.3-.677,2.417-1.075,3.655l-.531,1.651Z"/><path class="b" d="M584.126,394.154h2.712c3.406,0,5.1,1.843,5.1,5.366,0,3.419-1.8,5.438-5.041,5.438h-2.771Zm2.6,9.684c2.549,0,3.8-1.592,3.8-4.318,0-2.787-1.194-4.26-3.8-4.26H585.5v8.578Z"/><path class="b" d="M593.668,394.154h1.371v4.525h5.041v-4.525h1.356v10.8H600.08v-5.1h-5.041v5.1h-1.371Z"/><path class="b" d="M609.12,404.958a3.779,3.779,0,0,1-1.311.192c-2.713,0-4.614-2.152-4.614-5.63s1.9-5.572,4.614-5.572,4.613,2.108,4.613,5.572a5.774,5.774,0,0,1-2.108,4.878l2.122,2.462h-1.783Zm1.9-5.438c0-2.713-1.268-4.378-3.213-4.378s-3.214,1.665-3.214,4.378c0,2.7,1.268,4.436,3.214,4.436S611.022,402.217,611.022,399.52Z"/><path class="b" d="M620.681,396.5c0,1.828-1.46,3.051-3.464,3.051s-3.434-1.223-3.434-3.051c0-1.813,1.444-3.037,3.434-3.037S620.681,394.685,620.681,396.5Zm-5.72,0a2.284,2.284,0,1,0,2.256-2.034A2.065,2.065,0,0,0,614.961,396.5ZM617,400.581V402.2h6.13v-1.621h1.2v5.292H615.8v-5.292Zm0,4.318h6.13v-1.753H617Zm7.325-12.057v7.09h-1.208v-7.09Z"/><path class="b" d="M628.485,401.6a29.987,29.987,0,0,0,6.235-.619l.133,1.032a31.45,31.45,0,0,1-6.485.618h-1.092V394.11h1.209Zm8.8-8.77v13.207h-1.209V392.828Z"/><path class="b" d="M641.2,401.745a30.726,30.726,0,0,0,5.955-.442l.133,1a30.291,30.291,0,0,1-6.25.472h-1.047V394.1h6.146v1H641.2Zm10.583-2.7H649.6v7.031h-1.208V392.828H649.6v5.217h2.182Z"/></g><g class="a"><path d="M549.335,330.747c-9.444,14.044-15.275,24.883-15.275,24.883H522.235c5.42-20.2,3.778-27.675,3.778-27.675a2.2,2.2,0,0,0,2.135-1.314c.492-1.4-1.232-.9-1.232-.9s-18.149,19.3-22.091,23.979-4.681,4.271-4.681,4.271c-7.227-.821-6.324-4.352-9.28-5.748s-2.628-.411-2.628-.411l8.212,11-11.087,14.29s-3.53,5.174-2.3,5.42,1.643-.411,1.643-.411L497.6,361.215s11.333,14.453,16.014,13.879,8.458-17.246,8.458-17.246h11.005l-6.9,9.116c-.163,1.642,1.89.985,1.89.985l2.627-3.531a4.1,4.1,0,0,0,.822,3.284c5.337,3.039,11.332-4.023,13.3-5.83s3.449-7.638.576-8.212-6.653,2.3-9.691,4.6-.575-1.561-.575-1.561,11.086-18.724,12.319-21.187a21.628,21.628,0,0,1,3.284-4.6C550.9,329.433,549.335,330.747,549.335,330.747Zm-51.9,26.773-2.873-3.614s3.038,1.807,4.188,1.807S497.433,357.52,497.433,357.52Zm16.754,14.618a3.983,3.983,0,0,1-2.464.656c-1.23-.182-3.139-.856-5.5-3.613-2.942-3.432-5.793-6.911-7.049-8.454a1.85,1.85,0,0,1-.247-1.943,3.248,3.248,0,0,1,2.779-2.168c2.464-.246.082,1.067,18.231,1.15C519.935,357.766,518.975,368.877,514.187,372.138Zm6.823-17.648a1.456,1.456,0,0,1-1.25,1.213c-2.858.371-10.767,1.145-16.066-.79a.538.538,0,0,1-.238-.834l1.533-1.979,18.724-20.7s.739-.9.657.986C524.3,334.024,521.706,350.171,521.01,354.49Zm18.308,2.661q.3-.255.626-.48c.985-.685,3.62-2.374,4.874-1.78,1.541.73.84,8.906-9.851,12.037a3.228,3.228,0,0,1-1.445.1c-.856-.142-1.867-.685-1.433-2.535a4.938,4.938,0,0,1,1.644-2.642Z"/><path d="M562.438,352.811a4,4,0,0,0-4.124.876s-11.023,10.512-5.767,11.643,10.037-4.708,11.935-6.716S565.212,353.541,562.438,352.811Zm.548,5.439c-1.3,1.339-5.5,6.3-9.088,5.547s4.5-8.267,4.5-8.267a3.3,3.3,0,0,1,3.192-1.153C563.484,354.864,564.281,356.91,562.986,358.25Z"/><path d="M570.358,355.494s.767-1.533,1.752-1.643.165,1.807-1.095,3.121-3.5,4.106-2.408,5.8,7.883-4.215,7.883-4.215,4.982-4.982,5.639-6.023,2.355-1.752,1.807-.547-5.2,6.843-4.489,9.471,5.475-1.314,5.475-1.314,1.532-.985,1.094.11-4.653,3.5-6.35,3.613-2.354-2.847-1.369-5.037c0,0-4.818,4.928-8.705,6.625-2.025.884-2.757-.475-2.994-1.98a5.9,5.9,0,0,1,1.118-4.422Z"/><path d="M576.846,346.843s-1.971-.9-2.135-.082.154,1.517,2.3,1.725c2.546.246,16.835.164,16.835.164s-4.763,8.623-5.091,16.917,13.714-2.874,13.714-2.874.411-1.478-.985-.328-10.348,6.487-10.594,3.613.575-9.28,5.01-17.492c0,0,23.979-.9,29.728-3.367,0,0,1.889-1.15-1.4-.493s-28.579,3.039-27.018,1.643S610.106,325.9,610.106,325.9s.821-2.053-1.314-.328c-1.936,1.563-11.569,17.778-13.349,20.789a1.01,1.01,0,0,1-.842.5C591.631,346.938,577.8,347.283,576.846,346.843Z"/><path d="M621.849,353.988s.411-1.4,1.643-1.4-1.971,4.763-1.971,4.763-1.889,3.531-.657,3.7,3.12.821,7.884-4.763,5.666-4.024,5.666-4.024-4.517,4.434-4.435,10.675c0,0,.329,1.889.9,1.807s-2.3,1.15-2.3-1.724a11.541,11.541,0,0,1,1.232-5.092s.329-1.889-2.956,2.053-6.57,3.367-6.57,3.367-2.628-.328-1.4-3.613Z"/><path d="M640.984,353.249s1.232-1.4,1.806-1.232.411,1.068-1.314,2.546-5.584,5.42-5.584,5.42a1.82,1.82,0,0,0,1.068,2.71c2.135.739,6.077.739,5.748,3.449s-7.144,8.869-22.583,15.439,4.845-3.449,4.845-3.449A65.019,65.019,0,0,0,640,368.36s3.86-4.024-2.956-4.6S636.221,357.93,640.984,353.249Z"/></g></g></svg>