<svg xmlns="http://www.w3.org/2000/svg" width="365.51" height="57.283" viewBox="0 0 365.51 57.283"><defs><style>.a{fill:#1d1d1b;}.b{fill:#de1526;}.c{isolation:isolate;}.d{fill:#222021;}</style></defs><g transform="translate(-709.993 -480.769)"><path class="a" d="M741.679,512.273H730.107l5.9-16.268Zm19.407,22.664s-19.091-52.534-19.1-52.534l-.331-.905-.087-.245H731.113l-.092.241-.331.893-19.8,52.53-.705,1.862-.187.5h11.045l.087-.243.331-.907,5.28-14.558h18.182L750,536.107l.324.922.086.249h11.523l-.173-.495Z"/><path class="a" d="M812.74,514.828A20.365,20.365,0,0,1,810,522.284a11.008,11.008,0,0,1-5.782,4.647,17.491,17.491,0,0,1-5.271.653H788.205V490.949h10.674c5.1,0,8.647,1.516,10.866,4.637,2.319,3.265,3.491,8,3.491,14.072a29.557,29.557,0,0,1-.5,5.17m-12.393-33.574H777.613v56.024h22.67c9.592,0,16.447-4.36,20.386-12.961a37.649,37.649,0,0,0,3.262-15.857c0-7.578-1.888-13.914-5.61-18.833-4.262-5.555-10.306-8.373-17.974-8.373"/><path class="a" d="M886.284,481.254h-8.844v21.715H853.706V481.254H843.12v56.024h10.586V512.66h23.735v24.618h10.593V481.254h-1.75Z"/><path class="a" d="M942.11,522.18c-2.32,3.827-6.029,5.685-11.336,5.685-5.667,0-9.621-1.656-12.077-5.068a22.047,22.047,0,0,1-3.808-13.136c0-6.518,1.477-11.469,4.386-14.713a14.267,14.267,0,0,1,11.234-4.838c4.781,0,8.424,1.584,11.141,4.844,2.743,3.28,4.132,7.729,4.132,13.224a26.558,26.558,0,0,1-3.672,14m8.483-32.153c-4.472-6.143-11.384-9.258-20.546-9.258-8.8,0-15.57,3.382-20.114,10.053a32.274,32.274,0,0,0-5.234,18.464c0,7.9,2.068,14.559,6.143,19.793,4.645,5.527,11.053,8.323,19.069,8.323,8.577,0,15.295-3.179,19.968-9.45,3.925-5.264,5.913-11.926,5.913-19.792,0-7.3-1.749-13.4-5.2-18.133"/><path class="b" d="M939.819,518.661H928.766l16.26,18.559h11.048Z"/><g class="c"><path class="d" d="M984.888,528.389c0,3.685-1.466,6.016-3.647,6.016s-3.647-2.331-3.647-6.016c0-3.76,1.467-6.034,3.647-6.034S984.888,524.629,984.888,528.389Zm-1.786,0c0-2.725-.714-4.211-1.861-4.211s-1.861,1.486-1.861,4.211.714,4.193,1.861,4.193S983.1,531.116,983.1,528.389Zm8.816-7.349V538h-1.841v-8.761H988.14v7.971h-1.823V521.359h1.823v6.3h1.937V521.04Z"/><path class="d" d="M1009.366,534.236v1.6h-15.4v-1.6Zm-1.749-3.628H995.849v-8.084h11.636V524.1h-9.7v4.944h9.831Z"/><path class="d" d="M1019.762,521.359h1.8v15.847h-1.8v-8.14h-1.805c-.15,3.309-1.6,5.339-3.628,5.339-2.18,0-3.647-2.331-3.647-6.034,0-3.722,1.467-6.016,3.647-6.016,2.049,0,3.4,1.937,3.609,5.113h1.824Zm-3.553,7.012c0-2.726-.677-4.193-1.88-4.193s-1.879,1.467-1.879,4.193.675,4.211,1.879,4.211S1016.209,531.1,1016.209,528.371Zm8.8-7.331V538h-1.842V521.04Z"/><path class="d" d="M1036.362,528.258c0,3.684-1.842,6-4.38,6-2.5,0-4.361-2.312-4.361-6,0-3.647,1.861-5.978,4.361-5.978C1034.52,522.28,1036.362,524.611,1036.362,528.258Zm-6.88,0c0,2.726,1,4.267,2.5,4.267s2.519-1.541,2.519-4.267c0-2.651-1.015-4.23-2.519-4.23S1029.482,525.607,1029.482,528.258Zm11.542-7.238v17.032h-1.955V521.02Z"/><path class="d" d="M1050.011,526.434a7.337,7.337,0,0,0,4.286,6.58l-1.034,1.5a7.982,7.982,0,0,1-4.192-4.719,8.165,8.165,0,0,1-4.211,5l-1.071-1.484a7.626,7.626,0,0,0,4.286-6.881v-.977h-3.76V523.9h3.76v-2.52h1.936v2.52h3.685v1.56h-3.685Zm7.576-5.414V538h-1.955V521.02Z"/><path class="d" d="M1075.5,531.6h-3.853v6.43h-1.937V531.6h-3.891v6.43h-1.937V531.6h-3.74v-1.6h11.035c.225-1.052.375-1.993.47-2.839l-9.907.49-.245-1.636,10.246-.357c.056-.752.038-1.429.038-2.106h-9.757v-1.579h11.636v1.561a27.354,27.354,0,0,1-.582,6.466h2.424Z"/></g></g></svg>